<svg xmlns="http://www.w3.org/2000/svg" xmlns:xlink="http://www.w3.org/1999/xlink" contentStyleType="text/css" data-diagram-type="CLASS" height="667.8px" preserveAspectRatio="none" style="width:1983px;height:667px;background:#FFFFFF;" version="1.1" viewBox="0 0 1983 667" width="1983px" zoomAndPan="magnify"><defs/><g><!--cluster Employees Bounded Context--><g class="cluster" data-entity="Employees Bounded Context" data-source-line="1" data-uid="ent0002" id="cluster_Employees Bounded Context"><path d="M5.1,3.6082 L122.3813,3.6082 A2.25,2.25 0 0 1 123.8813,5.1082 L128.0812,18.3809 L1977.3,18.3809 A1.5,1.5 0 0 1 1978.8,19.8809 L1978.8,662.1082 A1.5,1.5 0 0 1 1977.3,663.6082 L5.1,663.6082 A1.5,1.5 0 0 1 3.6,662.1082 L3.6,5.1082 A1.5,1.5 0 0 1 5.1,3.6082" fill="none" style="stroke:#000000;stroke-width:0.9;"/><line style="stroke:#000000;stroke-width:0.9;" x1="3.6" x2="128.0812" y1="18.3809" y2="18.3809"/><text fill="#000000" font-family="sans-serif" font-size="8.4" font-weight="bold" lengthAdjust="spacing" textLength="116.6812" x="6" y="13.8727">Employees Bounded Context</text></g><!--cluster Domain--><g class="cluster" data-entity="Domain" data-source-line="3" data-uid="ent0003" id="cluster_Domain"><path d="M508.5,30.6082 L539.9027,30.6082 A2.25,2.25 0 0 1 541.4027,32.1082 L545.6027,45.3809 L1745.7,45.3809 A1.5,1.5 0 0 1 1747.2,46.8809 L1747.2,647.7082 A1.5,1.5 0 0 1 1745.7,649.2082 L508.5,649.2082 A1.5,1.5 0 0 1 507,647.7082 L507,32.1082 A1.5,1.5 0 0 1 508.5,30.6082" fill="none" style="stroke:#000000;stroke-width:0.9;"/><line style="stroke:#000000;stroke-width:0.9;" x1="507" x2="545.6027" y1="45.3809" y2="45.3809"/><text fill="#000000" font-family="sans-serif" font-size="8.4" font-weight="bold" lengthAdjust="spacing" textLength="30.8027" x="509.4" y="40.8727">Domain</text></g><!--cluster Model--><g class="cluster" data-entity="Model" data-source-line="4" data-uid="ent0004" id="cluster_Model"><path d="M522.9,57.6082 L547.7648,57.6082 A2.25,2.25 0 0 1 549.2648,59.1082 L553.4648,72.3809 L1731.3,72.3809 A1.5,1.5 0 0 1 1732.8,73.8809 L1732.8,633.3082 A1.5,1.5 0 0 1 1731.3,634.8082 L522.9,634.8082 A1.5,1.5 0 0 1 521.4,633.3082 L521.4,59.1082 A1.5,1.5 0 0 1 522.9,57.6082" fill="none" style="stroke:#000000;stroke-width:0.9;"/><line style="stroke:#000000;stroke-width:0.9;" x1="521.4" x2="553.4648" y1="72.3809" y2="72.3809"/><text fill="#000000" font-family="sans-serif" font-size="8.4" font-weight="bold" lengthAdjust="spacing" textLength="24.2648" x="523.8" y="67.8727">Model</text></g><!--cluster Aggregates--><g class="cluster" data-entity="Aggregates" data-source-line="5" data-uid="ent0005" id="cluster_Aggregates"><path d="M1368.3,99.6082 L1415.1123,99.6082 A2.25,2.25 0 0 1 1416.6123,101.1082 L1420.8123,114.3809 L1542.9,114.3809 A1.5,1.5 0 0 1 1544.4,115.8809 L1544.4,236.7082 A1.5,1.5 0 0 1 1542.9,238.2082 L1368.3,238.2082 A1.5,1.5 0 0 1 1366.8,236.7082 L1366.8,101.1082 A1.5,1.5 0 0 1 1368.3,99.6082" fill="none" style="stroke:#000000;stroke-width:0.9;"/><line style="stroke:#000000;stroke-width:0.9;" x1="1366.8" x2="1420.8123" y1="114.3809" y2="114.3809"/><text fill="#000000" font-family="sans-serif" font-size="8.4" font-weight="bold" lengthAdjust="spacing" textLength="46.2123" x="1369.2" y="109.8727">Aggregates</text></g><!--cluster Commands--><g class="cluster" data-entity="Commands" data-source-line="16" data-uid="ent0007" id="cluster_Commands"><path d="M906.9,84.6082 L953.2406,84.6082 A2.25,2.25 0 0 1 954.7406,86.1082 L958.9406,99.3809 L1187.7,99.3809 A1.5,1.5 0 0 1 1189.2,100.8809 L1189.2,357.6082 A1.5,1.5 0 0 1 1187.7,359.1082 L906.9,359.1082 A1.5,1.5 0 0 1 905.4,357.6082 L905.4,86.1082 A1.5,1.5 0 0 1 906.9,84.6082" fill="none" style="stroke:#000000;stroke-width:0.9;"/><line style="stroke:#000000;stroke-width:0.9;" x1="905.4" x2="958.9406" y1="99.3809" y2="99.3809"/><text fill="#000000" font-family="sans-serif" font-size="8.4" font-weight="bold" lengthAdjust="spacing" textLength="45.7406" x="907.8" y="94.8727">Commands</text></g><!--cluster Queries--><g class="cluster" data-entity="Queries" data-source-line="34" data-uid="ent0011" id="cluster_Queries"><path d="M643.5,138.6082 L675.3826,138.6082 A2.25,2.25 0 0 1 676.8826,140.1082 L681.0826,153.3809 L889.5,153.3809 A1.5,1.5 0 0 1 891,154.8809 L891,353.7082 A1.5,1.5 0 0 1 889.5,355.2082 L643.5,355.2082 A1.5,1.5 0 0 1 642,353.7082 L642,140.1082 A1.5,1.5 0 0 1 643.5,138.6082" fill="none" style="stroke:#000000;stroke-width:0.9;"/><line style="stroke:#000000;stroke-width:0.9;" x1="642" x2="681.0826" y1="153.3809" y2="153.3809"/><text fill="#000000" font-family="sans-serif" font-size="8.4" font-weight="bold" lengthAdjust="spacing" textLength="31.2826" x="644.4" y="148.8727">Queries</text></g><!--cluster Value Objects--><g class="cluster" data-entity="Value Objects" data-source-line="45" data-uid="ent0016" id="cluster_Value Objects"><path d="M1205.1,257.4082 L1261.2557,257.4082 A2.25,2.25 0 0 1 1262.7557,258.9082 L1266.9557,272.1809 L1716.9,272.1809 A1.5,1.5 0 0 1 1718.4,273.6809 L1718.4,390.9082 A1.5,1.5 0 0 1 1716.9,392.4082 L1205.1,392.4082 A1.5,1.5 0 0 1 1203.6,390.9082 L1203.6,258.9082 A1.5,1.5 0 0 1 1205.1,257.4082" fill="none" style="stroke:#000000;stroke-width:0.9;"/><line style="stroke:#000000;stroke-width:0.9;" x1="1203.6" x2="1266.9557" y1="272.1809" y2="272.1809"/><text fill="#000000" font-family="sans-serif" font-size="8.4" font-weight="bold" lengthAdjust="spacing" textLength="55.5557" x="1206" y="267.6727">Value Objects</text></g><!--cluster exceptions--><g class="cluster" data-entity="exceptions" data-source-line="78" data-uid="ent0023" id="cluster_exceptions"><path d="M902.1,406.8082 L946.5826,406.8082 A2.25,2.25 0 0 1 948.0826,408.3082 L952.2826,421.5809 L1470.9,421.5809 A1.5,1.5 0 0 1 1472.4,423.0809 L1472.4,618.9082 A1.5,1.5 0 0 1 1470.9,620.4082 L902.1,620.4082 A1.5,1.5 0 0 1 900.6,618.9082 L900.6,408.3082 A1.5,1.5 0 0 1 902.1,406.8082" fill="none" style="stroke:#000000;stroke-width:0.9;"/><line style="stroke:#000000;stroke-width:0.9;" x1="900.6" x2="952.2826" y1="421.5809" y2="421.5809"/><text fill="#000000" font-family="sans-serif" font-size="8.4" font-weight="bold" lengthAdjust="spacing" textLength="43.8826" x="903" y="417.0727">exceptions</text></g><!--cluster application--><g class="cluster" data-entity="application" data-source-line="98" data-uid="ent0036" id="cluster_application"><path d="M170.7,81.9082 L215.6379,81.9082 A2.25,2.25 0 0 1 217.1379,83.4082 L221.3379,96.6809 L491.1,96.6809 A1.5,1.5 0 0 1 492.6,98.1809 L492.6,229.2082 A1.5,1.5 0 0 1 491.1,230.7082 L170.7,230.7082 A1.5,1.5 0 0 1 169.2,229.2082 L169.2,83.4082 A1.5,1.5 0 0 1 170.7,81.9082" fill="none" style="stroke:#000000;stroke-width:0.9;"/><line style="stroke:#000000;stroke-width:0.9;" x1="169.2" x2="221.3379" y1="96.6809" y2="96.6809"/><text fill="#000000" font-family="sans-serif" font-size="8.4" font-weight="bold" lengthAdjust="spacing" textLength="44.3379" x="171.6" y="92.1727">application</text></g><!--cluster Internal--><g class="cluster" data-entity="Internal" data-source-line="99" data-uid="ent0037" id="cluster_Internal"><path d="M185.1,108.9082 L216.0393,108.9082 A2.25,2.25 0 0 1 217.5393,110.4082 L221.7393,123.6809 L476.7,123.6809 A1.5,1.5 0 0 1 478.2,125.1809 L478.2,214.8082 A1.5,1.5 0 0 1 476.7,216.3082 L185.1,216.3082 A1.5,1.5 0 0 1 183.6,214.8082 L183.6,110.4082 A1.5,1.5 0 0 1 185.1,108.9082" fill="none" style="stroke:#000000;stroke-width:0.9;"/><line style="stroke:#000000;stroke-width:0.9;" x1="183.6" x2="221.7393" y1="123.6809" y2="123.6809"/><text fill="#000000" font-family="sans-serif" font-size="8.4" font-weight="bold" lengthAdjust="spacing" textLength="30.3393" x="186" y="119.1727">Internal</text></g><!--cluster outboundeservices--><g class="cluster" data-entity="outboundeservices" data-uid="ent0069" id="cluster_outboundeservices"><path d="M378.9,135.9082 L456.5191,135.9082 A2.25,2.25 0 0 1 458.0191,137.4082 L462.2191,150.6809 L462.3,150.6809 A1.5,1.5 0 0 1 463.8,152.1809 L463.8,200.4082 A1.5,1.5 0 0 1 462.3,201.9082 L378.9,201.9082 A1.5,1.5 0 0 1 377.4,200.4082 L377.4,137.4082 A1.5,1.5 0 0 1 378.9,135.9082" fill="none" style="stroke:#000000;stroke-width:0.9;"/><line style="stroke:#000000;stroke-width:0.9;" x1="377.4" x2="462.2191" y1="150.6809" y2="150.6809"/><text fill="#000000" font-family="sans-serif" font-size="8.4" font-weight="bold" lengthAdjust="spacing" textLength="77.0191" x="379.8" y="146.1727">outboundeservices</text></g><!--cluster infrastructure--><g class="cluster" data-entity="infrastructure" data-source-line="110" data-uid="ent0041" id="cluster_infrastructure"><path d="M19.5,81.9082 L74.7123,81.9082 A2.25,2.25 0 0 1 76.2123,83.4082 L80.4123,96.6809 L153.3,96.6809 A1.5,1.5 0 0 1 154.8,98.1809 L154.8,229.2082 A1.5,1.5 0 0 1 153.3,230.7082 L19.5,230.7082 A1.5,1.5 0 0 1 18,229.2082 L18,83.4082 A1.5,1.5 0 0 1 19.5,81.9082" fill="none" style="stroke:#000000;stroke-width:0.9;"/><line style="stroke:#000000;stroke-width:0.9;" x1="18" x2="80.4123" y1="96.6809" y2="96.6809"/><text fill="#000000" font-family="sans-serif" font-size="8.4" font-weight="bold" lengthAdjust="spacing" textLength="54.6123" x="20.4" y="92.1727">infrastructure</text></g><!--cluster persistence--><g class="cluster" data-entity="persistence" data-uid="ent0070" id="cluster_persistence"><path d="M33.9,108.9082 L81.1922,108.9082 A2.25,2.25 0 0 1 82.6922,110.4082 L86.8922,123.6809 L138.9,123.6809 A1.5,1.5 0 0 1 140.4,125.1809 L140.4,214.8082 A1.5,1.5 0 0 1 138.9,216.3082 L33.9,216.3082 A1.5,1.5 0 0 1 32.4,214.8082 L32.4,110.4082 A1.5,1.5 0 0 1 33.9,108.9082" fill="none" style="stroke:#000000;stroke-width:0.9;"/><line style="stroke:#000000;stroke-width:0.9;" x1="32.4" x2="86.8922" y1="123.6809" y2="123.6809"/><text fill="#000000" font-family="sans-serif" font-size="8.4" font-weight="bold" lengthAdjust="spacing" textLength="46.6922" x="34.8" y="119.1727">persistence</text></g><!--cluster jpa--><g class="cluster" data-entity="jpa" data-uid="ent0071" id="cluster_jpa"><path d="M48.3,135.9082 L61.0365,135.9082 A2.25,2.25 0 0 1 62.5365,137.4082 L66.7365,150.6809 L124.5,150.6809 A1.5,1.5 0 0 1 126,152.1809 L126,200.4082 A1.5,1.5 0 0 1 124.5,201.9082 L48.3,201.9082 A1.5,1.5 0 0 1 46.8,200.4082 L46.8,137.4082 A1.5,1.5 0 0 1 48.3,135.9082" fill="none" style="stroke:#000000;stroke-width:0.9;"/><line style="stroke:#000000;stroke-width:0.9;" x1="46.8" x2="66.7365" y1="150.6809" y2="150.6809"/><text fill="#000000" font-family="sans-serif" font-size="8.4" font-weight="bold" lengthAdjust="spacing" textLength="12.1365" x="49.2" y="146.1727">jpa</text></g><!--cluster interfaces--><g class="cluster" data-entity="interfaces" data-uid="ent0072" id="cluster_interfaces"><path d="M1763.1,108.9082 L1803.3867,108.9082 A2.25,2.25 0 0 1 1804.8867,110.4082 L1809.0867,123.6809 L1962.9,123.6809 A1.5,1.5 0 0 1 1964.4,125.1809 L1964.4,214.8082 A1.5,1.5 0 0 1 1962.9,216.3082 L1763.1,216.3082 A1.5,1.5 0 0 1 1761.6,214.8082 L1761.6,110.4082 A1.5,1.5 0 0 1 1763.1,108.9082" fill="none" style="stroke:#000000;stroke-width:0.9;"/><line style="stroke:#000000;stroke-width:0.9;" x1="1761.6" x2="1809.0867" y1="123.6809" y2="123.6809"/><text fill="#000000" font-family="sans-serif" font-size="8.4" font-weight="bold" lengthAdjust="spacing" textLength="39.6867" x="1764" y="119.1727">interfaces</text></g><!--cluster rest--><g class="cluster" data-entity="rest" data-source-line="114" data-uid="ent0043" id="cluster_rest"><path d="M1807.5,135.9082 L1823.5096,135.9082 A2.25,2.25 0 0 1 1825.0096,137.4082 L1829.2096,150.6809 L1948.5,150.6809 A1.5,1.5 0 0 1 1950,152.1809 L1950,200.4082 A1.5,1.5 0 0 1 1948.5,201.9082 L1807.5,201.9082 A1.5,1.5 0 0 1 1806,200.4082 L1806,137.4082 A1.5,1.5 0 0 1 1807.5,135.9082" fill="none" style="stroke:#000000;stroke-width:0.9;"/><line style="stroke:#000000;stroke-width:0.9;" x1="1806" x2="1829.2096" y1="150.6809" y2="150.6809"/><text fill="#000000" font-family="sans-serif" font-size="8.4" font-weight="bold" lengthAdjust="spacing" textLength="15.4096" x="1808.4" y="146.1727">rest</text></g><!--class Employee--><g class="entity" data-entity="Employee" data-source-line="6" data-uid="ent0006" id="entity_Employee"><rect fill="#F1F1F1" height="107.0086" rx="1.5" ry="1.5" style="stroke:#181818;stroke-width:0.3;" width="158.5025" x="1376.4" y="121.8082"/><ellipse cx="1434.4248" cy="131.4082" fill="#ADD1B2" rx="6.6" ry="6.6" style="stroke:#181818;stroke-width:0.6;"/><path d="M1436.0842,128.9332 Q1436.1779,128.802 1436.2904,128.7363 Q1436.4029,128.6707 1436.5342,128.6707 Q1436.7592,128.6707 1436.8998,128.8301 Q1437.0404,128.9801 1437.0404,129.3457 L1437.0404,130.2176 Q1437.0404,130.5832 1436.8998,130.7426 Q1436.7592,130.902 1436.5342,130.902 Q1436.3279,130.902 1436.2061,130.7801 Q1436.0842,130.6676 1436.0186,130.3582 Q1435.9904,130.1426 1435.8779,130.0301 Q1435.6811,129.8051 1435.3154,129.6738 Q1434.9498,129.5426 1434.5748,129.5426 Q1434.1154,129.5426 1433.7311,129.7395 Q1433.3561,129.9363 1433.0561,130.3863 Q1432.7654,130.8363 1432.7654,131.4551 L1432.7654,132.1113 Q1432.7654,132.852 1433.2998,133.3488 Q1433.8342,133.8363 1434.7904,133.8363 Q1435.3529,133.8363 1435.7467,133.6863 Q1435.9811,133.5926 1436.2342,133.3301 Q1436.3936,133.1707 1436.4779,133.1238 Q1436.5717,133.077 1436.6936,133.077 Q1436.8904,133.077 1437.0404,133.2363 Q1437.1998,133.3863 1437.1998,133.5926 Q1437.1998,133.7988 1436.9936,134.0426 Q1436.6936,134.3895 1436.2154,134.5863 Q1435.5686,134.8582 1434.7904,134.8582 Q1433.8811,134.8582 1433.1592,134.4832 Q1432.5686,134.1832 1432.1561,133.5457 Q1431.7436,132.8988 1431.7436,132.1301 L1431.7436,131.4363 Q1431.7436,130.6395 1432.1092,129.9551 Q1432.4842,129.2613 1433.1404,128.8957 Q1433.7967,128.5207 1434.5373,128.5207 Q1434.9779,128.5207 1435.3623,128.6238 Q1435.7561,128.7176 1436.0842,128.9332 Z " fill="#000000"/><text fill="#000000" font-family="sans-serif" font-size="8.4" lengthAdjust="spacing" textLength="37.3529" x="1446.7248" y="134.8863">Employee</text><line style="stroke:#181818;stroke-width:0.3;" x1="1377" x2="1534.3025" y1="141.0082" y2="141.0082"/><text fill="#000000" font-family="sans-serif" font-size="8.4" lengthAdjust="spacing" textLength="29.8922" x="1380" y="152.4727">id: Long</text><text fill="#000000" font-family="sans-serif" font-size="8.4" lengthAdjust="spacing" textLength="120.4465" x="1380" y="163.6453">typeOfContract: TypeOfContract</text><text fill="#000000" font-family="sans-serif" font-size="8.4" lengthAdjust="spacing" textLength="64.4355" x="1380" y="174.818">Position: Position</text><text fill="#000000" font-family="sans-serif" font-size="8.4" lengthAdjust="spacing" textLength="73.2826" x="1380" y="185.9906">workShift:WorkShift</text><text fill="#000000" font-family="sans-serif" font-size="8.4" lengthAdjust="spacing" textLength="151.3025" x="1380" y="197.1633">assignedSchedules: AssignedSchedules</text><text fill="#000000" font-family="sans-serif" font-size="8.4" lengthAdjust="spacing" textLength="51.8273" x="1380" y="208.3359">hireDate:Date</text><text fill="#000000" font-family="sans-serif" font-size="8.4" lengthAdjust="spacing" textLength="68.9965" x="1380" y="219.5086">profileId:"ProfileId"</text><line style="stroke:#181818;stroke-width:0.3;" x1="1377" x2="1534.3025" y1="224.0168" y2="224.0168"/></g><!--class CreateEmployeeCommand--><g class="entity" data-entity="CreateEmployeeCommand" data-source-line="17" data-uid="ent0008" id="entity_CreateEmployeeCommand"><rect fill="#F1F1F1" height="136.9031" rx="1.5" ry="1.5" style="stroke:#181818;stroke-width:0.3;" width="120.5127" x="915.3" y="106.8082"/><ellipse cx="924.3" cy="120.1828" fill="#ADD1B2" rx="6.6" ry="6.6" style="stroke:#181818;stroke-width:0.6;"/><path d="M925.9594,117.7078 Q926.0531,117.5766 926.1656,117.5109 Q926.2781,117.4453 926.4094,117.4453 Q926.6344,117.4453 926.775,117.6047 Q926.9156,117.7547 926.9156,118.1203 L926.9156,118.9922 Q926.9156,119.3578 926.775,119.5172 Q926.6344,119.6766 926.4094,119.6766 Q926.2031,119.6766 926.0813,119.5547 Q925.9594,119.4422 925.8938,119.1328 Q925.8656,118.9172 925.7531,118.8047 Q925.5563,118.5797 925.1906,118.4484 Q924.825,118.3172 924.45,118.3172 Q923.9906,118.3172 923.6062,118.5141 Q923.2312,118.7109 922.9313,119.1609 Q922.6406,119.6109 922.6406,120.2297 L922.6406,120.8859 Q922.6406,121.6266 923.175,122.1234 Q923.7094,122.6109 924.6656,122.6109 Q925.2281,122.6109 925.6219,122.4609 Q925.8562,122.3672 926.1094,122.1047 Q926.2688,121.9453 926.3531,121.8984 Q926.4469,121.8516 926.5687,121.8516 Q926.7656,121.8516 926.9156,122.0109 Q927.075,122.1609 927.075,122.3672 Q927.075,122.5734 926.8688,122.8172 Q926.5687,123.1641 926.0906,123.3609 Q925.4437,123.6328 924.6656,123.6328 Q923.7562,123.6328 923.0344,123.2578 Q922.4437,122.9578 922.0313,122.3203 Q921.6188,121.6734 921.6188,120.9047 L921.6188,120.2109 Q921.6188,119.4141 921.9844,118.7297 Q922.3594,118.0359 923.0156,117.6703 Q923.6719,117.2953 924.4125,117.2953 Q924.8531,117.2953 925.2375,117.3984 Q925.6312,117.4922 925.9594,117.7078 Z " fill="#000000"/><text fill="#000000" font-family="sans-serif" font-size="7.2" font-style="italic" lengthAdjust="spacing" textLength="44.8207" x="960.946" y="117.5777">&#171;Commands&#187;</text><text fill="#000000" font-family="sans-serif" font-size="8.4" lengthAdjust="spacing" textLength="101.3127" x="932.7" y="128.4492">CreateEmployeeCommand</text><line style="stroke:#181818;stroke-width:0.3;" x1="915.9" x2="1035.2127" y1="133.5574" y2="133.5574"/><text fill="#000000" font-family="sans-serif" font-size="8.4" lengthAdjust="spacing" textLength="45.2813" x="918.9" y="145.0219">Name:string</text><text fill="#000000" font-family="sans-serif" font-size="8.4" lengthAdjust="spacing" textLength="62.5611" x="918.9" y="156.1945">LastName:String</text><text fill="#000000" font-family="sans-serif" font-size="8.4" lengthAdjust="spacing" textLength="36.8813" x="918.9" y="167.3672">Dni:String</text><text fill="#000000" font-family="sans-serif" font-size="8.4" lengthAdjust="spacing" textLength="77.5113" x="918.9" y="178.5398">phoneNumber:String</text><text fill="#000000" font-family="sans-serif" font-size="8.4" lengthAdjust="spacing" textLength="54.1611" x="918.9" y="189.7125">Position:String</text><text fill="#000000" font-family="sans-serif" font-size="8.4" lengthAdjust="spacing" textLength="80.768" x="918.9" y="200.8852">typeOfContract:String</text><text fill="#000000" font-family="sans-serif" font-size="8.4" lengthAdjust="spacing" textLength="51.8273" x="918.9" y="212.0578">hireDate:Date</text><text fill="#000000" font-family="sans-serif" font-size="8.4" lengthAdjust="spacing" textLength="54.1611" x="918.9" y="223.2305">Position:String</text><text fill="#000000" font-family="sans-serif" font-size="8.4" lengthAdjust="spacing" textLength="57.4178" x="918.9" y="234.4031">workShift:string</text><line style="stroke:#181818;stroke-width:0.3;" x1="915.9" x2="1035.2127" y1="238.9113" y2="238.9113"/></g><!--class UpdateEmployeeCommand--><g class="entity" data-entity="UpdateEmployeeCommand" data-source-line="29" data-uid="ent0009" id="entity_UpdateEmployeeCommand"><rect fill="#F1F1F1" height="36.3492" rx="1.5" ry="1.5" style="stroke:#181818;stroke-width:0.3;" width="122.3871" x="1057.2" y="156.9082"/><ellipse cx="1066.2" cy="170.2828" fill="#ADD1B2" rx="6.6" ry="6.6" style="stroke:#181818;stroke-width:0.6;"/><path d="M1067.8594,167.8078 Q1067.9531,167.6766 1068.0656,167.6109 Q1068.1781,167.5453 1068.3094,167.5453 Q1068.5344,167.5453 1068.675,167.7047 Q1068.8156,167.8547 1068.8156,168.2203 L1068.8156,169.0922 Q1068.8156,169.4578 1068.675,169.6172 Q1068.5344,169.7766 1068.3094,169.7766 Q1068.1031,169.7766 1067.9813,169.6547 Q1067.8594,169.5422 1067.7938,169.2328 Q1067.7656,169.0172 1067.6531,168.9047 Q1067.4563,168.6797 1067.0906,168.5484 Q1066.725,168.4172 1066.35,168.4172 Q1065.8906,168.4172 1065.5063,168.6141 Q1065.1313,168.8109 1064.8313,169.2609 Q1064.5406,169.7109 1064.5406,170.3297 L1064.5406,170.9859 Q1064.5406,171.7266 1065.075,172.2234 Q1065.6094,172.7109 1066.5656,172.7109 Q1067.1281,172.7109 1067.5219,172.5609 Q1067.7563,172.4672 1068.0094,172.2047 Q1068.1688,172.0453 1068.2531,171.9984 Q1068.3469,171.9516 1068.4688,171.9516 Q1068.6656,171.9516 1068.8156,172.1109 Q1068.975,172.2609 1068.975,172.4672 Q1068.975,172.6734 1068.7688,172.9172 Q1068.4688,173.2641 1067.9906,173.4609 Q1067.3438,173.7328 1066.5656,173.7328 Q1065.6563,173.7328 1064.9344,173.3578 Q1064.3438,173.0578 1063.9312,172.4203 Q1063.5188,171.7734 1063.5188,171.0047 L1063.5188,170.3109 Q1063.5188,169.5141 1063.8844,168.8297 Q1064.2594,168.1359 1064.9156,167.7703 Q1065.5719,167.3953 1066.3125,167.3953 Q1066.7531,167.3953 1067.1375,167.4984 Q1067.5313,167.5922 1067.8594,167.8078 Z " fill="#000000"/><text fill="#000000" font-family="sans-serif" font-size="7.2" font-style="italic" lengthAdjust="spacing" textLength="44.8207" x="1103.7832" y="167.6777">&#171;Commands&#187;</text><text fill="#000000" font-family="sans-serif" font-size="8.4" lengthAdjust="spacing" textLength="103.1871" x="1074.6" y="178.5492">UpdateEmployeeCommand</text><line style="stroke:#181818;stroke-width:0.3;" x1="1057.8" x2="1178.9871" y1="183.6574" y2="183.6574"/><line style="stroke:#181818;stroke-width:0.3;" x1="1057.8" x2="1178.9871" y1="188.4574" y2="188.4574"/></g><!--class DeleteEmployeeCommand--><g class="entity" data-entity="DeleteEmployeeCommand" data-source-line="31" data-uid="ent0010" id="entity_DeleteEmployeeCommand"><rect fill="#F1F1F1" height="36.3492" rx="1.5" ry="1.5" style="stroke:#181818;stroke-width:0.3;" width="119.5816" x="915.9" y="312.9082"/><ellipse cx="924.9" cy="326.2828" fill="#ADD1B2" rx="6.6" ry="6.6" style="stroke:#181818;stroke-width:0.6;"/><path d="M926.5594,323.8078 Q926.6531,323.6766 926.7656,323.6109 Q926.8781,323.5453 927.0094,323.5453 Q927.2344,323.5453 927.375,323.7047 Q927.5156,323.8547 927.5156,324.2203 L927.5156,325.0922 Q927.5156,325.4578 927.375,325.6172 Q927.2344,325.7766 927.0094,325.7766 Q926.8031,325.7766 926.6813,325.6547 Q926.5594,325.5422 926.4938,325.2328 Q926.4656,325.0172 926.3531,324.9047 Q926.1563,324.6797 925.7906,324.5484 Q925.425,324.4172 925.05,324.4172 Q924.5906,324.4172 924.2063,324.6141 Q923.8313,324.8109 923.5313,325.2609 Q923.2406,325.7109 923.2406,326.3297 L923.2406,326.9859 Q923.2406,327.7266 923.775,328.2234 Q924.3094,328.7109 925.2656,328.7109 Q925.8281,328.7109 926.2219,328.5609 Q926.4563,328.4672 926.7094,328.2047 Q926.8688,328.0453 926.9531,327.9984 Q927.0469,327.9516 927.1687,327.9516 Q927.3656,327.9516 927.5156,328.1109 Q927.675,328.2609 927.675,328.4672 Q927.675,328.6734 927.4688,328.9172 Q927.1687,329.2641 926.6906,329.4609 Q926.0437,329.7328 925.2656,329.7328 Q924.3562,329.7328 923.6344,329.3578 Q923.0437,329.0578 922.6312,328.4203 Q922.2188,327.7734 922.2188,327.0047 L922.2188,326.3109 Q922.2188,325.5141 922.5844,324.8297 Q922.9594,324.1359 923.6156,323.7703 Q924.2719,323.3953 925.0125,323.3953 Q925.4531,323.3953 925.8375,323.4984 Q926.2312,323.5922 926.5594,323.8078 Z " fill="#000000"/><text fill="#000000" font-family="sans-serif" font-size="7.2" font-style="italic" lengthAdjust="spacing" textLength="41.2207" x="962.8805" y="323.6777">&#171;Command&#187;</text><text fill="#000000" font-family="sans-serif" font-size="8.4" lengthAdjust="spacing" textLength="100.3816" x="933.3" y="334.5492">DeleteEmployeeCommand</text><line style="stroke:#181818;stroke-width:0.3;" x1="916.5" x2="1034.8816" y1="339.6574" y2="339.6574"/><line style="stroke:#181818;stroke-width:0.3;" x1="916.5" x2="1034.8816" y1="344.4574" y2="344.4574"/></g><!--class GetAllEmployeeQuery--><g class="entity" data-entity="GetAllEmployeeQuery" data-source-line="35" data-uid="ent0012" id="entity_GetAllEmployeeQuery"><rect fill="#F1F1F1" height="28.8" rx="1.5" ry="1.5" style="stroke:#181818;stroke-width:0.3;" width="102.3018" x="657.3" y="160.8082"/><ellipse cx="666.3" cy="170.4082" fill="#ADD1B2" rx="6.6" ry="6.6" style="stroke:#181818;stroke-width:0.6;"/><path d="M667.9594,167.9332 Q668.0531,167.802 668.1656,167.7363 Q668.2781,167.6707 668.4094,167.6707 Q668.6344,167.6707 668.775,167.8301 Q668.9156,167.9801 668.9156,168.3457 L668.9156,169.2176 Q668.9156,169.5832 668.775,169.7426 Q668.6344,169.902 668.4094,169.902 Q668.2031,169.902 668.0813,169.7801 Q667.9594,169.6676 667.8938,169.3582 Q667.8656,169.1426 667.7531,169.0301 Q667.5563,168.8051 667.1906,168.6738 Q666.825,168.5426 666.45,168.5426 Q665.9906,168.5426 665.6062,168.7395 Q665.2312,168.9363 664.9313,169.3863 Q664.6406,169.8363 664.6406,170.4551 L664.6406,171.1113 Q664.6406,171.852 665.175,172.3488 Q665.7094,172.8363 666.6656,172.8363 Q667.2281,172.8363 667.6219,172.6863 Q667.8562,172.5926 668.1094,172.3301 Q668.2688,172.1707 668.3531,172.1238 Q668.4469,172.077 668.5688,172.077 Q668.7656,172.077 668.9156,172.2363 Q669.075,172.3863 669.075,172.5926 Q669.075,172.7988 668.8688,173.0426 Q668.5688,173.3895 668.0906,173.5863 Q667.4438,173.8582 666.6656,173.8582 Q665.7563,173.8582 665.0344,173.4832 Q664.4438,173.1832 664.0313,172.5457 Q663.6188,171.8988 663.6188,171.1301 L663.6188,170.4363 Q663.6188,169.6395 663.9844,168.9551 Q664.3594,168.2613 665.0156,167.8957 Q665.6719,167.5207 666.4125,167.5207 Q666.8531,167.5207 667.2375,167.6238 Q667.6313,167.7176 667.9594,167.9332 Z " fill="#000000"/><text fill="#000000" font-family="sans-serif" font-size="8.4" lengthAdjust="spacing" textLength="83.1018" x="674.7" y="173.8863">GetAllEmployeeQuery</text><line style="stroke:#181818;stroke-width:0.3;" x1="657.9" x2="759.0018" y1="180.0082" y2="180.0082"/><line style="stroke:#181818;stroke-width:0.3;" x1="657.9" x2="759.0018" y1="184.8082" y2="184.8082"/></g><!--class GetByPositionQuery--><g class="entity" data-entity="GetByPositionQuery" data-source-line="37" data-uid="ent0013" id="entity_GetByPositionQuery"><rect fill="#F1F1F1" height="28.8" rx="1.5" ry="1.5" style="stroke:#181818;stroke-width:0.3;" width="95.3004" x="780.9" y="160.8082"/><ellipse cx="789.9" cy="170.4082" fill="#ADD1B2" rx="6.6" ry="6.6" style="stroke:#181818;stroke-width:0.6;"/><path d="M791.5594,167.9332 Q791.6531,167.802 791.7656,167.7363 Q791.8781,167.6707 792.0094,167.6707 Q792.2344,167.6707 792.375,167.8301 Q792.5156,167.9801 792.5156,168.3457 L792.5156,169.2176 Q792.5156,169.5832 792.375,169.7426 Q792.2344,169.902 792.0094,169.902 Q791.8031,169.902 791.6813,169.7801 Q791.5594,169.6676 791.4938,169.3582 Q791.4656,169.1426 791.3531,169.0301 Q791.1563,168.8051 790.7906,168.6738 Q790.425,168.5426 790.05,168.5426 Q789.5906,168.5426 789.2063,168.7395 Q788.8313,168.9363 788.5313,169.3863 Q788.2406,169.8363 788.2406,170.4551 L788.2406,171.1113 Q788.2406,171.852 788.775,172.3488 Q789.3094,172.8363 790.2656,172.8363 Q790.8281,172.8363 791.2219,172.6863 Q791.4563,172.5926 791.7094,172.3301 Q791.8688,172.1707 791.9531,172.1238 Q792.0469,172.077 792.1687,172.077 Q792.3656,172.077 792.5156,172.2363 Q792.675,172.3863 792.675,172.5926 Q792.675,172.7988 792.4688,173.0426 Q792.1687,173.3895 791.6906,173.5863 Q791.0437,173.8582 790.2656,173.8582 Q789.3562,173.8582 788.6344,173.4832 Q788.0437,173.1832 787.6313,172.5457 Q787.2188,171.8988 787.2188,171.1301 L787.2188,170.4363 Q787.2188,169.6395 787.5844,168.9551 Q787.9594,168.2613 788.6156,167.8957 Q789.2719,167.5207 790.0125,167.5207 Q790.4531,167.5207 790.8375,167.6238 Q791.2312,167.7176 791.5594,167.9332 Z " fill="#000000"/><text fill="#000000" font-family="sans-serif" font-size="8.4" lengthAdjust="spacing" textLength="76.1004" x="798.3" y="173.8863">GetByPositionQuery</text><line style="stroke:#181818;stroke-width:0.3;" x1="781.5" x2="875.6004" y1="180.0082" y2="180.0082"/><line style="stroke:#181818;stroke-width:0.3;" x1="781.5" x2="875.6004" y1="184.8082" y2="184.8082"/></g><!--class GetByTypeOfContract--><g class="entity" data-entity="GetByTypeOfContract" data-source-line="39" data-uid="ent0014" id="entity_GetByTypeOfContract"><rect fill="#F1F1F1" height="28.8" rx="1.5" ry="1.5" style="stroke:#181818;stroke-width:0.3;" width="101.8301" x="651.6" y="316.8082"/><ellipse cx="660.6" cy="326.4082" fill="#ADD1B2" rx="6.6" ry="6.6" style="stroke:#181818;stroke-width:0.6;"/><path d="M662.2594,323.9332 Q662.3531,323.802 662.4656,323.7363 Q662.5781,323.6707 662.7094,323.6707 Q662.9344,323.6707 663.075,323.8301 Q663.2156,323.9801 663.2156,324.3457 L663.2156,325.2176 Q663.2156,325.5832 663.075,325.7426 Q662.9344,325.902 662.7094,325.902 Q662.5031,325.902 662.3813,325.7801 Q662.2594,325.6676 662.1938,325.3582 Q662.1656,325.1426 662.0531,325.0301 Q661.8562,324.8051 661.4906,324.6738 Q661.125,324.5426 660.75,324.5426 Q660.2906,324.5426 659.9063,324.7395 Q659.5313,324.9363 659.2312,325.3863 Q658.9406,325.8363 658.9406,326.4551 L658.9406,327.1113 Q658.9406,327.852 659.475,328.3488 Q660.0094,328.8363 660.9656,328.8363 Q661.5281,328.8363 661.9219,328.6863 Q662.1563,328.5926 662.4094,328.3301 Q662.5688,328.1707 662.6531,328.1238 Q662.7469,328.077 662.8688,328.077 Q663.0656,328.077 663.2156,328.2363 Q663.375,328.3863 663.375,328.5926 Q663.375,328.7988 663.1687,329.0426 Q662.8688,329.3895 662.3906,329.5863 Q661.7438,329.8582 660.9656,329.8582 Q660.0563,329.8582 659.3344,329.4832 Q658.7438,329.1832 658.3313,328.5457 Q657.9187,327.8988 657.9187,327.1301 L657.9187,326.4363 Q657.9187,325.6395 658.2844,324.9551 Q658.6594,324.2613 659.3156,323.8957 Q659.9719,323.5207 660.7125,323.5207 Q661.1531,323.5207 661.5375,323.6238 Q661.9313,323.7176 662.2594,323.9332 Z " fill="#000000"/><text fill="#000000" font-family="sans-serif" font-size="8.4" lengthAdjust="spacing" textLength="82.6301" x="669" y="329.8863">GetByTypeOfContract</text><line style="stroke:#181818;stroke-width:0.3;" x1="652.2" x2="752.8301" y1="336.0082" y2="336.0082"/><line style="stroke:#181818;stroke-width:0.3;" x1="652.2" x2="752.8301" y1="340.8082" y2="340.8082"/></g><!--class GetAssignedSchedules--><g class="entity" data-entity="GetAssignedSchedules" data-source-line="41" data-uid="ent0015" id="entity_GetAssignedSchedules"><rect fill="#F1F1F1" height="28.8" rx="1.5" ry="1.5" style="stroke:#181818;stroke-width:0.3;" width="106.5223" x="774.6" y="316.8082"/><ellipse cx="783.6" cy="326.4082" fill="#ADD1B2" rx="6.6" ry="6.6" style="stroke:#181818;stroke-width:0.6;"/><path d="M785.2594,323.9332 Q785.3531,323.802 785.4656,323.7363 Q785.5781,323.6707 785.7094,323.6707 Q785.9344,323.6707 786.075,323.8301 Q786.2156,323.9801 786.2156,324.3457 L786.2156,325.2176 Q786.2156,325.5832 786.075,325.7426 Q785.9344,325.902 785.7094,325.902 Q785.5031,325.902 785.3813,325.7801 Q785.2594,325.6676 785.1938,325.3582 Q785.1656,325.1426 785.0531,325.0301 Q784.8562,324.8051 784.4906,324.6738 Q784.125,324.5426 783.75,324.5426 Q783.2906,324.5426 782.9063,324.7395 Q782.5313,324.9363 782.2312,325.3863 Q781.9406,325.8363 781.9406,326.4551 L781.9406,327.1113 Q781.9406,327.852 782.475,328.3488 Q783.0094,328.8363 783.9656,328.8363 Q784.5281,328.8363 784.9219,328.6863 Q785.1563,328.5926 785.4094,328.3301 Q785.5688,328.1707 785.6531,328.1238 Q785.7469,328.077 785.8688,328.077 Q786.0656,328.077 786.2156,328.2363 Q786.375,328.3863 786.375,328.5926 Q786.375,328.7988 786.1687,329.0426 Q785.8688,329.3895 785.3906,329.5863 Q784.7438,329.8582 783.9656,329.8582 Q783.0563,329.8582 782.3344,329.4832 Q781.7438,329.1832 781.3313,328.5457 Q780.9187,327.8988 780.9187,327.1301 L780.9187,326.4363 Q780.9187,325.6395 781.2844,324.9551 Q781.6594,324.2613 782.3156,323.8957 Q782.9719,323.5207 783.7125,323.5207 Q784.1531,323.5207 784.5375,323.6238 Q784.9313,323.7176 785.2594,323.9332 Z " fill="#000000"/><text fill="#000000" font-family="sans-serif" font-size="8.4" lengthAdjust="spacing" textLength="87.3223" x="792" y="329.8863">GetAssignedSchedules</text><line style="stroke:#181818;stroke-width:0.3;" x1="775.2" x2="880.5223" y1="336.0082" y2="336.0082"/><line style="stroke:#181818;stroke-width:0.3;" x1="775.2" x2="880.5223" y1="340.8082" y2="340.8082"/></g><!--class ProfileId--><g class="entity" data-entity="ProfileId" data-source-line="47" data-uid="ent0017" id="entity_ProfileId"><rect fill="#F1F1F1" height="47.5219" rx="1.5" ry="1.5" style="stroke:#181818;stroke-width:0.3;" width="58.1045" x="1650.3" y="307.5082"/><ellipse cx="1662.9403" cy="320.8828" fill="#ADD1B2" rx="6.6" ry="6.6" style="stroke:#181818;stroke-width:0.6;"/><path d="M1664.5996,318.4078 Q1664.6934,318.2766 1664.8059,318.2109 Q1664.9184,318.1453 1665.0496,318.1453 Q1665.2746,318.1453 1665.4153,318.3047 Q1665.5559,318.4547 1665.5559,318.8203 L1665.5559,319.6922 Q1665.5559,320.0578 1665.4153,320.2172 Q1665.2746,320.3766 1665.0496,320.3766 Q1664.8434,320.3766 1664.7215,320.2547 Q1664.5996,320.1422 1664.534,319.8328 Q1664.5059,319.6172 1664.3934,319.5047 Q1664.1965,319.2797 1663.8309,319.1484 Q1663.4653,319.0172 1663.0903,319.0172 Q1662.6309,319.0172 1662.2465,319.2141 Q1661.8715,319.4109 1661.5715,319.8609 Q1661.2809,320.3109 1661.2809,320.9297 L1661.2809,321.5859 Q1661.2809,322.3266 1661.8153,322.8234 Q1662.3496,323.3109 1663.3059,323.3109 Q1663.8684,323.3109 1664.2621,323.1609 Q1664.4965,323.0672 1664.7496,322.8047 Q1664.909,322.6453 1664.9934,322.5984 Q1665.0871,322.5516 1665.209,322.5516 Q1665.4059,322.5516 1665.5559,322.7109 Q1665.7153,322.8609 1665.7153,323.0672 Q1665.7153,323.2734 1665.509,323.5172 Q1665.209,323.8641 1664.7309,324.0609 Q1664.084,324.3328 1663.3059,324.3328 Q1662.3965,324.3328 1661.6746,323.9578 Q1661.084,323.6578 1660.6715,323.0203 Q1660.259,322.3734 1660.259,321.6047 L1660.259,320.9109 Q1660.259,320.1141 1660.6246,319.4297 Q1660.9996,318.7359 1661.6559,318.3703 Q1662.3121,317.9953 1663.0528,317.9953 Q1663.4934,317.9953 1663.8778,318.0984 Q1664.2715,318.1922 1664.5996,318.4078 Z " fill="#000000"/><text fill="#000000" font-family="sans-serif" font-size="7.2" font-style="italic" lengthAdjust="spacing" textLength="28.4168" x="1673.3483" y="318.2777">&#171;record&#187;</text><text fill="#000000" font-family="sans-serif" font-size="8.4" lengthAdjust="spacing" textLength="30.815" x="1672.1492" y="329.1492">ProfileId</text><line style="stroke:#181818;stroke-width:0.3;" x1="1650.9" x2="1707.8045" y1="334.2574" y2="334.2574"/><text fill="#000000" font-family="sans-serif" font-size="8.4" lengthAdjust="spacing" textLength="50.9045" x="1653.9" y="345.7219">profileId:Long</text><line style="stroke:#181818;stroke-width:0.3;" x1="1650.9" x2="1707.8045" y1="350.2301" y2="350.2301"/></g><!--class TypeOfContract--><g class="entity" data-entity="TypeOfContract" data-source-line="50" data-uid="ent0018" id="entity_TypeOfContract"><rect fill="#F1F1F1" height="69.8672" rx="1.5" ry="1.5" style="stroke:#181818;stroke-width:0.3;" width="111.7406" x="1517.4" y="296.4082"/><ellipse cx="1541.3636" cy="309.7828" fill="#ADD1B2" rx="6.6" ry="6.6" style="stroke:#181818;stroke-width:0.6;"/><path d="M1543.023,307.3078 Q1543.1168,307.1766 1543.2293,307.1109 Q1543.3418,307.0453 1543.473,307.0453 Q1543.698,307.0453 1543.8386,307.2047 Q1543.9793,307.3547 1543.9793,307.7203 L1543.9793,308.5922 Q1543.9793,308.9578 1543.8386,309.1172 Q1543.698,309.2766 1543.473,309.2766 Q1543.2668,309.2766 1543.1449,309.1547 Q1543.023,309.0422 1542.9574,308.7328 Q1542.9293,308.5172 1542.8168,308.4047 Q1542.6199,308.1797 1542.2543,308.0484 Q1541.8886,307.9172 1541.5136,307.9172 Q1541.0543,307.9172 1540.6699,308.1141 Q1540.2949,308.3109 1539.9949,308.7609 Q1539.7043,309.2109 1539.7043,309.8297 L1539.7043,310.4859 Q1539.7043,311.2266 1540.2386,311.7234 Q1540.773,312.2109 1541.7293,312.2109 Q1542.2918,312.2109 1542.6855,312.0609 Q1542.9199,311.9672 1543.173,311.7047 Q1543.3324,311.5453 1543.4168,311.4984 Q1543.5105,311.4516 1543.6324,311.4516 Q1543.8293,311.4516 1543.9793,311.6109 Q1544.1386,311.7609 1544.1386,311.9672 Q1544.1386,312.1734 1543.9324,312.4172 Q1543.6324,312.7641 1543.1543,312.9609 Q1542.5074,313.2328 1541.7293,313.2328 Q1540.8199,313.2328 1540.098,312.8578 Q1539.5074,312.5578 1539.0949,311.9203 Q1538.6824,311.2734 1538.6824,310.5047 L1538.6824,309.8109 Q1538.6824,309.0141 1539.048,308.3297 Q1539.423,307.6359 1540.0793,307.2703 Q1540.7355,306.8953 1541.4761,306.8953 Q1541.9168,306.8953 1542.3011,306.9984 Q1542.6949,307.0922 1543.023,307.3078 Z " fill="#000000"/><text fill="#000000" font-family="sans-serif" font-size="7.2" font-style="italic" lengthAdjust="spacing" textLength="26.0191" x="1569.7234" y="307.1777">&#171;enum&#187;</text><text fill="#000000" font-family="sans-serif" font-size="8.4" lengthAdjust="spacing" textLength="59.2881" x="1553.0889" y="318.0492">TypeOfContract</text><line style="stroke:#181818;stroke-width:0.3;" x1="1518" x2="1628.5406" y1="323.1574" y2="323.1574"/><text fill="#000000" font-family="sans-serif" font-size="8.4" lengthAdjust="spacing" textLength="45.2771" x="1521" y="334.6219">FULL_TIME</text><text fill="#000000" font-family="sans-serif" font-size="8.4" lengthAdjust="spacing" textLength="47.1393" x="1521" y="345.7945">PART_TIME</text><text fill="#000000" font-family="sans-serif" font-size="8.4" lengthAdjust="spacing" textLength="104.5406" x="1521" y="356.9672">TEMPORARY_CONTRACT</text><line style="stroke:#181818;stroke-width:0.3;" x1="1518" x2="1628.5406" y1="361.4754" y2="361.4754"/></g><!--class Position--><g class="entity" data-entity="Position" data-source-line="55" data-uid="ent0019" id="entity_Position"><rect fill="#F1F1F1" height="103.3852" rx="1.5" ry="1.5" style="stroke:#181818;stroke-width:0.3;" width="81.4137" x="1414.8" y="279.6082"/><ellipse cx="1438.3484" cy="292.9828" fill="#ADD1B2" rx="6.6" ry="6.6" style="stroke:#181818;stroke-width:0.6;"/><path d="M1440.0077,290.5078 Q1440.1015,290.3766 1440.214,290.3109 Q1440.3265,290.2453 1440.4577,290.2453 Q1440.6827,290.2453 1440.8234,290.4047 Q1440.964,290.5547 1440.964,290.9203 L1440.964,291.7922 Q1440.964,292.1578 1440.8234,292.3172 Q1440.6827,292.4766 1440.4577,292.4766 Q1440.2515,292.4766 1440.1296,292.3547 Q1440.0077,292.2422 1439.9421,291.9328 Q1439.914,291.7172 1439.8015,291.6047 Q1439.6046,291.3797 1439.239,291.2484 Q1438.8734,291.1172 1438.4984,291.1172 Q1438.039,291.1172 1437.6546,291.3141 Q1437.2796,291.5109 1436.9796,291.9609 Q1436.689,292.4109 1436.689,293.0297 L1436.689,293.6859 Q1436.689,294.4266 1437.2234,294.9234 Q1437.7577,295.4109 1438.714,295.4109 Q1439.2765,295.4109 1439.6702,295.2609 Q1439.9046,295.1672 1440.1577,294.9047 Q1440.3171,294.7453 1440.4015,294.6984 Q1440.4952,294.6516 1440.6171,294.6516 Q1440.814,294.6516 1440.964,294.8109 Q1441.1234,294.9609 1441.1234,295.1672 Q1441.1234,295.3734 1440.9171,295.6172 Q1440.6171,295.9641 1440.139,296.1609 Q1439.4921,296.4328 1438.714,296.4328 Q1437.8046,296.4328 1437.0827,296.0578 Q1436.4921,295.7578 1436.0796,295.1203 Q1435.6671,294.4734 1435.6671,293.7047 L1435.6671,293.0109 Q1435.6671,292.2141 1436.0327,291.5297 Q1436.4077,290.8359 1437.064,290.4703 Q1437.7202,290.0953 1438.4609,290.0953 Q1438.9015,290.0953 1439.2859,290.1984 Q1439.6796,290.2922 1440.0077,290.5078 Z " fill="#000000"/><text fill="#000000" font-family="sans-serif" font-size="7.2" font-style="italic" lengthAdjust="spacing" textLength="26.0191" x="1451.9138" y="290.3777">&#171;enum&#187;</text><text fill="#000000" font-family="sans-serif" font-size="8.4" lengthAdjust="spacing" textLength="29.884" x="1449.9813" y="301.2492">Position</text><line style="stroke:#181818;stroke-width:0.3;" x1="1415.4" x2="1495.6137" y1="306.3574" y2="306.3574"/><text fill="#000000" font-family="sans-serif" font-size="8.4" lengthAdjust="spacing" textLength="36.3973" x="1418.4" y="317.8219">DOCTOR</text><text fill="#000000" font-family="sans-serif" font-size="8.4" lengthAdjust="spacing" textLength="29.4041" x="1418.4" y="328.9945">NURSE</text><text fill="#000000" font-family="sans-serif" font-size="8.4" lengthAdjust="spacing" textLength="62.073" x="1418.4" y="340.1672">RECEPTIONIST</text><text fill="#000000" font-family="sans-serif" font-size="8.4" lengthAdjust="spacing" textLength="31.2662" x="1418.4" y="351.3398">INTERN</text><text fill="#000000" font-family="sans-serif" font-size="8.4" lengthAdjust="spacing" textLength="74.2137" x="1418.4" y="362.5125">CLEANING_STAFF</text><text fill="#000000" font-family="sans-serif" font-size="8.4" lengthAdjust="spacing" textLength="42.4717" x="1418.4" y="373.6852">SECURITY</text><line style="stroke:#181818;stroke-width:0.3;" x1="1415.4" x2="1495.6137" y1="378.1934" y2="378.1934"/></g><!--class WorkShift--><g class="entity" data-entity="WorkShift" data-source-line="64" data-uid="ent0020" id="entity_WorkShift"><rect fill="#F1F1F1" height="69.8672" rx="1.5" ry="1.5" style="stroke:#181818;stroke-width:0.3;" width="55.6055" x="1337.7" y="296.4082"/><ellipse cx="1346.7" cy="309.7828" fill="#ADD1B2" rx="6.6" ry="6.6" style="stroke:#181818;stroke-width:0.6;"/><path d="M1348.3594,307.3078 Q1348.4531,307.1766 1348.5656,307.1109 Q1348.6781,307.0453 1348.8094,307.0453 Q1349.0344,307.0453 1349.175,307.2047 Q1349.3156,307.3547 1349.3156,307.7203 L1349.3156,308.5922 Q1349.3156,308.9578 1349.175,309.1172 Q1349.0344,309.2766 1348.8094,309.2766 Q1348.6031,309.2766 1348.4813,309.1547 Q1348.3594,309.0422 1348.2938,308.7328 Q1348.2656,308.5172 1348.1531,308.4047 Q1347.9563,308.1797 1347.5906,308.0484 Q1347.225,307.9172 1346.85,307.9172 Q1346.3906,307.9172 1346.0063,308.1141 Q1345.6313,308.3109 1345.3313,308.7609 Q1345.0406,309.2109 1345.0406,309.8297 L1345.0406,310.4859 Q1345.0406,311.2266 1345.575,311.7234 Q1346.1094,312.2109 1347.0656,312.2109 Q1347.6281,312.2109 1348.0219,312.0609 Q1348.2563,311.9672 1348.5094,311.7047 Q1348.6688,311.5453 1348.7531,311.4984 Q1348.8469,311.4516 1348.9688,311.4516 Q1349.1656,311.4516 1349.3156,311.6109 Q1349.475,311.7609 1349.475,311.9672 Q1349.475,312.1734 1349.2688,312.4172 Q1348.9688,312.7641 1348.4906,312.9609 Q1347.8438,313.2328 1347.0656,313.2328 Q1346.1563,313.2328 1345.4344,312.8578 Q1344.8438,312.5578 1344.4312,311.9203 Q1344.0188,311.2734 1344.0188,310.5047 L1344.0188,309.8109 Q1344.0188,309.0141 1344.3844,308.3297 Q1344.7594,307.6359 1345.4156,307.2703 Q1346.0719,306.8953 1346.8125,306.8953 Q1347.2531,306.8953 1347.6375,306.9984 Q1348.0313,307.0922 1348.3594,307.3078 Z " fill="#000000"/><text fill="#000000" font-family="sans-serif" font-size="7.2" font-style="italic" lengthAdjust="spacing" textLength="26.0191" x="1360.2932" y="307.1777">&#171;enum&#187;</text><text fill="#000000" font-family="sans-serif" font-size="8.4" lengthAdjust="spacing" textLength="36.4055" x="1355.1" y="318.0492">WorkShift</text><line style="stroke:#181818;stroke-width:0.3;" x1="1338.3" x2="1392.7055" y1="323.1574" y2="323.1574"/><text fill="#000000" font-family="sans-serif" font-size="8.4" lengthAdjust="spacing" textLength="35.0068" x="1341.3" y="334.6219">tomorrow</text><text fill="#000000" font-family="sans-serif" font-size="8.4" lengthAdjust="spacing" textLength="13.5434" x="1341.3" y="345.7945">late</text><text fill="#000000" font-family="sans-serif" font-size="8.4" lengthAdjust="spacing" textLength="18.215" x="1341.3" y="356.9672">night</text><line style="stroke:#181818;stroke-width:0.3;" x1="1338.3" x2="1392.7055" y1="361.4754" y2="361.4754"/></g><!--class AssignedSchedules--><g class="entity" data-entity="AssignedSchedules" data-source-line="69" data-uid="ent0021" id="entity_AssignedSchedules"><rect fill="#F1F1F1" height="47.5219" rx="1.5" ry="1.5" style="stroke:#181818;stroke-width:0.3;" width="102.9264" x="1213.2" y="307.5082"/><ellipse cx="1226.6745" cy="320.8828" fill="#ADD1B2" rx="6.6" ry="6.6" style="stroke:#181818;stroke-width:0.6;"/><path d="M1228.3339,318.4078 Q1228.4276,318.2766 1228.5401,318.2109 Q1228.6526,318.1453 1228.7839,318.1453 Q1229.0089,318.1453 1229.1495,318.3047 Q1229.2901,318.4547 1229.2901,318.8203 L1229.2901,319.6922 Q1229.2901,320.0578 1229.1495,320.2172 Q1229.0089,320.3766 1228.7839,320.3766 Q1228.5776,320.3766 1228.4558,320.2547 Q1228.3339,320.1422 1228.2683,319.8328 Q1228.2401,319.6172 1228.1276,319.5047 Q1227.9308,319.2797 1227.5651,319.1484 Q1227.1995,319.0172 1226.8245,319.0172 Q1226.3651,319.0172 1225.9808,319.2141 Q1225.6058,319.4109 1225.3058,319.8609 Q1225.0151,320.3109 1225.0151,320.9297 L1225.0151,321.5859 Q1225.0151,322.3266 1225.5495,322.8234 Q1226.0839,323.3109 1227.0401,323.3109 Q1227.6026,323.3109 1227.9964,323.1609 Q1228.2308,323.0672 1228.4839,322.8047 Q1228.6433,322.6453 1228.7276,322.5984 Q1228.8214,322.5516 1228.9433,322.5516 Q1229.1401,322.5516 1229.2901,322.7109 Q1229.4495,322.8609 1229.4495,323.0672 Q1229.4495,323.2734 1229.2433,323.5172 Q1228.9433,323.8641 1228.4651,324.0609 Q1227.8183,324.3328 1227.0401,324.3328 Q1226.1308,324.3328 1225.4089,323.9578 Q1224.8183,323.6578 1224.4058,323.0203 Q1223.9933,322.3734 1223.9933,321.6047 L1223.9933,320.9109 Q1223.9933,320.1141 1224.3589,319.4297 Q1224.7339,318.7359 1225.3901,318.3703 Q1226.0464,317.9953 1226.787,317.9953 Q1227.2276,317.9953 1227.612,318.0984 Q1228.0058,318.1922 1228.3339,318.4078 Z " fill="#000000"/><text fill="#000000" font-family="sans-serif" font-size="7.2" font-style="italic" lengthAdjust="spacing" textLength="28.4168" x="1258.752" y="318.2777">&#171;record&#187;</text><text fill="#000000" font-family="sans-serif" font-size="8.4" lengthAdjust="spacing" textLength="73.783" x="1236.0688" y="329.1492">AssignedSchedules</text><line style="stroke:#181818;stroke-width:0.3;" x1="1213.8" x2="1315.5264" y1="334.2574" y2="334.2574"/><text fill="#000000" font-family="sans-serif" font-size="8.4" lengthAdjust="spacing" textLength="95.7264" x="1216.8" y="345.7219">assignedSchedules:string</text><line style="stroke:#181818;stroke-width:0.3;" x1="1213.8" x2="1315.5264" y1="350.2301" y2="350.2301"/></g><path d="M592.2,158.1082 L622.2082,158.1082 A2.25,2.25 0 0 1 623.7082,159.6082 L627.9082,172.8809 L630.6082,172.8809 A1.5,1.5 0 0 1 632.1082,174.3809 L632.1082,190.9535 A1.5,1.5 0 0 1 630.6082,192.4535 L592.2,192.4535 A1.5,1.5 0 0 1 590.7,190.9535 L590.7,159.6082 A1.5,1.5 0 0 1 592.2,158.1082" fill="#F1F1F1" style="stroke:#181818;stroke-width:0.3;"/><line style="stroke:#181818;stroke-width:0.3;" x1="590.7" x2="627.9082" y1="172.8809" y2="172.8809"/><text fill="#000000" font-family="sans-serif" font-size="8.4" font-weight="bold" lengthAdjust="spacing" textLength="29.4082" x="593.1" y="168.3727">entities</text><!--class EmployeeNotFoundException--><g class="entity" data-entity="EmployeeNotFoundException" data-source-line="79" data-uid="ent0024" id="entity_EmployeeNotFoundException"><rect fill="#F1F1F1" height="36.3492" rx="1.5" ry="1.5" style="stroke:#181818;stroke-width:0.3;" width="130.3318" x="910.5" y="429.0082"/><ellipse cx="919.5" cy="442.3828" fill="#ADD1B2" rx="6.6" ry="6.6" style="stroke:#181818;stroke-width:0.6;"/><path d="M921.1594,439.9078 Q921.2531,439.7766 921.3656,439.7109 Q921.4781,439.6453 921.6094,439.6453 Q921.8344,439.6453 921.975,439.8047 Q922.1156,439.9547 922.1156,440.3203 L922.1156,441.1922 Q922.1156,441.5578 921.975,441.7172 Q921.8344,441.8766 921.6094,441.8766 Q921.4031,441.8766 921.2813,441.7547 Q921.1594,441.6422 921.0938,441.3328 Q921.0656,441.1172 920.9531,441.0047 Q920.7563,440.7797 920.3906,440.6484 Q920.025,440.5172 919.65,440.5172 Q919.1906,440.5172 918.8063,440.7141 Q918.4313,440.9109 918.1313,441.3609 Q917.8406,441.8109 917.8406,442.4297 L917.8406,443.0859 Q917.8406,443.8266 918.375,444.3234 Q918.9094,444.8109 919.8656,444.8109 Q920.4281,444.8109 920.8219,444.6609 Q921.0563,444.5672 921.3094,444.3047 Q921.4688,444.1453 921.5531,444.0984 Q921.6469,444.0516 921.7688,444.0516 Q921.9656,444.0516 922.1156,444.2109 Q922.275,444.3609 922.275,444.5672 Q922.275,444.7734 922.0687,445.0172 Q921.7688,445.3641 921.2906,445.5609 Q920.6438,445.8328 919.8656,445.8328 Q918.9563,445.8328 918.2344,445.4578 Q917.6438,445.1578 917.2312,444.5203 Q916.8188,443.8734 916.8188,443.1047 L916.8188,442.4109 Q916.8188,441.6141 917.1844,440.9297 Q917.5594,440.2359 918.2156,439.8703 Q918.8719,439.4953 919.6125,439.4953 Q920.0531,439.4953 920.4375,439.5984 Q920.8313,439.6922 921.1594,439.9078 Z " fill="#000000"/><text fill="#000000" font-family="sans-serif" font-size="7.2" font-style="italic" lengthAdjust="spacing" textLength="38.8301" x="964.0509" y="439.7777">&#171;exception&#187;</text><text fill="#000000" font-family="sans-serif" font-size="8.4" lengthAdjust="spacing" textLength="111.1318" x="927.9" y="450.6492">EmployeeNotFoundException</text><line style="stroke:#181818;stroke-width:0.3;" x1="911.1" x2="1040.2318" y1="455.7574" y2="455.7574"/><line style="stroke:#181818;stroke-width:0.3;" x1="911.1" x2="1040.2318" y1="460.5574" y2="460.5574"/></g><!--class InvalidContractTypeException--><g class="entity" data-entity="InvalidContractTypeException" data-source-line="81" data-uid="ent0025" id="entity_InvalidContractTypeException"><rect fill="#F1F1F1" height="36.3492" rx="1.5" ry="1.5" style="stroke:#181818;stroke-width:0.3;" width="130.7912" x="1062" y="429.0082"/><ellipse cx="1071" cy="442.3828" fill="#ADD1B2" rx="6.6" ry="6.6" style="stroke:#181818;stroke-width:0.6;"/><path d="M1072.6594,439.9078 Q1072.7531,439.7766 1072.8656,439.7109 Q1072.9781,439.6453 1073.1094,439.6453 Q1073.3344,439.6453 1073.475,439.8047 Q1073.6156,439.9547 1073.6156,440.3203 L1073.6156,441.1922 Q1073.6156,441.5578 1073.475,441.7172 Q1073.3344,441.8766 1073.1094,441.8766 Q1072.9031,441.8766 1072.7813,441.7547 Q1072.6594,441.6422 1072.5938,441.3328 Q1072.5656,441.1172 1072.4531,441.0047 Q1072.2563,440.7797 1071.8906,440.6484 Q1071.525,440.5172 1071.15,440.5172 Q1070.6906,440.5172 1070.3062,440.7141 Q1069.9312,440.9109 1069.6313,441.3609 Q1069.3406,441.8109 1069.3406,442.4297 L1069.3406,443.0859 Q1069.3406,443.8266 1069.875,444.3234 Q1070.4094,444.8109 1071.3656,444.8109 Q1071.9281,444.8109 1072.3219,444.6609 Q1072.5562,444.5672 1072.8094,444.3047 Q1072.9688,444.1453 1073.0531,444.0984 Q1073.1469,444.0516 1073.2688,444.0516 Q1073.4656,444.0516 1073.6156,444.2109 Q1073.775,444.3609 1073.775,444.5672 Q1073.775,444.7734 1073.5688,445.0172 Q1073.2688,445.3641 1072.7906,445.5609 Q1072.1438,445.8328 1071.3656,445.8328 Q1070.4563,445.8328 1069.7344,445.4578 Q1069.1438,445.1578 1068.7313,444.5203 Q1068.3188,443.8734 1068.3188,443.1047 L1068.3188,442.4109 Q1068.3188,441.6141 1068.6844,440.9297 Q1069.0594,440.2359 1069.7156,439.8703 Q1070.3719,439.4953 1071.1125,439.4953 Q1071.5531,439.4953 1071.9375,439.5984 Q1072.3313,439.6922 1072.6594,439.9078 Z " fill="#000000"/><text fill="#000000" font-family="sans-serif" font-size="7.2" font-style="italic" lengthAdjust="spacing" textLength="38.8301" x="1115.7806" y="439.7777">&#171;exception&#187;</text><text fill="#000000" font-family="sans-serif" font-size="8.4" lengthAdjust="spacing" textLength="111.5912" x="1079.4" y="450.6492">InvalidContractTypeException</text><line style="stroke:#181818;stroke-width:0.3;" x1="1062.6" x2="1192.1912" y1="455.7574" y2="455.7574"/><line style="stroke:#181818;stroke-width:0.3;" x1="1062.6" x2="1192.1912" y1="460.5574" y2="460.5574"/></g><!--class InvalidPositionException--><g class="entity" data-entity="InvalidPositionException" data-source-line="82" data-uid="ent0026" id="entity_InvalidPositionException"><rect fill="#F1F1F1" height="36.3492" rx="1.5" ry="1.5" style="stroke:#181818;stroke-width:0.3;" width="110.2547" x="1213.8" y="429.0082"/><ellipse cx="1222.8" cy="442.3828" fill="#ADD1B2" rx="6.6" ry="6.6" style="stroke:#181818;stroke-width:0.6;"/><path d="M1224.4594,439.9078 Q1224.5531,439.7766 1224.6656,439.7109 Q1224.7781,439.6453 1224.9094,439.6453 Q1225.1344,439.6453 1225.275,439.8047 Q1225.4156,439.9547 1225.4156,440.3203 L1225.4156,441.1922 Q1225.4156,441.5578 1225.275,441.7172 Q1225.1344,441.8766 1224.9094,441.8766 Q1224.7031,441.8766 1224.5813,441.7547 Q1224.4594,441.6422 1224.3938,441.3328 Q1224.3656,441.1172 1224.2531,441.0047 Q1224.0562,440.7797 1223.6906,440.6484 Q1223.325,440.5172 1222.95,440.5172 Q1222.4906,440.5172 1222.1063,440.7141 Q1221.7313,440.9109 1221.4312,441.3609 Q1221.1406,441.8109 1221.1406,442.4297 L1221.1406,443.0859 Q1221.1406,443.8266 1221.675,444.3234 Q1222.2094,444.8109 1223.1656,444.8109 Q1223.7281,444.8109 1224.1219,444.6609 Q1224.3563,444.5672 1224.6094,444.3047 Q1224.7688,444.1453 1224.8531,444.0984 Q1224.9469,444.0516 1225.0688,444.0516 Q1225.2656,444.0516 1225.4156,444.2109 Q1225.575,444.3609 1225.575,444.5672 Q1225.575,444.7734 1225.3687,445.0172 Q1225.0688,445.3641 1224.5906,445.5609 Q1223.9438,445.8328 1223.1656,445.8328 Q1222.2563,445.8328 1221.5344,445.4578 Q1220.9438,445.1578 1220.5313,444.5203 Q1220.1187,443.8734 1220.1187,443.1047 L1220.1187,442.4109 Q1220.1187,441.6141 1220.4844,440.9297 Q1220.8594,440.2359 1221.5156,439.8703 Q1222.1719,439.4953 1222.9125,439.4953 Q1223.3531,439.4953 1223.7375,439.5984 Q1224.1313,439.6922 1224.4594,439.9078 Z " fill="#000000"/><text fill="#000000" font-family="sans-serif" font-size="7.2" font-style="italic" lengthAdjust="spacing" textLength="38.8301" x="1257.3123" y="439.7777">&#171;exception&#187;</text><text fill="#000000" font-family="sans-serif" font-size="8.4" lengthAdjust="spacing" textLength="91.0547" x="1231.2" y="450.6492">InvalidPositionException</text><line style="stroke:#181818;stroke-width:0.3;" x1="1214.4" x2="1323.4547" y1="455.7574" y2="455.7574"/><line style="stroke:#181818;stroke-width:0.3;" x1="1214.4" x2="1323.4547" y1="460.5574" y2="460.5574"/></g><!--class InvalidWorkShiftException--><g class="entity" data-entity="InvalidWorkShiftException" data-source-line="83" data-uid="ent0027" id="entity_InvalidWorkShiftException"><rect fill="#F1F1F1" height="36.3492" rx="1.5" ry="1.5" style="stroke:#181818;stroke-width:0.3;" width="116.7762" x="1345.5" y="429.0082"/><ellipse cx="1354.5" cy="442.3828" fill="#ADD1B2" rx="6.6" ry="6.6" style="stroke:#181818;stroke-width:0.6;"/><path d="M1356.1594,439.9078 Q1356.2531,439.7766 1356.3656,439.7109 Q1356.4781,439.6453 1356.6094,439.6453 Q1356.8344,439.6453 1356.975,439.8047 Q1357.1156,439.9547 1357.1156,440.3203 L1357.1156,441.1922 Q1357.1156,441.5578 1356.975,441.7172 Q1356.8344,441.8766 1356.6094,441.8766 Q1356.4031,441.8766 1356.2813,441.7547 Q1356.1594,441.6422 1356.0938,441.3328 Q1356.0656,441.1172 1355.9531,441.0047 Q1355.7563,440.7797 1355.3906,440.6484 Q1355.025,440.5172 1354.65,440.5172 Q1354.1906,440.5172 1353.8062,440.7141 Q1353.4312,440.9109 1353.1313,441.3609 Q1352.8406,441.8109 1352.8406,442.4297 L1352.8406,443.0859 Q1352.8406,443.8266 1353.375,444.3234 Q1353.9094,444.8109 1354.8656,444.8109 Q1355.4281,444.8109 1355.8219,444.6609 Q1356.0562,444.5672 1356.3094,444.3047 Q1356.4688,444.1453 1356.5531,444.0984 Q1356.6469,444.0516 1356.7688,444.0516 Q1356.9656,444.0516 1357.1156,444.2109 Q1357.275,444.3609 1357.275,444.5672 Q1357.275,444.7734 1357.0688,445.0172 Q1356.7688,445.3641 1356.2906,445.5609 Q1355.6438,445.8328 1354.8656,445.8328 Q1353.9563,445.8328 1353.2344,445.4578 Q1352.6438,445.1578 1352.2313,444.5203 Q1351.8188,443.8734 1351.8188,443.1047 L1351.8188,442.4109 Q1351.8188,441.6141 1352.1844,440.9297 Q1352.5594,440.2359 1353.2156,439.8703 Q1353.8719,439.4953 1354.6125,439.4953 Q1355.0531,439.4953 1355.4375,439.5984 Q1355.8313,439.6922 1356.1594,439.9078 Z " fill="#000000"/><text fill="#000000" font-family="sans-serif" font-size="7.2" font-style="italic" lengthAdjust="spacing" textLength="38.8301" x="1392.273" y="439.7777">&#171;exception&#187;</text><text fill="#000000" font-family="sans-serif" font-size="8.4" lengthAdjust="spacing" textLength="97.5762" x="1362.9" y="450.6492">InvalidWorkShiftException</text><line style="stroke:#181818;stroke-width:0.3;" x1="1346.1" x2="1461.6762" y1="455.7574" y2="455.7574"/><line style="stroke:#181818;stroke-width:0.3;" x1="1346.1" x2="1461.6762" y1="460.5574" y2="460.5574"/></g><!--class InvalidHireDateException--><g class="entity" data-entity="InvalidHireDateException" data-source-line="84" data-uid="ent0028" id="entity_InvalidHireDateException"><rect fill="#F1F1F1" height="36.3492" rx="1.5" ry="1.5" style="stroke:#181818;stroke-width:0.3;" width="113.5154" x="918.9" y="501.6082"/><ellipse cx="927.9" cy="514.9828" fill="#ADD1B2" rx="6.6" ry="6.6" style="stroke:#181818;stroke-width:0.6;"/><path d="M929.5594,512.5078 Q929.6531,512.3766 929.7656,512.3109 Q929.8781,512.2453 930.0094,512.2453 Q930.2344,512.2453 930.375,512.4047 Q930.5156,512.5547 930.5156,512.9203 L930.5156,513.7922 Q930.5156,514.1578 930.375,514.3172 Q930.2344,514.4766 930.0094,514.4766 Q929.8031,514.4766 929.6813,514.3547 Q929.5594,514.2422 929.4938,513.9328 Q929.4656,513.7172 929.3531,513.6047 Q929.1563,513.3797 928.7906,513.2484 Q928.425,513.1172 928.05,513.1172 Q927.5906,513.1172 927.2063,513.3141 Q926.8313,513.5109 926.5313,513.9609 Q926.2406,514.4109 926.2406,515.0297 L926.2406,515.6859 Q926.2406,516.4266 926.775,516.9234 Q927.3094,517.4109 928.2656,517.4109 Q928.8281,517.4109 929.2219,517.2609 Q929.4563,517.1672 929.7094,516.9047 Q929.8688,516.7453 929.9531,516.6984 Q930.0469,516.6516 930.1687,516.6516 Q930.3656,516.6516 930.5156,516.8109 Q930.675,516.9609 930.675,517.1672 Q930.675,517.3734 930.4688,517.6172 Q930.1687,517.9641 929.6906,518.1609 Q929.0437,518.4328 928.2656,518.4328 Q927.3562,518.4328 926.6344,518.0578 Q926.0437,517.7578 925.6312,517.1203 Q925.2188,516.4734 925.2188,515.7047 L925.2188,515.0109 Q925.2188,514.2141 925.5844,513.5297 Q925.9594,512.8359 926.6156,512.4703 Q927.2719,512.0953 928.0125,512.0953 Q928.4531,512.0953 928.8375,512.1984 Q929.2312,512.2922 929.5594,512.5078 Z " fill="#000000"/><text fill="#000000" font-family="sans-serif" font-size="7.2" font-style="italic" lengthAdjust="spacing" textLength="38.8301" x="964.0427" y="512.3777">&#171;exception&#187;</text><text fill="#000000" font-family="sans-serif" font-size="8.4" lengthAdjust="spacing" textLength="94.3154" x="936.3" y="523.2492">InvalidHireDateException</text><line style="stroke:#181818;stroke-width:0.3;" x1="919.5" x2="1031.8154" y1="528.3574" y2="528.3574"/><line style="stroke:#181818;stroke-width:0.3;" x1="919.5" x2="1031.8154" y1="533.1574" y2="533.1574"/></g><!--class InvalidProfileIdException--><g class="entity" data-entity="InvalidProfileIdException" data-source-line="85" data-uid="ent0029" id="entity_InvalidProfileIdException"><rect fill="#F1F1F1" height="36.3492" rx="1.5" ry="1.5" style="stroke:#181818;stroke-width:0.3;" width="111.1857" x="1053.3" y="501.6082"/><ellipse cx="1062.3" cy="514.9828" fill="#ADD1B2" rx="6.6" ry="6.6" style="stroke:#181818;stroke-width:0.6;"/><path d="M1063.9594,512.5078 Q1064.0531,512.3766 1064.1656,512.3109 Q1064.2781,512.2453 1064.4094,512.2453 Q1064.6344,512.2453 1064.775,512.4047 Q1064.9156,512.5547 1064.9156,512.9203 L1064.9156,513.7922 Q1064.9156,514.1578 1064.775,514.3172 Q1064.6344,514.4766 1064.4094,514.4766 Q1064.2031,514.4766 1064.0813,514.3547 Q1063.9594,514.2422 1063.8938,513.9328 Q1063.8656,513.7172 1063.7531,513.6047 Q1063.5562,513.3797 1063.1906,513.2484 Q1062.825,513.1172 1062.45,513.1172 Q1061.9906,513.1172 1061.6063,513.3141 Q1061.2313,513.5109 1060.9312,513.9609 Q1060.6406,514.4109 1060.6406,515.0297 L1060.6406,515.6859 Q1060.6406,516.4266 1061.175,516.9234 Q1061.7094,517.4109 1062.6656,517.4109 Q1063.2281,517.4109 1063.6219,517.2609 Q1063.8563,517.1672 1064.1094,516.9047 Q1064.2688,516.7453 1064.3531,516.6984 Q1064.4469,516.6516 1064.5688,516.6516 Q1064.7656,516.6516 1064.9156,516.8109 Q1065.075,516.9609 1065.075,517.1672 Q1065.075,517.3734 1064.8687,517.6172 Q1064.5688,517.9641 1064.0906,518.1609 Q1063.4438,518.4328 1062.6656,518.4328 Q1061.7563,518.4328 1061.0344,518.0578 Q1060.4438,517.7578 1060.0313,517.1203 Q1059.6187,516.4734 1059.6187,515.7047 L1059.6187,515.0109 Q1059.6187,514.2141 1059.9844,513.5297 Q1060.3594,512.8359 1061.0156,512.4703 Q1061.6719,512.0953 1062.4125,512.0953 Q1062.8531,512.0953 1063.2375,512.1984 Q1063.6313,512.2922 1063.9594,512.5078 Z " fill="#000000"/><text fill="#000000" font-family="sans-serif" font-size="7.2" font-style="italic" lengthAdjust="spacing" textLength="38.8301" x="1097.2778" y="512.3777">&#171;exception&#187;</text><text fill="#000000" font-family="sans-serif" font-size="8.4" lengthAdjust="spacing" textLength="91.9857" x="1070.7" y="523.2492">InvalidProfileIdException</text><line style="stroke:#181818;stroke-width:0.3;" x1="1053.9" x2="1163.8857" y1="528.3574" y2="528.3574"/><line style="stroke:#181818;stroke-width:0.3;" x1="1053.9" x2="1163.8857" y1="533.1574" y2="533.1574"/></g><!--class InactiveEmployeeException--><g class="entity" data-entity="InactiveEmployeeException" data-source-line="86" data-uid="ent0030" id="entity_InactiveEmployeeException"><rect fill="#F1F1F1" height="36.3492" rx="1.5" ry="1.5" style="stroke:#181818;stroke-width:0.3;" width="122.3912" x="1185.6" y="501.6082"/><ellipse cx="1194.6" cy="514.9828" fill="#ADD1B2" rx="6.6" ry="6.6" style="stroke:#181818;stroke-width:0.6;"/><path d="M1196.2594,512.5078 Q1196.3531,512.3766 1196.4656,512.3109 Q1196.5781,512.2453 1196.7094,512.2453 Q1196.9344,512.2453 1197.075,512.4047 Q1197.2156,512.5547 1197.2156,512.9203 L1197.2156,513.7922 Q1197.2156,514.1578 1197.075,514.3172 Q1196.9344,514.4766 1196.7094,514.4766 Q1196.5031,514.4766 1196.3813,514.3547 Q1196.2594,514.2422 1196.1938,513.9328 Q1196.1656,513.7172 1196.0531,513.6047 Q1195.8563,513.3797 1195.4906,513.2484 Q1195.125,513.1172 1194.75,513.1172 Q1194.2906,513.1172 1193.9063,513.3141 Q1193.5313,513.5109 1193.2313,513.9609 Q1192.9406,514.4109 1192.9406,515.0297 L1192.9406,515.6859 Q1192.9406,516.4266 1193.475,516.9234 Q1194.0094,517.4109 1194.9656,517.4109 Q1195.5281,517.4109 1195.9219,517.2609 Q1196.1563,517.1672 1196.4094,516.9047 Q1196.5688,516.7453 1196.6531,516.6984 Q1196.7469,516.6516 1196.8687,516.6516 Q1197.0656,516.6516 1197.2156,516.8109 Q1197.375,516.9609 1197.375,517.1672 Q1197.375,517.3734 1197.1688,517.6172 Q1196.8687,517.9641 1196.3906,518.1609 Q1195.7437,518.4328 1194.9656,518.4328 Q1194.0562,518.4328 1193.3344,518.0578 Q1192.7437,517.7578 1192.3313,517.1203 Q1191.9188,516.4734 1191.9188,515.7047 L1191.9188,515.0109 Q1191.9188,514.2141 1192.2844,513.5297 Q1192.6594,512.8359 1193.3156,512.4703 Q1193.9719,512.0953 1194.7125,512.0953 Q1195.1531,512.0953 1195.5375,512.1984 Q1195.9312,512.2922 1196.2594,512.5078 Z " fill="#000000"/><text fill="#000000" font-family="sans-serif" font-size="7.2" font-style="italic" lengthAdjust="spacing" textLength="38.8301" x="1235.1806" y="512.3777">&#171;exception&#187;</text><text fill="#000000" font-family="sans-serif" font-size="8.4" lengthAdjust="spacing" textLength="103.1912" x="1203" y="523.2492">InactiveEmployeeException</text><line style="stroke:#181818;stroke-width:0.3;" x1="1186.2" x2="1307.3912" y1="528.3574" y2="528.3574"/><line style="stroke:#181818;stroke-width:0.3;" x1="1186.2" x2="1307.3912" y1="533.1574" y2="533.1574"/></g><!--class DuplicateEmployeeException--><g class="entity" data-entity="DuplicateEmployeeException" data-source-line="87" data-uid="ent0031" id="entity_DuplicateEmployeeException"><rect fill="#F1F1F1" height="36.3492" rx="1.5" ry="1.5" style="stroke:#181818;stroke-width:0.3;" width="128.4615" x="1329" y="501.6082"/><ellipse cx="1338" cy="514.9828" fill="#ADD1B2" rx="6.6" ry="6.6" style="stroke:#181818;stroke-width:0.6;"/><path d="M1339.6594,512.5078 Q1339.7531,512.3766 1339.8656,512.3109 Q1339.9781,512.2453 1340.1094,512.2453 Q1340.3344,512.2453 1340.475,512.4047 Q1340.6156,512.5547 1340.6156,512.9203 L1340.6156,513.7922 Q1340.6156,514.1578 1340.475,514.3172 Q1340.3344,514.4766 1340.1094,514.4766 Q1339.9031,514.4766 1339.7813,514.3547 Q1339.6594,514.2422 1339.5938,513.9328 Q1339.5656,513.7172 1339.4531,513.6047 Q1339.2563,513.3797 1338.8906,513.2484 Q1338.525,513.1172 1338.15,513.1172 Q1337.6906,513.1172 1337.3062,513.3141 Q1336.9312,513.5109 1336.6313,513.9609 Q1336.3406,514.4109 1336.3406,515.0297 L1336.3406,515.6859 Q1336.3406,516.4266 1336.875,516.9234 Q1337.4094,517.4109 1338.3656,517.4109 Q1338.9281,517.4109 1339.3219,517.2609 Q1339.5562,517.1672 1339.8094,516.9047 Q1339.9688,516.7453 1340.0531,516.6984 Q1340.1469,516.6516 1340.2688,516.6516 Q1340.4656,516.6516 1340.6156,516.8109 Q1340.775,516.9609 1340.775,517.1672 Q1340.775,517.3734 1340.5688,517.6172 Q1340.2688,517.9641 1339.7906,518.1609 Q1339.1438,518.4328 1338.3656,518.4328 Q1337.4563,518.4328 1336.7344,518.0578 Q1336.1438,517.7578 1335.7313,517.1203 Q1335.3188,516.4734 1335.3188,515.7047 L1335.3188,515.0109 Q1335.3188,514.2141 1335.6844,513.5297 Q1336.0594,512.8359 1336.7156,512.4703 Q1337.3719,512.0953 1338.1125,512.0953 Q1338.5531,512.0953 1338.9375,512.1984 Q1339.3313,512.2922 1339.6594,512.5078 Z " fill="#000000"/><text fill="#000000" font-family="sans-serif" font-size="7.2" font-style="italic" lengthAdjust="spacing" textLength="38.8301" x="1381.6157" y="512.3777">&#171;exception&#187;</text><text fill="#000000" font-family="sans-serif" font-size="8.4" lengthAdjust="spacing" textLength="109.2615" x="1346.4" y="523.2492">DuplicateEmployeeException</text><line style="stroke:#181818;stroke-width:0.3;" x1="1329.6" x2="1456.8615" y1="528.3574" y2="528.3574"/><line style="stroke:#181818;stroke-width:0.3;" x1="1329.6" x2="1456.8615" y1="533.1574" y2="533.1574"/></g><!--class ScheduleConflictException--><g class="entity" data-entity="ScheduleConflictException" data-source-line="88" data-uid="ent0032" id="entity_ScheduleConflictException"><rect fill="#F1F1F1" height="36.3492" rx="1.5" ry="1.5" style="stroke:#181818;stroke-width:0.3;" width="119.1264" x="915.9" y="574.2082"/><ellipse cx="924.9" cy="587.5828" fill="#ADD1B2" rx="6.6" ry="6.6" style="stroke:#181818;stroke-width:0.6;"/><path d="M926.5594,585.1078 Q926.6531,584.9766 926.7656,584.9109 Q926.8781,584.8453 927.0094,584.8453 Q927.2344,584.8453 927.375,585.0047 Q927.5156,585.1547 927.5156,585.5203 L927.5156,586.3922 Q927.5156,586.7578 927.375,586.9172 Q927.2344,587.0766 927.0094,587.0766 Q926.8031,587.0766 926.6813,586.9547 Q926.5594,586.8422 926.4938,586.5328 Q926.4656,586.3172 926.3531,586.2047 Q926.1563,585.9797 925.7906,585.8484 Q925.425,585.7172 925.05,585.7172 Q924.5906,585.7172 924.2063,585.9141 Q923.8313,586.1109 923.5313,586.5609 Q923.2406,587.0109 923.2406,587.6297 L923.2406,588.2859 Q923.2406,589.0266 923.775,589.5234 Q924.3094,590.0109 925.2656,590.0109 Q925.8281,590.0109 926.2219,589.8609 Q926.4563,589.7672 926.7094,589.5047 Q926.8688,589.3453 926.9531,589.2984 Q927.0469,589.2516 927.1687,589.2516 Q927.3656,589.2516 927.5156,589.4109 Q927.675,589.5609 927.675,589.7672 Q927.675,589.9734 927.4688,590.2172 Q927.1687,590.5641 926.6906,590.7609 Q926.0437,591.0328 925.2656,591.0328 Q924.3562,591.0328 923.6344,590.6578 Q923.0437,590.3578 922.6312,589.7203 Q922.2188,589.0734 922.2188,588.3047 L922.2188,587.6109 Q922.2188,586.8141 922.5844,586.1297 Q922.9594,585.4359 923.6156,585.0703 Q924.2719,584.6953 925.0125,584.6953 Q925.4531,584.6953 925.8375,584.7984 Q926.2312,584.8922 926.5594,585.1078 Z " fill="#000000"/><text fill="#000000" font-family="sans-serif" font-size="7.2" font-style="italic" lengthAdjust="spacing" textLength="38.8301" x="963.8481" y="584.9777">&#171;exception&#187;</text><text fill="#000000" font-family="sans-serif" font-size="8.4" lengthAdjust="spacing" textLength="99.9264" x="933.3" y="595.8492">ScheduleConflictException</text><line style="stroke:#181818;stroke-width:0.3;" x1="916.5" x2="1034.4264" y1="600.9574" y2="600.9574"/><line style="stroke:#181818;stroke-width:0.3;" x1="916.5" x2="1034.4264" y1="605.7574" y2="605.7574"/></g><!--class ExceedWorkShiftHoursException--><g class="entity" data-entity="ExceedWorkShiftHoursException" data-source-line="89" data-uid="ent0033" id="entity_ExceedWorkShiftHoursException"><rect fill="#F1F1F1" height="36.3492" rx="1.5" ry="1.5" style="stroke:#181818;stroke-width:0.3;" width="142.9195" x="1056.6" y="574.2082"/><ellipse cx="1065.6" cy="587.5828" fill="#ADD1B2" rx="6.6" ry="6.6" style="stroke:#181818;stroke-width:0.6;"/><path d="M1067.2594,585.1078 Q1067.3531,584.9766 1067.4656,584.9109 Q1067.5781,584.8453 1067.7094,584.8453 Q1067.9344,584.8453 1068.075,585.0047 Q1068.2156,585.1547 1068.2156,585.5203 L1068.2156,586.3922 Q1068.2156,586.7578 1068.075,586.9172 Q1067.9344,587.0766 1067.7094,587.0766 Q1067.5031,587.0766 1067.3813,586.9547 Q1067.2594,586.8422 1067.1938,586.5328 Q1067.1656,586.3172 1067.0531,586.2047 Q1066.8563,585.9797 1066.4906,585.8484 Q1066.125,585.7172 1065.75,585.7172 Q1065.2906,585.7172 1064.9063,585.9141 Q1064.5313,586.1109 1064.2313,586.5609 Q1063.9406,587.0109 1063.9406,587.6297 L1063.9406,588.2859 Q1063.9406,589.0266 1064.475,589.5234 Q1065.0094,590.0109 1065.9656,590.0109 Q1066.5281,590.0109 1066.9219,589.8609 Q1067.1563,589.7672 1067.4094,589.5047 Q1067.5688,589.3453 1067.6531,589.2984 Q1067.7469,589.2516 1067.8687,589.2516 Q1068.0656,589.2516 1068.2156,589.4109 Q1068.375,589.5609 1068.375,589.7672 Q1068.375,589.9734 1068.1688,590.2172 Q1067.8687,590.5641 1067.3906,590.7609 Q1066.7437,591.0328 1065.9656,591.0328 Q1065.0562,591.0328 1064.3344,590.6578 Q1063.7437,590.3578 1063.3313,589.7203 Q1062.9188,589.0734 1062.9188,588.3047 L1062.9188,587.6109 Q1062.9188,586.8141 1063.2844,586.1297 Q1063.6594,585.4359 1064.3156,585.0703 Q1064.9719,584.6953 1065.7125,584.6953 Q1066.1531,584.6953 1066.5375,584.7984 Q1066.9312,584.8922 1067.2594,585.1078 Z " fill="#000000"/><text fill="#000000" font-family="sans-serif" font-size="7.2" font-style="italic" lengthAdjust="spacing" textLength="38.8301" x="1116.4447" y="584.9777">&#171;exception&#187;</text><text fill="#000000" font-family="sans-serif" font-size="8.4" lengthAdjust="spacing" textLength="123.7195" x="1074" y="595.8492">ExceedWorkShiftHoursException</text><line style="stroke:#181818;stroke-width:0.3;" x1="1057.2" x2="1198.9195" y1="600.9574" y2="600.9574"/><line style="stroke:#181818;stroke-width:0.3;" x1="1057.2" x2="1198.9195" y1="605.7574" y2="605.7574"/></g><!--class ContractExpiredException--><g class="entity" data-entity="ContractExpiredException" data-source-line="90" data-uid="ent0034" id="entity_ContractExpiredException"><rect fill="#F1F1F1" height="36.3492" rx="1.5" ry="1.5" style="stroke:#181818;stroke-width:0.3;" width="116.3168" x="1220.4" y="574.2082"/><ellipse cx="1229.4" cy="587.5828" fill="#ADD1B2" rx="6.6" ry="6.6" style="stroke:#181818;stroke-width:0.6;"/><path d="M1231.0594,585.1078 Q1231.1531,584.9766 1231.2656,584.9109 Q1231.3781,584.8453 1231.5094,584.8453 Q1231.7344,584.8453 1231.875,585.0047 Q1232.0156,585.1547 1232.0156,585.5203 L1232.0156,586.3922 Q1232.0156,586.7578 1231.875,586.9172 Q1231.7344,587.0766 1231.5094,587.0766 Q1231.3031,587.0766 1231.1812,586.9547 Q1231.0594,586.8422 1230.9937,586.5328 Q1230.9656,586.3172 1230.8531,586.2047 Q1230.6563,585.9797 1230.2906,585.8484 Q1229.925,585.7172 1229.55,585.7172 Q1229.0906,585.7172 1228.7063,585.9141 Q1228.3313,586.1109 1228.0313,586.5609 Q1227.7406,587.0109 1227.7406,587.6297 L1227.7406,588.2859 Q1227.7406,589.0266 1228.275,589.5234 Q1228.8094,590.0109 1229.7656,590.0109 Q1230.3281,590.0109 1230.7219,589.8609 Q1230.9563,589.7672 1231.2094,589.5047 Q1231.3687,589.3453 1231.4531,589.2984 Q1231.5469,589.2516 1231.6688,589.2516 Q1231.8656,589.2516 1232.0156,589.4109 Q1232.175,589.5609 1232.175,589.7672 Q1232.175,589.9734 1231.9688,590.2172 Q1231.6688,590.5641 1231.1906,590.7609 Q1230.5438,591.0328 1229.7656,591.0328 Q1228.8563,591.0328 1228.1344,590.6578 Q1227.5438,590.3578 1227.1313,589.7203 Q1226.7188,589.0734 1226.7188,588.3047 L1226.7188,587.6109 Q1226.7188,586.8141 1227.0844,586.1297 Q1227.4594,585.4359 1228.1156,585.0703 Q1228.7719,584.6953 1229.5125,584.6953 Q1229.9531,584.6953 1230.3375,584.7984 Q1230.7313,584.8922 1231.0594,585.1078 Z " fill="#000000"/><text fill="#000000" font-family="sans-serif" font-size="7.2" font-style="italic" lengthAdjust="spacing" textLength="38.8301" x="1266.9434" y="584.9777">&#171;exception&#187;</text><text fill="#000000" font-family="sans-serif" font-size="8.4" lengthAdjust="spacing" textLength="97.1168" x="1237.8" y="595.8492">ContractExpiredException</text><line style="stroke:#181818;stroke-width:0.3;" x1="1221" x2="1336.1168" y1="600.9574" y2="600.9574"/><line style="stroke:#181818;stroke-width:0.3;" x1="1221" x2="1336.1168" y1="605.7574" y2="605.7574"/></g><path d="M532.5,158.1082 L559.715,158.1082 A2.25,2.25 0 0 1 561.215,159.6082 L565.415,172.8809 L568.115,172.8809 A1.5,1.5 0 0 1 569.615,174.3809 L569.615,190.9535 A1.5,1.5 0 0 1 568.115,192.4535 L532.5,192.4535 A1.5,1.5 0 0 1 531,190.9535 L531,159.6082 A1.5,1.5 0 0 1 532.5,158.1082" fill="#F1F1F1" style="stroke:#181818;stroke-width:0.3;"/><line style="stroke:#181818;stroke-width:0.3;" x1="531" x2="565.415" y1="172.8809" y2="172.8809"/><text fill="#000000" font-family="sans-serif" font-size="8.4" font-weight="bold" lengthAdjust="spacing" textLength="26.615" x="533.4" y="168.3727">events</text><path d="M411,158.1082 L423.2771,158.1082 A2.25,2.25 0 0 1 424.7771,159.6082 L428.9771,172.8809 L431.6771,172.8809 A1.5,1.5 0 0 1 433.1771,174.3809 L433.1771,190.9535 A1.5,1.5 0 0 1 431.6771,192.4535 L411,192.4535 A1.5,1.5 0 0 1 409.5,190.9535 L409.5,159.6082 A1.5,1.5 0 0 1 411,158.1082" fill="#F1F1F1" style="stroke:#181818;stroke-width:0.3;"/><line style="stroke:#181818;stroke-width:0.3;" x1="409.5" x2="428.9771" y1="172.8809" y2="172.8809"/><text fill="#000000" font-family="sans-serif" font-size="8.4" font-weight="bold" lengthAdjust="spacing" textLength="11.6771" x="411.9" y="168.3727">acl</text><path d="M284.1,158.1082 L358.0072,158.1082 A2.25,2.25 0 0 1 359.5072,159.6082 L363.7072,172.8809 L366.4072,172.8809 A1.5,1.5 0 0 1 367.9072,174.3809 L367.9072,190.9535 A1.5,1.5 0 0 1 366.4072,192.4535 L284.1,192.4535 A1.5,1.5 0 0 1 282.6,190.9535 L282.6,159.6082 A1.5,1.5 0 0 1 284.1,158.1082" fill="#F1F1F1" style="stroke:#181818;stroke-width:0.3;"/><line style="stroke:#181818;stroke-width:0.3;" x1="282.6" x2="363.7072" y1="172.8809" y2="172.8809"/><text fill="#000000" font-family="sans-serif" font-size="8.4" font-weight="bold" lengthAdjust="spacing" textLength="73.3072" x="285" y="168.3727">commandservices</text><path d="M194.7,158.1082 L251.8072,158.1082 A2.25,2.25 0 0 1 253.3072,159.6082 L257.5072,172.8809 L260.2072,172.8809 A1.5,1.5 0 0 1 261.7072,174.3809 L261.7072,190.9535 A1.5,1.5 0 0 1 260.2072,192.4535 L194.7,192.4535 A1.5,1.5 0 0 1 193.2,190.9535 L193.2,159.6082 A1.5,1.5 0 0 1 194.7,158.1082" fill="#F1F1F1" style="stroke:#181818;stroke-width:0.3;"/><line style="stroke:#181818;stroke-width:0.3;" x1="193.2" x2="257.5072" y1="172.8809" y2="172.8809"/><text fill="#000000" font-family="sans-serif" font-size="8.4" font-weight="bold" lengthAdjust="spacing" textLength="56.5072" x="195.6" y="168.3727">queryservices</text><path d="M57.9,158.1082 L106.5826,158.1082 A2.25,2.25 0 0 1 108.0826,159.6082 L112.2826,172.8809 L114.9826,172.8809 A1.5,1.5 0 0 1 116.4826,174.3809 L116.4826,190.9535 A1.5,1.5 0 0 1 114.9826,192.4535 L57.9,192.4535 A1.5,1.5 0 0 1 56.4,190.9535 L56.4,159.6082 A1.5,1.5 0 0 1 57.9,158.1082" fill="#F1F1F1" style="stroke:#181818;stroke-width:0.3;"/><line style="stroke:#181818;stroke-width:0.3;" x1="56.4" x2="112.2826" y1="172.8809" y2="172.8809"/><text fill="#000000" font-family="sans-serif" font-size="8.4" font-weight="bold" lengthAdjust="spacing" textLength="48.0826" x="58.8" y="168.3727">repositories</text><path d="M1889.4,158.1082 L1930.1584,158.1082 A2.25,2.25 0 0 1 1931.6584,159.6082 L1935.8584,172.8809 L1938.5584,172.8809 A1.5,1.5 0 0 1 1940.0584,174.3809 L1940.0584,190.9535 A1.5,1.5 0 0 1 1938.5584,192.4535 L1889.4,192.4535 A1.5,1.5 0 0 1 1887.9,190.9535 L1887.9,159.6082 A1.5,1.5 0 0 1 1889.4,158.1082" fill="#F1F1F1" style="stroke:#181818;stroke-width:0.3;"/><line style="stroke:#181818;stroke-width:0.3;" x1="1887.9" x2="1935.8584" y1="172.8809" y2="172.8809"/><text fill="#000000" font-family="sans-serif" font-size="8.4" font-weight="bold" lengthAdjust="spacing" textLength="40.1584" x="1890.3" y="168.3727">resources</text><path d="M1817.4,158.1082 L1857.2068,158.1082 A2.25,2.25 0 0 1 1858.7068,159.6082 L1862.9068,172.8809 L1865.6068,172.8809 A1.5,1.5 0 0 1 1867.1068,174.3809 L1867.1068,190.9535 A1.5,1.5 0 0 1 1865.6068,192.4535 L1817.4,192.4535 A1.5,1.5 0 0 1 1815.9,190.9535 L1815.9,159.6082 A1.5,1.5 0 0 1 1817.4,158.1082" fill="#F1F1F1" style="stroke:#181818;stroke-width:0.3;"/><line style="stroke:#181818;stroke-width:0.3;" x1="1815.9" x2="1862.9068" y1="172.8809" y2="172.8809"/><text fill="#000000" font-family="sans-serif" font-size="8.4" font-weight="bold" lengthAdjust="spacing" textLength="39.2068" x="1818.3" y="168.3727">transform</text><path d="M1773,158.1082 L1785.2771,158.1082 A2.25,2.25 0 0 1 1786.7771,159.6082 L1790.9771,172.8809 L1793.6771,172.8809 A1.5,1.5 0 0 1 1795.1771,174.3809 L1795.1771,190.9535 A1.5,1.5 0 0 1 1793.6771,192.4535 L1773,192.4535 A1.5,1.5 0 0 1 1771.5,190.9535 L1771.5,159.6082 A1.5,1.5 0 0 1 1773,158.1082" fill="#F1F1F1" style="stroke:#181818;stroke-width:0.3;"/><line style="stroke:#181818;stroke-width:0.3;" x1="1771.5" x2="1790.9771" y1="172.8809" y2="172.8809"/><text fill="#000000" font-family="sans-serif" font-size="8.4" font-weight="bold" lengthAdjust="spacing" textLength="11.6771" x="1773.9" y="168.3727">acl</text><!--reverse link Employee to TypeOfContract--><g class="link" data-entity-1="Employee" data-entity-2="TypeOfContract" data-source-line="124" data-uid="lnk47" id="link_Employee_TypeOfContract"><path codeLine="124" d="M1500.0959,234.3831 C1517.0639,256.7151 1531.992,276.3622 1547.07,296.2102" fill="none" id="Employee-backto-TypeOfContract" style="stroke:#181818;stroke-width:0.6;"/><polygon fill="#181818" points="1495.74,228.6502,1496.007,232.9686,1500.0959,234.3831,1499.8289,230.0647,1495.74,228.6502" style="stroke:#181818;stroke-width:0.6;"/></g><!--reverse link Employee to Position--><g class="link" data-entity-1="Employee" data-entity-2="Position" data-source-line="125" data-uid="lnk48" id="link_Employee_Position"><path codeLine="125" d="M1455.6,235.8502 C1455.6,252.3142 1455.6,263.2342 1455.6,279.5782" fill="none" id="Employee-backto-Position" style="stroke:#181818;stroke-width:0.6;"/><polygon fill="#181818" points="1455.6,228.6502,1453.2,232.2502,1455.6,235.8502,1458,232.2502,1455.6,228.6502" style="stroke:#181818;stroke-width:0.6;"/></g><!--reverse link Employee to WorkShift--><g class="link" data-entity-1="Employee" data-entity-2="WorkShift" data-source-line="126" data-uid="lnk49" id="link_Employee_WorkShift"><path codeLine="126" d="M1415.321,234.8415 C1410.257,242.7315 1409.13,244.7842 1404.6,252.6082 C1396.482,266.6242 1388.334,282.5542 1381.608,296.3422" fill="none" id="Employee-backto-WorkShift" style="stroke:#181818;stroke-width:0.6;"/><polygon fill="#181818" points="1419.21,228.7822,1415.2457,230.5155,1415.321,234.8415,1419.2853,233.1082,1419.21,228.7822" style="stroke:#181818;stroke-width:0.6;"/></g><!--reverse link Employee to AssignedSchedules--><g class="link" data-entity-1="Employee" data-entity-2="AssignedSchedules" data-source-line="127" data-uid="lnk50" id="link_Employee_AssignedSchedules"><path codeLine="127" d="M1370.1949,220.9535 C1353.1909,231.4475 1342.026,239.6722 1327.2,252.6082 C1308.714,268.7422 1291.596,290.8702 1279.986,307.4362" fill="none" id="Employee-backto-AssignedSchedules" style="stroke:#181818;stroke-width:0.6;"/><polygon fill="#181818" points="1376.322,217.1722,1371.998,217.0205,1370.1949,220.9535,1374.5189,221.1052,1376.322,217.1722" style="stroke:#181818;stroke-width:0.6;"/></g><!--reverse link Employee to ProfileId--><g class="link" data-entity-1="Employee" data-entity-2="ProfileId" data-source-line="128" data-uid="lnk51" id="link_Employee_ProfileId"><path codeLine="128" d="M1541.698,197.5866 C1577.104,209.4666 1610.526,225.4462 1639.8,252.6082 C1655.832,267.4822 1666.356,290.3062 1672.5,307.4242" fill="none" id="Employee-backto-ProfileId" style="stroke:#181818;stroke-width:0.6;"/><polygon fill="#181818" points="1534.872,195.2962,1537.5215,198.7167,1541.698,197.5866,1539.0485,194.1661,1534.872,195.2962" style="stroke:#181818;stroke-width:0.6;"/></g><!--SRC=[bLRDRgCm4BxdAH37bTe7G54bIaYBb98i8RlggQ8mITo2pTecRLJrtTUq608sF-KGEPxvnZEVPyQJH_5hT033TBCy9MS0PjoI0YUG60x17DwvQNpCPeRuSgcw85c4SBblL5yjUY09f9UIbjG-72WS8WwignAd4MED4rrn-Q74CbO47nG1F-UmtfVUqYZcbX6s_Ylg6y8GHmHRzKfHUIFqTNj4UsxzbIj5H_YB3XYIRNo4f4Y1MORTtUg0ZeZ2GaHlbJyTMKx97gNW9PQvaKkpfVCvyAzcs25P5k6aZr-7WZXQibmfc_EvXDtSABpxKGOMunIfpAyYnh_4MwruWL6F93yI37wHFGFjqQWlII_kNBbUQOZkiGEQ3AX2xoU_edQN9p-XLcTY0IaCc1Yoq9SFlmkWgA_Sxe3RQIhFArNF7mD6Qz3jMRBt4qoxB2U1b8BgegPGy2TA2p3MpoyGSrOtCvNzfkpcSmeneO9mJHjg2bNRZDfEIDljs4rZFWTSP9fgCvQxrUefz1vSjM_PGQYNXEx3PXtOmUEJi_R3m7R2sGIVv1qEURDOE-4wKBRzNR1LtGXSnzs4tjhtjg4YzFpG3Nnbsrcvjk_vTq_Rq5uk5V7MTNQ15pxEXWAgugbRjIdZqTmU9ncXbBmfWbJJ8moC3aS-TiMD1qgw3cUI-eBessoPvqDvNsSwO2vkLAtsdiA0znZoCWF6NcEVy6Kv4xWIK38irqfeuhGAx-5JbA94fdrP18q9esLZrfnQeMHwJaVK2J0TSbyz4JzmIvR_0AH6YA3HgMxeuuX5aQSeldX6nY4oUGJ9Uu7buuXI0ngoxab1sJXANgBxdWlE-gEVb7WdaQdCx4lIxzLdP-YCyczklixKJ9wU65OfZj9MXw-bfE3FNsCj0tf2CR3hA4ulFEZnDAuUxmeqiR3-bQ_YE4OV9y9xAkOgMiIyeA0DDGVA4EE0OxX-oQDh2dbPBAJxqii3ZCu1WgXzL790WN7Tg5th2WMH7feez7smnebKmMnFQAR7JI7nmitsLLKcP8aOlwwkkYD_IrPF-QtTPh1lRQiZVDkMhFxPvty0]--></g></svg>