<svg xmlns="http://www.w3.org/2000/svg" xmlns:xlink="http://www.w3.org/1999/xlink" contentStyleType="text/css" data-diagram-type="CLASS" height="572px" preserveAspectRatio="none" style="width:2785px;height:572px;background:#FFFFFF;" version="1.1" viewBox="0 0 2785 572" width="2785px" zoomAndPan="magnify"><defs/><g><!--cluster NursingHome Bounded Context--><g class="cluster" data-entity="NursingHome Bounded Context" data-source-line="1" data-uid="ent0002" id="cluster_NursingHome Bounded Context"><path d="M8.5,6.0137 L221.8311,6.0137 A3.75,3.75 0 0 1 224.3311,8.5137 L231.3311,30.6348 L2775.5,30.6348 A2.5,2.5 0 0 1 2778,33.1348 L2778,562.5137 A2.5,2.5 0 0 1 2775.5,565.0137 L8.5,565.0137 A2.5,2.5 0 0 1 6,562.5137 L6,8.5137 A2.5,2.5 0 0 1 8.5,6.0137" fill="none" style="stroke:#000000;stroke-width:1.5;"/><line style="stroke:#000000;stroke-width:1.5;" x1="6" x2="231.3311" y1="30.6348" y2="30.6348"/><text fill="#000000" font-family="sans-serif" font-size="14" font-weight="bold" lengthAdjust="spacing" textLength="212.3311" x="10" y="23.1211">NursingHome Bounded Context</text></g><!--cluster Domain--><g class="cluster" data-entity="Domain" data-source-line="3" data-uid="ent0003" id="cluster_Domain"><path d="M1209.5,51.0137 L1261.8379,51.0137 A3.75,3.75 0 0 1 1264.3379,53.5137 L1271.3379,75.6348 L2751.5,75.6348 A2.5,2.5 0 0 1 2754,78.1348 L2754,538.5137 A2.5,2.5 0 0 1 2751.5,541.0137 L1209.5,541.0137 A2.5,2.5 0 0 1 1207,538.5137 L1207,53.5137 A2.5,2.5 0 0 1 1209.5,51.0137" fill="none" style="stroke:#000000;stroke-width:1.5;"/><line style="stroke:#000000;stroke-width:1.5;" x1="1207" x2="1271.3379" y1="75.6348" y2="75.6348"/><text fill="#000000" font-family="sans-serif" font-size="14" font-weight="bold" lengthAdjust="spacing" textLength="51.3379" x="1211" y="68.1211">Domain</text></g><!--cluster Model--><g class="cluster" data-entity="Model" data-source-line="4" data-uid="ent0004" id="cluster_Model"><path d="M1233.5,96.0137 L1274.9414,96.0137 A3.75,3.75 0 0 1 1277.4414,98.5137 L1284.4414,120.6348 L2727.5,120.6348 A2.5,2.5 0 0 1 2730,123.1348 L2730,514.5137 A2.5,2.5 0 0 1 2727.5,517.0137 L1233.5,517.0137 A2.5,2.5 0 0 1 1231,514.5137 L1231,98.5137 A2.5,2.5 0 0 1 1233.5,96.0137" fill="none" style="stroke:#000000;stroke-width:1.5;"/><line style="stroke:#000000;stroke-width:1.5;" x1="1231" x2="1284.4414" y1="120.6348" y2="120.6348"/><text fill="#000000" font-family="sans-serif" font-size="14" font-weight="bold" lengthAdjust="spacing" textLength="40.4414" x="1235" y="113.1211">Model</text></g><!--cluster Aggregates--><g class="cluster" data-entity="Aggregates" data-source-line="5" data-uid="ent0005" id="cluster_Aggregates"><path d="M2476.5,141.0137 L2554.5205,141.0137 A3.75,3.75 0 0 1 2557.0205,143.5137 L2564.0205,165.6348 L2703.5,165.6348 A2.5,2.5 0 0 1 2706,168.1348 L2706,351.5137 A2.5,2.5 0 0 1 2703.5,354.0137 L2476.5,354.0137 A2.5,2.5 0 0 1 2474,351.5137 L2474,143.5137 A2.5,2.5 0 0 1 2476.5,141.0137" fill="none" style="stroke:#000000;stroke-width:1.5;"/><line style="stroke:#000000;stroke-width:1.5;" x1="2474" x2="2564.0205" y1="165.6348" y2="165.6348"/><text fill="#000000" font-family="sans-serif" font-size="14" font-weight="bold" lengthAdjust="spacing" textLength="77.0205" x="2478" y="158.1211">Aggregates</text></g><!--cluster Value Objects--><g class="cluster" data-entity="Value Objects" data-source-line="19" data-uid="ent0009" id="cluster_Value Objects"><path d="M2025.5,181.5137 L2119.0928,181.5137 A3.75,3.75 0 0 1 2121.5928,184.0137 L2128.5928,206.1348 L2447.5,206.1348 A2.5,2.5 0 0 1 2450,208.6348 L2450,490.5137 A2.5,2.5 0 0 1 2447.5,493.0137 L2025.5,493.0137 A2.5,2.5 0 0 1 2023,490.5137 L2023,184.0137 A2.5,2.5 0 0 1 2025.5,181.5137" fill="none" style="stroke:#000000;stroke-width:1.5;"/><line style="stroke:#000000;stroke-width:1.5;" x1="2023" x2="2128.5928" y1="206.1348" y2="206.1348"/><text fill="#000000" font-family="sans-serif" font-size="14" font-weight="bold" lengthAdjust="spacing" textLength="92.5928" x="2027" y="198.6211">Value Objects</text></g><!--cluster entities--><g class="cluster" data-entity="entities" data-source-line="39" data-uid="ent0016" id="cluster_entities"><path d="M1699.5,160.0137 L1749.5137,160.0137 A3.75,3.75 0 0 1 1752.0137,162.5137 L1759.0137,184.6348 L1996.5,184.6348 A2.5,2.5 0 0 1 1999,187.1348 L1999,332.5137 A2.5,2.5 0 0 1 1996.5,335.0137 L1699.5,335.0137 A2.5,2.5 0 0 1 1697,332.5137 L1697,162.5137 A2.5,2.5 0 0 1 1699.5,160.0137" fill="none" style="stroke:#000000;stroke-width:1.5;"/><line style="stroke:#000000;stroke-width:1.5;" x1="1697" x2="1759.0137" y1="184.6348" y2="184.6348"/><text fill="#000000" font-family="sans-serif" font-size="14" font-weight="bold" lengthAdjust="spacing" textLength="49.0137" x="1701" y="177.1211">entities</text></g><!--cluster application--><g class="cluster" data-entity="application" data-source-line="59" data-uid="ent0021" id="cluster_application"><path d="M646.5,102.5137 L721.3965,102.5137 A3.75,3.75 0 0 1 723.8965,105.0137 L730.8965,127.1348 L1180.5,127.1348 A2.5,2.5 0 0 1 1183,129.6348 L1183,348.0137 A2.5,2.5 0 0 1 1180.5,350.5137 L646.5,350.5137 A2.5,2.5 0 0 1 644,348.0137 L644,105.0137 A2.5,2.5 0 0 1 646.5,102.5137" fill="none" style="stroke:#000000;stroke-width:1.5;"/><line style="stroke:#000000;stroke-width:1.5;" x1="644" x2="730.8965" y1="127.1348" y2="127.1348"/><text fill="#000000" font-family="sans-serif" font-size="14" font-weight="bold" lengthAdjust="spacing" textLength="73.8965" x="648" y="119.6211">application</text></g><!--cluster Internal--><g class="cluster" data-entity="Internal" data-source-line="60" data-uid="ent0022" id="cluster_Internal"><path d="M670.5,147.5137 L722.0654,147.5137 A3.75,3.75 0 0 1 724.5654,150.0137 L731.5654,172.1348 L1156.5,172.1348 A2.5,2.5 0 0 1 1159,174.6348 L1159,324.0137 A2.5,2.5 0 0 1 1156.5,326.5137 L670.5,326.5137 A2.5,2.5 0 0 1 668,324.0137 L668,150.0137 A2.5,2.5 0 0 1 670.5,147.5137" fill="none" style="stroke:#000000;stroke-width:1.5;"/><line style="stroke:#000000;stroke-width:1.5;" x1="668" x2="731.5654" y1="172.1348" y2="172.1348"/><text fill="#000000" font-family="sans-serif" font-size="14" font-weight="bold" lengthAdjust="spacing" textLength="50.5654" x="672" y="164.6211">Internal</text></g><!--cluster outboundeservices--><g class="cluster" data-entity="outboundeservices" data-uid="ent0037" id="cluster_outboundeservices"><path d="M993.5,192.5137 L1122.8652,192.5137 A3.75,3.75 0 0 1 1125.3652,195.0137 L1132.3652,217.1348 L1132.5,217.1348 A2.5,2.5 0 0 1 1135,219.6348 L1135,300.0137 A2.5,2.5 0 0 1 1132.5,302.5137 L993.5,302.5137 A2.5,2.5 0 0 1 991,300.0137 L991,195.0137 A2.5,2.5 0 0 1 993.5,192.5137" fill="none" style="stroke:#000000;stroke-width:1.5;"/><line style="stroke:#000000;stroke-width:1.5;" x1="991" x2="1132.3652" y1="217.1348" y2="217.1348"/><text fill="#000000" font-family="sans-serif" font-size="14" font-weight="bold" lengthAdjust="spacing" textLength="128.3652" x="995" y="209.6211">outboundeservices</text></g><!--cluster infrastructure--><g class="cluster" data-entity="infrastructure" data-source-line="71" data-uid="ent0026" id="cluster_infrastructure"><path d="M394.5,102.5137 L486.5205,102.5137 A3.75,3.75 0 0 1 489.0205,105.0137 L496.0205,127.1348 L617.5,127.1348 A2.5,2.5 0 0 1 620,129.6348 L620,348.0137 A2.5,2.5 0 0 1 617.5,350.5137 L394.5,350.5137 A2.5,2.5 0 0 1 392,348.0137 L392,105.0137 A2.5,2.5 0 0 1 394.5,102.5137" fill="none" style="stroke:#000000;stroke-width:1.5;"/><line style="stroke:#000000;stroke-width:1.5;" x1="392" x2="496.0205" y1="127.1348" y2="127.1348"/><text fill="#000000" font-family="sans-serif" font-size="14" font-weight="bold" lengthAdjust="spacing" textLength="91.0205" x="396" y="119.6211">infrastructure</text></g><!--cluster persistence--><g class="cluster" data-entity="persistence" data-uid="ent0038" id="cluster_persistence"><path d="M418.5,147.5137 L497.3203,147.5137 A3.75,3.75 0 0 1 499.8203,150.0137 L506.8203,172.1348 L593.5,172.1348 A2.5,2.5 0 0 1 596,174.6348 L596,324.0137 A2.5,2.5 0 0 1 593.5,326.5137 L418.5,326.5137 A2.5,2.5 0 0 1 416,324.0137 L416,150.0137 A2.5,2.5 0 0 1 418.5,147.5137" fill="none" style="stroke:#000000;stroke-width:1.5;"/><line style="stroke:#000000;stroke-width:1.5;" x1="416" x2="506.8203" y1="172.1348" y2="172.1348"/><text fill="#000000" font-family="sans-serif" font-size="14" font-weight="bold" lengthAdjust="spacing" textLength="77.8203" x="420" y="164.6211">persistence</text></g><!--cluster jpa--><g class="cluster" data-entity="jpa" data-uid="ent0039" id="cluster_jpa"><path d="M442.5,192.5137 L463.7275,192.5137 A3.75,3.75 0 0 1 466.2275,195.0137 L473.2275,217.1348 L569.5,217.1348 A2.5,2.5 0 0 1 572,219.6348 L572,300.0137 A2.5,2.5 0 0 1 569.5,302.5137 L442.5,302.5137 A2.5,2.5 0 0 1 440,300.0137 L440,195.0137 A2.5,2.5 0 0 1 442.5,192.5137" fill="none" style="stroke:#000000;stroke-width:1.5;"/><line style="stroke:#000000;stroke-width:1.5;" x1="440" x2="473.2275" y1="217.1348" y2="217.1348"/><text fill="#000000" font-family="sans-serif" font-size="14" font-weight="bold" lengthAdjust="spacing" textLength="20.2275" x="444" y="209.6211">jpa</text></g><!--cluster interfaces--><g class="cluster" data-entity="interfaces" data-uid="ent0040" id="cluster_interfaces"><path d="M32.5,147.5137 L99.6445,147.5137 A3.75,3.75 0 0 1 102.1445,150.0137 L109.1445,172.1348 L365.5,172.1348 A2.5,2.5 0 0 1 368,174.6348 L368,324.0137 A2.5,2.5 0 0 1 365.5,326.5137 L32.5,326.5137 A2.5,2.5 0 0 1 30,324.0137 L30,150.0137 A2.5,2.5 0 0 1 32.5,147.5137" fill="none" style="stroke:#000000;stroke-width:1.5;"/><line style="stroke:#000000;stroke-width:1.5;" x1="30" x2="109.1445" y1="172.1348" y2="172.1348"/><text fill="#000000" font-family="sans-serif" font-size="14" font-weight="bold" lengthAdjust="spacing" textLength="66.1445" x="34" y="164.6211">interfaces</text></g><!--cluster rest--><g class="cluster" data-entity="rest" data-source-line="75" data-uid="ent0028" id="cluster_rest"><path d="M106.5,192.5137 L133.1826,192.5137 A3.75,3.75 0 0 1 135.6826,195.0137 L142.6826,217.1348 L341.5,217.1348 A2.5,2.5 0 0 1 344,219.6348 L344,300.0137 A2.5,2.5 0 0 1 341.5,302.5137 L106.5,302.5137 A2.5,2.5 0 0 1 104,300.0137 L104,195.0137 A2.5,2.5 0 0 1 106.5,192.5137" fill="none" style="stroke:#000000;stroke-width:1.5;"/><line style="stroke:#000000;stroke-width:1.5;" x1="104" x2="142.6826" y1="217.1348" y2="217.1348"/><text fill="#000000" font-family="sans-serif" font-size="14" font-weight="bold" lengthAdjust="spacing" textLength="25.6826" x="108" y="209.6211">rest</text></g><!--class NursingHome--><g class="entity" data-entity="NursingHome" data-source-line="6" data-uid="ent0006" id="entity_NursingHome"><rect fill="#F1F1F1" height="159.7266" rx="2.5" ry="2.5" style="stroke:#181818;stroke-width:0.5;" width="198.7783" x="2490.5" y="178.0137"/><ellipse cx="2542.8462" cy="194.0137" fill="#ADD1B2" rx="11" ry="11" style="stroke:#181818;stroke-width:1;"/><path d="M2545.6118,189.8887 Q2545.7681,189.6699 2545.9556,189.5605 Q2546.1431,189.4512 2546.3618,189.4512 Q2546.7368,189.4512 2546.9712,189.7168 Q2547.2056,189.9668 2547.2056,190.5762 L2547.2056,192.0293 Q2547.2056,192.6387 2546.9712,192.9043 Q2546.7368,193.1699 2546.3618,193.1699 Q2546.0181,193.1699 2545.8149,192.9668 Q2545.6118,192.7793 2545.5024,192.2637 Q2545.4556,191.9043 2545.2681,191.7168 Q2544.9399,191.3418 2544.3306,191.123 Q2543.7212,190.9043 2543.0962,190.9043 Q2542.3306,190.9043 2541.6899,191.2324 Q2541.0649,191.5605 2540.5649,192.3105 Q2540.0806,193.0605 2540.0806,194.0918 L2540.0806,195.1855 Q2540.0806,196.4199 2540.9712,197.248 Q2541.8618,198.0605 2543.4556,198.0605 Q2544.3931,198.0605 2545.0493,197.8105 Q2545.4399,197.6543 2545.8618,197.2168 Q2546.1274,196.9512 2546.2681,196.873 Q2546.4243,196.7949 2546.6274,196.7949 Q2546.9556,196.7949 2547.2056,197.0605 Q2547.4712,197.3105 2547.4712,197.6543 Q2547.4712,197.998 2547.1274,198.4043 Q2546.6274,198.9824 2545.8306,199.3105 Q2544.7524,199.7637 2543.4556,199.7637 Q2541.9399,199.7637 2540.7368,199.1387 Q2539.7524,198.6387 2539.0649,197.5762 Q2538.3774,196.498 2538.3774,195.2168 L2538.3774,194.0605 Q2538.3774,192.7324 2538.9868,191.5918 Q2539.6118,190.4355 2540.7056,189.8262 Q2541.7993,189.2012 2543.0337,189.2012 Q2543.7681,189.2012 2544.4087,189.373 Q2545.0649,189.5293 2545.6118,189.8887 Z " fill="#000000"/><text fill="#000000" font-family="sans-serif" font-size="14" lengthAdjust="spacing" textLength="85.5859" x="2563.3462" y="199.8105">NursingHome</text><line style="stroke:#181818;stroke-width:0.5;" x1="2491.5" x2="2688.2783" y1="210.0137" y2="210.0137"/><text fill="#000000" font-family="sans-serif" font-size="14" lengthAdjust="spacing" textLength="49.8203" x="2496.5" y="229.1211">id: Long</text><text fill="#000000" font-family="sans-serif" font-size="14" lengthAdjust="spacing" textLength="80.1445" x="2496.5" y="247.7422">name: Name</text><text fill="#000000" font-family="sans-serif" font-size="14" lengthAdjust="spacing" textLength="186.7783" x="2496.5" y="266.3633">phoneNumber: PhoneNumber</text><text fill="#000000" font-family="sans-serif" font-size="14" lengthAdjust="spacing" textLength="112.834" x="2496.5" y="284.9844">address : Address</text><text fill="#000000" font-family="sans-serif" font-size="14" lengthAdjust="spacing" textLength="52.124" x="2496.5" y="303.6055">ruc: Ruc</text><text fill="#000000" font-family="sans-serif" font-size="14" lengthAdjust="spacing" textLength="145.5098" x="2496.5" y="322.2266">description: Description</text><line style="stroke:#181818;stroke-width:0.5;" x1="2491.5" x2="2688.2783" y1="329.7402" y2="329.7402"/></g><path d="M1584.5,229.5137 L1661.7344,229.5137 A3.75,3.75 0 0 1 1664.2344,232.0137 L1671.2344,254.1348 L1675.7344,254.1348 A2.5,2.5 0 0 1 1678.2344,256.6348 L1678.2344,284.2559 A2.5,2.5 0 0 1 1675.7344,286.7559 L1584.5,286.7559 A2.5,2.5 0 0 1 1582,284.2559 L1582,232.0137 A2.5,2.5 0 0 1 1584.5,229.5137" fill="#F1F1F1" style="stroke:#181818;stroke-width:0.5;"/><line style="stroke:#181818;stroke-width:0.5;" x1="1582" x2="1671.2344" y1="254.1348" y2="254.1348"/><text fill="#000000" font-family="sans-serif" font-size="14" font-weight="bold" lengthAdjust="spacing" textLength="76.2344" x="1586" y="246.6211">Commands</text><path d="M1477.5,229.5137 L1530.6377,229.5137 A3.75,3.75 0 0 1 1533.1377,232.0137 L1540.1377,254.1348 L1544.6377,254.1348 A2.5,2.5 0 0 1 1547.1377,256.6348 L1547.1377,284.2559 A2.5,2.5 0 0 1 1544.6377,286.7559 L1477.5,286.7559 A2.5,2.5 0 0 1 1475,284.2559 L1475,232.0137 A2.5,2.5 0 0 1 1477.5,229.5137" fill="#F1F1F1" style="stroke:#181818;stroke-width:0.5;"/><line style="stroke:#181818;stroke-width:0.5;" x1="1475" x2="1540.1377" y1="254.1348" y2="254.1348"/><text fill="#000000" font-family="sans-serif" font-size="14" font-weight="bold" lengthAdjust="spacing" textLength="52.1377" x="1479" y="246.6211">Queries</text><!--class Name--><g class="entity" data-entity="Name" data-source-line="20" data-uid="ent0010" id="entity_Name"><rect fill="#F1F1F1" height="79.2031" rx="2.5" ry="2.5" style="stroke:#181818;stroke-width:0.5;" width="85.1445" x="2039.5" y="218.5137"/><ellipse cx="2058.9024" cy="240.8047" fill="#ADD1B2" rx="11" ry="11" style="stroke:#181818;stroke-width:1;"/><path d="M2061.6681,236.6797 Q2061.8243,236.4609 2062.0118,236.3516 Q2062.1993,236.2422 2062.4181,236.2422 Q2062.7931,236.2422 2063.0274,236.5078 Q2063.2618,236.7578 2063.2618,237.3672 L2063.2618,238.8203 Q2063.2618,239.4297 2063.0274,239.6953 Q2062.7931,239.9609 2062.4181,239.9609 Q2062.0743,239.9609 2061.8712,239.7578 Q2061.6681,239.5703 2061.5587,239.0547 Q2061.5118,238.6953 2061.3243,238.5078 Q2060.9962,238.1328 2060.3868,237.9141 Q2059.7774,237.6953 2059.1524,237.6953 Q2058.3868,237.6953 2057.7462,238.0234 Q2057.1212,238.3516 2056.6212,239.1016 Q2056.1368,239.8516 2056.1368,240.8828 L2056.1368,241.9766 Q2056.1368,243.2109 2057.0274,244.0391 Q2057.9181,244.8516 2059.5118,244.8516 Q2060.4493,244.8516 2061.1056,244.6016 Q2061.4962,244.4453 2061.9181,244.0078 Q2062.1837,243.7422 2062.3243,243.6641 Q2062.4806,243.5859 2062.6837,243.5859 Q2063.0118,243.5859 2063.2618,243.8516 Q2063.5274,244.1016 2063.5274,244.4453 Q2063.5274,244.7891 2063.1837,245.1953 Q2062.6837,245.7734 2061.8868,246.1016 Q2060.8087,246.5547 2059.5118,246.5547 Q2057.9962,246.5547 2056.7931,245.9297 Q2055.8087,245.4297 2055.1212,244.3672 Q2054.4337,243.2891 2054.4337,242.0078 L2054.4337,240.8516 Q2054.4337,239.5234 2055.0431,238.3828 Q2055.6681,237.2266 2056.7618,236.6172 Q2057.8556,235.9922 2059.0899,235.9922 Q2059.8243,235.9922 2060.4649,236.1641 Q2061.1212,236.3203 2061.6681,236.6797 Z " fill="#000000"/><text fill="#000000" font-family="sans-serif" font-size="12" font-style="italic" lengthAdjust="spacing" textLength="47.3613" x="2071.8808" y="236.4629">&#171;record&#187;</text><text fill="#000000" font-family="sans-serif" font-size="14" lengthAdjust="spacing" textLength="37.3447" x="2076.8891" y="254.582">Name</text><line style="stroke:#181818;stroke-width:0.5;" x1="2040.5" x2="2123.6445" y1="263.0957" y2="263.0957"/><text fill="#000000" font-family="sans-serif" font-size="14" lengthAdjust="spacing" textLength="73.1445" x="2045.5" y="282.2031">name:string</text><line style="stroke:#181818;stroke-width:0.5;" x1="2040.5" x2="2123.6445" y1="289.7168" y2="289.7168"/></g><!--class PhoneNumber--><g class="entity" data-entity="PhoneNumber" data-source-line="23" data-uid="ent0011" id="entity_PhoneNumber"><rect fill="#F1F1F1" height="79.2031" rx="2.5" ry="2.5" style="stroke:#181818;stroke-width:0.5;" width="138.8477" x="2159.5" y="218.5137"/><ellipse cx="2181.9575" cy="240.8047" fill="#ADD1B2" rx="11" ry="11" style="stroke:#181818;stroke-width:1;"/><path d="M2184.7231,236.6797 Q2184.8794,236.4609 2185.0669,236.3516 Q2185.2544,236.2422 2185.4731,236.2422 Q2185.8481,236.2422 2186.0825,236.5078 Q2186.3169,236.7578 2186.3169,237.3672 L2186.3169,238.8203 Q2186.3169,239.4297 2186.0825,239.6953 Q2185.8481,239.9609 2185.4731,239.9609 Q2185.1294,239.9609 2184.9263,239.7578 Q2184.7231,239.5703 2184.6138,239.0547 Q2184.5669,238.6953 2184.3794,238.5078 Q2184.0513,238.1328 2183.4419,237.9141 Q2182.8325,237.6953 2182.2075,237.6953 Q2181.4419,237.6953 2180.8013,238.0234 Q2180.1763,238.3516 2179.6763,239.1016 Q2179.1919,239.8516 2179.1919,240.8828 L2179.1919,241.9766 Q2179.1919,243.2109 2180.0825,244.0391 Q2180.9731,244.8516 2182.5669,244.8516 Q2183.5044,244.8516 2184.1606,244.6016 Q2184.5513,244.4453 2184.9731,244.0078 Q2185.2388,243.7422 2185.3794,243.6641 Q2185.5356,243.5859 2185.7388,243.5859 Q2186.0669,243.5859 2186.3169,243.8516 Q2186.5825,244.1016 2186.5825,244.4453 Q2186.5825,244.7891 2186.2388,245.1953 Q2185.7388,245.7734 2184.9419,246.1016 Q2183.8638,246.5547 2182.5669,246.5547 Q2181.0513,246.5547 2179.8481,245.9297 Q2178.8638,245.4297 2178.1763,244.3672 Q2177.4888,243.2891 2177.4888,242.0078 L2177.4888,240.8516 Q2177.4888,239.5234 2178.0981,238.3828 Q2178.7231,237.2266 2179.8169,236.6172 Q2180.9106,235.9922 2182.145,235.9922 Q2182.8794,235.9922 2183.52,236.1641 Q2184.1763,236.3203 2184.7231,236.6797 Z " fill="#000000"/><text fill="#000000" font-family="sans-serif" font-size="12" font-style="italic" lengthAdjust="spacing" textLength="47.3613" x="2219.0718" y="236.4629">&#171;record&#187;</text><text fill="#000000" font-family="sans-serif" font-size="14" lengthAdjust="spacing" textLength="90.2754" x="2197.6147" y="254.582">PhoneNumber</text><line style="stroke:#181818;stroke-width:0.5;" x1="2160.5" x2="2297.3477" y1="263.0957" y2="263.0957"/><text fill="#000000" font-family="sans-serif" font-size="14" lengthAdjust="spacing" textLength="126.8477" x="2165.5" y="282.2031">phoneNumber:string</text><line style="stroke:#181818;stroke-width:0.5;" x1="2160.5" x2="2297.3477" y1="289.7168" y2="289.7168"/></g><!--class Address--><g class="entity" data-entity="Address" data-source-line="26" data-uid="ent0012" id="entity_Address"><rect fill="#F1F1F1" height="79.2031" rx="2.5" ry="2.5" style="stroke:#181818;stroke-width:0.5;" width="99.9307" x="2334" y="218.5137"/><ellipse cx="2356.4575" cy="240.8047" fill="#ADD1B2" rx="11" ry="11" style="stroke:#181818;stroke-width:1;"/><path d="M2359.2231,236.6797 Q2359.3794,236.4609 2359.5669,236.3516 Q2359.7544,236.2422 2359.9731,236.2422 Q2360.3481,236.2422 2360.5825,236.5078 Q2360.8169,236.7578 2360.8169,237.3672 L2360.8169,238.8203 Q2360.8169,239.4297 2360.5825,239.6953 Q2360.3481,239.9609 2359.9731,239.9609 Q2359.6294,239.9609 2359.4263,239.7578 Q2359.2231,239.5703 2359.1138,239.0547 Q2359.0669,238.6953 2358.8794,238.5078 Q2358.5513,238.1328 2357.9419,237.9141 Q2357.3325,237.6953 2356.7075,237.6953 Q2355.9419,237.6953 2355.3013,238.0234 Q2354.6763,238.3516 2354.1763,239.1016 Q2353.6919,239.8516 2353.6919,240.8828 L2353.6919,241.9766 Q2353.6919,243.2109 2354.5825,244.0391 Q2355.4731,244.8516 2357.0669,244.8516 Q2358.0044,244.8516 2358.6606,244.6016 Q2359.0513,244.4453 2359.4731,244.0078 Q2359.7388,243.7422 2359.8794,243.6641 Q2360.0356,243.5859 2360.2388,243.5859 Q2360.5669,243.5859 2360.8169,243.8516 Q2361.0825,244.1016 2361.0825,244.4453 Q2361.0825,244.7891 2360.7388,245.1953 Q2360.2388,245.7734 2359.4419,246.1016 Q2358.3638,246.5547 2357.0669,246.5547 Q2355.5513,246.5547 2354.3481,245.9297 Q2353.3638,245.4297 2352.6763,244.3672 Q2351.9888,243.2891 2351.9888,242.0078 L2351.9888,240.8516 Q2351.9888,239.5234 2352.5981,238.3828 Q2353.2231,237.2266 2354.3169,236.6172 Q2355.4106,235.9922 2356.645,235.9922 Q2357.3794,235.9922 2358.02,236.1641 Q2358.6763,236.3203 2359.2231,236.6797 Z " fill="#000000"/><text fill="#000000" font-family="sans-serif" font-size="12" font-style="italic" lengthAdjust="spacing" textLength="47.3613" x="2374.1133" y="236.4629">&#171;record&#187;</text><text fill="#000000" font-family="sans-serif" font-size="14" lengthAdjust="spacing" textLength="51.3584" x="2372.1147" y="254.582">Address</text><line style="stroke:#181818;stroke-width:0.5;" x1="2335" x2="2432.9307" y1="263.0957" y2="263.0957"/><text fill="#000000" font-family="sans-serif" font-size="14" lengthAdjust="spacing" textLength="87.9307" x="2340" y="282.2031">address:string</text><line style="stroke:#181818;stroke-width:0.5;" x1="2335" x2="2432.9307" y1="289.7168" y2="289.7168"/></g><!--class Description--><g class="entity" data-entity="Description" data-source-line="29" data-uid="ent0013" id="entity_Description"><rect fill="#F1F1F1" height="79.2031" rx="2.5" ry="2.5" style="stroke:#181818;stroke-width:0.5;" width="117.8271" x="2039" y="398.0137"/><ellipse cx="2061.1099" cy="420.3047" fill="#ADD1B2" rx="11" ry="11" style="stroke:#181818;stroke-width:1;"/><path d="M2063.8755,416.1797 Q2064.0318,415.9609 2064.2193,415.8516 Q2064.4068,415.7422 2064.6255,415.7422 Q2065.0005,415.7422 2065.2349,416.0078 Q2065.4693,416.2578 2065.4693,416.8672 L2065.4693,418.3203 Q2065.4693,418.9297 2065.2349,419.1953 Q2065.0005,419.4609 2064.6255,419.4609 Q2064.2818,419.4609 2064.0787,419.2578 Q2063.8755,419.0703 2063.7662,418.5547 Q2063.7193,418.1953 2063.5318,418.0078 Q2063.2037,417.6328 2062.5943,417.4141 Q2061.9849,417.1953 2061.3599,417.1953 Q2060.5943,417.1953 2059.9537,417.5234 Q2059.3287,417.8516 2058.8287,418.6016 Q2058.3443,419.3516 2058.3443,420.3828 L2058.3443,421.4766 Q2058.3443,422.7109 2059.2349,423.5391 Q2060.1255,424.3516 2061.7193,424.3516 Q2062.6568,424.3516 2063.313,424.1016 Q2063.7037,423.9453 2064.1255,423.5078 Q2064.3912,423.2422 2064.5318,423.1641 Q2064.688,423.0859 2064.8912,423.0859 Q2065.2193,423.0859 2065.4693,423.3516 Q2065.7349,423.6016 2065.7349,423.9453 Q2065.7349,424.2891 2065.3912,424.6953 Q2064.8912,425.2734 2064.0943,425.6016 Q2063.0162,426.0547 2061.7193,426.0547 Q2060.2037,426.0547 2059.0005,425.4297 Q2058.0162,424.9297 2057.3287,423.8672 Q2056.6412,422.7891 2056.6412,421.5078 L2056.6412,420.3516 Q2056.6412,419.0234 2057.2505,417.8828 Q2057.8755,416.7266 2058.9693,416.1172 Q2060.063,415.4922 2061.2974,415.4922 Q2062.0318,415.4922 2062.6724,415.6641 Q2063.3287,415.8203 2063.8755,416.1797 Z " fill="#000000"/><text fill="#000000" font-family="sans-serif" font-size="12" font-style="italic" lengthAdjust="spacing" textLength="47.3613" x="2088.0229" y="415.9629">&#171;record&#187;</text><text fill="#000000" font-family="sans-serif" font-size="14" lengthAdjust="spacing" textLength="70.0273" x="2076.6899" y="434.082">Description</text><line style="stroke:#181818;stroke-width:0.5;" x1="2040" x2="2155.8271" y1="442.5957" y2="442.5957"/><text fill="#000000" font-family="sans-serif" font-size="14" lengthAdjust="spacing" textLength="105.8271" x="2045" y="461.7031">description:string</text><line style="stroke:#181818;stroke-width:0.5;" x1="2040" x2="2155.8271" y1="469.2168" y2="469.2168"/></g><!--class Ruc--><g class="entity" data-entity="Ruc" data-source-line="32" data-uid="ent0014" id="entity_Ruc"><rect fill="#F1F1F1" height="79.2031" rx="2.5" ry="2.5" style="stroke:#181818;stroke-width:0.5;" width="75.3613" x="2192.5" y="398.0137"/><ellipse cx="2207.5" cy="420.3047" fill="#ADD1B2" rx="11" ry="11" style="stroke:#181818;stroke-width:1;"/><path d="M2210.2656,416.1797 Q2210.4219,415.9609 2210.6094,415.8516 Q2210.7969,415.7422 2211.0156,415.7422 Q2211.3906,415.7422 2211.625,416.0078 Q2211.8594,416.2578 2211.8594,416.8672 L2211.8594,418.3203 Q2211.8594,418.9297 2211.625,419.1953 Q2211.3906,419.4609 2211.0156,419.4609 Q2210.6719,419.4609 2210.4688,419.2578 Q2210.2656,419.0703 2210.1563,418.5547 Q2210.1094,418.1953 2209.9219,418.0078 Q2209.5938,417.6328 2208.9844,417.4141 Q2208.375,417.1953 2207.75,417.1953 Q2206.9844,417.1953 2206.3438,417.5234 Q2205.7188,417.8516 2205.2188,418.6016 Q2204.7344,419.3516 2204.7344,420.3828 L2204.7344,421.4766 Q2204.7344,422.7109 2205.625,423.5391 Q2206.5156,424.3516 2208.1094,424.3516 Q2209.0469,424.3516 2209.7031,424.1016 Q2210.0938,423.9453 2210.5156,423.5078 Q2210.7813,423.2422 2210.9219,423.1641 Q2211.0781,423.0859 2211.2813,423.0859 Q2211.6094,423.0859 2211.8594,423.3516 Q2212.125,423.6016 2212.125,423.9453 Q2212.125,424.2891 2211.7813,424.6953 Q2211.2813,425.2734 2210.4844,425.6016 Q2209.4063,426.0547 2208.1094,426.0547 Q2206.5938,426.0547 2205.3906,425.4297 Q2204.4063,424.9297 2203.7188,423.8672 Q2203.0313,422.7891 2203.0313,421.5078 L2203.0313,420.3516 Q2203.0313,419.0234 2203.6406,417.8828 Q2204.2656,416.7266 2205.3594,416.1172 Q2206.4531,415.4922 2207.6875,415.4922 Q2208.4219,415.4922 2209.0625,415.6641 Q2209.7188,415.8203 2210.2656,416.1797 Z " fill="#000000"/><text fill="#000000" font-family="sans-serif" font-size="12" font-style="italic" lengthAdjust="spacing" textLength="47.3613" x="2219.5" y="415.9629">&#171;record&#187;</text><text fill="#000000" font-family="sans-serif" font-size="14" lengthAdjust="spacing" textLength="24.8965" x="2230.7324" y="434.082">Ruc</text><line style="stroke:#181818;stroke-width:0.5;" x1="2193.5" x2="2266.8613" y1="442.5957" y2="442.5957"/><text fill="#000000" font-family="sans-serif" font-size="14" lengthAdjust="spacing" textLength="57.5723" x="2198.5" y="461.7031">ruc:string</text><line style="stroke:#181818;stroke-width:0.5;" x1="2193.5" x2="2266.8613" y1="469.2168" y2="469.2168"/></g><!--class Email--><g class="entity" data-entity="Email" data-source-line="35" data-uid="ent0015" id="entity_Email"><rect fill="#F1F1F1" height="79.2031" rx="2.5" ry="2.5" style="stroke:#181818;stroke-width:0.5;" width="83.5791" x="2303" y="398.0137"/><ellipse cx="2321.698" cy="420.3047" fill="#ADD1B2" rx="11" ry="11" style="stroke:#181818;stroke-width:1;"/><path d="M2324.4636,416.1797 Q2324.6199,415.9609 2324.8074,415.8516 Q2324.9949,415.7422 2325.2136,415.7422 Q2325.5886,415.7422 2325.823,416.0078 Q2326.0574,416.2578 2326.0574,416.8672 L2326.0574,418.3203 Q2326.0574,418.9297 2325.823,419.1953 Q2325.5886,419.4609 2325.2136,419.4609 Q2324.8699,419.4609 2324.6667,419.2578 Q2324.4636,419.0703 2324.3542,418.5547 Q2324.3074,418.1953 2324.1199,418.0078 Q2323.7917,417.6328 2323.1824,417.4141 Q2322.573,417.1953 2321.948,417.1953 Q2321.1824,417.1953 2320.5417,417.5234 Q2319.9167,417.8516 2319.4167,418.6016 Q2318.9324,419.3516 2318.9324,420.3828 L2318.9324,421.4766 Q2318.9324,422.7109 2319.823,423.5391 Q2320.7136,424.3516 2322.3074,424.3516 Q2323.2449,424.3516 2323.9011,424.1016 Q2324.2917,423.9453 2324.7136,423.5078 Q2324.9792,423.2422 2325.1199,423.1641 Q2325.2761,423.0859 2325.4792,423.0859 Q2325.8074,423.0859 2326.0574,423.3516 Q2326.323,423.6016 2326.323,423.9453 Q2326.323,424.2891 2325.9792,424.6953 Q2325.4792,425.2734 2324.6824,425.6016 Q2323.6042,426.0547 2322.3074,426.0547 Q2320.7917,426.0547 2319.5886,425.4297 Q2318.6042,424.9297 2317.9167,423.8672 Q2317.2292,422.7891 2317.2292,421.5078 L2317.2292,420.3516 Q2317.2292,419.0234 2317.8386,417.8828 Q2318.4636,416.7266 2319.5574,416.1172 Q2320.6511,415.4922 2321.8855,415.4922 Q2322.6199,415.4922 2323.2605,415.6641 Q2323.9167,415.8203 2324.4636,416.1797 Z " fill="#000000"/><text fill="#000000" font-family="sans-serif" font-size="12" font-style="italic" lengthAdjust="spacing" textLength="47.3613" x="2334.5198" y="415.9629">&#171;record&#187;</text><text fill="#000000" font-family="sans-serif" font-size="14" lengthAdjust="spacing" textLength="35.0068" x="2340.697" y="434.082">Email</text><line style="stroke:#181818;stroke-width:0.5;" x1="2304" x2="2385.5791" y1="442.5957" y2="442.5957"/><text fill="#000000" font-family="sans-serif" font-size="14" lengthAdjust="spacing" textLength="71.5791" x="2309" y="461.7031">email:string</text><line style="stroke:#181818;stroke-width:0.5;" x1="2304" x2="2385.5791" y1="469.2168" y2="469.2168"/></g><!--class facility--><g class="entity" data-entity="facility" data-source-line="40" data-uid="ent0017" id="entity_facility"><rect fill="#F1F1F1" height="85.2422" rx="2.5" ry="2.5" style="stroke:#181818;stroke-width:0.5;" width="120.9443" x="1861.5" y="215.5137"/><ellipse cx="1899.0215" cy="231.5137" fill="#ADD1B2" rx="11" ry="11" style="stroke:#181818;stroke-width:1;"/><path d="M1901.7872,227.3887 Q1901.9434,227.1699 1902.1309,227.0605 Q1902.3184,226.9512 1902.5372,226.9512 Q1902.9122,226.9512 1903.1465,227.2168 Q1903.3809,227.4668 1903.3809,228.0762 L1903.3809,229.5293 Q1903.3809,230.1387 1903.1465,230.4043 Q1902.9122,230.6699 1902.5372,230.6699 Q1902.1934,230.6699 1901.9903,230.4668 Q1901.7872,230.2793 1901.6778,229.7637 Q1901.6309,229.4043 1901.4434,229.2168 Q1901.1153,228.8418 1900.5059,228.623 Q1899.8965,228.4043 1899.2715,228.4043 Q1898.5059,228.4043 1897.8653,228.7324 Q1897.2403,229.0605 1896.7403,229.8105 Q1896.2559,230.5605 1896.2559,231.5918 L1896.2559,232.6855 Q1896.2559,233.9199 1897.1465,234.748 Q1898.0372,235.5605 1899.6309,235.5605 Q1900.5684,235.5605 1901.2247,235.3105 Q1901.6153,235.1543 1902.0372,234.7168 Q1902.3028,234.4512 1902.4434,234.373 Q1902.5997,234.2949 1902.8028,234.2949 Q1903.1309,234.2949 1903.3809,234.5605 Q1903.6465,234.8105 1903.6465,235.1543 Q1903.6465,235.498 1903.3028,235.9043 Q1902.8028,236.4824 1902.0059,236.8105 Q1900.9278,237.2637 1899.6309,237.2637 Q1898.1153,237.2637 1896.9122,236.6387 Q1895.9278,236.1387 1895.2403,235.0762 Q1894.5528,233.998 1894.5528,232.7168 L1894.5528,231.5605 Q1894.5528,230.2324 1895.1622,229.0918 Q1895.7872,227.9355 1896.8809,227.3262 Q1897.9747,226.7012 1899.209,226.7012 Q1899.9434,226.7012 1900.584,226.873 Q1901.2403,227.0293 1901.7872,227.3887 Z " fill="#000000"/><text fill="#000000" font-family="sans-serif" font-size="14" lengthAdjust="spacing" textLength="38.8965" x="1918.0263" y="237.3105">facility</text><line style="stroke:#181818;stroke-width:0.5;" x1="1862.5" x2="1981.4443" y1="247.5137" y2="247.5137"/><text fill="#000000" font-family="sans-serif" font-size="14" lengthAdjust="spacing" textLength="49.8203" x="1867.5" y="266.6211">id: Long</text><text fill="#000000" font-family="sans-serif" font-size="14" lengthAdjust="spacing" textLength="108.9443" x="1867.5" y="285.2422">address: Address</text><line style="stroke:#181818;stroke-width:0.5;" x1="1862.5" x2="1981.4443" y1="292.7559" y2="292.7559"/></g><!--class admin--><g class="entity" data-entity="admin" data-source-line="45" data-uid="ent0018" id="entity_admin"><rect fill="#F1F1F1" height="122.4844" rx="2.5" ry="2.5" style="stroke:#181818;stroke-width:0.5;" width="113.1582" x="1713.5" y="197.0137"/><ellipse cx="1747.8623" cy="213.0137" fill="#ADD1B2" rx="11" ry="11" style="stroke:#181818;stroke-width:1;"/><path d="M1750.6279,208.8887 Q1750.7842,208.6699 1750.9717,208.5605 Q1751.1592,208.4512 1751.3779,208.4512 Q1751.7529,208.4512 1751.9873,208.7168 Q1752.2217,208.9668 1752.2217,209.5762 L1752.2217,211.0293 Q1752.2217,211.6387 1751.9873,211.9043 Q1751.7529,212.1699 1751.3779,212.1699 Q1751.0342,212.1699 1750.8311,211.9668 Q1750.6279,211.7793 1750.5186,211.2637 Q1750.4717,210.9043 1750.2842,210.7168 Q1749.9561,210.3418 1749.3467,210.123 Q1748.7373,209.9043 1748.1123,209.9043 Q1747.3467,209.9043 1746.7061,210.2324 Q1746.0811,210.5605 1745.5811,211.3105 Q1745.0967,212.0605 1745.0967,213.0918 L1745.0967,214.1855 Q1745.0967,215.4199 1745.9873,216.248 Q1746.8779,217.0605 1748.4717,217.0605 Q1749.4092,217.0605 1750.0654,216.8105 Q1750.4561,216.6543 1750.8779,216.2168 Q1751.1436,215.9512 1751.2842,215.873 Q1751.4404,215.7949 1751.6436,215.7949 Q1751.9717,215.7949 1752.2217,216.0605 Q1752.4873,216.3105 1752.4873,216.6543 Q1752.4873,216.998 1752.1436,217.4043 Q1751.6436,217.9824 1750.8467,218.3105 Q1749.7686,218.7637 1748.4717,218.7637 Q1746.9561,218.7637 1745.7529,218.1387 Q1744.7686,217.6387 1744.0811,216.5762 Q1743.3936,215.498 1743.3936,214.2168 L1743.3936,213.0605 Q1743.3936,211.7324 1744.0029,210.5918 Q1744.6279,209.4355 1745.7217,208.8262 Q1746.8154,208.2012 1748.0498,208.2012 Q1748.7842,208.2012 1749.4248,208.373 Q1750.0811,208.5293 1750.6279,208.8887 Z " fill="#000000"/><text fill="#000000" font-family="sans-serif" font-size="14" lengthAdjust="spacing" textLength="38.1309" x="1766.165" y="218.8105">admin</text><line style="stroke:#181818;stroke-width:0.5;" x1="1714.5" x2="1825.6582" y1="229.0137" y2="229.0137"/><text fill="#000000" font-family="sans-serif" font-size="14" lengthAdjust="spacing" textLength="49.8203" x="1719.5" y="248.1211">id: Long</text><text fill="#000000" font-family="sans-serif" font-size="14" lengthAdjust="spacing" textLength="79.3721" x="1719.5" y="266.7422">name: String</text><text fill="#000000" font-family="sans-serif" font-size="14" lengthAdjust="spacing" textLength="101.1582" x="1719.5" y="285.3633">lastname: String</text><text fill="#000000" font-family="sans-serif" font-size="14" lengthAdjust="spacing" textLength="76.2412" x="1719.5" y="303.9844">email: Email</text><line style="stroke:#181818;stroke-width:0.5;" x1="1714.5" x2="1825.6582" y1="311.498" y2="311.498"/></g><path d="M1349,229.5137 L1423.1377,229.5137 A3.75,3.75 0 0 1 1425.6377,232.0137 L1432.6377,254.1348 L1437.1377,254.1348 A2.5,2.5 0 0 1 1439.6377,256.6348 L1439.6377,284.2559 A2.5,2.5 0 0 1 1437.1377,286.7559 L1349,286.7559 A2.5,2.5 0 0 1 1346.5,284.2559 L1346.5,232.0137 A2.5,2.5 0 0 1 1349,229.5137" fill="#F1F1F1" style="stroke:#181818;stroke-width:0.5;"/><line style="stroke:#181818;stroke-width:0.5;" x1="1346.5" x2="1432.6377" y1="254.1348" y2="254.1348"/><text fill="#000000" font-family="sans-serif" font-size="14" font-weight="bold" lengthAdjust="spacing" textLength="73.1377" x="1350.5" y="246.6211">exceptions</text><path d="M1249.5,229.5137 L1294.8584,229.5137 A3.75,3.75 0 0 1 1297.3584,232.0137 L1304.3584,254.1348 L1308.8584,254.1348 A2.5,2.5 0 0 1 1311.3584,256.6348 L1311.3584,284.2559 A2.5,2.5 0 0 1 1308.8584,286.7559 L1249.5,286.7559 A2.5,2.5 0 0 1 1247,284.2559 L1247,232.0137 A2.5,2.5 0 0 1 1249.5,229.5137" fill="#F1F1F1" style="stroke:#181818;stroke-width:0.5;"/><line style="stroke:#181818;stroke-width:0.5;" x1="1247" x2="1304.3584" y1="254.1348" y2="254.1348"/><text fill="#000000" font-family="sans-serif" font-size="14" font-weight="bold" lengthAdjust="spacing" textLength="44.3584" x="1251" y="246.6211">events</text><path d="M1047,229.5137 L1067.4619,229.5137 A3.75,3.75 0 0 1 1069.9619,232.0137 L1076.9619,254.1348 L1081.4619,254.1348 A2.5,2.5 0 0 1 1083.9619,256.6348 L1083.9619,284.2559 A2.5,2.5 0 0 1 1081.4619,286.7559 L1047,286.7559 A2.5,2.5 0 0 1 1044.5,284.2559 L1044.5,232.0137 A2.5,2.5 0 0 1 1047,229.5137" fill="#F1F1F1" style="stroke:#181818;stroke-width:0.5;"/><line style="stroke:#181818;stroke-width:0.5;" x1="1044.5" x2="1076.9619" y1="254.1348" y2="254.1348"/><text fill="#000000" font-family="sans-serif" font-size="14" font-weight="bold" lengthAdjust="spacing" textLength="19.4619" x="1048.5" y="246.6211">acl</text><path d="M835.5,229.5137 L958.6787,229.5137 A3.75,3.75 0 0 1 961.1787,232.0137 L968.1787,254.1348 L972.6787,254.1348 A2.5,2.5 0 0 1 975.1787,256.6348 L975.1787,284.2559 A2.5,2.5 0 0 1 972.6787,286.7559 L835.5,286.7559 A2.5,2.5 0 0 1 833,284.2559 L833,232.0137 A2.5,2.5 0 0 1 835.5,229.5137" fill="#F1F1F1" style="stroke:#181818;stroke-width:0.5;"/><line style="stroke:#181818;stroke-width:0.5;" x1="833" x2="968.1787" y1="254.1348" y2="254.1348"/><text fill="#000000" font-family="sans-serif" font-size="14" font-weight="bold" lengthAdjust="spacing" textLength="122.1787" x="837" y="246.6211">commandservices</text><path d="M686.5,229.5137 L781.6787,229.5137 A3.75,3.75 0 0 1 784.1787,232.0137 L791.1787,254.1348 L795.6787,254.1348 A2.5,2.5 0 0 1 798.1787,256.6348 L798.1787,284.2559 A2.5,2.5 0 0 1 795.6787,286.7559 L686.5,286.7559 A2.5,2.5 0 0 1 684,284.2559 L684,232.0137 A2.5,2.5 0 0 1 686.5,229.5137" fill="#F1F1F1" style="stroke:#181818;stroke-width:0.5;"/><line style="stroke:#181818;stroke-width:0.5;" x1="684" x2="791.1787" y1="254.1348" y2="254.1348"/><text fill="#000000" font-family="sans-serif" font-size="14" font-weight="bold" lengthAdjust="spacing" textLength="94.1787" x="688" y="246.6211">queryservices</text><path d="M458.5,229.5137 L539.6377,229.5137 A3.75,3.75 0 0 1 542.1377,232.0137 L549.1377,254.1348 L553.6377,254.1348 A2.5,2.5 0 0 1 556.1377,256.6348 L556.1377,284.2559 A2.5,2.5 0 0 1 553.6377,286.7559 L458.5,286.7559 A2.5,2.5 0 0 1 456,284.2559 L456,232.0137 A2.5,2.5 0 0 1 458.5,229.5137" fill="#F1F1F1" style="stroke:#181818;stroke-width:0.5;"/><line style="stroke:#181818;stroke-width:0.5;" x1="456" x2="549.1377" y1="254.1348" y2="254.1348"/><text fill="#000000" font-family="sans-serif" font-size="14" font-weight="bold" lengthAdjust="spacing" textLength="80.1377" x="460" y="246.6211">repositories</text><path d="M243,229.5137 L310.9307,229.5137 A3.75,3.75 0 0 1 313.4307,232.0137 L320.4307,254.1348 L324.9307,254.1348 A2.5,2.5 0 0 1 327.4307,256.6348 L327.4307,284.2559 A2.5,2.5 0 0 1 324.9307,286.7559 L243,286.7559 A2.5,2.5 0 0 1 240.5,284.2559 L240.5,232.0137 A2.5,2.5 0 0 1 243,229.5137" fill="#F1F1F1" style="stroke:#181818;stroke-width:0.5;"/><line style="stroke:#181818;stroke-width:0.5;" x1="240.5" x2="320.4307" y1="254.1348" y2="254.1348"/><text fill="#000000" font-family="sans-serif" font-size="14" font-weight="bold" lengthAdjust="spacing" textLength="66.9307" x="244.5" y="246.6211">resources</text><path d="M123,229.5137 L189.3447,229.5137 A3.75,3.75 0 0 1 191.8447,232.0137 L198.8447,254.1348 L203.3447,254.1348 A2.5,2.5 0 0 1 205.8447,256.6348 L205.8447,284.2559 A2.5,2.5 0 0 1 203.3447,286.7559 L123,286.7559 A2.5,2.5 0 0 1 120.5,284.2559 L120.5,232.0137 A2.5,2.5 0 0 1 123,229.5137" fill="#F1F1F1" style="stroke:#181818;stroke-width:0.5;"/><line style="stroke:#181818;stroke-width:0.5;" x1="120.5" x2="198.8447" y1="254.1348" y2="254.1348"/><text fill="#000000" font-family="sans-serif" font-size="14" font-weight="bold" lengthAdjust="spacing" textLength="65.3447" x="124.5" y="246.6211">transform</text><path d="M49,229.5137 L69.4619,229.5137 A3.75,3.75 0 0 1 71.9619,232.0137 L78.9619,254.1348 L83.4619,254.1348 A2.5,2.5 0 0 1 85.9619,256.6348 L85.9619,284.2559 A2.5,2.5 0 0 1 83.4619,286.7559 L49,286.7559 A2.5,2.5 0 0 1 46.5,284.2559 L46.5,232.0137 A2.5,2.5 0 0 1 49,229.5137" fill="#F1F1F1" style="stroke:#181818;stroke-width:0.5;"/><line style="stroke:#181818;stroke-width:0.5;" x1="46.5" x2="78.9619" y1="254.1348" y2="254.1348"/><text fill="#000000" font-family="sans-serif" font-size="14" font-weight="bold" lengthAdjust="spacing" textLength="19.4619" x="50.5" y="246.6211">acl</text><!--SRC=[bLNRRjim37tFLmZ-W7o0KHJePS06h6dN0djd9CPJQqiU9HKjXlpxcCHr9KTsRJyObdZ48nvUt89yWGf5iGdajAc-smR5jGr6eH8trdXyyuNujre9VjeFyArjG9l3lkYUtdHd5TQn9R5ULHLX1HxT429hS2wvnX2XLIb-MbCbcmOQBCM6todX7sjm4vejKYaUFXS929GYPD9IN9s-4Yi5MOh789DDXKwIRhssfXItdui4j9zOzKhSsAO1eyvq687_2aWQvw9_GnrGt6-VKVfHfLcpukA2K5fIbvS3KA-jywG7cfyJHsuZiQUznobQIjBbQvgWI-zYvr5QfmdYObXAmeKrxVnGVakTVkEkhAVTuW4op_58RQ7nskkn1XR53gIkjNylCkpP5evprNVYn4swO44rwGZwakGqAvxoiRDJFmauAIUE6fyPbodu9l5ODNFR6LzPT5UCOKzV-y6CXhQjjOHZ6US6zG-UxMIWxgTxOhN1Ruz_0OVqgYMwDSWwki78JMKtrRf3C-FxoyFj_Uip-JYrsH7dZll51y9ig2toJyLvD1BNposi2LlhjBV3YVf180O4B1HNDMl0fUbp9TTZ6M03PQB8zsr_pXCOjxFKvC_D4J6wPfggpiLg_ny0]--></g></svg>