<svg xmlns="http://www.w3.org/2000/svg" xmlns:xlink="http://www.w3.org/1999/xlink" contentStyleType="text/css" data-diagram-type="CLASS" height="956.9px" preserveAspectRatio="none" style="width:4152px;height:956px;background:#FFFFFF;" version="1.1" viewBox="0 0 4152 956" width="4152.4px" zoomAndPan="magnify"><title>Nursing Bounded Context</title><defs/><g><g class="title" data-source-line="1"><text fill="#000000" font-family="sans-serif" font-size="9.8" font-weight="bold" lengthAdjust="spacing" textLength="121.4042" x="2010.5979" y="17.5752">Nursing Bounded Context</text></g><!--cluster Nursing Bounded Context--><g class="cluster" data-entity="Nursing Bounded Context" data-source-line="8" data-uid="ent0002" id="cluster_Nursing Bounded Context"><rect fill="none" height="920.5" rx="1.75" ry="1.75" style="stroke:#000000;stroke-width:1.05;" width="4143.3" x="4.9" y="32.6348"/><text fill="#000000" font-family="sans-serif" font-size="9.8" font-weight="bold" lengthAdjust="spacing" textLength="121.4042" x="2015.8479" y="44.61">Nursing Bounded Context</text></g><!--cluster domain--><g class="cluster" data-entity="domain" data-source-line="10" data-uid="ent0003" id="cluster_domain"><rect fill="none" height="424.9" rx="1.75" ry="1.75" style="stroke:#000000;stroke-width:1.05;" width="1703.8" x="1316" y="511.4348"/><text fill="#000000" font-family="sans-serif" font-size="9.8" font-weight="bold" lengthAdjust="spacing" textLength="34.8455" x="2150.4772" y="523.41">domain</text></g><!--cluster services--><g class="cluster" data-entity="services" data-source-line="12" data-uid="ent0004" id="cluster_services"><rect fill="none" height="109.9" rx="1.75" ry="1.75" style="stroke:#000000;stroke-width:1.05;" width="598.5" x="2404.5" y="600.3348"/><text fill="#000000" font-family="sans-serif" font-size="9.8" font-weight="bold" lengthAdjust="spacing" textLength="39.2383" x="2684.1309" y="612.31">services</text></g><!--cluster model--><g class="cluster" data-entity="model" data-source-line="25" data-uid="ent0007" id="cluster_model"><rect fill="none" height="376.6" rx="1.75" ry="1.75" style="stroke:#000000;stroke-width:1.05;" width="1054.9" x="1332.8" y="542.9348"/><text fill="#000000" font-family="sans-serif" font-size="9.8" font-weight="bold" lengthAdjust="spacing" textLength="28.8593" x="1845.8204" y="554.91">model</text></g><!--cluster aggregates--><g class="cluster" data-entity="aggregates" data-source-line="27" data-uid="ent0008" id="cluster_aggregates"><rect fill="none" height="161.7" rx="1.75" ry="1.75" style="stroke:#000000;stroke-width:1.05;" width="217" x="2153.9" y="574.4348"/><text fill="#000000" font-family="sans-serif" font-size="9.8" font-weight="bold" lengthAdjust="spacing" textLength="52.2874" x="2236.2563" y="586.41">aggregates</text></g><!--cluster commands--><g class="cluster" data-entity="commands" data-source-line="39" data-uid="ent0010" id="cluster_commands"><rect fill="none" height="109.9" rx="1.75" ry="1.75" style="stroke:#000000;stroke-width:1.05;" width="480.2" x="1656.9" y="600.3348"/><text fill="#000000" font-family="sans-serif" font-size="9.8" font-weight="bold" lengthAdjust="spacing" textLength="51.7371" x="1871.1314" y="612.31">commands</text></g><!--cluster queries--><g class="cluster" data-entity="queries" data-source-line="55" data-uid="ent0014" id="cluster_queries"><rect fill="none" height="278.6" rx="1.75" ry="1.75" style="stroke:#000000;stroke-width:1.05;" width="290.5" x="1349.6" y="613.2848"/><text fill="#000000" font-family="sans-serif" font-size="9.8" font-weight="bold" lengthAdjust="spacing" textLength="34.8599" x="1477.4201" y="625.26">queries</text></g><!--cluster valueobjects--><g class="cluster" data-entity="valueobjects" data-source-line="65" data-uid="ent0018" id="cluster_valueobjects"><rect fill="none" height="105.7" rx="1.75" ry="1.75" style="stroke:#000000;stroke-width:1.05;" width="380.8" x="1990.1" y="797.0348"/><text fill="#000000" font-family="sans-serif" font-size="9.8" font-weight="bold" lengthAdjust="spacing" textLength="59.3694" x="2150.8153" y="809.01">valueobjects</text></g><!--cluster application--><g class="cluster" data-entity="application" data-source-line="85" data-uid="ent0025" id="cluster_application"><rect fill="none" height="477.05" rx="1.75" ry="1.75" style="stroke:#000000;stroke-width:1.05;" width="680.4" x="3036.6" y="270.6348"/><text fill="#000000" font-family="sans-serif" font-size="9.8" font-weight="bold" lengthAdjust="spacing" textLength="51.7275" x="3350.9362" y="282.61">application</text></g><!--cluster internal--><g class="cluster" data-entity="internal" data-source-line="81" data-uid="ent0022" id="cluster_internal"><rect fill="none" height="428.75" rx="1.75" ry="1.75" style="stroke:#000000;stroke-width:1.05;" width="646.8" x="3053.4" y="302.1348"/><text fill="#000000" font-family="sans-serif" font-size="9.8" font-weight="bold" lengthAdjust="spacing" textLength="35.3958" x="3359.1021" y="314.11">internal</text></g><!--cluster outboundservices--><g class="cluster" data-entity="outboundservices" data-source-line="85" data-uid="ent0026" id="cluster_outboundservices"><rect fill="none" height="132.3" rx="1.75" ry="1.75" style="stroke:#000000;stroke-width:1.05;" width="294" x="3070.2" y="581.7848"/><text fill="#000000" font-family="sans-serif" font-size="9.8" font-weight="bold" lengthAdjust="spacing" textLength="84.4054" x="3174.9973" y="593.76">outboundservices</text></g><!--cluster acl--><g class="cluster" data-entity="acl" data-source-line="83" data-uid="ent0023" id="cluster_acl"><rect fill="none" height="84" rx="1.75" ry="1.75" style="stroke:#000000;stroke-width:1.05;" width="260.4" x="3087" y="613.2848"/><text fill="#000000" font-family="sans-serif" font-size="9.8" font-weight="bold" lengthAdjust="spacing" textLength="13.6233" x="3210.3883" y="625.26">acl</text></g><!--cluster commandservices--><g class="cluster" data-entity="commandservices" data-source-line="91" data-uid="ent0027" id="cluster_commandservices"><rect fill="none" height="135.8" rx="1.75" ry="1.75" style="stroke:#000000;stroke-width:1.05;" width="280" x="3070.2" y="333.6348"/><text fill="#000000" font-family="sans-serif" font-size="9.8" font-weight="bold" lengthAdjust="spacing" textLength="85.5251" x="3167.4375" y="345.61">commandservices</text></g><!--cluster queryservices--><g class="cluster" data-entity="queryservices" data-source-line="101" data-uid="ent0029" id="cluster_queryservices"><rect fill="none" height="122.5" rx="1.75" ry="1.75" style="stroke:#000000;stroke-width:1.05;" width="316.4" x="3367" y="340.2848"/><text fill="#000000" font-family="sans-serif" font-size="9.8" font-weight="bold" lengthAdjust="spacing" textLength="65.9251" x="3492.2375" y="352.26">queryservices</text></g><!--cluster infrastructure--><g class="cluster" data-entity="infrastructure" data-source-line="112" data-uid="ent0033" id="cluster_infrastructure"><rect fill="none" height="294" rx="1.75" ry="1.75" style="stroke:#000000;stroke-width:1.05;" width="397.6" x="3733.8" y="486.2348"/><text fill="#000000" font-family="sans-serif" font-size="9.8" font-weight="bold" lengthAdjust="spacing" textLength="63.7144" x="3900.7428" y="498.21">infrastructure</text></g><!--cluster persistence--><g class="cluster" data-entity="persistence" data-source-line="112" data-uid="ent0034" id="cluster_persistence"><rect fill="none" height="245.7" rx="1.75" ry="1.75" style="stroke:#000000;stroke-width:1.05;" width="364" x="3750.6" y="517.7348"/><text fill="#000000" font-family="sans-serif" font-size="9.8" font-weight="bold" lengthAdjust="spacing" textLength="54.4742" x="3905.3629" y="529.71">persistence</text></g><!--cluster jpa--><g class="cluster" data-entity="jpa" data-source-line="112" data-uid="ent0035" id="cluster_jpa"><rect fill="none" height="197.4" rx="1.75" ry="1.75" style="stroke:#000000;stroke-width:1.05;" width="330.4" x="3767.4" y="549.2348"/><text fill="#000000" font-family="sans-serif" font-size="9.8" font-weight="bold" lengthAdjust="spacing" textLength="14.1593" x="3925.5204" y="561.21">jpa</text></g><!--cluster repositories--><g class="cluster" data-entity="repositories" data-source-line="111" data-uid="ent0031" id="cluster_repositories"><rect fill="none" height="149.1" rx="1.75" ry="1.75" style="stroke:#000000;stroke-width:1.05;" width="296.8" x="3784.2" y="580.7348"/><text fill="#000000" font-family="sans-serif" font-size="9.8" font-weight="bold" lengthAdjust="spacing" textLength="56.0964" x="3904.5518" y="592.71">repositories</text></g><!--cluster interfaces--><g class="cluster" data-entity="interfaces" data-source-line="125" data-uid="ent0039" id="cluster_interfaces"><rect fill="none" height="686" rx="1.75" ry="1.75" style="stroke:#000000;stroke-width:1.05;" width="1277.5" x="21.7" y="64.1348"/><text fill="#000000" font-family="sans-serif" font-size="9.8" font-weight="bold" lengthAdjust="spacing" textLength="46.3012" x="637.2994" y="76.11">interfaces</text></g><!--cluster rest--><g class="cluster" data-entity="rest" data-source-line="122" data-uid="ent0036" id="cluster_rest"><rect fill="none" height="637.7" rx="1.75" ry="1.75" style="stroke:#000000;stroke-width:1.05;" width="1243.9" x="38.5" y="95.6348"/><text fill="#000000" font-family="sans-serif" font-size="9.8" font-weight="bold" lengthAdjust="spacing" textLength="17.9778" x="651.4611" y="107.61">rest</text></g><!--cluster resources--><g class="cluster" data-entity="resources" data-source-line="124" data-uid="ent0037" id="cluster_resources"><rect fill="none" height="122.5" rx="1.75" ry="1.75" style="stroke:#000000;stroke-width:1.05;" width="470.4" x="515.9" y="594.0348"/><text fill="#000000" font-family="sans-serif" font-size="9.8" font-weight="bold" lengthAdjust="spacing" textLength="46.8515" x="727.6743" y="606.01">resources</text></g><!--cluster transform--><g class="cluster" data-entity="transform" data-source-line="142" data-uid="ent0042" id="cluster_transform"><rect fill="none" height="84" rx="1.75" ry="1.75" style="stroke:#000000;stroke-width:1.05;" width="1210.3" x="55.3" y="359.5348"/><text fill="#000000" font-family="sans-serif" font-size="9.8" font-weight="bold" lengthAdjust="spacing" textLength="45.7413" x="637.5793" y="371.51">transform</text></g><!--class ResidentCommandServices--><g class="entity" data-entity="ResidentCommandServices" data-source-line="13" data-uid="ent0005" id="entity_ResidentCommandServices"><rect fill="#F1F1F1" height="72.7043" rx="1.75" ry="1.75" style="stroke:#181818;stroke-width:0.35;" width="257.6349" x="2415.7" y="626.2348"/><ellipse cx="2480.8116" cy="637.4348" fill="#B4A7E5" rx="7.7" ry="7.7" style="stroke:#181818;stroke-width:0.7;"/><path d="M2481.4788,635.0832 L2481.4788,639.7426 L2482.6819,639.7426 Q2483.1085,639.7426 2483.2944,639.9066 Q2483.4804,640.0707 2483.4804,640.3441 Q2483.4804,640.6066 2483.2944,640.7707 Q2483.1085,640.9348 2482.6819,640.9348 L2479.0835,640.9348 Q2478.6569,640.9348 2478.471,640.7707 Q2478.2851,640.6066 2478.2851,640.3332 Q2478.2851,640.0707 2478.471,639.9066 Q2478.6569,639.7426 2479.0835,639.7426 L2480.2866,639.7426 L2480.2866,635.0832 L2479.0835,635.0832 Q2478.6569,635.0832 2478.471,634.9191 Q2478.2851,634.7551 2478.2851,634.4816 Q2478.2851,634.2191 2478.471,634.0551 Q2478.6569,633.891 2479.0835,633.891 L2482.6819,633.891 Q2483.1085,633.891 2483.2944,634.0551 Q2483.4804,634.2191 2483.4804,634.4816 Q2483.4804,634.7551 2483.2944,634.9191 Q2483.1085,635.0832 2482.6819,635.0832 L2481.4788,635.0832 Z " fill="#000000"/><text fill="#000000" font-family="sans-serif" font-size="9.8" font-style="italic" lengthAdjust="spacing" textLength="121.4616" x="2495.1616" y="641.4926">ResidentCommandServices</text><line style="stroke:#181818;stroke-width:0.35;" x1="2416.4" x2="2672.6349" y1="648.6348" y2="648.6348"/><line style="stroke:#181818;stroke-width:0.35;" x1="2416.4" x2="2672.6349" y1="654.2348" y2="654.2348"/><text fill="#000000" font-family="sans-serif" font-size="9.8" lengthAdjust="spacing" textLength="247.048" x="2419.9" y="667.61">+handle(CreateResidentCommand): Optional&lt;Resident&gt;</text><text fill="#000000" font-family="sans-serif" font-size="9.8" lengthAdjust="spacing" textLength="249.2349" x="2419.9" y="680.6447">+handle(UpdateResidentCommand): Optional&lt;Resident&gt;</text><text fill="#000000" font-family="sans-serif" font-size="9.8" lengthAdjust="spacing" textLength="177.314" x="2419.9" y="693.6795">+handle(DeleteResidentCommand): void</text></g><!--class ResidentQueryServices--><g class="entity" data-entity="ResidentQueryServices" data-source-line="18" data-uid="ent0006" id="entity_ResidentQueryServices"><rect fill="#F1F1F1" height="72.7043" rx="1.75" ry="1.75" style="stroke:#181818;stroke-width:0.35;" width="293.5762" x="2698.15" y="626.2348"/><ellipse cx="2790.4916" cy="637.4348" fill="#B4A7E5" rx="7.7" ry="7.7" style="stroke:#181818;stroke-width:0.7;"/><path d="M2791.1587,635.0832 L2791.1587,639.7426 L2792.3619,639.7426 Q2792.7884,639.7426 2792.9744,639.9066 Q2793.1603,640.0707 2793.1603,640.3441 Q2793.1603,640.6066 2792.9744,640.7707 Q2792.7884,640.9348 2792.3619,640.9348 L2788.7634,640.9348 Q2788.3369,640.9348 2788.1509,640.7707 Q2787.965,640.6066 2787.965,640.3332 Q2787.965,640.0707 2788.1509,639.9066 Q2788.3369,639.7426 2788.7634,639.7426 L2789.9666,639.7426 L2789.9666,635.0832 L2788.7634,635.0832 Q2788.3369,635.0832 2788.1509,634.9191 Q2787.965,634.7551 2787.965,634.4816 Q2787.965,634.2191 2788.1509,634.0551 Q2788.3369,633.891 2788.7634,633.891 L2792.3619,633.891 Q2792.7884,633.891 2792.9744,634.0551 Q2793.1603,634.2191 2793.1603,634.4816 Q2793.1603,634.7551 2792.9744,634.9191 Q2792.7884,635.0832 2792.3619,635.0832 L2791.1587,635.0832 Z " fill="#000000"/><text fill="#000000" font-family="sans-serif" font-size="9.8" font-style="italic" lengthAdjust="spacing" textLength="102.9431" x="2804.8416" y="641.4926">ResidentQueryServices</text><line style="stroke:#181818;stroke-width:0.35;" x1="2698.85" x2="2991.0262" y1="648.6348" y2="648.6348"/><line style="stroke:#181818;stroke-width:0.35;" x1="2698.85" x2="2991.0262" y1="654.2348" y2="654.2348"/><text fill="#000000" font-family="sans-serif" font-size="9.8" lengthAdjust="spacing" textLength="209.4511" x="2702.35" y="667.61">+handle(GetAllResidentsQuery): List&lt;Resident&gt;</text><text fill="#000000" font-family="sans-serif" font-size="9.8" lengthAdjust="spacing" textLength="234.5205" x="2702.35" y="680.6447">+handle(GetResidentByIdQuery): Optional&lt;Resident&gt;</text><text fill="#000000" font-family="sans-serif" font-size="9.8" lengthAdjust="spacing" textLength="285.1762" x="2702.35" y="693.6795">+handle(GetResidentByPersonProfileQuery): Optional&lt;Resident&gt;</text></g><!--class Resident--><g class="entity" data-entity="Resident" data-source-line="28" data-uid="ent0009" id="entity_Resident"><rect fill="#F1F1F1" height="124.8434" rx="1.75" ry="1.75" style="stroke:#181818;stroke-width:0.35;" width="193.6238" x="2165.45" y="600.3348"/><ellipse cx="2239.9477" cy="611.5348" fill="#ADD1B2" rx="7.7" ry="7.7" style="stroke:#181818;stroke-width:0.7;"/><path d="M2241.8836,608.6473 Q2241.993,608.4941 2242.1243,608.4176 Q2242.2555,608.341 2242.4086,608.341 Q2242.6711,608.341 2242.8352,608.527 Q2242.9993,608.702 2242.9993,609.1285 L2242.9993,610.1457 Q2242.9993,610.5723 2242.8352,610.7582 Q2242.6711,610.9441 2242.4086,610.9441 Q2242.168,610.9441 2242.0258,610.802 Q2241.8836,610.6707 2241.8071,610.3098 Q2241.7743,610.0582 2241.643,609.927 Q2241.4133,609.6645 2240.9868,609.5113 Q2240.5602,609.3582 2240.1227,609.3582 Q2239.5868,609.3582 2239.1383,609.5879 Q2238.7008,609.8176 2238.3508,610.3426 Q2238.0118,610.8676 2238.0118,611.5895 L2238.0118,612.3551 Q2238.0118,613.2191 2238.6352,613.7988 Q2239.2586,614.3676 2240.3743,614.3676 Q2241.0305,614.3676 2241.4899,614.1926 Q2241.7633,614.0832 2242.0586,613.777 Q2242.2446,613.591 2242.343,613.5363 Q2242.4524,613.4816 2242.5946,613.4816 Q2242.8243,613.4816 2242.9993,613.6676 Q2243.1852,613.8426 2243.1852,614.0832 Q2243.1852,614.3238 2242.9446,614.6082 Q2242.5946,615.0129 2242.0368,615.2426 Q2241.2821,615.5598 2240.3743,615.5598 Q2239.3133,615.5598 2238.4711,615.1223 Q2237.7821,614.7723 2237.3008,614.0285 Q2236.8196,613.2738 2236.8196,612.377 L2236.8196,611.5676 Q2236.8196,610.6379 2237.2461,609.8395 Q2237.6836,609.0301 2238.4493,608.6035 Q2239.2149,608.166 2240.079,608.166 Q2240.593,608.166 2241.0415,608.2863 Q2241.5008,608.3957 2241.8836,608.6473 Z " fill="#000000"/><text fill="#000000" font-family="sans-serif" font-size="9.8" lengthAdjust="spacing" textLength="38.6784" x="2254.2977" y="615.5926">Resident</text><line style="stroke:#181818;stroke-width:0.35;" x1="2166.15" x2="2358.3738" y1="622.7348" y2="622.7348"/><text fill="#000000" font-family="sans-serif" font-size="9.8" lengthAdjust="spacing" textLength="38.1377" x="2169.65" y="636.11">-id: Long</text><text fill="#000000" font-family="sans-serif" font-size="9.8" lengthAdjust="spacing" textLength="141.6263" x="2169.65" y="649.1447">-personProfileId: PersonProfileId</text><text fill="#000000" font-family="sans-serif" font-size="9.8" lengthAdjust="spacing" textLength="174.2993" x="2169.65" y="662.1795">-emergencyContact: EmergencyContact</text><text fill="#000000" font-family="sans-serif" font-size="9.8" lengthAdjust="spacing" textLength="185.2238" x="2169.65" y="675.2143">-legalRepresentative: LegalRepresentative</text><line style="stroke:#181818;stroke-width:0.35;" x1="2166.15" x2="2358.3738" y1="680.4738" y2="680.4738"/><text fill="#000000" font-family="sans-serif" font-size="9.8" lengthAdjust="spacing" textLength="50.9284" x="2169.65" y="693.849">+Resident()</text><text fill="#000000" font-family="sans-serif" font-size="9.8" lengthAdjust="spacing" textLength="164.2266" x="2169.65" y="706.8838">+Resident(CreateResidentCommand)</text><text fill="#000000" font-family="sans-serif" font-size="9.8" lengthAdjust="spacing" textLength="181.1325" x="2169.65" y="719.9186">+update(UpdateResidentCommand): void</text></g><!--class CreateResidentCommand--><g class="entity" data-entity="CreateResidentCommand" data-source-line="40" data-uid="ent0011" id="entity_CreateResidentCommand"><rect fill="#F1F1F1" height="72.7043" rx="1.75" ry="1.75" style="stroke:#181818;stroke-width:0.35;" width="135.6981" x="1990.1" y="626.2348"/><ellipse cx="2000.6" cy="637.4348" fill="#ADD1B2" rx="7.7" ry="7.7" style="stroke:#181818;stroke-width:0.7;"/><path d="M2002.5359,634.5473 Q2002.6453,634.3941 2002.7766,634.3176 Q2002.9078,634.241 2003.0609,634.241 Q2003.3234,634.241 2003.4875,634.427 Q2003.6516,634.602 2003.6516,635.0285 L2003.6516,636.0457 Q2003.6516,636.4723 2003.4875,636.6582 Q2003.3234,636.8441 2003.0609,636.8441 Q2002.8203,636.8441 2002.6781,636.702 Q2002.5359,636.5707 2002.4594,636.2098 Q2002.4266,635.9582 2002.2953,635.827 Q2002.0656,635.5645 2001.6391,635.4113 Q2001.2125,635.2582 2000.775,635.2582 Q2000.2391,635.2582 1999.7906,635.4879 Q1999.3531,635.7176 1999.0031,636.2426 Q1998.6641,636.7676 1998.6641,637.4895 L1998.6641,638.2551 Q1998.6641,639.1191 1999.2875,639.6988 Q1999.9109,640.2676 2001.0266,640.2676 Q2001.6828,640.2676 2002.1422,640.0926 Q2002.4156,639.9832 2002.7109,639.677 Q2002.8969,639.491 2002.9953,639.4363 Q2003.1047,639.3816 2003.2469,639.3816 Q2003.4766,639.3816 2003.6516,639.5676 Q2003.8375,639.7426 2003.8375,639.9832 Q2003.8375,640.2238 2003.5969,640.5082 Q2003.2469,640.9129 2002.6891,641.1426 Q2001.9344,641.4598 2001.0266,641.4598 Q1999.9656,641.4598 1999.1234,641.0223 Q1998.4344,640.6723 1997.9531,639.9285 Q1997.4719,639.1738 1997.4719,638.277 L1997.4719,637.4676 Q1997.4719,636.5379 1997.8984,635.7395 Q1998.3359,634.9301 1999.1016,634.5035 Q1999.8672,634.066 2000.7312,634.066 Q2001.2453,634.066 2001.6937,634.1863 Q2002.1531,634.2957 2002.5359,634.5473 Z " fill="#000000"/><text fill="#000000" font-family="sans-serif" font-size="9.8" lengthAdjust="spacing" textLength="113.2981" x="2010.4" y="641.4926">CreateResidentCommand</text><line style="stroke:#181818;stroke-width:0.35;" x1="1990.8" x2="2125.0981" y1="648.6348" y2="648.6348"/><text fill="#000000" font-family="sans-serif" font-size="9.8" lengthAdjust="spacing" textLength="98.8853" x="1994.3" y="662.01">+personProfileId: Long</text><text fill="#000000" font-family="sans-serif" font-size="9.8" lengthAdjust="spacing" textLength="119.0212" x="1994.3" y="675.0447">+emergencyContact: String</text><text fill="#000000" font-family="sans-serif" font-size="9.8" lengthAdjust="spacing" textLength="123.39" x="1994.3" y="688.0795">+legalRepresentative: String</text><line style="stroke:#181818;stroke-width:0.35;" x1="1990.8" x2="2125.0981" y1="693.3391" y2="693.3391"/></g><!--class UpdateResidentCommand--><g class="entity" data-entity="UpdateResidentCommand" data-source-line="45" data-uid="ent0012" id="entity_UpdateResidentCommand"><rect fill="#F1F1F1" height="72.7043" rx="1.75" ry="1.75" style="stroke:#181818;stroke-width:0.35;" width="137.885" x="1827.35" y="626.2348"/><ellipse cx="1837.85" cy="637.4348" fill="#ADD1B2" rx="7.7" ry="7.7" style="stroke:#181818;stroke-width:0.7;"/><path d="M1839.7859,634.5473 Q1839.8953,634.3941 1840.0266,634.3176 Q1840.1578,634.241 1840.3109,634.241 Q1840.5734,634.241 1840.7375,634.427 Q1840.9016,634.602 1840.9016,635.0285 L1840.9016,636.0457 Q1840.9016,636.4723 1840.7375,636.6582 Q1840.5734,636.8441 1840.3109,636.8441 Q1840.0703,636.8441 1839.9281,636.702 Q1839.7859,636.5707 1839.7094,636.2098 Q1839.6766,635.9582 1839.5453,635.827 Q1839.3156,635.5645 1838.8891,635.4113 Q1838.4625,635.2582 1838.025,635.2582 Q1837.4891,635.2582 1837.0406,635.4879 Q1836.6031,635.7176 1836.2531,636.2426 Q1835.9141,636.7676 1835.9141,637.4895 L1835.9141,638.2551 Q1835.9141,639.1191 1836.5375,639.6988 Q1837.1609,640.2676 1838.2766,640.2676 Q1838.9328,640.2676 1839.3922,640.0926 Q1839.6656,639.9832 1839.9609,639.677 Q1840.1469,639.491 1840.2453,639.4363 Q1840.3547,639.3816 1840.4969,639.3816 Q1840.7266,639.3816 1840.9016,639.5676 Q1841.0875,639.7426 1841.0875,639.9832 Q1841.0875,640.2238 1840.8469,640.5082 Q1840.4969,640.9129 1839.9391,641.1426 Q1839.1844,641.4598 1838.2766,641.4598 Q1837.2156,641.4598 1836.3734,641.0223 Q1835.6844,640.6723 1835.2031,639.9285 Q1834.7219,639.1738 1834.7219,638.277 L1834.7219,637.4676 Q1834.7219,636.5379 1835.1484,635.7395 Q1835.5859,634.9301 1836.3516,634.5035 Q1837.1172,634.066 1837.9812,634.066 Q1838.4953,634.066 1838.9437,634.1863 Q1839.4031,634.2957 1839.7859,634.5473 Z " fill="#000000"/><text fill="#000000" font-family="sans-serif" font-size="9.8" lengthAdjust="spacing" textLength="115.485" x="1847.65" y="641.4926">UpdateResidentCommand</text><line style="stroke:#181818;stroke-width:0.35;" x1="1828.05" x2="1964.535" y1="648.6348" y2="648.6348"/><text fill="#000000" font-family="sans-serif" font-size="9.8" lengthAdjust="spacing" textLength="40.5973" x="1831.55" y="662.01">+id: Long</text><text fill="#000000" font-family="sans-serif" font-size="9.8" lengthAdjust="spacing" textLength="119.0212" x="1831.55" y="675.0447">+emergencyContact: String</text><text fill="#000000" font-family="sans-serif" font-size="9.8" lengthAdjust="spacing" textLength="123.39" x="1831.55" y="688.0795">+legalRepresentative: String</text><line style="stroke:#181818;stroke-width:0.35;" x1="1828.05" x2="1964.535" y1="693.3391" y2="693.3391"/></g><!--class DeleteResidentCommand--><g class="entity" data-entity="DeleteResidentCommand" data-source-line="50" data-uid="ent0013" id="entity_DeleteResidentCommand"><rect fill="#F1F1F1" height="46.6348" rx="1.75" ry="1.75" style="stroke:#181818;stroke-width:0.35;" width="134.6119" x="1668.1" y="639.1848"/><ellipse cx="1678.6" cy="650.3848" fill="#ADD1B2" rx="7.7" ry="7.7" style="stroke:#181818;stroke-width:0.7;"/><path d="M1680.5359,647.4973 Q1680.6453,647.3441 1680.7766,647.2676 Q1680.9078,647.191 1681.0609,647.191 Q1681.3234,647.191 1681.4875,647.377 Q1681.6516,647.552 1681.6516,647.9785 L1681.6516,648.9957 Q1681.6516,649.4223 1681.4875,649.6082 Q1681.3234,649.7941 1681.0609,649.7941 Q1680.8203,649.7941 1680.6781,649.652 Q1680.5359,649.5207 1680.4594,649.1598 Q1680.4266,648.9082 1680.2953,648.777 Q1680.0656,648.5145 1679.6391,648.3613 Q1679.2125,648.2082 1678.775,648.2082 Q1678.2391,648.2082 1677.7906,648.4379 Q1677.3531,648.6676 1677.0031,649.1926 Q1676.6641,649.7176 1676.6641,650.4395 L1676.6641,651.2051 Q1676.6641,652.0691 1677.2875,652.6488 Q1677.9109,653.2176 1679.0266,653.2176 Q1679.6828,653.2176 1680.1422,653.0426 Q1680.4156,652.9332 1680.7109,652.627 Q1680.8969,652.441 1680.9953,652.3863 Q1681.1047,652.3316 1681.2469,652.3316 Q1681.4766,652.3316 1681.6516,652.5176 Q1681.8375,652.6926 1681.8375,652.9332 Q1681.8375,653.1738 1681.5969,653.4582 Q1681.2469,653.8629 1680.6891,654.0926 Q1679.9344,654.4098 1679.0266,654.4098 Q1677.9656,654.4098 1677.1234,653.9723 Q1676.4344,653.6223 1675.9531,652.8785 Q1675.4719,652.1238 1675.4719,651.227 L1675.4719,650.4176 Q1675.4719,649.4879 1675.8984,648.6895 Q1676.3359,647.8801 1677.1016,647.4535 Q1677.8672,647.016 1678.7312,647.016 Q1679.2453,647.016 1679.6937,647.1363 Q1680.1531,647.2457 1680.5359,647.4973 Z " fill="#000000"/><text fill="#000000" font-family="sans-serif" font-size="9.8" lengthAdjust="spacing" textLength="112.2119" x="1688.4" y="654.4426">DeleteResidentCommand</text><line style="stroke:#181818;stroke-width:0.35;" x1="1668.8" x2="1802.0119" y1="661.5848" y2="661.5848"/><text fill="#000000" font-family="sans-serif" font-size="9.8" lengthAdjust="spacing" textLength="40.5973" x="1672.3" y="674.96">+id: Long</text><line style="stroke:#181818;stroke-width:0.35;" x1="1668.8" x2="1802.0119" y1="680.2195" y2="680.2195"/></g><!--class GetAllResidentsQuery--><g class="entity" data-entity="GetAllResidentsQuery" data-source-line="56" data-uid="ent0015" id="entity_GetAllResidentsQuery"><rect fill="#F1F1F1" height="33.6" rx="1.75" ry="1.75" style="stroke:#181818;stroke-width:0.35;" width="119.3521" x="1361.15" y="645.8348"/><ellipse cx="1371.65" cy="657.0348" fill="#ADD1B2" rx="7.7" ry="7.7" style="stroke:#181818;stroke-width:0.7;"/><path d="M1373.5859,654.1473 Q1373.6953,653.9941 1373.8266,653.9176 Q1373.9578,653.841 1374.1109,653.841 Q1374.3734,653.841 1374.5375,654.027 Q1374.7016,654.202 1374.7016,654.6285 L1374.7016,655.6457 Q1374.7016,656.0723 1374.5375,656.2582 Q1374.3734,656.4441 1374.1109,656.4441 Q1373.8703,656.4441 1373.7281,656.302 Q1373.5859,656.1707 1373.5094,655.8098 Q1373.4766,655.5582 1373.3453,655.427 Q1373.1156,655.1645 1372.6891,655.0113 Q1372.2625,654.8582 1371.825,654.8582 Q1371.2891,654.8582 1370.8406,655.0879 Q1370.4031,655.3176 1370.0531,655.8426 Q1369.7141,656.3676 1369.7141,657.0895 L1369.7141,657.8551 Q1369.7141,658.7191 1370.3375,659.2988 Q1370.9609,659.8676 1372.0766,659.8676 Q1372.7328,659.8676 1373.1922,659.6926 Q1373.4656,659.5832 1373.7609,659.277 Q1373.9469,659.091 1374.0453,659.0363 Q1374.1547,658.9816 1374.2969,658.9816 Q1374.5266,658.9816 1374.7016,659.1676 Q1374.8875,659.3426 1374.8875,659.5832 Q1374.8875,659.8238 1374.6469,660.1082 Q1374.2969,660.5129 1373.7391,660.7426 Q1372.9844,661.0598 1372.0766,661.0598 Q1371.0156,661.0598 1370.1734,660.6223 Q1369.4844,660.2723 1369.0031,659.5285 Q1368.5219,658.7738 1368.5219,657.877 L1368.5219,657.0676 Q1368.5219,656.1379 1368.9484,655.3395 Q1369.3859,654.5301 1370.1516,654.1035 Q1370.9172,653.666 1371.7812,653.666 Q1372.2953,653.666 1372.7437,653.7863 Q1373.2031,653.8957 1373.5859,654.1473 Z " fill="#000000"/><text fill="#000000" font-family="sans-serif" font-size="9.8" lengthAdjust="spacing" textLength="96.9521" x="1381.45" y="661.0926">GetAllResidentsQuery</text><line style="stroke:#181818;stroke-width:0.35;" x1="1361.85" x2="1479.8021" y1="668.2348" y2="668.2348"/><line style="stroke:#181818;stroke-width:0.35;" x1="1361.85" x2="1479.8021" y1="673.8348" y2="673.8348"/></g><!--class GetResidentByIdQuery--><g class="entity" data-entity="GetResidentByIdQuery" data-source-line="57" data-uid="ent0016" id="entity_GetResidentByIdQuery"><rect fill="#F1F1F1" height="46.6348" rx="1.75" ry="1.75" style="stroke:#181818;stroke-width:0.35;" width="123.1706" x="1505.7" y="639.1848"/><ellipse cx="1516.2" cy="650.3848" fill="#ADD1B2" rx="7.7" ry="7.7" style="stroke:#181818;stroke-width:0.7;"/><path d="M1518.1359,647.4973 Q1518.2453,647.3441 1518.3766,647.2676 Q1518.5078,647.191 1518.6609,647.191 Q1518.9234,647.191 1519.0875,647.377 Q1519.2516,647.552 1519.2516,647.9785 L1519.2516,648.9957 Q1519.2516,649.4223 1519.0875,649.6082 Q1518.9234,649.7941 1518.6609,649.7941 Q1518.4203,649.7941 1518.2781,649.652 Q1518.1359,649.5207 1518.0594,649.1598 Q1518.0266,648.9082 1517.8953,648.777 Q1517.6656,648.5145 1517.2391,648.3613 Q1516.8125,648.2082 1516.375,648.2082 Q1515.8391,648.2082 1515.3906,648.4379 Q1514.9531,648.6676 1514.6031,649.1926 Q1514.2641,649.7176 1514.2641,650.4395 L1514.2641,651.2051 Q1514.2641,652.0691 1514.8875,652.6488 Q1515.5109,653.2176 1516.6266,653.2176 Q1517.2828,653.2176 1517.7422,653.0426 Q1518.0156,652.9332 1518.3109,652.627 Q1518.4969,652.441 1518.5953,652.3863 Q1518.7047,652.3316 1518.8469,652.3316 Q1519.0766,652.3316 1519.2516,652.5176 Q1519.4375,652.6926 1519.4375,652.9332 Q1519.4375,653.1738 1519.1969,653.4582 Q1518.8469,653.8629 1518.2891,654.0926 Q1517.5344,654.4098 1516.6266,654.4098 Q1515.5656,654.4098 1514.7234,653.9723 Q1514.0344,653.6223 1513.5531,652.8785 Q1513.0719,652.1238 1513.0719,651.227 L1513.0719,650.4176 Q1513.0719,649.4879 1513.4984,648.6895 Q1513.9359,647.8801 1514.7016,647.4535 Q1515.4672,647.016 1516.3312,647.016 Q1516.8453,647.016 1517.2937,647.1363 Q1517.7531,647.2457 1518.1359,647.4973 Z " fill="#000000"/><text fill="#000000" font-family="sans-serif" font-size="9.8" lengthAdjust="spacing" textLength="100.7706" x="1526" y="654.4426">GetResidentByIdQuery</text><line style="stroke:#181818;stroke-width:0.35;" x1="1506.4" x2="1628.1706" y1="661.5848" y2="661.5848"/><text fill="#000000" font-family="sans-serif" font-size="9.8" lengthAdjust="spacing" textLength="40.5973" x="1509.9" y="674.96">+id: Long</text><line style="stroke:#181818;stroke-width:0.35;" x1="1506.4" x2="1628.1706" y1="680.2195" y2="680.2195"/></g><!--class GetResidentByPersonProfileQuery--><g class="entity" data-entity="GetResidentByPersonProfileQuery" data-source-line="60" data-uid="ent0017" id="entity_GetResidentByPersonProfileQuery"><rect fill="#F1F1F1" height="46.6348" rx="1.75" ry="1.75" style="stroke:#181818;stroke-width:0.35;" width="173.8263" x="1360.8" y="833.7848"/><ellipse cx="1371.3" cy="844.9848" fill="#ADD1B2" rx="7.7" ry="7.7" style="stroke:#181818;stroke-width:0.7;"/><path d="M1373.2359,842.0973 Q1373.3453,841.9441 1373.4766,841.8676 Q1373.6078,841.791 1373.7609,841.791 Q1374.0234,841.791 1374.1875,841.977 Q1374.3516,842.152 1374.3516,842.5785 L1374.3516,843.5957 Q1374.3516,844.0223 1374.1875,844.2082 Q1374.0234,844.3941 1373.7609,844.3941 Q1373.5203,844.3941 1373.3781,844.252 Q1373.2359,844.1207 1373.1594,843.7598 Q1373.1266,843.5082 1372.9953,843.377 Q1372.7656,843.1145 1372.3391,842.9613 Q1371.9125,842.8082 1371.475,842.8082 Q1370.9391,842.8082 1370.4906,843.0379 Q1370.0531,843.2676 1369.7031,843.7926 Q1369.3641,844.3176 1369.3641,845.0395 L1369.3641,845.8051 Q1369.3641,846.6691 1369.9875,847.2488 Q1370.6109,847.8176 1371.7266,847.8176 Q1372.3828,847.8176 1372.8422,847.6426 Q1373.1156,847.5332 1373.4109,847.227 Q1373.5969,847.041 1373.6953,846.9863 Q1373.8047,846.9316 1373.9469,846.9316 Q1374.1766,846.9316 1374.3516,847.1176 Q1374.5375,847.2926 1374.5375,847.5332 Q1374.5375,847.7738 1374.2969,848.0582 Q1373.9469,848.4629 1373.3891,848.6926 Q1372.6344,849.0098 1371.7266,849.0098 Q1370.6656,849.0098 1369.8234,848.5723 Q1369.1344,848.2223 1368.6531,847.4785 Q1368.1719,846.7238 1368.1719,845.827 L1368.1719,845.0176 Q1368.1719,844.0879 1368.5984,843.2895 Q1369.0359,842.4801 1369.8016,842.0535 Q1370.5672,841.616 1371.4312,841.616 Q1371.9453,841.616 1372.3937,841.7363 Q1372.8531,841.8457 1373.2359,842.0973 Z " fill="#000000"/><text fill="#000000" font-family="sans-serif" font-size="9.8" lengthAdjust="spacing" textLength="151.4263" x="1381.1" y="849.0426">GetResidentByPersonProfileQuery</text><line style="stroke:#181818;stroke-width:0.35;" x1="1361.5" x2="1533.9263" y1="856.1848" y2="856.1848"/><text fill="#000000" font-family="sans-serif" font-size="9.8" lengthAdjust="spacing" textLength="98.8853" x="1365" y="869.56">+personProfileId: Long</text><line style="stroke:#181818;stroke-width:0.35;" x1="1361.5" x2="1533.9263" y1="874.8195" y2="874.8195"/></g><!--class PersonProfileId--><g class="entity" data-entity="PersonProfileId" data-source-line="66" data-uid="ent0019" id="entity_PersonProfileId"><rect fill="#F1F1F1" height="55.4422" rx="1.75" ry="1.75" style="stroke:#181818;stroke-width:0.35;" width="89.4018" x="2001.3" y="829.5848"/><ellipse cx="2011.8" cy="845.1885" fill="#ADD1B2" rx="7.7" ry="7.7" style="stroke:#181818;stroke-width:0.7;"/><path d="M2013.7359,842.301 Q2013.8453,842.1479 2013.9766,842.0713 Q2014.1078,841.9947 2014.2609,841.9947 Q2014.5234,841.9947 2014.6875,842.1807 Q2014.8516,842.3557 2014.8516,842.7822 L2014.8516,843.7994 Q2014.8516,844.226 2014.6875,844.4119 Q2014.5234,844.5979 2014.2609,844.5979 Q2014.0203,844.5979 2013.8781,844.4557 Q2013.7359,844.3244 2013.6594,843.9635 Q2013.6266,843.7119 2013.4953,843.5807 Q2013.2656,843.3182 2012.8391,843.165 Q2012.4125,843.0119 2011.975,843.0119 Q2011.4391,843.0119 2010.9906,843.2416 Q2010.5531,843.4713 2010.2031,843.9963 Q2009.8641,844.5213 2009.8641,845.2432 L2009.8641,846.0088 Q2009.8641,846.8729 2010.4875,847.4525 Q2011.1109,848.0213 2012.2266,848.0213 Q2012.8828,848.0213 2013.3422,847.8463 Q2013.6156,847.7369 2013.9109,847.4307 Q2014.0969,847.2447 2014.1953,847.19 Q2014.3047,847.1354 2014.4469,847.1354 Q2014.6766,847.1354 2014.8516,847.3213 Q2015.0375,847.4963 2015.0375,847.7369 Q2015.0375,847.9775 2014.7969,848.2619 Q2014.4469,848.6666 2013.8891,848.8963 Q2013.1344,849.2135 2012.2266,849.2135 Q2011.1656,849.2135 2010.3234,848.776 Q2009.6344,848.426 2009.1531,847.6822 Q2008.6719,846.9275 2008.6719,846.0307 L2008.6719,845.2213 Q2008.6719,844.2916 2009.0984,843.4932 Q2009.5359,842.6838 2010.3016,842.2572 Q2011.0672,841.8197 2011.9312,841.8197 Q2012.4453,841.8197 2012.8937,841.94 Q2013.3531,842.0494 2013.7359,842.301 Z " fill="#000000"/><text fill="#000000" font-family="sans-serif" font-size="8.4" font-style="italic" lengthAdjust="spacing" textLength="21.4799" x="2044.3609" y="842.1492">&#171;VO&#187;</text><text fill="#000000" font-family="sans-serif" font-size="9.8" lengthAdjust="spacing" textLength="67.0018" x="2021.6" y="854.8326">PersonProfileId</text><line style="stroke:#181818;stroke-width:0.35;" x1="2002" x2="2090.0018" y1="860.7922" y2="860.7922"/><text fill="#000000" font-family="sans-serif" font-size="9.8" lengthAdjust="spacing" textLength="56.3979" x="2005.5" y="874.1674">+value: Long</text><line style="stroke:#181818;stroke-width:0.35;" x1="2002" x2="2090.0018" y1="879.427" y2="879.427"/></g><!--class EmergencyContact--><g class="entity" data-entity="EmergencyContact" data-source-line="69" data-uid="ent0020" id="entity_EmergencyContact"><rect fill="#F1F1F1" height="68.477" rx="1.75" ry="1.75" style="stroke:#181818;stroke-width:0.35;" width="107.2757" x="2252.25" y="822.9348"/><ellipse cx="2263.4418" cy="838.5385" fill="#ADD1B2" rx="7.7" ry="7.7" style="stroke:#181818;stroke-width:0.7;"/><path d="M2265.3778,835.651 Q2265.4871,835.4979 2265.6184,835.4213 Q2265.7496,835.3447 2265.9028,835.3447 Q2266.1653,835.3447 2266.3293,835.5307 Q2266.4934,835.7057 2266.4934,836.1322 L2266.4934,837.1494 Q2266.4934,837.576 2266.3293,837.7619 Q2266.1653,837.9479 2265.9028,837.9479 Q2265.6621,837.9479 2265.52,837.8057 Q2265.3778,837.6744 2265.3012,837.3135 Q2265.2684,837.0619 2265.1371,836.9307 Q2264.9075,836.6682 2264.4809,836.515 Q2264.0543,836.3619 2263.6168,836.3619 Q2263.0809,836.3619 2262.6325,836.5916 Q2262.195,836.8213 2261.845,837.3463 Q2261.5059,837.8713 2261.5059,838.5932 L2261.5059,839.3588 Q2261.5059,840.2229 2262.1293,840.8025 Q2262.7528,841.3713 2263.8684,841.3713 Q2264.5246,841.3713 2264.984,841.1963 Q2265.2575,841.0869 2265.5528,840.7807 Q2265.7387,840.5947 2265.8371,840.54 Q2265.9465,840.4854 2266.0887,840.4854 Q2266.3184,840.4854 2266.4934,840.6713 Q2266.6793,840.8463 2266.6793,841.0869 Q2266.6793,841.3275 2266.4387,841.6119 Q2266.0887,842.0166 2265.5309,842.2463 Q2264.7762,842.5635 2263.8684,842.5635 Q2262.8075,842.5635 2261.9653,842.126 Q2261.2762,841.776 2260.795,841.0322 Q2260.3137,840.2775 2260.3137,839.3807 L2260.3137,838.5713 Q2260.3137,837.6416 2260.7403,836.8432 Q2261.1778,836.0338 2261.9434,835.6072 Q2262.709,835.1697 2263.5731,835.1697 Q2264.0871,835.1697 2264.5356,835.29 Q2264.995,835.3994 2265.3778,835.651 Z " fill="#000000"/><text fill="#000000" font-family="sans-serif" font-size="8.4" font-style="italic" lengthAdjust="spacing" textLength="21.4799" x="2304.3248" y="835.4992">&#171;VO&#187;</text><text fill="#000000" font-family="sans-serif" font-size="9.8" lengthAdjust="spacing" textLength="83.3383" x="2273.3956" y="848.1826">EmergencyContact</text><line style="stroke:#181818;stroke-width:0.35;" x1="2252.95" x2="2358.8257" y1="854.1422" y2="854.1422"/><text fill="#000000" font-family="sans-serif" font-size="9.8" lengthAdjust="spacing" textLength="75.438" x="2256.45" y="867.5174">+fullName: String</text><text fill="#000000" font-family="sans-serif" font-size="9.8" lengthAdjust="spacing" textLength="98.8757" x="2256.45" y="880.5521">+phoneNumber: String</text><line style="stroke:#181818;stroke-width:0.35;" x1="2252.95" x2="2358.8257" y1="885.8117" y2="885.8117"/></g><!--class LegalRepresentative--><g class="entity" data-entity="LegalRepresentative" data-source-line="73" data-uid="ent0021" id="entity_LegalRepresentative"><rect fill="#F1F1F1" height="68.477" rx="1.75" ry="1.75" style="stroke:#181818;stroke-width:0.35;" width="112.2939" x="2115.4" y="822.9348"/><ellipse cx="2125.9" cy="838.5385" fill="#ADD1B2" rx="7.7" ry="7.7" style="stroke:#181818;stroke-width:0.7;"/><path d="M2127.8359,835.651 Q2127.9453,835.4979 2128.0766,835.4213 Q2128.2078,835.3447 2128.3609,835.3447 Q2128.6234,835.3447 2128.7875,835.5307 Q2128.9516,835.7057 2128.9516,836.1322 L2128.9516,837.1494 Q2128.9516,837.576 2128.7875,837.7619 Q2128.6234,837.9479 2128.3609,837.9479 Q2128.1203,837.9479 2127.9781,837.8057 Q2127.8359,837.6744 2127.7594,837.3135 Q2127.7266,837.0619 2127.5953,836.9307 Q2127.3656,836.6682 2126.9391,836.515 Q2126.5125,836.3619 2126.075,836.3619 Q2125.5391,836.3619 2125.0906,836.5916 Q2124.6531,836.8213 2124.3031,837.3463 Q2123.9641,837.8713 2123.9641,838.5932 L2123.9641,839.3588 Q2123.9641,840.2229 2124.5875,840.8025 Q2125.2109,841.3713 2126.3266,841.3713 Q2126.9828,841.3713 2127.4422,841.1963 Q2127.7156,841.0869 2128.0109,840.7807 Q2128.1969,840.5947 2128.2953,840.54 Q2128.4047,840.4854 2128.5469,840.4854 Q2128.7766,840.4854 2128.9516,840.6713 Q2129.1375,840.8463 2129.1375,841.0869 Q2129.1375,841.3275 2128.8969,841.6119 Q2128.5469,842.0166 2127.9891,842.2463 Q2127.2344,842.5635 2126.3266,842.5635 Q2125.2656,842.5635 2124.4234,842.126 Q2123.7344,841.776 2123.2531,841.0322 Q2122.7719,840.2775 2122.7719,839.3807 L2122.7719,838.5713 Q2122.7719,837.6416 2123.1984,836.8432 Q2123.6359,836.0338 2124.4016,835.6072 Q2125.1672,835.1697 2126.0312,835.1697 Q2126.5453,835.1697 2126.9937,835.29 Q2127.4531,835.3994 2127.8359,835.651 Z " fill="#000000"/><text fill="#000000" font-family="sans-serif" font-size="8.4" font-style="italic" lengthAdjust="spacing" textLength="21.4799" x="2169.907" y="835.4992">&#171;VO&#187;</text><text fill="#000000" font-family="sans-serif" font-size="9.8" lengthAdjust="spacing" textLength="89.8939" x="2135.7" y="848.1826">LegalRepresentative</text><line style="stroke:#181818;stroke-width:0.35;" x1="2116.1" x2="2226.9939" y1="854.1422" y2="854.1422"/><text fill="#000000" font-family="sans-serif" font-size="9.8" lengthAdjust="spacing" textLength="75.438" x="2119.6" y="867.5174">+fullName: String</text><text fill="#000000" font-family="sans-serif" font-size="9.8" lengthAdjust="spacing" textLength="98.8757" x="2119.6" y="880.5521">+phoneNumber: String</text><line style="stroke:#181818;stroke-width:0.35;" x1="2116.1" x2="2226.9939" y1="885.8117" y2="885.8117"/></g><!--class ExternalProfileService--><g class="entity" data-entity="ExternalProfileService" data-source-line="85" data-uid="ent0024" id="entity_ExternalProfileService"><rect fill="#F1F1F1" height="46.6348" rx="1.75" ry="1.75" style="stroke:#181818;stroke-width:0.35;" width="238.0157" x="3098.2" y="639.1848"/><ellipse cx="3166.0296" cy="650.3848" fill="#ADD1B2" rx="7.7" ry="7.7" style="stroke:#181818;stroke-width:0.7;"/><path d="M3167.9655,647.4973 Q3168.0749,647.3441 3168.2062,647.2676 Q3168.3374,647.191 3168.4905,647.191 Q3168.753,647.191 3168.9171,647.377 Q3169.0812,647.552 3169.0812,647.9785 L3169.0812,648.9957 Q3169.0812,649.4223 3168.9171,649.6082 Q3168.753,649.7941 3168.4905,649.7941 Q3168.2499,649.7941 3168.1077,649.652 Q3167.9655,649.5207 3167.889,649.1598 Q3167.8562,648.9082 3167.7249,648.777 Q3167.4952,648.5145 3167.0687,648.3613 Q3166.6421,648.2082 3166.2046,648.2082 Q3165.6687,648.2082 3165.2202,648.4379 Q3164.7827,648.6676 3164.4327,649.1926 Q3164.0937,649.7176 3164.0937,650.4395 L3164.0937,651.2051 Q3164.0937,652.0691 3164.7171,652.6488 Q3165.3405,653.2176 3166.4562,653.2176 Q3167.1124,653.2176 3167.5718,653.0426 Q3167.8452,652.9332 3168.1405,652.627 Q3168.3265,652.441 3168.4249,652.3863 Q3168.5343,652.3316 3168.6765,652.3316 Q3168.9062,652.3316 3169.0812,652.5176 Q3169.2671,652.6926 3169.2671,652.9332 Q3169.2671,653.1738 3169.0265,653.4582 Q3168.6765,653.8629 3168.1187,654.0926 Q3167.364,654.4098 3166.4562,654.4098 Q3165.3952,654.4098 3164.553,653.9723 Q3163.864,653.6223 3163.3827,652.8785 Q3162.9015,652.1238 3162.9015,651.227 L3162.9015,650.4176 Q3162.9015,649.4879 3163.328,648.6895 Q3163.7655,647.8801 3164.5312,647.4535 Q3165.2968,647.016 3166.1608,647.016 Q3166.6749,647.016 3167.1233,647.1363 Q3167.5827,647.2457 3167.9655,647.4973 Z " fill="#000000"/><text fill="#000000" font-family="sans-serif" font-size="9.8" lengthAdjust="spacing" textLength="96.4065" x="3180.3796" y="654.4426">ExternalProfileService</text><line style="stroke:#181818;stroke-width:0.35;" x1="3098.9" x2="3335.5157" y1="661.5848" y2="661.5848"/><line style="stroke:#181818;stroke-width:0.35;" x1="3098.9" x2="3335.5157" y1="667.1848" y2="667.1848"/><text fill="#000000" font-family="sans-serif" font-size="9.8" lengthAdjust="spacing" textLength="229.6157" x="3102.4" y="680.56">+existsPersonProfile(personProfileId: Long): boolean</text></g><!--class ResidentCommandServiceImpl--><g class="entity" data-entity="ResidentCommandServiceImpl" data-source-line="92" data-uid="ent0028" id="entity_ResidentCommandServiceImpl"><rect fill="#F1F1F1" height="98.7738" rx="1.75" ry="1.75" style="stroke:#181818;stroke-width:0.35;" width="257.6349" x="3081.4" y="359.5348"/><ellipse cx="3139.7047" cy="370.7348" fill="#ADD1B2" rx="7.7" ry="7.7" style="stroke:#181818;stroke-width:0.7;"/><path d="M3141.6407,367.8473 Q3141.75,367.6941 3141.8813,367.6176 Q3142.0125,367.541 3142.1657,367.541 Q3142.4282,367.541 3142.5922,367.727 Q3142.7563,367.902 3142.7563,368.3285 L3142.7563,369.3457 Q3142.7563,369.7723 3142.5922,369.9582 Q3142.4282,370.1441 3142.1657,370.1441 Q3141.925,370.1441 3141.7829,370.002 Q3141.6407,369.8707 3141.5641,369.5098 Q3141.5313,369.2582 3141.4,369.127 Q3141.1704,368.8645 3140.7438,368.7113 Q3140.3172,368.5582 3139.8797,368.5582 Q3139.3438,368.5582 3138.8954,368.7879 Q3138.4579,369.0176 3138.1079,369.5426 Q3137.7688,370.0676 3137.7688,370.7895 L3137.7688,371.5551 Q3137.7688,372.4191 3138.3922,372.9988 Q3139.0157,373.5676 3140.1313,373.5676 Q3140.7875,373.5676 3141.2469,373.3926 Q3141.5204,373.2832 3141.8157,372.977 Q3142.0016,372.791 3142.1,372.7363 Q3142.2094,372.6816 3142.3516,372.6816 Q3142.5813,372.6816 3142.7563,372.8676 Q3142.9422,373.0426 3142.9422,373.2832 Q3142.9422,373.5238 3142.7016,373.8082 Q3142.3516,374.2129 3141.7938,374.4426 Q3141.0391,374.7598 3140.1313,374.7598 Q3139.0704,374.7598 3138.2282,374.3223 Q3137.5391,373.9723 3137.0579,373.2285 Q3136.5766,372.4738 3136.5766,371.577 L3136.5766,370.7676 Q3136.5766,369.8379 3137.0032,369.0395 Q3137.4407,368.2301 3138.2063,367.8035 Q3138.9719,367.366 3139.836,367.366 Q3140.35,367.366 3140.7985,367.4863 Q3141.2579,367.5957 3141.6407,367.8473 Z " fill="#000000"/><text fill="#000000" font-family="sans-serif" font-size="9.8" lengthAdjust="spacing" textLength="135.0754" x="3154.0547" y="374.7926">ResidentCommandServiceImpl</text><line style="stroke:#181818;stroke-width:0.35;" x1="3082.1" x2="3338.3349" y1="381.9348" y2="381.9348"/><text fill="#000000" font-family="sans-serif" font-size="9.8" lengthAdjust="spacing" textLength="175.9358" x="3085.6" y="395.31">-residentRepository: ResidentRepository</text><text fill="#000000" font-family="sans-serif" font-size="9.8" lengthAdjust="spacing" textLength="200.4358" x="3085.6" y="408.3447">-externalProfileService: ExternalProfileService</text><line style="stroke:#181818;stroke-width:0.35;" x1="3082.1" x2="3338.3349" y1="413.6043" y2="413.6043"/><text fill="#000000" font-family="sans-serif" font-size="9.8" lengthAdjust="spacing" textLength="247.048" x="3085.6" y="426.9795">+handle(CreateResidentCommand): Optional&lt;Resident&gt;</text><text fill="#000000" font-family="sans-serif" font-size="9.8" lengthAdjust="spacing" textLength="249.2349" x="3085.6" y="440.0143">+handle(UpdateResidentCommand): Optional&lt;Resident&gt;</text><text fill="#000000" font-family="sans-serif" font-size="9.8" lengthAdjust="spacing" textLength="177.314" x="3085.6" y="453.049">+handle(DeleteResidentCommand): void</text></g><!--class ResidentQueryCommandImpl--><g class="entity" data-entity="ResidentQueryCommandImpl" data-source-line="102" data-uid="ent0030" id="entity_ResidentQueryCommandImpl"><rect fill="#F1F1F1" height="85.7391" rx="1.75" ry="1.75" style="stroke:#181818;stroke-width:0.35;" width="293.5762" x="3378.55" y="366.1848"/><ellipse cx="3457.8209" cy="377.3848" fill="#ADD1B2" rx="7.7" ry="7.7" style="stroke:#181818;stroke-width:0.7;"/><path d="M3459.7568,374.4973 Q3459.8662,374.3441 3459.9975,374.2676 Q3460.1287,374.191 3460.2818,374.191 Q3460.5443,374.191 3460.7084,374.377 Q3460.8725,374.552 3460.8725,374.9785 L3460.8725,375.9957 Q3460.8725,376.4223 3460.7084,376.6082 Q3460.5443,376.7941 3460.2818,376.7941 Q3460.0412,376.7941 3459.899,376.652 Q3459.7568,376.5207 3459.6803,376.1598 Q3459.6475,375.9082 3459.5162,375.777 Q3459.2865,375.5145 3458.86,375.3613 Q3458.4334,375.2082 3457.9959,375.2082 Q3457.46,375.2082 3457.0115,375.4379 Q3456.574,375.6676 3456.224,376.1926 Q3455.885,376.7176 3455.885,377.4395 L3455.885,378.2051 Q3455.885,379.0691 3456.5084,379.6488 Q3457.1318,380.2176 3458.2475,380.2176 Q3458.9037,380.2176 3459.3631,380.0426 Q3459.6365,379.9332 3459.9318,379.627 Q3460.1178,379.441 3460.2162,379.3863 Q3460.3256,379.3316 3460.4678,379.3316 Q3460.6975,379.3316 3460.8725,379.5176 Q3461.0584,379.6926 3461.0584,379.9332 Q3461.0584,380.1738 3460.8178,380.4582 Q3460.4678,380.8629 3459.91,381.0926 Q3459.1553,381.4098 3458.2475,381.4098 Q3457.1865,381.4098 3456.3443,380.9723 Q3455.6553,380.6223 3455.174,379.8785 Q3454.6928,379.1238 3454.6928,378.227 L3454.6928,377.4176 Q3454.6928,376.4879 3455.1193,375.6895 Q3455.5568,374.8801 3456.3225,374.4535 Q3457.0881,374.016 3457.9521,374.016 Q3458.4662,374.016 3458.9146,374.1363 Q3459.374,374.2457 3459.7568,374.4973 Z " fill="#000000"/><text fill="#000000" font-family="sans-serif" font-size="9.8" lengthAdjust="spacing" textLength="129.0844" x="3472.1709" y="381.4426">ResidentQueryCommandImpl</text><line style="stroke:#181818;stroke-width:0.35;" x1="3379.25" x2="3671.4262" y1="388.5848" y2="388.5848"/><text fill="#000000" font-family="sans-serif" font-size="9.8" lengthAdjust="spacing" textLength="175.9358" x="3382.75" y="401.96">-residentRepository: ResidentRepository</text><line style="stroke:#181818;stroke-width:0.35;" x1="3379.25" x2="3671.4262" y1="407.2195" y2="407.2195"/><text fill="#000000" font-family="sans-serif" font-size="9.8" lengthAdjust="spacing" textLength="209.4511" x="3382.75" y="420.5947">+handle(GetAllResidentsQuery): List&lt;Resident&gt;</text><text fill="#000000" font-family="sans-serif" font-size="9.8" lengthAdjust="spacing" textLength="234.5205" x="3382.75" y="433.6295">+handle(GetResidentByIdQuery): Optional&lt;Resident&gt;</text><text fill="#000000" font-family="sans-serif" font-size="9.8" lengthAdjust="spacing" textLength="285.1762" x="3382.75" y="446.6643">+handle(GetResidentByPersonProfileQuery): Optional&lt;Resident&gt;</text></g><!--class ResidentRepository--><g class="entity" data-entity="ResidentRepository" data-source-line="112" data-uid="ent0032" id="entity_ResidentRepository"><rect fill="#F1F1F1" height="111.8086" rx="1.75" ry="1.75" style="stroke:#181818;stroke-width:0.35;" width="273.9618" x="3795.75" y="606.6348"/><ellipse cx="3886.9958" cy="617.8348" fill="#B4A7E5" rx="7.7" ry="7.7" style="stroke:#181818;stroke-width:0.7;"/><path d="M3887.6629,615.4832 L3887.6629,620.1426 L3888.8661,620.1426 Q3889.2926,620.1426 3889.4786,620.3066 Q3889.6645,620.4707 3889.6645,620.7441 Q3889.6645,621.0066 3889.4786,621.1707 Q3889.2926,621.3348 3888.8661,621.3348 L3885.2676,621.3348 Q3884.8411,621.3348 3884.6551,621.1707 Q3884.4692,621.0066 3884.4692,620.7332 Q3884.4692,620.4707 3884.6551,620.3066 Q3884.8411,620.1426 3885.2676,620.1426 L3886.4708,620.1426 L3886.4708,615.4832 L3885.2676,615.4832 Q3884.8411,615.4832 3884.6551,615.3191 Q3884.4692,615.1551 3884.4692,614.8816 Q3884.4692,614.6191 3884.6551,614.4551 Q3884.8411,614.291 3885.2676,614.291 L3888.8661,614.291 Q3889.2926,614.291 3889.4786,614.4551 Q3889.6645,614.6191 3889.6645,614.8816 Q3889.6645,615.1551 3889.4786,615.3191 Q3889.2926,615.4832 3888.8661,615.4832 L3887.6629,615.4832 Z " fill="#000000"/><text fill="#000000" font-family="sans-serif" font-size="9.8" font-style="italic" lengthAdjust="spacing" textLength="85.5203" x="3901.3458" y="621.8926">ResidentRepository</text><line style="stroke:#181818;stroke-width:0.35;" x1="3796.45" x2="4069.0118" y1="629.0348" y2="629.0348"/><line style="stroke:#181818;stroke-width:0.35;" x1="3796.45" x2="4069.0118" y1="634.6348" y2="634.6348"/><text fill="#000000" font-family="sans-serif" font-size="9.8" lengthAdjust="spacing" textLength="109.7619" x="3799.95" y="648.01">+findAll(): List&lt;Resident&gt;</text><text fill="#000000" font-family="sans-serif" font-size="9.8" lengthAdjust="spacing" textLength="161.5325" x="3799.95" y="661.0447">+findById(Long): Optional&lt;Resident&gt;</text><text fill="#000000" font-family="sans-serif" font-size="9.8" lengthAdjust="spacing" textLength="265.5618" x="3799.95" y="674.0795">+findByPersonProfileId(PersonProfileId): Optional&lt;Resident&gt;</text><text fill="#000000" font-family="sans-serif" font-size="9.8" lengthAdjust="spacing" textLength="223.0648" x="3799.95" y="687.1143">+existsByPersonProfileId(PersonProfileId): boolean</text><text fill="#000000" font-family="sans-serif" font-size="9.8" lengthAdjust="spacing" textLength="115.7529" x="3799.95" y="700.149">+save(Resident): Resident</text><text fill="#000000" font-family="sans-serif" font-size="9.8" lengthAdjust="spacing" textLength="103.7853" x="3799.95" y="713.1838">+deleteById(Long): void</text></g><!--class ResidentsController--><g class="entity" data-entity="ResidentsController" data-source-line="154" data-uid="ent0046" id="entity_ResidentsController"><rect fill="#F1F1F1" height="137.8781" rx="1.75" ry="1.75" style="stroke:#181818;stroke-width:0.35;" width="451.5677" x="819.35" y="121.5348"/><ellipse cx="999.1283" cy="132.7348" fill="#ADD1B2" rx="7.7" ry="7.7" style="stroke:#181818;stroke-width:0.7;"/><path d="M1001.0643,129.8473 Q1001.1736,129.6941 1001.3049,129.6176 Q1001.4361,129.541 1001.5893,129.541 Q1001.8518,129.541 1002.0158,129.727 Q1002.1799,129.902 1002.1799,130.3285 L1002.1799,131.3457 Q1002.1799,131.7723 1002.0158,131.9582 Q1001.8518,132.1441 1001.5893,132.1441 Q1001.3486,132.1441 1001.2064,132.002 Q1001.0643,131.8707 1000.9877,131.5098 Q1000.9549,131.2582 1000.8236,131.127 Q1000.5939,130.8645 1000.1674,130.7113 Q999.7408,130.5582 999.3033,130.5582 Q998.7674,130.5582 998.3189,130.7879 Q997.8814,131.0176 997.5314,131.5426 Q997.1924,132.0676 997.1924,132.7895 L997.1924,133.5551 Q997.1924,134.4191 997.8158,134.9988 Q998.4393,135.5676 999.5549,135.5676 Q1000.2111,135.5676 1000.6705,135.3926 Q1000.9439,135.2832 1001.2393,134.977 Q1001.4252,134.791 1001.5236,134.7363 Q1001.633,134.6816 1001.7752,134.6816 Q1002.0049,134.6816 1002.1799,134.8676 Q1002.3658,135.0426 1002.3658,135.2832 Q1002.3658,135.5238 1002.1252,135.8082 Q1001.7752,136.2129 1001.2174,136.4426 Q1000.4627,136.7598 999.5549,136.7598 Q998.4939,136.7598 997.6518,136.3223 Q996.9627,135.9723 996.4814,135.2285 Q996.0002,134.4738 996.0002,133.577 L996.0002,132.7676 Q996.0002,131.8379 996.4268,131.0395 Q996.8643,130.2301 997.6299,129.8035 Q998.3955,129.366 999.2596,129.366 Q999.7736,129.366 1000.2221,129.4863 Q1000.6814,129.5957 1001.0643,129.8473 Z " fill="#000000"/><text fill="#000000" font-family="sans-serif" font-size="9.8" lengthAdjust="spacing" textLength="86.061" x="1013.4783" y="136.7926">ResidentsController</text><line style="stroke:#181818;stroke-width:0.35;" x1="820.05" x2="1270.2177" y1="143.9348" y2="143.9348"/><text fill="#000000" font-family="sans-serif" font-size="9.8" lengthAdjust="spacing" textLength="247.8185" x="823.55" y="157.31">-residentCommandServices: ResidentCommandServices</text><text fill="#000000" font-family="sans-serif" font-size="9.8" lengthAdjust="spacing" textLength="210.7813" x="823.55" y="170.3447">-residentQueryServices: ResidentQueryServices</text><line style="stroke:#181818;stroke-width:0.35;" x1="820.05" x2="1270.2177" y1="175.6043" y2="175.6043"/><text fill="#000000" font-family="sans-serif" font-size="9.8" lengthAdjust="spacing" textLength="397.924" x="823.55" y="188.9795">+createResident(resource: CreateResidentResource): ResponseEntity&lt;ResidentResource&gt;</text><text fill="#000000" font-family="sans-serif" font-size="9.8" lengthAdjust="spacing" textLength="443.1677" x="823.55" y="202.0143">+updateResident(id: Long, resource: UpdateResidentResource): ResponseEntity&lt;ResidentResource&gt;</text><text fill="#000000" font-family="sans-serif" font-size="9.8" lengthAdjust="spacing" textLength="217.648" x="823.55" y="215.049">+deleteResident(id: Long): ResponseEntity&lt;Void&gt;</text><text fill="#000000" font-family="sans-serif" font-size="9.8" lengthAdjust="spacing" textLength="285.1857" x="823.55" y="228.0838">+getResidentById(id: Long): ResponseEntity&lt;ResidentResource&gt;</text><text fill="#000000" font-family="sans-serif" font-size="9.8" lengthAdjust="spacing" textLength="402.3024" x="823.55" y="241.1186">+getResidentByPersonProfileId(personProfileId: Long): ResponseEntity&lt;ResidentResource&gt;</text><text fill="#000000" font-family="sans-serif" font-size="9.8" lengthAdjust="spacing" textLength="273.1894" x="823.55" y="254.1533">+getAllResidents(): ResponseEntity&lt;List&lt;ResidentResource&gt;&gt;</text></g><!--class ResidentResource--><g class="entity" data-entity="ResidentResource" data-source-line="125" data-uid="ent0038" id="entity_ResidentResource"><rect fill="#F1F1F1" height="85.7391" rx="1.75" ry="1.75" style="stroke:#181818;stroke-width:0.35;" width="131.79" x="843.5" y="619.9348"/><ellipse cx="866.9464" cy="631.1348" fill="#ADD1B2" rx="7.7" ry="7.7" style="stroke:#181818;stroke-width:0.7;"/><path d="M868.8823,628.2473 Q868.9917,628.0941 869.1229,628.0176 Q869.2542,627.941 869.4073,627.941 Q869.6698,627.941 869.8339,628.127 Q869.9979,628.302 869.9979,628.7285 L869.9979,629.7457 Q869.9979,630.1723 869.8339,630.3582 Q869.6698,630.5441 869.4073,630.5441 Q869.1667,630.5441 869.0245,630.402 Q868.8823,630.2707 868.8058,629.9098 Q868.7729,629.6582 868.6417,629.527 Q868.412,629.2645 867.9854,629.1113 Q867.5589,628.9582 867.1214,628.9582 Q866.5854,628.9582 866.137,629.1879 Q865.6995,629.4176 865.3495,629.9426 Q865.0104,630.4676 865.0104,631.1895 L865.0104,631.9551 Q865.0104,632.8191 865.6339,633.3988 Q866.2573,633.9676 867.3729,633.9676 Q868.0292,633.9676 868.4886,633.7926 Q868.762,633.6832 869.0573,633.377 Q869.2433,633.191 869.3417,633.1363 Q869.4511,633.0816 869.5933,633.0816 Q869.8229,633.0816 869.9979,633.2676 Q870.1839,633.4426 870.1839,633.6832 Q870.1839,633.9238 869.9433,634.2082 Q869.5933,634.6129 869.0354,634.8426 Q868.2808,635.1598 867.3729,635.1598 Q866.312,635.1598 865.4698,634.7223 Q864.7808,634.3723 864.2995,633.6285 Q863.8183,632.8738 863.8183,631.977 L863.8183,631.1676 Q863.8183,630.2379 864.2448,629.4395 Q864.6823,628.6301 865.4479,628.2035 Q866.2136,627.766 867.0776,627.766 Q867.5917,627.766 868.0401,627.8863 Q868.4995,627.9957 868.8823,628.2473 Z " fill="#000000"/><text fill="#000000" font-family="sans-serif" font-size="9.8" lengthAdjust="spacing" textLength="80.6203" x="879.6233" y="635.1926">ResidentResource</text><line style="stroke:#181818;stroke-width:0.35;" x1="844.2" x2="974.59" y1="642.3348" y2="642.3348"/><text fill="#000000" font-family="sans-serif" font-size="9.8" lengthAdjust="spacing" textLength="40.5973" x="847.7" y="655.71">+id: Long</text><text fill="#000000" font-family="sans-serif" font-size="9.8" lengthAdjust="spacing" textLength="98.8853" x="847.7" y="668.7447">+personProfileId: Long</text><text fill="#000000" font-family="sans-serif" font-size="9.8" lengthAdjust="spacing" textLength="119.0212" x="847.7" y="681.7795">+emergencyContact: String</text><text fill="#000000" font-family="sans-serif" font-size="9.8" lengthAdjust="spacing" textLength="123.39" x="847.7" y="694.8143">+legalRepresentative: String</text><line style="stroke:#181818;stroke-width:0.35;" x1="844.2" x2="974.59" y1="700.0738" y2="700.0738"/></g><!--class CreateResidentResource--><g class="entity" data-entity="CreateResidentResource" data-source-line="131" data-uid="ent0040" id="entity_CreateResidentResource"><rect fill="#F1F1F1" height="72.7043" rx="1.75" ry="1.75" style="stroke:#181818;stroke-width:0.35;" width="132.4347" x="686.35" y="626.2348"/><ellipse cx="696.85" cy="637.4348" fill="#ADD1B2" rx="7.7" ry="7.7" style="stroke:#181818;stroke-width:0.7;"/><path d="M698.7859,634.5473 Q698.8953,634.3941 699.0266,634.3176 Q699.1578,634.241 699.3109,634.241 Q699.5734,634.241 699.7375,634.427 Q699.9016,634.602 699.9016,635.0285 L699.9016,636.0457 Q699.9016,636.4723 699.7375,636.6582 Q699.5734,636.8441 699.3109,636.8441 Q699.0703,636.8441 698.9281,636.702 Q698.7859,636.5707 698.7094,636.2098 Q698.6766,635.9582 698.5453,635.827 Q698.3156,635.5645 697.8891,635.4113 Q697.4625,635.2582 697.025,635.2582 Q696.4891,635.2582 696.0406,635.4879 Q695.6031,635.7176 695.2531,636.2426 Q694.9141,636.7676 694.9141,637.4895 L694.9141,638.2551 Q694.9141,639.1191 695.5375,639.6988 Q696.1609,640.2676 697.2766,640.2676 Q697.9328,640.2676 698.3922,640.0926 Q698.6656,639.9832 698.9609,639.677 Q699.1469,639.491 699.2453,639.4363 Q699.3547,639.3816 699.4969,639.3816 Q699.7266,639.3816 699.9016,639.5676 Q700.0875,639.7426 700.0875,639.9832 Q700.0875,640.2238 699.8469,640.5082 Q699.4969,640.9129 698.9391,641.1426 Q698.1844,641.4598 697.2766,641.4598 Q696.2156,641.4598 695.3734,641.0223 Q694.6844,640.6723 694.2031,639.9285 Q693.7219,639.1738 693.7219,638.277 L693.7219,637.4676 Q693.7219,636.5379 694.1484,635.7395 Q694.5859,634.9301 695.3516,634.5035 Q696.1172,634.066 696.9812,634.066 Q697.4953,634.066 697.9437,634.1863 Q698.4031,634.2957 698.7859,634.5473 Z " fill="#000000"/><text fill="#000000" font-family="sans-serif" font-size="9.8" lengthAdjust="spacing" textLength="110.0347" x="706.65" y="641.4926">CreateResidentResource</text><line style="stroke:#181818;stroke-width:0.35;" x1="687.05" x2="818.0847" y1="648.6348" y2="648.6348"/><text fill="#000000" font-family="sans-serif" font-size="9.8" lengthAdjust="spacing" textLength="98.8853" x="690.55" y="662.01">+personProfileId: Long</text><text fill="#000000" font-family="sans-serif" font-size="9.8" lengthAdjust="spacing" textLength="119.0212" x="690.55" y="675.0447">+emergencyContact: String</text><text fill="#000000" font-family="sans-serif" font-size="9.8" lengthAdjust="spacing" textLength="123.39" x="690.55" y="688.0795">+legalRepresentative: String</text><line style="stroke:#181818;stroke-width:0.35;" x1="687.05" x2="818.0847" y1="693.3391" y2="693.3391"/></g><!--class UpdateResidentResource--><g class="entity" data-entity="UpdateResidentResource" data-source-line="136" data-uid="ent0041" id="entity_UpdateResidentResource"><rect fill="#F1F1F1" height="59.6695" rx="1.75" ry="1.75" style="stroke:#181818;stroke-width:0.35;" width="134.6215" x="527.1" y="632.8848"/><ellipse cx="537.6" cy="644.0848" fill="#ADD1B2" rx="7.7" ry="7.7" style="stroke:#181818;stroke-width:0.7;"/><path d="M539.5359,641.1973 Q539.6453,641.0441 539.7766,640.9676 Q539.9078,640.891 540.0609,640.891 Q540.3234,640.891 540.4875,641.077 Q540.6516,641.252 540.6516,641.6785 L540.6516,642.6957 Q540.6516,643.1223 540.4875,643.3082 Q540.3234,643.4941 540.0609,643.4941 Q539.8203,643.4941 539.6781,643.352 Q539.5359,643.2207 539.4594,642.8598 Q539.4266,642.6082 539.2953,642.477 Q539.0656,642.2145 538.6391,642.0613 Q538.2125,641.9082 537.775,641.9082 Q537.2391,641.9082 536.7906,642.1379 Q536.3531,642.3676 536.0031,642.8926 Q535.6641,643.4176 535.6641,644.1395 L535.6641,644.9051 Q535.6641,645.7691 536.2875,646.3488 Q536.9109,646.9176 538.0266,646.9176 Q538.6828,646.9176 539.1422,646.7426 Q539.4156,646.6332 539.7109,646.327 Q539.8969,646.141 539.9953,646.0863 Q540.1047,646.0316 540.2469,646.0316 Q540.4766,646.0316 540.6516,646.2176 Q540.8375,646.3926 540.8375,646.6332 Q540.8375,646.8738 540.5969,647.1582 Q540.2469,647.5629 539.6891,647.7926 Q538.9344,648.1098 538.0266,648.1098 Q536.9656,648.1098 536.1234,647.6723 Q535.4344,647.3223 534.9531,646.5785 Q534.4719,645.8238 534.4719,644.927 L534.4719,644.1176 Q534.4719,643.1879 534.8984,642.3895 Q535.3359,641.5801 536.1016,641.1535 Q536.8672,640.716 537.7312,640.716 Q538.2453,640.716 538.6937,640.8363 Q539.1531,640.9457 539.5359,641.1973 Z " fill="#000000"/><text fill="#000000" font-family="sans-serif" font-size="9.8" lengthAdjust="spacing" textLength="112.2215" x="547.4" y="648.1426">UpdateResidentResource</text><line style="stroke:#181818;stroke-width:0.35;" x1="527.8" x2="661.0215" y1="655.2848" y2="655.2848"/><text fill="#000000" font-family="sans-serif" font-size="9.8" lengthAdjust="spacing" textLength="119.0212" x="531.3" y="668.66">+emergencyContact: String</text><text fill="#000000" font-family="sans-serif" font-size="9.8" lengthAdjust="spacing" textLength="123.39" x="531.3" y="681.6947">+legalRepresentative: String</text><line style="stroke:#181818;stroke-width:0.35;" x1="527.8" x2="661.0215" y1="686.9543" y2="686.9543"/></g><!--class ResidentResourceFromEntityAssembler--><g class="entity" data-entity="ResidentResourceFromEntityAssembler" data-source-line="143" data-uid="ent0043" id="entity_ResidentResourceFromEntityAssembler"><rect fill="#F1F1F1" height="46.6348" rx="1.75" ry="1.75" style="stroke:#181818;stroke-width:0.35;" width="271.7511" x="982.8" y="385.4348"/><ellipse cx="1028.5581" cy="396.6348" fill="#ADD1B2" rx="7.7" ry="7.7" style="stroke:#181818;stroke-width:0.7;"/><path d="M1030.494,393.7473 Q1030.6034,393.5941 1030.7346,393.5176 Q1030.8659,393.441 1031.019,393.441 Q1031.2815,393.441 1031.4456,393.627 Q1031.6096,393.802 1031.6096,394.2285 L1031.6096,395.2457 Q1031.6096,395.6723 1031.4456,395.8582 Q1031.2815,396.0441 1031.019,396.0441 Q1030.7784,396.0441 1030.6362,395.902 Q1030.494,395.7707 1030.4174,395.4098 Q1030.3846,395.1582 1030.2534,395.027 Q1030.0237,394.7645 1029.5971,394.6113 Q1029.1706,394.4582 1028.7331,394.4582 Q1028.1971,394.4582 1027.7487,394.6879 Q1027.3112,394.9176 1026.9612,395.4426 Q1026.6221,395.9676 1026.6221,396.6895 L1026.6221,397.4551 Q1026.6221,398.3191 1027.2456,398.8988 Q1027.869,399.4676 1028.9846,399.4676 Q1029.6409,399.4676 1030.1002,399.2926 Q1030.3737,399.1832 1030.669,398.877 Q1030.8549,398.691 1030.9534,398.6363 Q1031.0627,398.5816 1031.2049,398.5816 Q1031.4346,398.5816 1031.6096,398.7676 Q1031.7956,398.9426 1031.7956,399.1832 Q1031.7956,399.4238 1031.5549,399.7082 Q1031.2049,400.1129 1030.6471,400.3426 Q1029.8924,400.6598 1028.9846,400.6598 Q1027.9237,400.6598 1027.0815,400.2223 Q1026.3924,399.8723 1025.9112,399.1285 Q1025.4299,398.3738 1025.4299,397.477 L1025.4299,396.6676 Q1025.4299,395.7379 1025.8565,394.9395 Q1026.294,394.1301 1027.0596,393.7035 Q1027.8252,393.266 1028.6893,393.266 Q1029.2034,393.266 1029.6518,393.3863 Q1030.1112,393.4957 1030.494,393.7473 Z " fill="#000000"/><text fill="#000000" font-family="sans-serif" font-size="9.8" lengthAdjust="spacing" textLength="174.285" x="1042.9081" y="400.6926">ResidentResourceFromEntityAssembler</text><line style="stroke:#181818;stroke-width:0.35;" x1="983.5" x2="1253.8511" y1="407.8348" y2="407.8348"/><line style="stroke:#181818;stroke-width:0.35;" x1="983.5" x2="1253.8511" y1="413.4348" y2="413.4348"/><text fill="#000000" font-family="sans-serif" font-size="9.8" lengthAdjust="spacing" text-decoration="underline" textLength="263.3511" x="987" y="426.81">+toResourceFromEntity(entity: Resident): ResidentResource</text></g><!--class CreateResidentCommandFromResourceAssembler--><g class="entity" data-entity="CreateResidentCommandFromResourceAssembler" data-source-line="146" data-uid="ent0044" id="entity_CreateResidentCommandFromResourceAssembler"><rect fill="#F1F1F1" height="46.6348" rx="1.75" ry="1.75" style="stroke:#181818;stroke-width:0.35;" width="411.1857" x="547.05" y="385.4348"/><ellipse cx="637.4703" cy="396.6348" fill="#ADD1B2" rx="7.7" ry="7.7" style="stroke:#181818;stroke-width:0.7;"/><path d="M639.4062,393.7473 Q639.5156,393.5941 639.6469,393.5176 Q639.7781,393.441 639.9312,393.441 Q640.1937,393.441 640.3578,393.627 Q640.5219,393.802 640.5219,394.2285 L640.5219,395.2457 Q640.5219,395.6723 640.3578,395.8582 Q640.1937,396.0441 639.9312,396.0441 Q639.6906,396.0441 639.5484,395.902 Q639.4062,395.7707 639.3297,395.4098 Q639.2969,395.1582 639.1656,395.027 Q638.9359,394.7645 638.5094,394.6113 Q638.0828,394.4582 637.6453,394.4582 Q637.1094,394.4582 636.6609,394.6879 Q636.2234,394.9176 635.8734,395.4426 Q635.5344,395.9676 635.5344,396.6895 L635.5344,397.4551 Q635.5344,398.3191 636.1578,398.8988 Q636.7812,399.4676 637.8969,399.4676 Q638.5531,399.4676 639.0125,399.2926 Q639.2859,399.1832 639.5812,398.877 Q639.7672,398.691 639.8656,398.6363 Q639.975,398.5816 640.1172,398.5816 Q640.3469,398.5816 640.5219,398.7676 Q640.7078,398.9426 640.7078,399.1832 Q640.7078,399.4238 640.4672,399.7082 Q640.1172,400.1129 639.5594,400.3426 Q638.8047,400.6598 637.8969,400.6598 Q636.8359,400.6598 635.9937,400.2223 Q635.3047,399.8723 634.8234,399.1285 Q634.3422,398.3738 634.3422,397.477 L634.3422,396.6676 Q634.3422,395.7379 634.7687,394.9395 Q635.2062,394.1301 635.9719,393.7035 Q636.7375,393.266 637.6016,393.266 Q638.1156,393.266 638.5641,393.3863 Q639.0234,393.4957 639.4062,393.7473 Z " fill="#000000"/><text fill="#000000" font-family="sans-serif" font-size="9.8" lengthAdjust="spacing" textLength="224.3951" x="651.8203" y="400.6926">CreateResidentCommandFromResourceAssembler</text><line style="stroke:#181818;stroke-width:0.35;" x1="547.75" x2="957.5357" y1="407.8348" y2="407.8348"/><line style="stroke:#181818;stroke-width:0.35;" x1="547.75" x2="957.5357" y1="413.4348" y2="413.4348"/><text fill="#000000" font-family="sans-serif" font-size="9.8" lengthAdjust="spacing" text-decoration="underline" textLength="402.7857" x="551.25" y="426.81">+toCommandFromResource(resource: CreateResidentResource): CreateResidentCommand</text></g><!--class UpdateResidentCommandFromResourceAssembler--><g class="entity" data-entity="UpdateResidentCommandFromResourceAssembler" data-source-line="149" data-uid="ent0045" id="entity_UpdateResidentCommandFromResourceAssembler"><rect fill="#F1F1F1" height="46.6348" rx="1.75" ry="1.75" style="stroke:#181818;stroke-width:0.35;" width="455.8791" x="66.85" y="385.4348"/><ellipse cx="178.5236" cy="396.6348" fill="#ADD1B2" rx="7.7" ry="7.7" style="stroke:#181818;stroke-width:0.7;"/><path d="M180.4595,393.7473 Q180.5689,393.5941 180.7001,393.5176 Q180.8314,393.441 180.9845,393.441 Q181.247,393.441 181.4111,393.627 Q181.5751,393.802 181.5751,394.2285 L181.5751,395.2457 Q181.5751,395.6723 181.4111,395.8582 Q181.247,396.0441 180.9845,396.0441 Q180.7439,396.0441 180.6017,395.902 Q180.4595,395.7707 180.383,395.4098 Q180.3501,395.1582 180.2189,395.027 Q179.9892,394.7645 179.5626,394.6113 Q179.1361,394.4582 178.6986,394.4582 Q178.1626,394.4582 177.7142,394.6879 Q177.2767,394.9176 176.9267,395.4426 Q176.5876,395.9676 176.5876,396.6895 L176.5876,397.4551 Q176.5876,398.3191 177.2111,398.8988 Q177.8345,399.4676 178.9501,399.4676 Q179.6064,399.4676 180.0658,399.2926 Q180.3392,399.1832 180.6345,398.877 Q180.8205,398.691 180.9189,398.6363 Q181.0283,398.5816 181.1705,398.5816 Q181.4001,398.5816 181.5751,398.7676 Q181.7611,398.9426 181.7611,399.1832 Q181.7611,399.4238 181.5205,399.7082 Q181.1705,400.1129 180.6126,400.3426 Q179.858,400.6598 178.9501,400.6598 Q177.8892,400.6598 177.047,400.2223 Q176.358,399.8723 175.8767,399.1285 Q175.3955,398.3738 175.3955,397.477 L175.3955,396.6676 Q175.3955,395.7379 175.822,394.9395 Q176.2595,394.1301 177.0251,393.7035 Q177.7908,393.266 178.6548,393.266 Q179.1689,393.266 179.6173,393.3863 Q180.0767,393.4957 180.4595,393.7473 Z " fill="#000000"/><text fill="#000000" font-family="sans-serif" font-size="9.8" lengthAdjust="spacing" textLength="226.5819" x="192.8736" y="400.6926">UpdateResidentCommandFromResourceAssembler</text><line style="stroke:#181818;stroke-width:0.35;" x1="67.55" x2="522.0291" y1="407.8348" y2="407.8348"/><line style="stroke:#181818;stroke-width:0.35;" x1="67.55" x2="522.0291" y1="413.4348" y2="413.4348"/><text fill="#000000" font-family="sans-serif" font-size="9.8" lengthAdjust="spacing" text-decoration="underline" textLength="447.4791" x="71.05" y="426.81">+toCommandFromResource(id: Long, resource: UpdateResidentResource): UpdateResidentCommand</text></g><!--reverse link Resident to PersonProfileId--><g class="link" data-entity-1="Resident" data-entity-2="PersonProfileId" data-source-line="168" data-uid="lnk47" id="link_Resident_PersonProfileId"><path codeLine="168" d="M2156.924,715.1348 C2099.419,715.1348 2046.1,715.1348 2046.1,715.1348 C2046.1,715.1348 2046.1,788.1448 2046.1,829.5008" fill="none" id="Resident-backto-PersonProfileId" style="stroke:#181818;stroke-width:0.7;"/><polygon fill="#181818" points="2165.324,715.1348,2161.124,712.3348,2156.924,715.1348,2161.124,717.9348,2165.324,715.1348" style="stroke:#181818;stroke-width:0.7;"/></g><!--reverse link Resident to EmergencyContact--><g class="link" data-entity-1="Resident" data-entity-2="EmergencyContact" data-source-line="169" data-uid="lnk48" id="link_Resident_EmergencyContact"><path codeLine="169" d="M2305.8,733.4118 C2305.8,765.7588 2305.8,795.6488 2305.8,822.6758" fill="none" id="Resident-backto-EmergencyContact" style="stroke:#181818;stroke-width:0.7;"/><polygon fill="#181818" points="2305.8,725.0118,2303,729.2118,2305.8,733.4118,2308.6,729.2118,2305.8,725.0118" style="stroke:#181818;stroke-width:0.7;"/></g><!--reverse link Resident to LegalRepresentative--><g class="link" data-entity-1="Resident" data-entity-2="LegalRepresentative" data-source-line="170" data-uid="lnk49" id="link_Resident_LegalRepresentative"><path codeLine="170" d="M2196.425,733.4118 C2196.425,765.7588 2196.425,795.6488 2196.425,822.6758" fill="none" id="Resident-backto-LegalRepresentative" style="stroke:#181818;stroke-width:0.7;"/><polygon fill="#181818" points="2196.425,725.0118,2193.625,729.2118,2196.425,733.4118,2199.225,729.2118,2196.425,725.0118" style="stroke:#181818;stroke-width:0.7;"/></g><!--link ResidentCommandServiceImpl to ResidentCommandServices--><g class="link" data-entity-1="ResidentCommandServiceImpl" data-entity-2="ResidentCommandServices" data-source-line="173" data-uid="lnk50" id="link_ResidentCommandServiceImpl_ResidentCommandServices"><path codeLine="173" d="M3081.351,449.8348 C2898.966,449.8348 2587.431,449.8348 2587.431,449.8348 C2587.431,449.8348 2587.431,552.6088 2587.431,613.4528" fill="none" id="ResidentCommandServiceImpl-to-ResidentCommandServices" style="stroke:#181818;stroke-width:0.7;stroke-dasharray:4.9,4.9;"/><polygon fill="none" points="2587.431,626.0528,2591.631,613.4528,2583.231,613.4528,2587.431,626.0528" style="stroke:#181818;stroke-width:0.7;"/></g><!--link ResidentQueryCommandImpl to ResidentQueryServices--><g class="link" data-entity-1="ResidentQueryCommandImpl" data-entity-2="ResidentQueryServices" data-source-line="174" data-uid="lnk51" id="link_ResidentQueryCommandImpl_ResidentQueryServices"><path codeLine="174" d="M3476.319,451.6128 C3476.319,516.7058 3476.319,633.2348 3476.319,633.2348 C3476.319,633.2348 3190.635,633.2348 3004.071,633.2348" fill="none" id="ResidentQueryCommandImpl-to-ResidentQueryServices" style="stroke:#181818;stroke-width:0.7;stroke-dasharray:4.9,4.9;"/><polygon fill="none" points="2991.471,633.2348,3004.071,637.4348,3004.071,629.0348,2991.471,633.2348" style="stroke:#181818;stroke-width:0.7;"/></g><!--link ResidentCommandServiceImpl to ResidentRepository--><g class="link" data-entity-1="ResidentCommandServiceImpl" data-entity-2="ResidentRepository" data-source-line="176" data-uid="lnk52" id="link_ResidentCommandServiceImpl_ResidentRepository"><path codeLine="176" d="M3256.869,458.3678 C3256.869,520.7448 3256.869,619.9348 3256.869,619.9348 C3256.869,619.9348 3593.968,619.9348 3791.452,619.9348" fill="none" id="ResidentCommandServiceImpl-to-ResidentRepository" style="stroke:#181818;stroke-width:0.7;"/><polygon fill="#181818" points="3795.652,619.9348,3789.352,617.1348,3792.152,619.9348,3789.352,622.7348,3795.652,619.9348" style="stroke:#181818;stroke-width:0.7;"/></g><!--link ResidentCommandServiceImpl to ExternalProfileService--><g class="link" data-entity-1="ResidentCommandServiceImpl" data-entity-2="ExternalProfileService" data-source-line="177" data-uid="lnk53" id="link_ResidentCommandServiceImpl_ExternalProfileService"><path codeLine="177" d="M3177.531,458.4098 C3177.531,512.7858 3177.531,593.6148 3177.531,634.6698" fill="none" id="ResidentCommandServiceImpl-to-ExternalProfileService" style="stroke:#181818;stroke-width:0.7;"/><polygon fill="#181818" points="3177.531,638.8698,3180.331,632.5698,3177.531,635.3698,3174.731,632.5698,3177.531,638.8698" style="stroke:#181818;stroke-width:0.7;"/></g><!--link ResidentQueryCommandImpl to ResidentRepository--><g class="link" data-entity-1="ResidentQueryCommandImpl" data-entity-2="ResidentRepository" data-source-line="178" data-uid="lnk54" id="link_ResidentQueryCommandImpl_ResidentRepository"><path codeLine="178" d="M3574.081,451.8088 C3574.081,511.8478 3574.081,613.6348 3574.081,613.6348 C3574.081,613.6348 3690.113,613.6348 3791.326,613.6348" fill="none" id="ResidentQueryCommandImpl-to-ResidentRepository" style="stroke:#181818;stroke-width:0.7;"/><polygon fill="#181818" points="3795.526,613.6348,3789.226,610.8348,3792.026,613.6348,3789.226,616.4348,3795.526,613.6348" style="stroke:#181818;stroke-width:0.7;"/></g><!--link ResidentsController to ResidentCommandServices--><g class="link" data-entity-1="ResidentsController" data-entity-2="ResidentCommandServices" data-source-line="181" data-uid="lnk55" id="link_ResidentsController_ResidentCommandServices"><path codeLine="181" d="M1270.878,213.9348 C1679.902,213.9348 2501.569,213.9348 2501.569,213.9348 C2501.569,213.9348 2501.569,514.9138 2501.569,621.9088" fill="none" id="ResidentsController-to-ResidentCommandServices" style="stroke:#181818;stroke-width:0.7;"/><polygon fill="#181818" points="2501.569,626.1088,2504.369,619.8088,2501.569,622.6088,2498.769,619.8088,2501.569,626.1088" style="stroke:#181818;stroke-width:0.7;"/></g><!--link ResidentsController to ResidentQueryServices--><g class="link" data-entity-1="ResidentsController" data-entity-2="ResidentQueryServices" data-source-line="182" data-uid="lnk56" id="link_ResidentsController_ResidentQueryServices"><path codeLine="182" d="M1270.983,167.7348 C1754.228,167.7348 2844.8,167.7348 2844.8,167.7348 C2844.8,167.7348 2844.8,507.3468 2844.8,621.8458" fill="none" id="ResidentsController-to-ResidentQueryServices" style="stroke:#181818;stroke-width:0.7;"/><polygon fill="#181818" points="2844.8,626.0458,2847.6,619.7458,2844.8,622.5458,2842,619.7458,2844.8,626.0458" style="stroke:#181818;stroke-width:0.7;"/></g><!--link ResidentsController to CreateResidentCommandFromResourceAssembler--><g class="link" data-entity-1="ResidentsController" data-entity-2="CreateResidentCommandFromResourceAssembler" data-source-line="183" data-uid="lnk57" id="link_ResidentsController_CreateResidentCommandFromResourceAssembler"><path codeLine="183" d="M888.65,259.5888 C888.65,302.7018 888.65,351.3028 888.65,381.1578" fill="none" id="ResidentsController-to-CreateResidentCommandFromResourceAssembler" style="stroke:#181818;stroke-width:0.7;stroke-dasharray:4.9,4.9;"/><polygon fill="#181818" points="888.65,385.3578,891.45,379.0578,888.65,381.8578,885.85,379.0578,888.65,385.3578" style="stroke:#181818;stroke-width:0.7;"/><text fill="#000000" font-family="sans-serif" font-size="9.1" lengthAdjust="spacing" textLength="19.222" x="869.05" y="319.6896">uses</text></g><!--link ResidentsController to UpdateResidentCommandFromResourceAssembler--><g class="link" data-entity-1="ResidentsController" data-entity-2="UpdateResidentCommandFromResourceAssembler" data-source-line="184" data-uid="lnk58" id="link_ResidentsController_UpdateResidentCommandFromResourceAssembler"><path codeLine="184" d="M819.189,190.8348 C598.22,190.8348 294.7,190.8348 294.7,190.8348 C294.7,190.8348 294.7,324.7588 294.7,381.1438" fill="none" id="ResidentsController-to-UpdateResidentCommandFromResourceAssembler" style="stroke:#181818;stroke-width:0.7;stroke-dasharray:4.9,4.9;"/><polygon fill="#181818" points="294.7,385.3438,297.5,379.0438,294.7,381.8438,291.9,379.0438,294.7,385.3438" style="stroke:#181818;stroke-width:0.7;"/><text fill="#000000" font-family="sans-serif" font-size="9.1" lengthAdjust="spacing" textLength="19.222" x="440.09" y="188.0546">uses</text></g><!--link ResidentsController to ResidentResourceFromEntityAssembler--><g class="link" data-entity-1="ResidentsController" data-entity-2="ResidentResourceFromEntityAssembler" data-source-line="185" data-uid="lnk59" id="link_ResidentsController_ResidentResourceFromEntityAssembler"><path codeLine="185" d="M1118.6,259.5888 C1118.6,302.7018 1118.6,351.3028 1118.6,381.1578" fill="none" id="ResidentsController-to-ResidentResourceFromEntityAssembler" style="stroke:#181818;stroke-width:0.7;stroke-dasharray:4.9,4.9;"/><polygon fill="#181818" points="1118.6,385.3578,1121.4,379.0578,1118.6,381.8578,1115.8,379.0578,1118.6,385.3578" style="stroke:#181818;stroke-width:0.7;"/><text fill="#000000" font-family="sans-serif" font-size="9.1" lengthAdjust="spacing" textLength="19.222" x="1099" y="319.6896">uses</text></g><!--link CreateResidentCommandFromResourceAssembler to CreateResidentResource--><g class="link" data-entity-1="CreateResidentCommandFromResourceAssembler" data-entity-2="CreateResidentResource" data-source-line="187" data-uid="lnk60" id="link_CreateResidentCommandFromResourceAssembler_CreateResidentResource"><path codeLine="187" d="M752.5,432.5308 C752.5,477.0088 752.5,569.1848 752.5,622.0068" fill="none" id="CreateResidentCommandFromResourceAssembler-to-CreateResidentResource" style="stroke:#181818;stroke-width:0.7;stroke-dasharray:4.9,4.9;"/><polygon fill="#181818" points="752.5,626.2068,755.3,619.9068,752.5,622.7068,749.7,619.9068,752.5,626.2068" style="stroke:#181818;stroke-width:0.7;"/><text fill="#000000" font-family="sans-serif" font-size="9.1" lengthAdjust="spacing" textLength="42.9806" x="709.1" y="526.5886">transforms</text></g><!--link CreateResidentCommandFromResourceAssembler to CreateResidentCommand--><g class="link" data-entity-1="CreateResidentCommandFromResourceAssembler" data-entity-2="CreateResidentCommand" data-source-line="188" data-uid="lnk61" id="link_CreateResidentCommandFromResourceAssembler_CreateResidentCommand"><path codeLine="188" d="M900.725,432.5378 C900.725,437.5918 900.725,441.4348 900.725,441.4348 C900.725,441.4348 2058,441.4348 2058,441.4348 C2058,441.4348 2058,559.0838 2058,621.9088" fill="none" id="CreateResidentCommandFromResourceAssembler-to-CreateResidentCommand" style="stroke:#181818;stroke-width:0.7;stroke-dasharray:4.9,4.9;"/><polygon fill="#181818" points="2058,626.1088,2060.8,619.8088,2058,622.6088,2055.2,619.8088,2058,626.1088" style="stroke:#181818;stroke-width:0.7;"/><text fill="#000000" font-family="sans-serif" font-size="9.1" lengthAdjust="spacing" textLength="29.8416" x="1537.151" y="438.6546">creates</text></g><!--link UpdateResidentCommandFromResourceAssembler to UpdateResidentResource--><g class="link" data-entity-1="UpdateResidentCommandFromResourceAssembler" data-entity-2="UpdateResidentResource" data-source-line="189" data-uid="lnk62" id="link_UpdateResidentCommandFromResourceAssembler_UpdateResidentResource"><path codeLine="189" d="M522.641,409.2348 C531.734,409.2348 537.075,409.2348 537.075,409.2348 C537.075,409.2348 537.075,561.6388 537.075,628.6218" fill="none" id="UpdateResidentCommandFromResourceAssembler-to-UpdateResidentResource" style="stroke:#181818;stroke-width:0.7;stroke-dasharray:4.9,4.9;"/><polygon fill="#181818" points="537.075,632.8218,539.875,626.5218,537.075,629.3218,534.275,626.5218,537.075,632.8218" style="stroke:#181818;stroke-width:0.7;"/><text fill="#000000" font-family="sans-serif" font-size="9.1" lengthAdjust="spacing" textLength="42.9806" x="493.675" y="511.0276">transforms</text></g><!--link UpdateResidentCommandFromResourceAssembler to UpdateResidentCommand--><g class="link" data-entity-1="UpdateResidentCommandFromResourceAssembler" data-entity-2="UpdateResidentCommand" data-source-line="190" data-uid="lnk63" id="link_UpdateResidentCommandFromResourceAssembler_UpdateResidentCommand"><path codeLine="190" d="M294.7,432.3628 C294.7,485.4508 294.7,610.1348 294.7,610.1348 C294.7,610.1348 1896.3,610.1348 1896.3,610.1348 C1896.3,610.1348 1896.3,613.0118 1896.3,621.9718" fill="none" id="UpdateResidentCommandFromResourceAssembler-to-UpdateResidentCommand" style="stroke:#181818;stroke-width:0.7;stroke-dasharray:4.9,4.9;"/><polygon fill="#181818" points="1896.3,626.1718,1899.1,619.8718,1896.3,622.6718,1893.5,619.8718,1896.3,626.1718" style="stroke:#181818;stroke-width:0.7;"/><text fill="#000000" font-family="sans-serif" font-size="9.1" lengthAdjust="spacing" textLength="29.8416" x="984.536" y="607.3546">creates</text></g><!--link ResidentResourceFromEntityAssembler to Resident--><g class="link" data-entity-1="ResidentResourceFromEntityAssembler" data-entity-2="Resident" data-source-line="191" data-uid="lnk64" id="link_ResidentResourceFromEntityAssembler_Resident"><path codeLine="191" d="M1254.582,409.2348 C1557.717,409.2348 2262.4,409.2348 2262.4,409.2348 C2262.4,409.2348 2262.4,521.0948 2262.4,596.1208" fill="none" id="ResidentResourceFromEntityAssembler-to-Resident" style="stroke:#181818;stroke-width:0.7;stroke-dasharray:4.9,4.9;"/><polygon fill="#181818" points="2262.4,600.3208,2265.2,594.0208,2262.4,596.8208,2259.6,594.0208,2262.4,600.3208" style="stroke:#181818;stroke-width:0.7;"/><text fill="#000000" font-family="sans-serif" font-size="9.1" lengthAdjust="spacing" textLength="42.9806" x="1810.634" y="406.4546">transforms</text></g><!--link ResidentResourceFromEntityAssembler to ResidentResource--><g class="link" data-entity-1="ResidentResourceFromEntityAssembler" data-entity-2="ResidentResource" data-source-line="192" data-uid="lnk65" id="link_ResidentResourceFromEntityAssembler_ResidentResource"><path codeLine="192" d="M982.8,409.2348 C972.797,409.2348 966.525,409.2348 966.525,409.2348 C966.525,409.2348 966.525,543.1518 966.525,615.4478" fill="none" id="ResidentResourceFromEntityAssembler-to-ResidentResource" style="stroke:#181818;stroke-width:0.7;stroke-dasharray:4.9,4.9;"/><polygon fill="#181818" points="966.525,619.6478,969.325,613.3478,966.525,616.1478,963.725,613.3478,966.525,619.6478" style="stroke:#181818;stroke-width:0.7;"/><text fill="#000000" font-family="sans-serif" font-size="9.1" lengthAdjust="spacing" textLength="29.8416" x="936.425" y="503.5236">creates</text></g><!--SRC=[nLXDR-Cs4BthLmpsqCXrRQH0Jq9g84ctHO0YcpRetcbf8dEN8bMI2kAs_kzBsVeW9TAMassRIn9oPlZuE7mpegQQ8TnNKb6UmuseU8OPt0gkyKL7MfIW1Qo5rgA0Z4fCDHKyKfyfBuaa1PGa_KnoVDHR4-PtCqrupj0oO9IZtfO8GkgDi2PIHfIwrbhITQNnBXNyaVw5S1cfb9XOt_zmUGaRfFb6Hr6p2hmB07q7VqSHG6UMYO9GtenQumhbCqrHrJEm_w76NpwHj0QlQ8PStugY83nxR4mxIu3vnempZ6yb4eq3-ra27ygQ7CAksgdLoFMFCdkjwq_8qEVwB6ZM6E-2c_gjGhazigLVK5yprbghlRc9_IjL-WWauzLEtcplijPhmcOSpmUKIl07APuemvD13flS3Kws41coxi2j2PBd4dD3kdNeS4Y-ZXrh0c01D3Cx5pnt1aiRv9snU70776CiKER8qssTdoJL2RmVZ3Zcp00qv9SIbK53D7r6Ws0yQ3dDE_3np3_iprB7jjfdOp0fhSpgSsitOZWzE7ZuzK9mo9wFUHqmF_UG-MX4Os3afN1Wjnl0y-vx08_-fuYyT_mKel39_6dk4lKblk-wZqr6Ttig4c-CyIq_AnF2ktmch4An_cIAZsUhWsiALrSVFwnMWwNt8KviPdY3_P6UAiRkIO7Ub2WtWkDzLQnHdam5p_N_brPi1RNXjbVEicGq9RKCB_SLnQZnkAIAIg_hOjoMrYL9MNyA5t2TaLAJJ4ZOa9GIQ4v2mSqjnAL90zDVP0YAC9gHLfuQnbyEYpOkJVcognVWYwbGoZdZs9j7HixMGZ0alFE-W5WaCCzHJ_FlAb8pPL9RL3B5rUnePMhbSTHwk3N8RJlkYf9P6rs0RCnCHWX5jP3Rf7Fjnom7z9AN14YrA7r3amDlw7BWt3Pdo7CjTjjJBEzrfmdwLeuxo6SsJ_3wxWc-NliqlEsKFqcYjAnINKbSrfV0u3TwXyjF9LdATlzMFHctcJrB7R56e2ZF33znY9A3HKr1FBnf8TE1gCU3_u-7E6Z6b22kOioDI3rZt0QSzSdH6MJxvBMtqgMjZ_66FcNOLNeihR8Hc60sjmhaIEAeAf-gh1FwcIdTp2uAjtvUeFy3AbUOlAY-ugf3XTAISFKaP77gF7-MedZFDTNRQwMmM3EK3aOjnfOnxd_rIJbBF7cYQhZfRiAHDI9PBz2wXy1uJECsTvD09ioIqDV1COZUml9QYEr5-GvwiFu4cIMXRmKVsEROtQDLTJf9mMneVSKPl3aaeSU8aQFpNP_uF_SxTKeTmgSSaVcp55pX8SMkXXQzfbOEFUTHEtcHp6aDkaN68JuQqUtTShVE7l4BBvq72wu966eOpubkDn3nsDSfd5s0bLLPJDPTm8_r3vYagSjmQWgWwRCDQt3TFe8SBABkuUFRnMBqaE5CZjujd5dV6qK7e-wlZ9hMRWSatnWi9NBZRJu4r02Af_zTBlzP1Mz2iADplDoBS6onnMBbQ_PEU0IwwI2um2eTPzqO5R25hc2q3BgKsPfY1mvH5R9tIV9PBvUhSyf30fKw4kaC5JyHQKhXR494P-0VRxUhe4b_AEfj8TiQaZIwhA8pU1dJw4Vuff1ZX5Fuji_51NEkjxMb1i0N]--></g></svg>