<svg xmlns="http://www.w3.org/2000/svg" xmlns:xlink="http://www.w3.org/1999/xlink" contentStyleType="text/css" data-diagram-type="CLASS" height="441px" preserveAspectRatio="none" style="width:911px;height:441px;background:#FFFFFF;" version="1.1" viewBox="0 0 911 441" width="911.4px" zoomAndPan="magnify"><defs/><g><!--cluster shared--><g class="cluster" data-entity="shared" data-source-line="6" data-uid="ent0004" id="cluster_shared"><rect fill="#FFFFFF" height="430.2" rx="1.5" ry="1.5" style="stroke:#000000;stroke-width:0.6;" width="900.6" x="7.2" y="7.2"/><text fill="#000000" font-family="Verdana" font-size="8.4" font-weight="bold" lengthAdjust="spacing" textLength="32.2055" x="441.3973" y="16.8451">shared</text></g><!--cluster domain--><g class="cluster" data-entity="domain" data-source-line="6" data-uid="ent0005" id="cluster_domain"><rect fill="#FFFFFF" height="108.6" rx="1.5" ry="1.5" style="stroke:#000000;stroke-width:0.6;" width="109.2" x="784.2" y="314.4"/><text fill="#000000" font-family="Verdana" font-size="8.4" font-weight="bold" lengthAdjust="spacing" textLength="34.9945" x="821.3027" y="324.0451">domain</text></g><!--cluster model--><g class="cluster" data-entity="model" data-source-line="5" data-uid="ent0002" id="cluster_model"><rect fill="#F4F6F6" height="67.8" rx="1.5" ry="1.5" style="stroke:#000000;stroke-width:0.6;" width="80.4" x="798.6" y="340.8"/><text fill="#000000" font-family="Verdana" font-size="8.4" font-weight="bold" lengthAdjust="spacing" textLength="28.9775" x="824.3112" y="350.4451">model</text></g><!--cluster infrastructure--><g class="cluster" data-entity="infrastructure" data-source-line="11" data-uid="ent0006" id="cluster_infrastructure"><rect fill="#F4F6F6" height="375" rx="1.5" ry="1.5" style="stroke:#000000;stroke-width:0.6;" width="363" x="406.8" y="33.6"/><text fill="#000000" font-family="Verdana" font-size="8.4" font-weight="bold" lengthAdjust="spacing" textLength="65.666" x="555.467" y="43.2451">infrastructure</text></g><!--cluster presentation--><g class="cluster" data-entity="presentation" data-source-line="42" data-uid="ent0014" id="cluster_presentation"><rect fill="#FFFFFF" height="129" rx="1.5" ry="1.5" style="stroke:#000000;stroke-width:0.6;" width="370.8" x="21.6" y="37.8"/><text fill="#000000" font-family="Verdana" font-size="8.4" font-weight="bold" lengthAdjust="spacing" textLength="60.0592" x="176.9704" y="47.4451">presentation</text></g><!--cluster views--><g class="cluster" data-entity="views" data-source-line="41" data-uid="ent0012" id="cluster_views"><rect fill="#F4F6F6" height="88.2" rx="1.5" ry="1.5" style="stroke:#000000;stroke-width:0.6;" width="342" x="36" y="64.2"/><text fill="#000000" font-family="Verdana" font-size="8.4" font-weight="bold" lengthAdjust="spacing" textLength="27.1195" x="193.4402" y="73.8451">views</text></g><!--class BaseEntity--><g class="entity" data-entity="BaseEntity" data-source-line="6" data-uid="ent0003" id="entity_BaseEntity"><rect fill="#FFFFFF" height="36.6088" rx="1.5" ry="1.5" style="stroke:#000000;stroke-width:0.6;" width="61.4988" x="808.2" y="362.4"/><ellipse cx="816" cy="370.8" fill="#FFFFFF" rx="5.4" ry="5.4" style="stroke:#000000;stroke-width:0.6;"/><path d="M815.4938,374.4 L815.4938,367.0969 L816.975,367.0969 L816.975,374.4 L815.4938,374.4 Z " fill="#000000"/><text fill="#000000" font-family="Verdana" font-size="8.4" font-style="italic" lengthAdjust="spacing" textLength="44.6988" x="823.2" y="374.1407">BaseEntity</text><line style="stroke:#000000;stroke-width:0.6;" x1="808.8" x2="869.0988" y1="379.2" y2="379.2"/><text fill="#000000" font-family="Verdana" font-size="8.4" lengthAdjust="spacing" textLength="46.9301" x="811.8" y="390.0451">id: number</text><line style="stroke:#000000;stroke-width:0.6;" x1="808.8" x2="869.0988" y1="394.2088" y2="394.2088"/></g><!--class BaseApi--><g class="entity" data-entity="BaseApi" data-source-line="12" data-uid="ent0007" id="entity_BaseApi"><rect fill="#FFFFFF" height="26.4" rx="1.5" ry="1.5" style="stroke:#000000;stroke-width:0.6;" width="50.2564" x="709.8" y="101.1"/><ellipse cx="717.6" cy="109.5" fill="#FFFFFF" rx="5.4" ry="5.4" style="stroke:#000000;stroke-width:0.6;"/><path d="M721.6219,112.5 L720.0188,112.5 L719.3813,110.8406 L716.4656,110.8406 L715.8656,112.5 L714.3,112.5 L717.1406,105.1969 L718.7063,105.1969 L721.6219,112.5 Z M718.9125,109.6125 L717.9094,106.9031 L716.9156,109.6125 L718.9125,109.6125 Z " fill="#000000"/><text fill="#000000" font-family="Verdana" font-size="8.4" font-style="italic" lengthAdjust="spacing" textLength="33.4564" x="724.8" y="112.8407">BaseApi</text><line style="stroke:#000000;stroke-width:0.6;" x1="710.4" x2="759.4564" y1="117.9" y2="117.9"/><line style="stroke:#000000;stroke-width:0.6;" x1="710.4" x2="759.4564" y1="122.7" y2="122.7"/></g><!--class BaseResource--><g class="entity" data-entity="BaseResource" data-source-line="15" data-uid="ent0008" id="entity_BaseResource"><rect fill="#FFFFFF" height="36.6088" rx="1.5" ry="1.5" style="stroke:#000000;stroke-width:0.6;" width="75.5836" x="530.4" y="362.4"/><ellipse cx="538.2" cy="370.8" fill="#FFFFFF" rx="5.4" ry="5.4" style="stroke:#000000;stroke-width:0.6;"/><path d="M537.6938,374.4 L537.6938,367.0969 L539.175,367.0969 L539.175,374.4 L537.6938,374.4 Z " fill="#000000"/><text fill="#000000" font-family="Verdana" font-size="8.4" font-style="italic" lengthAdjust="spacing" textLength="58.7836" x="545.4" y="374.1407">BaseResource</text><line style="stroke:#000000;stroke-width:0.6;" x1="531" x2="605.3836" y1="379.2" y2="379.2"/><text fill="#000000" font-family="Verdana" font-size="8.4" lengthAdjust="spacing" textLength="46.9301" x="534" y="390.0451">id: number</text><line style="stroke:#000000;stroke-width:0.6;" x1="531" x2="605.3836" y1="394.2088" y2="394.2088"/></g><!--class BaseResponse--><g class="entity" data-entity="BaseResponse" data-source-line="19" data-uid="ent0009" id="entity_BaseResponse"><rect fill="#FFFFFF" height="26.4" rx="1.5" ry="1.5" style="stroke:#000000;stroke-width:0.6;" width="77.2324" x="627.3" y="367.5"/><ellipse cx="635.1" cy="375.9" fill="#FFFFFF" rx="5.4" ry="5.4" style="stroke:#000000;stroke-width:0.6;"/><path d="M634.5938,379.5 L634.5938,372.1969 L636.075,372.1969 L636.075,379.5 L634.5938,379.5 Z " fill="#000000"/><text fill="#000000" font-family="Verdana" font-size="8.4" font-style="italic" lengthAdjust="spacing" textLength="60.4324" x="642.3" y="379.2407">BaseResponse</text><line style="stroke:#000000;stroke-width:0.6;" x1="627.9" x2="703.9324" y1="384.3" y2="384.3"/><line style="stroke:#000000;stroke-width:0.6;" x1="627.9" x2="703.9324" y1="389.1" y2="389.1"/></g><!--class BaseAssembler--><g class="entity" data-entity="BaseAssembler" data-source-line="22" data-uid="ent0010" id="entity_BaseAssembler"><rect fill="#FFFFFF" height="57.0264" rx="1.5" ry="1.5" style="stroke:#000000;stroke-width:0.6;" width="257.5594" x="482.7" y="219.6"/><ellipse cx="519.9375" cy="228" fill="#FFFFFF" rx="5.4" ry="5.4" style="stroke:#000000;stroke-width:0.6;"/><path d="M519.4313,231.6 L519.4313,224.2969 L520.9125,224.2969 L520.9125,231.6 L519.4313,231.6 Z " fill="#000000"/><text fill="#000000" font-family="Verdana" font-size="8.4" font-style="italic" lengthAdjust="spacing" textLength="63.9762" x="530.4375" y="231.3407">BaseAssembler</text><rect fill="#FFFFFF" height="9.9504" style="stroke:#000000;stroke-width:0.6;stroke-dasharray:1.2,1.2;" width="113.4082" x="628.6512" y="217.8"/><text fill="#000000" font-family="Verdana" font-size="7.2" font-style="italic" lengthAdjust="spacing" textLength="112.2082" x="629.2512" y="225.6387">TEntity, TResource, TResponse</text><line style="stroke:#000000;stroke-width:0.6;" x1="483.3" x2="739.6594" y1="236.4" y2="236.4"/><line style="stroke:#000000;stroke-width:0.6;" x1="483.3" x2="739.6594" y1="241.2" y2="241.2"/><text fill="#000000" font-family="Verdana" font-size="8.4" lengthAdjust="spacing" textLength="231.0697" x="486.3" y="252.0451">+toEntityFromResource(resource: TResource): TEntity</text><text fill="#000000" font-family="Verdana" font-size="8.4" lengthAdjust="spacing" textLength="218.9414" x="486.3" y="262.2539">+toResourceFromEntity(entity: TEntity): TResource</text><text fill="#000000" font-family="Verdana" font-size="8.4" lengthAdjust="spacing" textLength="250.3594" x="486.3" y="272.4627">+toEntitiesFromResponse(response: TResponse): TEntity[]</text></g><!--class BaseApiEndpoint--><g class="entity" data-entity="BaseApiEndpoint" data-source-line="28" data-uid="ent0011" id="entity_BaseApiEndpoint"><rect fill="#FFFFFF" height="118.2791" rx="1.5" ry="1.5" style="stroke:#000000;stroke-width:0.6;" width="272.5436" x="416.4" y="55.2"/><ellipse cx="424.2" cy="63.6" fill="#FFFFFF" rx="5.4" ry="5.4" style="stroke:#000000;stroke-width:0.6;"/><path d="M428.2219,66.6 L426.6188,66.6 L425.9813,64.9406 L423.0656,64.9406 L422.4656,66.6 L420.9,66.6 L423.7406,59.2969 L425.3063,59.2969 L428.2219,66.6 Z M425.5125,63.7125 L424.5094,61.0031 L423.5156,63.7125 L425.5125,63.7125 Z " fill="#000000"/><text fill="#000000" font-family="Verdana" font-size="8.4" font-style="italic" lengthAdjust="spacing" textLength="94.0119" x="431.4" y="66.9407">class BaseApiEndpoint</text><rect fill="#FFFFFF" height="9.9504" style="stroke:#000000;stroke-width:0.6;stroke-dasharray:1.2,1.2;" width="160.5316" x="530.2119" y="53.4"/><text fill="#000000" font-family="Verdana" font-size="7.2" font-style="italic" lengthAdjust="spacing" textLength="159.3316" x="530.8119" y="61.2387">TEntity, TResource, TResponse, TAssembler</text><line style="stroke:#000000;stroke-width:0.6;" x1="417" x2="688.3436" y1="72" y2="72"/><text fill="#000000" font-family="Verdana" font-size="8.4" lengthAdjust="spacing" textLength="73.0816" x="420" y="82.8451">#http: HttpClient</text><text fill="#000000" font-family="Verdana" font-size="8.4" lengthAdjust="spacing" textLength="86.6209" x="420" y="93.0539">#endpointUrl: string</text><text fill="#000000" font-family="Verdana" font-size="8.4" lengthAdjust="spacing" textLength="105.7137" x="420" y="103.2627">#assembler: TAssembler</text><line style="stroke:#000000;stroke-width:0.6;" x1="417" x2="688.3436" y1="107.4264" y2="107.4264"/><text fill="#000000" font-family="Verdana" font-size="8.4" lengthAdjust="spacing" textLength="143.6162" x="420" y="118.2715">+getAll(): Observable&lt;TEntity[]&gt;</text><text fill="#000000" font-family="Verdana" font-size="8.4" lengthAdjust="spacing" textLength="192.0639" x="420" y="128.4803">+getById(id: number): Observable&lt;TEntity&gt;</text><text fill="#000000" font-family="Verdana" font-size="8.4" lengthAdjust="spacing" textLength="199.0939" x="420" y="138.6891">+create(entity: TEntity): Observable&lt;TEntity&gt;</text><text fill="#000000" font-family="Verdana" font-size="8.4" lengthAdjust="spacing" textLength="254.8506" x="420" y="148.8979">+update(entity: TEntity, id: number): Observable&lt;TEntity&gt;</text><text fill="#000000" font-family="Verdana" font-size="8.4" lengthAdjust="spacing" textLength="172.7865" x="420" y="159.1066">+delete(id: number): Observable&lt;void&gt;</text><text fill="#000000" font-family="Verdana" font-size="8.4" lengthAdjust="spacing" textLength="223.4777" x="420" y="169.3154">-handleError(operation: string): Observable&lt;never&gt;</text></g><!--class BaseForm--><g class="entity" data-entity="BaseForm" data-source-line="42" data-uid="ent0013" id="entity_BaseForm"><rect fill="#FFFFFF" height="57.0264" rx="1.5" ry="1.5" style="stroke:#000000;stroke-width:0.6;" width="322.5281" x="45.6" y="85.8"/><ellipse cx="183.6817" cy="94.2" fill="#FFFFFF" rx="5.4" ry="5.4" style="stroke:#000000;stroke-width:0.6;"/><path d="M185.3411,95.1187 L186.7755,95.5688 Q186.4474,96.7594 185.6786,97.3406 Q184.9192,97.9219 183.738,97.9219 Q182.2849,97.9219 181.3474,96.9281 Q180.4192,95.9344 180.4192,94.2094 Q180.4192,92.3906 181.3567,91.3875 Q182.2942,90.375 183.8317,90.375 Q185.1724,90.375 186.0067,91.1625 Q186.5036,91.6313 186.7567,92.5125 L185.2942,92.8594 Q185.163,92.2875 184.7505,91.9594 Q184.3474,91.6313 183.7567,91.6313 Q182.9411,91.6313 182.4349,92.2219 Q181.938,92.8031 181.938,94.1063 Q181.938,95.4844 182.4349,96.075 Q182.9317,96.6656 183.7286,96.6656 Q184.3192,96.6656 184.7411,96.2906 Q185.163,95.9156 185.3411,95.1187 Z " fill="#000000"/><text fill="#000000" font-family="Verdana" font-size="8.4" lengthAdjust="spacing" textLength="41.8646" x="194.1817" y="97.5407">BaseForm</text><line style="stroke:#000000;stroke-width:0.6;" x1="46.2" x2="367.5281" y1="102.6" y2="102.6"/><line style="stroke:#000000;stroke-width:0.6;" x1="46.2" x2="367.5281" y1="107.4" y2="107.4"/><text fill="#000000" font-family="Verdana" font-size="8.4" lengthAdjust="spacing" textLength="284.833" x="49.2" y="118.2451">#isInvalidControl(form: FormGroup, controlName: string): boolean</text><text fill="#000000" font-family="Verdana" font-size="8.4" lengthAdjust="spacing" textLength="315.3281" x="49.2" y="128.4539">#errorMessagesForControl(form: FormGroup, controlName: string): string</text><text fill="#000000" font-family="Verdana" font-size="8.4" lengthAdjust="spacing" textLength="301.4361" x="49.2" y="138.6627">-errorMessageForControl(controlName: string, errorKey: string): string</text></g><!--link BaseApiEndpoint to BaseAssembler--><g class="link" data-entity-1="BaseApiEndpoint" data-entity-2="BaseAssembler" data-source-line="50" data-uid="lnk15" id="link_BaseApiEndpoint_BaseAssembler"><path codeLine="50" d="M578.562,173.448 C585.666,189.474 591.5865,202.8211 597.5445,216.2551" fill="none" id="BaseApiEndpoint-to-BaseAssembler" style="stroke:#000000;stroke-width:0.6;"/><polygon fill="#000000" points="599.004,219.546,599.0087,213.6367,597.7877,216.8036,594.6208,215.5827,599.004,219.546" style="stroke:#000000;stroke-width:0.6;"/><polygon fill="#000000" points="594.6161,199.4822,594.0281,193.8063,590.8042,195.2359,594.6161,199.4822" style="stroke:#000000;stroke-width:0.6;"/><text fill="#000000" font-family="Verdana" font-size="7.8" lengthAdjust="spacing" textLength="17.71" x="598.8" y="199.8419">uses</text></g><!--link BaseAssembler to BaseEntity--><g class="link" data-entity-1="BaseAssembler" data-entity-2="BaseEntity" data-source-line="51" data-uid="lnk16" id="link_BaseAssembler_BaseEntity"><path codeLine="51" d="M703.89,276.624 C726.39,285.444 749.736,296.406 769.8,309.6 C791.838,324.09 810.0553,343.8689 822.8833,359.5589" fill="none" id="BaseAssembler-to-BaseEntity" style="stroke:#000000;stroke-width:0.6;stroke-dasharray:4.2,4.2;"/><polygon fill="#000000" points="825.162,362.346,823.602,356.6463,823.2631,360.0235,819.886,359.6845,825.162,362.346" style="stroke:#000000;stroke-width:0.6;"/><polygon fill="#000000" points="767.4612,301.6552,764.0171,297.1054,762.0006,299.9987,767.4612,301.6552" style="stroke:#000000;stroke-width:0.6;"/><text fill="#000000" font-family="Verdana" font-size="7.8" lengthAdjust="spacing" textLength="17.71" x="770.4" y="303.0419">uses</text></g><!--link BaseAssembler to BaseResource--><g class="link" data-entity-1="BaseAssembler" data-entity-2="BaseResource" data-source-line="52" data-uid="lnk17" id="link_BaseAssembler_BaseResource"><path codeLine="52" d="M597.618,276.78 C595.026,282.594 592.482,288.738 590.4,294.6 C582.258,317.502 576.4566,341.303 572.6346,358.793" fill="none" id="BaseAssembler-to-BaseResource" style="stroke:#000000;stroke-width:0.6;stroke-dasharray:4.2,4.2;"/><polygon fill="#000000" points="571.866,362.31,575.3635,357.5469,572.5065,359.3792,570.6742,356.5221,571.866,362.31" style="stroke:#000000;stroke-width:0.6;"/><polygon fill="#000000" points="592.5258,302.8096,595.7941,298.1319,592.4204,297.1042,592.5258,302.8096" style="stroke:#000000;stroke-width:0.6;"/><text fill="#000000" font-family="Verdana" font-size="7.8" lengthAdjust="spacing" textLength="17.71" x="598.8" y="303.0419">uses</text></g><!--link BaseAssembler to BaseResponse--><g class="link" data-entity-1="BaseAssembler" data-entity-2="BaseResponse" data-source-line="53" data-uid="lnk18" id="link_BaseAssembler_BaseResponse"><path codeLine="53" d="M623.046,276.726 C634.698,304.764 650.7108,343.3075 659.3508,364.1035" fill="none" id="BaseAssembler-to-BaseResponse" style="stroke:#000000;stroke-width:0.6;stroke-dasharray:4.2,4.2;"/><polygon fill="#000000" points="660.732,367.428,660.8765,361.5205,659.581,364.6576,656.4439,363.3621,660.732,367.428" style="stroke:#000000;stroke-width:0.6;"/><polygon fill="#000000" points="637.7511,302.7102,637.2972,297.0219,634.0404,298.3751,637.7511,302.7102" style="stroke:#000000;stroke-width:0.6;"/><text fill="#000000" font-family="Verdana" font-size="7.8" lengthAdjust="spacing" textLength="17.71" x="642" y="303.0419">uses</text></g><!--SRC=[bLJDRjD04BxxAGRtG2hYY0FgmQeYfLK24GAaffmGXx4zILPTxrgxww20ybGy0Y_MyR_TEb0ESTR-VcRssvzNRayfGIPHACy-29MXmHHYYTOkd3CYoXsjOwqsuYV1snubm_W1TxHnHqbWA7QeTf8yh_uEljsZeMIMw9IzPwbEIFfmiNgtkbfTmIyFG2X7PeinmGrQMYedtB4464f2K7aQaU7NatTwRYlKrg1r9ezTRcXeZ1436Bjg6gNx8XCbTEBViz9tP7Lk-6Mq-BWWqyfIRJd0_RASjPH6aiprVJMlATmtLQfXgP_xW7L_ZQ3kuGquNIbNHgUDT6BgGTZPNVAuOhR21Yga5JIXyg-bNlOCXlK4sRfYsM5HiHo4NTTTnM_VkuJQqFr1wakLP9hJ-NiGF6mJw8NIoUjOBc3lN1R21txUIi6pgZzJpVjgP0ZSY52x6i76D-pLgEUy8xUGSi8J-X9PCWTaxBgTsxnZtHpNoQJR5wE2XXuRGaSZYP-Nv5ao8fd22olooIAMdsCVj4WgQW1xL8cafJ7QJ7H61ftGgabiA5DquCKuT_uotXZSRwcV7GJziCCps6s2bJPfktp2hjK1fKXkjN96oycMqH0ApdkZysmASGLynfHwVKLQIqBLh7RH_oUobZkohFrFizx-20PUFQiHvRJYVgJZc5UPqci8WW3kI6BCkP3bfIbiYXM2zC_l99SQDcM01T5xkic3OFxaDWZ1potxp7rl2Cncy_wr-KzUUyUzX5bTRXtp4G00]--></g></svg>