<svg xmlns="http://www.w3.org/2000/svg" xmlns:xlink="http://www.w3.org/1999/xlink" contentStyleType="text/css" data-diagram-type="CLASS" height="1550px" preserveAspectRatio="none" style="width:892px;height:1550px;background:#FFFFFF;" version="1.1" viewBox="0 0 892 1550" width="892px" zoomAndPan="magnify"><defs/><g><!--cluster nursingHome--><g class="cluster" data-entity="nursingHome" data-source-line="6" data-uid="ent0004" id="cluster_nursingHome"><rect fill="#FFFFFF" height="1532" rx="2.5" ry="2.5" style="stroke:#000000;stroke-width:1;" width="874" x="12" y="12"/><text fill="#000000" font-family="Verdana" font-size="14" font-weight="bold" lengthAdjust="spacing" textLength="105.2051" x="396.3975" y="28.0752">nursingHome</text></g><!--cluster domain--><g class="cluster" data-entity="domain" data-source-line="6" data-uid="ent0005" id="cluster_domain"><rect fill="#FFFFFF" height="283" rx="2.5" ry="2.5" style="stroke:#000000;stroke-width:1;" width="258" x="604" y="1237"/><text fill="#000000" font-family="Verdana" font-size="14" font-weight="bold" lengthAdjust="spacing" textLength="58.3242" x="703.8379" y="1253.0752">domain</text></g><!--cluster model--><g class="cluster" data-entity="model" data-source-line="5" data-uid="ent0002" id="cluster_model"><rect fill="#F4F6F6" height="215" rx="2.5" ry="2.5" style="stroke:#000000;stroke-width:1;" width="210" x="628" y="1281"/><text fill="#000000" font-family="Verdana" font-size="14" font-weight="bold" lengthAdjust="spacing" textLength="48.2959" x="708.8521" y="1297.0752">model</text></g><!--cluster application--><g class="cluster" data-entity="application" data-source-line="17" data-uid="ent0006" id="cluster_application"><rect fill="#F4F6F6" height="232" rx="2.5" ry="2.5" style="stroke:#000000;stroke-width:1;" width="390" x="372" y="469"/><text fill="#000000" font-family="Verdana" font-size="14" font-weight="bold" lengthAdjust="spacing" textLength="86.8369" x="523.5815" y="485.0752">application</text></g><!--cluster infrastructure--><g class="cluster" data-entity="infrastructure" data-source-line="30" data-uid="ent0008" id="cluster_infrastructure"><rect fill="#F4F6F6" height="746" rx="2.5" ry="2.5" style="stroke:#000000;stroke-width:1;" width="544" x="36" y="750"/><text fill="#000000" font-family="Verdana" font-size="14" font-weight="bold" lengthAdjust="spacing" textLength="109.4434" x="253.2783" y="766.0752">infrastructure</text></g><!--cluster presentation--><g class="cluster" data-entity="presentation" data-source-line="55" data-uid="ent0013" id="cluster_presentation"><rect fill="#F4F6F6" height="364" rx="2.5" ry="2.5" style="stroke:#000000;stroke-width:1;" width="278" x="506" y="56"/><text fill="#000000" font-family="Verdana" font-size="14" font-weight="bold" lengthAdjust="spacing" textLength="100.0986" x="594.9507" y="72.0752">presentation</text></g><!--cluster nursing-home-form--><g class="cluster" data-entity="nursing-home-form" data-source-line="60" data-uid="ent0015" id="cluster_nursing-home-form"><rect fill="#FFFFFF" height="195" rx="2.5" ry="2.5" style="stroke:#000000;stroke-width:1;" width="230" x="530" y="201"/><text fill="#000000" font-family="Verdana" font-size="14" font-weight="bold" lengthAdjust="spacing" textLength="154.1914" x="567.9043" y="217.0752">nursing-home-form</text></g><!--class NursingHome--><g class="entity" data-entity="NursingHome" data-source-line="6" data-uid="ent0003" id="entity_NursingHome"><rect fill="#FFFFFF" height="163.1025" rx="2.5" ry="2.5" style="stroke:#000000;stroke-width:1;" width="178.0107" x="644" y="1317"/><ellipse cx="681.7559" cy="1331" fill="#FFFFFF" rx="9" ry="9" style="stroke:#000000;stroke-width:1;"/><path d="M684.5215,1332.5313 L686.9121,1333.2813 Q686.3652,1335.2656 685.084,1336.2344 Q683.8184,1337.2031 681.8496,1337.2031 Q679.4277,1337.2031 677.8652,1335.5469 Q676.3184,1333.8906 676.3184,1331.0156 Q676.3184,1327.9844 677.8809,1326.3125 Q679.4434,1324.625 682.0059,1324.625 Q684.2402,1324.625 685.6309,1325.9375 Q686.459,1326.7188 686.8809,1328.1875 L684.4434,1328.7656 Q684.2246,1327.8125 683.5371,1327.2656 Q682.8652,1326.7188 681.8809,1326.7188 Q680.5215,1326.7188 679.6777,1327.7031 Q678.8496,1328.6719 678.8496,1330.8438 Q678.8496,1333.1406 679.6777,1334.125 Q680.5059,1335.1094 681.834,1335.1094 Q682.8184,1335.1094 683.5215,1334.4844 Q684.2246,1333.8594 684.5215,1332.5313 Z " fill="#000000"/><text fill="#000000" font-family="Verdana" font-size="14" lengthAdjust="spacing" textLength="94.999" x="699.2559" y="1336.5679">NursingHome</text><line style="stroke:#000000;stroke-width:1;" x1="645" x2="821.0107" y1="1345" y2="1345"/><text fill="#000000" font-family="Verdana" font-size="14" lengthAdjust="spacing" textLength="93.4746" x="650" y="1363.0752">-_id: number</text><text fill="#000000" font-family="Verdana" font-size="14" lengthAdjust="spacing" textLength="105.9707" x="650" y="1380.0898">-_name: string</text><text fill="#000000" font-family="Verdana" font-size="14" lengthAdjust="spacing" textLength="88.874" x="650" y="1397.1045">-_ruc: string</text><text fill="#000000" font-family="Verdana" font-size="14" lengthAdjust="spacing" textLength="166.0107" x="650" y="1414.1191">-_phoneNumber: string</text><text fill="#000000" font-family="Verdana" font-size="14" lengthAdjust="spacing" textLength="121.502" x="650" y="1431.1338">-_address: string</text><text fill="#000000" font-family="Verdana" font-size="14" lengthAdjust="spacing" textLength="143.6504" x="650" y="1448.1484">-_description: string</text><text fill="#000000" font-family="Verdana" font-size="14" lengthAdjust="spacing" textLength="140.1367" x="650" y="1465.1631">-_AdminId: number</text><line style="stroke:#000000;stroke-width:1;" x1="645" x2="821.0107" y1="1472.1025" y2="1472.1025"/></g><!--class NursingHomeStore--><g class="entity" data-entity="NursingHomeStore" data-source-line="18" data-uid="ent0007" id="entity_NursingHomeStore"><rect fill="#FFFFFF" height="180.1172" rx="2.5" ry="2.5" style="stroke:#000000;stroke-width:1;" width="356.6885" x="388.5" y="505"/><ellipse cx="496.6455" cy="519" fill="#FFFFFF" rx="9" ry="9" style="stroke:#000000;stroke-width:1;"/><path d="M499.4111,520.5313 L501.8018,521.2813 Q501.2549,523.2656 499.9736,524.2344 Q498.708,525.2031 496.7393,525.2031 Q494.3174,525.2031 492.7549,523.5469 Q491.208,521.8906 491.208,519.0156 Q491.208,515.9844 492.7705,514.3125 Q494.333,512.625 496.8955,512.625 Q499.1299,512.625 500.5205,513.9375 Q501.3486,514.7188 501.7705,516.1875 L499.333,516.7656 Q499.1143,515.8125 498.4268,515.2656 Q497.7549,514.7188 496.7705,514.7188 Q495.4111,514.7188 494.5674,515.7031 Q493.7393,516.6719 493.7393,518.8438 Q493.7393,521.1406 494.5674,522.125 Q495.3955,523.1094 496.7236,523.1094 Q497.708,523.1094 498.4111,522.4844 Q499.1143,521.8594 499.4111,520.5313 Z " fill="#000000"/><text fill="#000000" font-family="Verdana" font-size="14" lengthAdjust="spacing" textLength="132.8975" x="514.1455" y="524.5679">NursingHomeStore</text><line style="stroke:#000000;stroke-width:1;" x1="389.5" x2="744.1885" y1="533" y2="533"/><text fill="#000000" font-family="Verdana" font-size="14" lengthAdjust="spacing" textLength="344.333" x="394.5" y="551.0752">-_nursingHomesSignal: Signal&lt;NursingHome[]&gt;</text><text fill="#000000" font-family="Verdana" font-size="14" lengthAdjust="spacing" textLength="241.999" x="394.5" y="568.0898">-_loadingSignal: Signal&lt;boolean&gt;</text><text fill="#000000" font-family="Verdana" font-size="14" lengthAdjust="spacing" textLength="242.6689" x="394.5" y="585.1045">-_errorSignal: Signal&lt;string|null&gt;</text><text fill="#000000" font-family="Verdana" font-size="14" lengthAdjust="spacing" textLength="250.291" x="394.5" y="602.1191">-nursingHomeApi: NursingHomeApi</text><text fill="#000000" font-family="Verdana" font-size="14" lengthAdjust="spacing" textLength="297.2881" x="394.5" y="619.1338">+nursingHomes: Signal&lt;NursingHome[]&gt;</text><text fill="#000000" font-family="Verdana" font-size="14" lengthAdjust="spacing" textLength="194.9541" x="394.5" y="636.1484">+loading: Signal&lt;boolean&gt;</text><text fill="#000000" font-family="Verdana" font-size="14" lengthAdjust="spacing" textLength="195.624" x="394.5" y="653.1631">+error: Signal&lt;string|null&gt;</text><line style="stroke:#000000;stroke-width:1;" x1="389.5" x2="744.1885" y1="660.1025" y2="660.1025"/><text fill="#000000" font-family="Verdana" font-size="14" lengthAdjust="spacing" textLength="344.6885" x="394.5" y="678.1777">+addNursingHome(nursingHome: NursingHome)</text></g><!--class NursingHomeApi--><g class="entity" data-entity="NursingHomeApi" data-source-line="31" data-uid="ent0009" id="entity_NursingHomeApi"><rect fill="#FFFFFF" height="112.0586" rx="2.5" ry="2.5" style="stroke:#000000;stroke-width:1;" width="511.8779" x="52" y="786"/><ellipse cx="245.6221" cy="800" fill="#FFFFFF" rx="9" ry="9" style="stroke:#000000;stroke-width:1;"/><path d="M248.3877,801.5313 L250.7783,802.2813 Q250.2314,804.2656 248.9502,805.2344 Q247.6846,806.2031 245.7158,806.2031 Q243.2939,806.2031 241.7314,804.5469 Q240.1846,802.8906 240.1846,800.0156 Q240.1846,796.9844 241.7471,795.3125 Q243.3096,793.625 245.8721,793.625 Q248.1064,793.625 249.4971,794.9375 Q250.3252,795.7188 250.7471,797.1875 L248.3096,797.7656 Q248.0908,796.8125 247.4033,796.2656 Q246.7314,795.7188 245.7471,795.7188 Q244.3877,795.7188 243.5439,796.7031 Q242.7158,797.6719 242.7158,799.8438 Q242.7158,802.1406 243.5439,803.125 Q244.3721,804.1094 245.7002,804.1094 Q246.6846,804.1094 247.3877,803.4844 Q248.0908,802.8594 248.3877,801.5313 Z " fill="#000000"/><text fill="#000000" font-family="Verdana" font-size="14" lengthAdjust="spacing" textLength="117.1338" x="263.1221" y="805.5679">NursingHomeApi</text><line style="stroke:#000000;stroke-width:1;" x1="53" x2="562.8779" y1="814" y2="814"/><text fill="#000000" font-family="Verdana" font-size="14" lengthAdjust="spacing" textLength="398.9521" x="58" y="832.0752">-_nursingHomesApidEndpoint: NursingHomeApiEndpoint</text><line style="stroke:#000000;stroke-width:1;" x1="53" x2="562.8779" y1="839.0146" y2="839.0146"/><text fill="#000000" font-family="Verdana" font-size="14" lengthAdjust="spacing" textLength="495.1816" x="58" y="857.0898">+createNursingHome(nh: NursingHome): Observable&lt;NursingHome&gt;</text><text fill="#000000" font-family="Verdana" font-size="14" lengthAdjust="spacing" textLength="499.8779" x="58" y="874.1045">+updateNursingHome(nh: NursingHome): Observable&lt;NursingHome&gt;</text><text fill="#000000" font-family="Verdana" font-size="14" lengthAdjust="spacing" textLength="358.6611" x="58" y="891.1191">+getNursingHome(id: number): Observable&lt;any&gt;</text></g><!--class NursingHomeApiEndpoint--><g class="entity" data-entity="NursingHomeApiEndpoint" data-source-line="37" data-uid="ent0010" id="entity_NursingHomeApiEndpoint"><rect fill="#FFFFFF" height="44" rx="2.5" ry="2.5" style="stroke:#000000;stroke-width:1;" width="207.0059" x="210.5" y="975"/><ellipse cx="223.5" cy="989" fill="#FFFFFF" rx="9" ry="9" style="stroke:#000000;stroke-width:1;"/><path d="M226.2656,990.5313 L228.6563,991.2813 Q228.1094,993.2656 226.8281,994.2344 Q225.5625,995.2031 223.5938,995.2031 Q221.1719,995.2031 219.6094,993.5469 Q218.0625,991.8906 218.0625,989.0156 Q218.0625,985.9844 219.625,984.3125 Q221.1875,982.625 223.75,982.625 Q225.9844,982.625 227.375,983.9375 Q228.2031,984.7188 228.625,986.1875 L226.1875,986.7656 Q225.9688,985.8125 225.2813,985.2656 Q224.6094,984.7188 223.625,984.7188 Q222.2656,984.7188 221.4219,985.7031 Q220.5938,986.6719 220.5938,988.8438 Q220.5938,991.1406 221.4219,992.125 Q222.25,993.1094 223.5781,993.1094 Q224.5625,993.1094 225.2656,992.4844 Q225.9688,991.8594 226.2656,990.5313 Z " fill="#000000"/><text fill="#000000" font-family="Verdana" font-size="14" lengthAdjust="spacing" textLength="179.0059" x="235.5" y="994.5679">NursingHomeApiEndpoint</text><line style="stroke:#000000;stroke-width:1;" x1="211.5" x2="416.5059" y1="1003" y2="1003"/><line style="stroke:#000000;stroke-width:1;" x1="211.5" x2="416.5059" y1="1011" y2="1011"/></g><!--class NursingHomeAssembler--><g class="entity" data-entity="NursingHomeAssembler" data-source-line="40" data-uid="ent0011" id="entity_NursingHomeAssembler"><rect fill="#FFFFFF" height="78.0293" rx="2.5" ry="2.5" style="stroke:#000000;stroke-width:1;" width="491.1309" x="71.5" y="1096"/><ellipse cx="229.3188" cy="1110" fill="#FFFFFF" rx="9" ry="9" style="stroke:#000000;stroke-width:1;"/><path d="M232.0845,1111.5313 L234.4751,1112.2813 Q233.9282,1114.2656 232.647,1115.2344 Q231.3813,1116.2031 229.4126,1116.2031 Q226.9907,1116.2031 225.4282,1114.5469 Q223.8813,1112.8906 223.8813,1110.0156 Q223.8813,1106.9844 225.4438,1105.3125 Q227.0063,1103.625 229.5688,1103.625 Q231.8032,1103.625 233.1938,1104.9375 Q234.022,1105.7188 234.4438,1107.1875 L232.0063,1107.7656 Q231.7876,1106.8125 231.1001,1106.2656 Q230.4282,1105.7188 229.4438,1105.7188 Q228.0845,1105.7188 227.2407,1106.7031 Q226.4126,1107.6719 226.4126,1109.8438 Q226.4126,1112.1406 227.2407,1113.125 Q228.0688,1114.1094 229.397,1114.1094 Q230.3813,1114.1094 231.0845,1113.4844 Q231.7876,1112.8594 232.0845,1111.5313 Z " fill="#000000"/><text fill="#000000" font-family="Verdana" font-size="14" lengthAdjust="spacing" textLength="167.9932" x="246.8188" y="1115.5679">NursingHomeAssembler</text><line style="stroke:#000000;stroke-width:1;" x1="72.5" x2="561.6309" y1="1124" y2="1124"/><line style="stroke:#000000;stroke-width:1;" x1="72.5" x2="561.6309" y1="1132" y2="1132"/><text fill="#000000" font-family="Verdana" font-size="14" lengthAdjust="spacing" textLength="478.0234" x="77.5" y="1150.0752">+toEntityFromResource(res: NursingHomeResource): NursingHome</text><text fill="#000000" font-family="Verdana" font-size="14" lengthAdjust="spacing" textLength="479.1309" x="77.5" y="1167.0898">+toResourceFromEntity(ent: NursingHome): NursingHomeResource</text></g><!--class NursingHomeResource--><g class="entity" data-entity="NursingHomeResource" data-source-line="44" data-uid="ent0012" id="entity_NursingHomeResource"><rect fill="#FFFFFF" height="163.1025" rx="2.5" ry="2.5" style="stroke:#000000;stroke-width:1;" width="187.3184" x="223.5" y="1317"/><ellipse cx="236.5" cy="1331" fill="#FFFFFF" rx="9" ry="9" style="stroke:#000000;stroke-width:1;"/><path d="M235.6563,1337 L235.6563,1324.8281 L238.125,1324.8281 L238.125,1337 L235.6563,1337 Z " fill="#000000"/><text fill="#000000" font-family="Verdana" font-size="14" font-style="italic" lengthAdjust="spacing" textLength="159.3184" x="248.5" y="1336.5679">NursingHomeResource</text><line style="stroke:#000000;stroke-width:1;" x1="224.5" x2="409.8184" y1="1345" y2="1345"/><text fill="#000000" font-family="Verdana" font-size="14" lengthAdjust="spacing" textLength="78.2168" x="229.5" y="1363.0752">id: number</text><text fill="#000000" font-family="Verdana" font-size="14" lengthAdjust="spacing" textLength="90.7129" x="229.5" y="1380.0898">name: string</text><text fill="#000000" font-family="Verdana" font-size="14" lengthAdjust="spacing" textLength="73.6162" x="229.5" y="1397.1045">ruc: string</text><text fill="#000000" font-family="Verdana" font-size="14" lengthAdjust="spacing" textLength="152.1406" x="229.5" y="1414.1191">phoneNUmber: string</text><text fill="#000000" font-family="Verdana" font-size="14" lengthAdjust="spacing" textLength="106.2441" x="229.5" y="1431.1338">address: string</text><text fill="#000000" font-family="Verdana" font-size="14" lengthAdjust="spacing" textLength="128.3926" x="229.5" y="1448.1484">description: string</text><text fill="#000000" font-family="Verdana" font-size="14" lengthAdjust="spacing" textLength="123.7168" x="229.5" y="1465.1631">adminId: number</text><line style="stroke:#000000;stroke-width:1;" x1="224.5" x2="409.8184" y1="1472.1025" y2="1472.1025"/></g><g class="entity" data-entity="NursingHomeRouters" data-source-line="56" data-uid="ent0014" id="entity_NursingHomeRouters"><rect fill="#FFFFFF" height="46.0293" rx="2.5" ry="2.5" style="stroke:#000000;stroke-width:1;" width="163.2148" x="563.5" y="92"/><text fill="#000000" font-family="Verdana" font-size="14" lengthAdjust="spacing" textLength="149.2148" x="570.5" y="108.0752">NursingHomeRouters</text><line style="stroke:#000000;stroke-width:1;" x1="564.5" x2="725.7148" y1="113.0146" y2="113.0146"/><text fill="#000000" font-family="Verdana" font-size="14" lengthAdjust="spacing" textLength="104.002" x="569.5" y="131.0898">routes: Routes</text></g><!--class NursingHomeForm--><g class="entity" data-entity="NursingHomeForm" data-source-line="61" data-uid="ent0016" id="entity_NursingHomeForm"><rect fill="#FFFFFF" height="142.6719" rx="2.5" ry="2.5" style="stroke:#000000;stroke-width:1;" width="198.1563" x="546" y="237"/><ellipse cx="576.5601" cy="257.7993" fill="#FFFFFF" rx="9" ry="9" style="stroke:#000000;stroke-width:1;"/><path d="M579.3257,259.3306 L581.7164,260.0806 Q581.1695,262.0649 579.8882,263.0337 Q578.6226,264.0024 576.6539,264.0024 Q574.232,264.0024 572.6695,262.3462 Q571.1226,260.6899 571.1226,257.8149 Q571.1226,254.7837 572.6851,253.1118 Q574.2476,251.4243 576.8101,251.4243 Q579.0445,251.4243 580.4351,252.7368 Q581.2632,253.5181 581.6851,254.9868 L579.2476,255.5649 Q579.0289,254.6118 578.3414,254.0649 Q577.6695,253.5181 576.6851,253.5181 Q575.3257,253.5181 574.482,254.5024 Q573.6539,255.4712 573.6539,257.6431 Q573.6539,259.9399 574.482,260.9243 Q575.3101,261.9087 576.6382,261.9087 Q577.6226,261.9087 578.3257,261.2837 Q579.0289,260.6587 579.3257,259.3306 Z " fill="#000000"/><text fill="#000000" font-family="Verdana" font-size="12" font-style="italic" lengthAdjust="spacing" textLength="82.5059" x="616.7763" y="254.0645">&#171;component&#187;</text><text fill="#000000" font-family="Verdana" font-size="14" lengthAdjust="spacing" textLength="131.1338" x="592.4624" y="270.6592">NursingHomeForm</text><line style="stroke:#000000;stroke-width:1;" x1="547" x2="743.1563" y1="278.5986" y2="278.5986"/><text fill="#000000" font-family="Verdana" font-size="14" lengthAdjust="spacing" textLength="123.334" x="552" y="296.6738">form: FormGroup</text><text fill="#000000" font-family="Verdana" font-size="14" lengthAdjust="spacing" textLength="186.1563" x="552" y="313.6885">-store: NursingHomeStore</text><text fill="#000000" font-family="Verdana" font-size="14" lengthAdjust="spacing" textLength="107.7207" x="552" y="330.7031">-router: Router</text><text fill="#000000" font-family="Verdana" font-size="14" lengthAdjust="spacing" textLength="161.2666" x="552" y="347.7178">-route: ActivatedRoute</text><line style="stroke:#000000;stroke-width:1;" x1="547" x2="743.1563" y1="354.6572" y2="354.6572"/><text fill="#000000" font-family="Verdana" font-size="14" lengthAdjust="spacing" textLength="72.0234" x="552" y="372.7324">+submit()</text></g><!--link NursingHomeForm to NursingHomeStore--><g class="link" data-entity-1="NursingHomeForm" data-entity-2="NursingHomeStore" data-source-line="74" data-uid="lnk17" id="link_NursingHomeForm_NursingHomeStore"><path codeLine="74" d="M625.62,380.19 C615.29,417.88 604.056,458.8334 593.046,499.0034" fill="none" id="NursingHomeForm-to-NursingHomeStore" style="stroke:#000000;stroke-width:1;"/><polygon fill="#000000" points="591.46,504.79,597.6967,497.1675,592.7817,499.9678,589.9813,495.0528,591.46,504.79" style="stroke:#000000;stroke-width:1;"/><text fill="#000000" font-family="Verdana" font-size="13" lengthAdjust="spacing" textLength="29.5166" x="609" y="450.0698">uses</text></g><!--link NursingHomeForm to NursingHome--><g class="link" data-entity-1="NursingHomeForm" data-entity-2="NursingHome" data-source-line="75" data-uid="lnk18" id="link_NursingHomeForm_NursingHome"><path codeLine="75" d="M711.53,380.21 C730.7,404.21 749.74,432.27 762,461 C785.47,515.98 782,534.22 782,594 C782,594 782,594 782,1136 C782,1197.43 770.2108,1259.7856 757.5108,1311.1256" fill="none" id="NursingHomeForm-to-NursingHome" style="stroke:#000000;stroke-width:1;"/><polygon fill="#000000" points="756.07,1316.95,762.1142,1309.1739,757.2707,1312.0963,754.3482,1307.2528,756.07,1316.95" style="stroke:#000000;stroke-width:1;"/><text fill="#000000" font-family="Verdana" font-size="13" lengthAdjust="spacing" textLength="47.5122" x="783" y="942.0698">creates</text></g><!--link NursingHomeRouters to NursingHomeForm--><g class="link" data-entity-1="NursingHomeRouters" data-entity-2="NursingHomeForm" data-source-line="78" data-uid="lnk19" id="link_NursingHomeRouters_NursingHomeForm"><path codeLine="78" d="M645,138.34 C645,162.42 645,195.96 645,230.77" fill="none" id="NursingHomeRouters-to-NursingHomeForm" style="stroke:#000000;stroke-width:1;stroke-dasharray:7,7;"/><polygon fill="#000000" points="645,236.77,649,227.77,645,231.77,641,227.77,645,236.77" style="stroke:#000000;stroke-width:1;"/><text fill="#000000" font-family="Verdana" font-size="13" lengthAdjust="spacing" textLength="64.6064" x="646" y="182.0698">lazy loads</text></g><!--link NursingHomeStore to NursingHomeApi--><g class="link" data-entity-1="NursingHomeStore" data-entity-2="NursingHomeApi" data-source-line="81" data-uid="lnk20" id="link_NursingHomeStore_NursingHomeApi"><path codeLine="81" d="M472.76,685.14 C437.18,718.8 402.1198,751.9779 370.7498,781.6379" fill="none" id="NursingHomeStore-to-NursingHomeApi" style="stroke:#000000;stroke-width:1;"/><polygon fill="#000000" points="366.39,785.76,375.6778,782.4833,370.0232,782.3249,370.1816,776.6702,366.39,785.76" style="stroke:#000000;stroke-width:1;"/><text fill="#000000" font-family="Verdana" font-size="13" lengthAdjust="spacing" textLength="29.5166" x="438" y="731.0698">uses</text></g><!--link NursingHomeStore to NursingHome--><g class="link" data-entity-1="NursingHomeStore" data-entity-2="NursingHome" data-source-line="82" data-uid="lnk21" id="link_NursingHomeStore_NursingHome"><path codeLine="82" d="M601.9,685.02 C616.88,730.88 631,788.14 631,841 C631,841 631,841 631,1136 C631,1199.72 654.8463,1261.2344 680.8763,1311.3944" fill="none" id="NursingHomeStore-to-NursingHome" style="stroke:#000000;stroke-width:1;stroke-dasharray:7,7;"/><polygon fill="#000000" points="683.64,1316.72,683.0449,1306.8891,681.3369,1312.282,675.9441,1310.574,683.64,1316.72" style="stroke:#000000;stroke-width:1;"/><text fill="#000000" font-family="Verdana" font-size="13" lengthAdjust="spacing" textLength="113.2739" x="632" y="1002.5698">manages state of</text></g><!--link NursingHomeApi to NursingHomeApiEndpoint--><g class="link" data-entity-1="NursingHomeApi" data-entity-2="NursingHomeApiEndpoint" data-source-line="85" data-uid="lnk22" id="link_NursingHomeApi_NursingHomeApiEndpoint"><path codeLine="85" d="M310.17,898.24 C311.21,924.77 312.1531,949.0147 312.9331,968.7547" fill="none" id="NursingHomeApi-to-NursingHomeApiEndpoint" style="stroke:#000000;stroke-width:1;"/><polygon fill="#000000" points="313.17,974.75,316.8115,965.5991,312.9726,969.7539,308.8178,965.9149,313.17,974.75" style="stroke:#000000;stroke-width:1;"/><text fill="#000000" font-family="Verdana" font-size="13" lengthAdjust="spacing" textLength="80.2852" x="312" y="942.0698">delegates to</text></g><!--link NursingHomeApiEndpoint to NursingHomeAssembler--><g class="link" data-entity-1="NursingHomeApiEndpoint" data-entity-2="NursingHomeAssembler" data-source-line="86" data-uid="lnk23" id="link_NursingHomeApiEndpoint_NursingHomeAssembler"><path codeLine="86" d="M314.47,1019.25 C314.92,1039.72 315.477,1065.1415 316.027,1089.9415" fill="none" id="NursingHomeApiEndpoint-to-NursingHomeAssembler" style="stroke:#000000;stroke-width:1;stroke-dasharray:7,7;"/><polygon fill="#000000" points="316.16,1095.94,319.9595,1086.8535,316.0491,1090.9412,311.9614,1087.0309,316.16,1095.94" style="stroke:#000000;stroke-width:1;"/><text fill="#000000" font-family="Verdana" font-size="13" lengthAdjust="spacing" textLength="29.5166" x="316" y="1063.0698">uses</text></g><!--link NursingHomeAssembler to NursingHome--><g class="link" data-entity-1="NursingHomeAssembler" data-entity-2="NursingHome" data-source-line="89" data-uid="lnk24" id="link_NursingHomeAssembler_NursingHome"><path codeLine="89" d="M465.01,1174.06 C504.25,1187.88 545.32,1205.94 580,1229 C615.37,1252.52 644.1611,1281.4056 670.1311,1312.3256" fill="none" id="NursingHomeAssembler-to-NursingHome" style="stroke:#000000;stroke-width:1;"/><polygon fill="#000000" points="673.99,1316.92,671.2646,1307.4557,670.7742,1313.0913,665.1387,1312.601,673.99,1316.92" style="stroke:#000000;stroke-width:1;"/><text fill="#000000" font-family="Verdana" font-size="13" lengthAdjust="spacing" textLength="47.5122" x="568" y="1218.0698">creates</text></g><!--link NursingHomeAssembler to NursingHomeResource--><g class="link" data-entity-1="NursingHomeAssembler" data-entity-2="NursingHomeResource" data-source-line="90" data-uid="lnk25" id="link_NursingHomeAssembler_NursingHomeResource"><path codeLine="90" d="M317,1174.02 C317,1211.28 317,1263.23 317,1310.78" fill="none" id="NursingHomeAssembler-to-NursingHomeResource" style="stroke:#000000;stroke-width:1;stroke-dasharray:7,7;"/><polygon fill="#000000" points="317,1316.78,321,1307.78,317,1311.78,313,1307.78,317,1316.78" style="stroke:#000000;stroke-width:1;"/><text fill="#000000" font-family="Verdana" font-size="13" lengthAdjust="spacing" textLength="70.9033" x="318" y="1218.0698">transforms</text></g><!--SRC=[fLLDRzD04BtdLmpcq4IH8mwe1wkA5503bQ2WHfmGGcjxOYzTxrgxwqefzBypwu_4NZkj49T4cNdpvirC_FpAvbWWb89nEJFtN9PCim8ImOpPMAjvN5cyIPJSyKU4Dpr8oP9xbk7E7WI2niGocGcSpTeu1BBIXilieofmbQg26gmAbQ88uFNsxVPoUmc_Pz1qWjiJjeu2XF2Jfn78geXHTn792ep0a2oPTJ5T9Nwep9N4sxhIJx4qrMYC7qxH99gNbYlffpPfmULDNyhJxEdCcAmi1K-OetbXofrLkZTgZyJiU2QPYA3vlkeLVV-nxWg4OYb5FMoib40cZoZKMcaFqqptHrP2TBXUzqt9exvE-bs3bdsGUKxS4bfjqwgMK8iwBsS9TACUxxpNU21jyUmfkDnhHkHLOYkDBro3ffo-1INIQvcMYalhxwMBjweJZSpYG7W-r1l1bzYWVc2nmFxckhchClrFXWnjl_pq00qhcJoiw-LDhw8Rh5t91Nn6cwlK09SvQcunXRrM1J1unmp2UqTnbiuOBAYdRicMODMrjDmUjaHnXqPLEi6vTl-fNbcNM0oYHuOkxJWQjZbw1rfCyhKoQJZKUvRW5APLwhdFo7fytsbCvzl8TAOSvvpTi7_mcf9OQUW9ir7nBxBZmMYAN5oRTZBjVf6WEjfSZZxy9c5EXU5UwI9ewqR7tL8IhguILPGqkxJhTOi4S7KHEC07QbUsqP269T-BHavupDVQTAjD3yCHR1BB7-WPIUjqcrs2gUA2s_cY3ZnrMxk0C0pX3aMz8fFpqhY8ItpjxGu-iGDryiSAm_NOhoC8AeCcU0djW8qV49RwERdknXCdMQtMevLIjM2FXzf86uBDwSKorjjeyoGuIvkIsu2zhWvPC4ddDtGXaWrgN_Uz6RZekBNhCcvyD12YfHS-PcuHzDW6ipCuJyx9D8uJk1rqKJERn3vtWya2h-ln-QT2gvaqxZziWhy0]--></g></svg>