<svg xmlns="http://www.w3.org/2000/svg" xmlns:xlink="http://www.w3.org/1999/xlink" contentStyleType="text/css" data-diagram-type="CLASS" height="1584px" preserveAspectRatio="none" style="width:870px;height:1584px;background:#FFFFFF;" version="1.1" viewBox="0 0 870 1584" width="870px" zoomAndPan="magnify"><defs/><g><!--cluster employees--><g class="cluster" data-entity="employees" data-source-line="6" data-uid="ent0004" id="cluster_employees"><rect fill="#FFFFFF" height="1566" rx="2.5" ry="2.5" style="stroke:#000000;stroke-width:1;" width="852" x="12" y="12"/><text fill="#000000" font-family="Verdana" font-size="14" font-weight="bold" lengthAdjust="spacing" textLength="84.3076" x="395.8462" y="28.0752">employees</text></g><!--cluster domain--><g class="cluster" data-entity="domain" data-source-line="6" data-uid="ent0005" id="cluster_domain"><rect fill="#FFFFFF" height="317" rx="2.5" ry="2.5" style="stroke:#000000;stroke-width:1;" width="376" x="36" y="1237"/><text fill="#000000" font-family="Verdana" font-size="14" font-weight="bold" lengthAdjust="spacing" textLength="58.3242" x="194.8379" y="1253.0752">domain</text></g><!--cluster model--><g class="cluster" data-entity="model" data-source-line="5" data-uid="ent0002" id="cluster_model"><rect fill="#F4F6F6" height="249" rx="2.5" ry="2.5" style="stroke:#000000;stroke-width:1;" width="328" x="60" y="1281"/><text fill="#000000" font-family="Verdana" font-size="14" font-weight="bold" lengthAdjust="spacing" textLength="48.2959" x="199.8521" y="1297.0752">model</text></g><!--cluster application--><g class="cluster" data-entity="application" data-source-line="20" data-uid="ent0006" id="cluster_application"><rect fill="#F4F6F6" height="300" rx="2.5" ry="2.5" style="stroke:#000000;stroke-width:1;" width="346" x="326" y="384"/><text fill="#000000" font-family="Verdana" font-size="14" font-weight="bold" lengthAdjust="spacing" textLength="86.8369" x="455.5815" y="400.0752">application</text></g><!--cluster infrastructure--><g class="cluster" data-entity="infrastructure" data-source-line="37" data-uid="ent0008" id="cluster_infrastructure"><rect fill="#F4F6F6" height="771.5" rx="2.5" ry="2.5" style="stroke:#000000;stroke-width:1;" width="404" x="436" y="733"/><text fill="#000000" font-family="Verdana" font-size="14" font-weight="bold" lengthAdjust="spacing" textLength="109.4434" x="583.2783" y="749.0752">infrastructure</text></g><!--cluster presentation--><g class="cluster" data-entity="presentation" data-source-line="63" data-uid="ent0013" id="cluster_presentation"><rect fill="#F4F6F6" height="279" rx="2.5" ry="2.5" style="stroke:#000000;stroke-width:1;" width="746" x="36" y="56"/><text fill="#000000" font-family="Verdana" font-size="14" font-weight="bold" lengthAdjust="spacing" textLength="100.0986" x="358.9507" y="72.0752">presentation</text></g><!--cluster staff-detail--><g class="cluster" data-entity="staff-detail" data-source-line="68" data-uid="ent0015" id="cluster_staff-detail"><rect fill="#FFFFFF" height="110" rx="2.5" ry="2.5" style="stroke:#000000;stroke-width:1;" width="140" x="260" y="201"/><text fill="#000000" font-family="Verdana" font-size="14" font-weight="bold" lengthAdjust="spacing" textLength="86.9668" x="286.5166" y="217.0752">staff-detail</text></g><!--cluster staff-form-create--><g class="cluster" data-entity="staff-form-create" data-source-line="73" data-uid="ent0017" id="cluster_staff-form-create"><rect fill="#FFFFFF" height="110" rx="2.5" ry="2.5" style="stroke:#000000;stroke-width:1;" width="176" x="60" y="201"/><text fill="#000000" font-family="Verdana" font-size="14" font-weight="bold" lengthAdjust="spacing" textLength="136.1172" x="79.9414" y="217.0752">staff-form-create</text></g><!--cluster staff-form-edit--><g class="cluster" data-entity="staff-form-edit" data-source-line="78" data-uid="ent0019" id="cluster_staff-form-edit"><rect fill="#FFFFFF" height="110" rx="2.5" ry="2.5" style="stroke:#000000;stroke-width:1;" width="156" x="424" y="201"/><text fill="#000000" font-family="Verdana" font-size="14" font-weight="bold" lengthAdjust="spacing" textLength="116.8467" x="443.5767" y="217.0752">staff-form-edit</text></g><!--cluster staff-form-list--><g class="cluster" data-entity="staff-form-list" data-source-line="83" data-uid="ent0021" id="cluster_staff-form-list"><rect fill="#FFFFFF" height="110" rx="2.5" ry="2.5" style="stroke:#000000;stroke-width:1;" width="154" x="604" y="201"/><text fill="#000000" font-family="Verdana" font-size="14" font-weight="bold" lengthAdjust="spacing" textLength="110.8516" x="625.5742" y="217.0752">staff-form-list</text></g><!--class Staff--><g class="entity" data-entity="Staff" data-source-line="6" data-uid="ent0003" id="entity_Staff"><rect fill="#FFFFFF" height="197.1318" rx="2.5" ry="2.5" style="stroke:#000000;stroke-width:1;" width="295.459" x="76.5" y="1317"/><ellipse cx="203.8101" cy="1331" fill="#FFFFFF" rx="9" ry="9" style="stroke:#000000;stroke-width:1;"/><path d="M206.5757,1332.5313 L208.9663,1333.2813 Q208.4194,1335.2656 207.1382,1336.2344 Q205.8726,1337.2031 203.9038,1337.2031 Q201.4819,1337.2031 199.9194,1335.5469 Q198.3726,1333.8906 198.3726,1331.0156 Q198.3726,1327.9844 199.9351,1326.3125 Q201.4976,1324.625 204.0601,1324.625 Q206.2944,1324.625 207.6851,1325.9375 Q208.5132,1326.7188 208.9351,1328.1875 L206.4976,1328.7656 Q206.2788,1327.8125 205.5913,1327.2656 Q204.9194,1326.7188 203.9351,1326.7188 Q202.5757,1326.7188 201.7319,1327.7031 Q200.9038,1328.6719 200.9038,1330.8438 Q200.9038,1333.1406 201.7319,1334.125 Q202.5601,1335.1094 203.8882,1335.1094 Q204.8726,1335.1094 205.5757,1334.4844 Q206.2788,1333.8594 206.5757,1332.5313 Z " fill="#000000"/><text fill="#000000" font-family="Verdana" font-size="14" lengthAdjust="spacing" textLength="33.3389" x="221.3101" y="1336.5679">Staff</text><line style="stroke:#000000;stroke-width:1;" x1="77.5" x2="370.959" y1="1345" y2="1345"/><text fill="#000000" font-family="Verdana" font-size="14" lengthAdjust="spacing" textLength="93.4746" x="82.5" y="1363.0752">-_id: number</text><text fill="#000000" font-family="Verdana" font-size="14" lengthAdjust="spacing" textLength="105.9707" x="82.5" y="1380.0898">-_name: string</text><text fill="#000000" font-family="Verdana" font-size="14" lengthAdjust="spacing" textLength="131.0313" x="82.5" y="1397.1045">-_lastname: string</text><text fill="#000000" font-family="Verdana" font-size="14" lengthAdjust="spacing" textLength="88.1699" x="82.5" y="1414.1191">-_dni: string</text><text fill="#000000" font-family="Verdana" font-size="14" lengthAdjust="spacing" textLength="96.7764" x="82.5" y="1431.1338">-_post: string</text><text fill="#000000" font-family="Verdana" font-size="14" lengthAdjust="spacing" textLength="133.6699" x="82.5" y="1448.1484">-_workShift: string</text><text fill="#000000" font-family="Verdana" font-size="14" lengthAdjust="spacing" textLength="173.3936" x="82.5" y="1465.1631">-_typeOfContract: string</text><text fill="#000000" font-family="Verdana" font-size="14" lengthAdjust="spacing" textLength="125.5557" x="82.5" y="1482.1777">-_birthDate: Date</text><line style="stroke:#000000;stroke-width:1;" x1="77.5" x2="370.959" y1="1489.1172" y2="1489.1172"/><text fill="#000000" font-family="Verdana" font-size="14" lengthAdjust="spacing" textLength="283.459" x="82.5" y="1507.1924">-calculateAge(birthDate: Date): number</text></g><!--class EmployeesStore--><g class="entity" data-entity="EmployeesStore" data-source-line="21" data-uid="ent0007" id="entity_EmployeesStore"><rect fill="#FFFFFF" height="248.1758" rx="2.5" ry="2.5" style="stroke:#000000;stroke-width:1;" width="313.5811" x="342" y="420"/><ellipse cx="438.1963" cy="434" fill="#FFFFFF" rx="9" ry="9" style="stroke:#000000;stroke-width:1;"/><path d="M440.9619,435.5313 L443.3525,436.2813 Q442.8057,438.2656 441.5244,439.2344 Q440.2588,440.2031 438.29,440.2031 Q435.8682,440.2031 434.3057,438.5469 Q432.7588,436.8906 432.7588,434.0156 Q432.7588,430.9844 434.3213,429.3125 Q435.8838,427.625 438.4463,427.625 Q440.6807,427.625 442.0713,428.9375 Q442.8994,429.7188 443.3213,431.1875 L440.8838,431.7656 Q440.665,430.8125 439.9775,430.2656 Q439.3057,429.7188 438.3213,429.7188 Q436.9619,429.7188 436.1182,430.7031 Q435.29,431.6719 435.29,433.8438 Q435.29,436.1406 436.1182,437.125 Q436.9463,438.1094 438.2744,438.1094 Q439.2588,438.1094 439.9619,437.4844 Q440.665,436.8594 440.9619,435.5313 Z " fill="#000000"/><text fill="#000000" font-family="Verdana" font-size="14" lengthAdjust="spacing" textLength="113.6885" x="455.6963" y="439.5679">EmployeesStore</text><line style="stroke:#000000;stroke-width:1;" x1="343" x2="654.5811" y1="448" y2="448"/><text fill="#000000" font-family="Verdana" font-size="14" lengthAdjust="spacing" textLength="213.0557" x="348" y="466.0752">-_staffSignal: Signal&lt;Staff[]&gt;</text><text fill="#000000" font-family="Verdana" font-size="14" lengthAdjust="spacing" textLength="241.999" x="348" y="483.0898">-_loadingSignal: Signal&lt;boolean&gt;</text><text fill="#000000" font-family="Verdana" font-size="14" lengthAdjust="spacing" textLength="242.6689" x="348" y="500.1045">-_errorSignal: Signal&lt;string|null&gt;</text><text fill="#000000" font-family="Verdana" font-size="14" lengthAdjust="spacing" textLength="206.1924" x="348" y="517.1191">-EmployeeApi: EmployeesApi</text><text fill="#000000" font-family="Verdana" font-size="14" lengthAdjust="spacing" textLength="173.3047" x="348" y="534.1338">+staffs: Signal&lt;Staff[]&gt;</text><text fill="#000000" font-family="Verdana" font-size="14" lengthAdjust="spacing" textLength="194.9541" x="348" y="551.1484">+loading: Signal&lt;boolean&gt;</text><text fill="#000000" font-family="Verdana" font-size="14" lengthAdjust="spacing" textLength="195.624" x="348" y="568.1631">+error: Signal&lt;string|null&gt;</text><line style="stroke:#000000;stroke-width:1;" x1="343" x2="654.5811" y1="575.1025" y2="575.1025"/><text fill="#000000" font-family="Verdana" font-size="14" lengthAdjust="spacing" textLength="301.5811" x="348" y="593.1777">+getStaffById(id: number): Signal&lt;Staff&gt;</text><text fill="#000000" font-family="Verdana" font-size="14" lengthAdjust="spacing" textLength="159.0449" x="348" y="610.1924">+addStaff(staff: Staff)</text><text fill="#000000" font-family="Verdana" font-size="14" lengthAdjust="spacing" textLength="181.7607" x="348" y="627.207">+updateStaff(staff: Staff)</text><text fill="#000000" font-family="Verdana" font-size="14" lengthAdjust="spacing" textLength="178.8281" x="348" y="644.2217">+deleteStaff(id: number)</text><text fill="#000000" font-family="Verdana" font-size="14" lengthAdjust="spacing" textLength="86.9805" x="348" y="661.2363">+loadStaff()</text></g><!--class EmployeesApi--><g class="entity" data-entity="EmployeesApi" data-source-line="38" data-uid="ent0009" id="entity_EmployeesApi"><rect fill="#FFFFFF" height="129.0732" rx="2.5" ry="2.5" style="stroke:#000000;stroke-width:1;" width="370.5381" x="452.5" y="769"/><ellipse cx="585.0566" cy="783" fill="#FFFFFF" rx="9" ry="9" style="stroke:#000000;stroke-width:1;"/><path d="M587.8223,784.5313 L590.2129,785.2813 Q589.666,787.2656 588.3848,788.2344 Q587.1191,789.2031 585.1504,789.2031 Q582.7285,789.2031 581.166,787.5469 Q579.6191,785.8906 579.6191,783.0156 Q579.6191,779.9844 581.1816,778.3125 Q582.7441,776.625 585.3066,776.625 Q587.541,776.625 588.9316,777.9375 Q589.7598,778.7188 590.1816,780.1875 L587.7441,780.7656 Q587.5254,779.8125 586.8379,779.2656 Q586.166,778.7188 585.1816,778.7188 Q583.8223,778.7188 582.9785,779.7031 Q582.1504,780.6719 582.1504,782.8438 Q582.1504,785.1406 582.9785,786.125 Q583.8066,787.1094 585.1348,787.1094 Q586.1191,787.1094 586.8223,786.4844 Q587.5254,785.8594 587.8223,784.5313 Z " fill="#000000"/><text fill="#000000" font-family="Verdana" font-size="14" lengthAdjust="spacing" textLength="97.9248" x="602.5566" y="788.5679">EmployeesApi</text><line style="stroke:#000000;stroke-width:1;" x1="453.5" x2="822.0381" y1="797" y2="797"/><text fill="#000000" font-family="Verdana" font-size="14" lengthAdjust="spacing" textLength="236.8174" x="458.5" y="815.0752">-_staffEndpoint: StaffApiEndpoint</text><line style="stroke:#000000;stroke-width:1;" x1="453.5" x2="822.0381" y1="822.0146" y2="822.0146"/><text fill="#000000" font-family="Verdana" font-size="14" lengthAdjust="spacing" textLength="334.9336" x="458.5" y="840.0898">+createEmployee(s: Staff): Observable&lt;Staff&gt;</text><text fill="#000000" font-family="Verdana" font-size="14" lengthAdjust="spacing" textLength="339.6299" x="458.5" y="857.1045">+updateEmployee(s: Staff): Observable&lt;Staff&gt;</text><text fill="#000000" font-family="Verdana" font-size="14" lengthAdjust="spacing" textLength="358.5381" x="458.5" y="874.1191">+DeleteEmployee(id: number): Observable&lt;void&gt;</text><text fill="#000000" font-family="Verdana" font-size="14" lengthAdjust="spacing" textLength="281.7363" x="458.5" y="891.1338">+getEmployees(): Observable&lt;Staff[]&gt;</text></g><!--class StaffApiEndpoint--><g class="entity" data-entity="StaffApiEndpoint" data-source-line="45" data-uid="ent0010" id="entity_StaffApiEndpoint"><rect fill="#FFFFFF" height="44" rx="2.5" ry="2.5" style="stroke:#000000;stroke-width:1;" width="145.3457" x="564.5" y="975"/><ellipse cx="577.5" cy="989" fill="#FFFFFF" rx="9" ry="9" style="stroke:#000000;stroke-width:1;"/><path d="M580.2656,990.5313 L582.6563,991.2813 Q582.1094,993.2656 580.8281,994.2344 Q579.5625,995.2031 577.5938,995.2031 Q575.1719,995.2031 573.6094,993.5469 Q572.0625,991.8906 572.0625,989.0156 Q572.0625,985.9844 573.625,984.3125 Q575.1875,982.625 577.75,982.625 Q579.9844,982.625 581.375,983.9375 Q582.2031,984.7188 582.625,986.1875 L580.1875,986.7656 Q579.9688,985.8125 579.2813,985.2656 Q578.6094,984.7188 577.625,984.7188 Q576.2656,984.7188 575.4219,985.7031 Q574.5938,986.6719 574.5938,988.8438 Q574.5938,991.1406 575.4219,992.125 Q576.25,993.1094 577.5781,993.1094 Q578.5625,993.1094 579.2656,992.4844 Q579.9688,991.8594 580.2656,990.5313 Z " fill="#000000"/><text fill="#000000" font-family="Verdana" font-size="14" lengthAdjust="spacing" textLength="117.3457" x="589.5" y="994.5679">StaffApiEndpoint</text><line style="stroke:#000000;stroke-width:1;" x1="565.5" x2="708.8457" y1="1003" y2="1003"/><line style="stroke:#000000;stroke-width:1;" x1="565.5" x2="708.8457" y1="1011" y2="1011"/></g><!--class StaffAssembler--><g class="entity" data-entity="StaffAssembler" data-source-line="48" data-uid="ent0011" id="entity_StaffAssembler"><rect fill="#FFFFFF" height="78.0293" rx="2.5" ry="2.5" style="stroke:#000000;stroke-width:1;" width="367.8105" x="452" y="1096"/><ellipse cx="578.9888" cy="1110" fill="#FFFFFF" rx="9" ry="9" style="stroke:#000000;stroke-width:1;"/><path d="M581.7544,1111.5313 L584.145,1112.2813 Q583.5981,1114.2656 582.3169,1115.2344 Q581.0513,1116.2031 579.0825,1116.2031 Q576.6606,1116.2031 575.0981,1114.5469 Q573.5513,1112.8906 573.5513,1110.0156 Q573.5513,1106.9844 575.1138,1105.3125 Q576.6763,1103.625 579.2388,1103.625 Q581.4731,1103.625 582.8638,1104.9375 Q583.6919,1105.7188 584.1138,1107.1875 L581.6763,1107.7656 Q581.4575,1106.8125 580.77,1106.2656 Q580.0981,1105.7188 579.1138,1105.7188 Q577.7544,1105.7188 576.9106,1106.7031 Q576.0825,1107.6719 576.0825,1109.8438 Q576.0825,1112.1406 576.9106,1113.125 Q577.7388,1114.1094 579.0669,1114.1094 Q580.0513,1114.1094 580.7544,1113.4844 Q581.4575,1112.8594 581.7544,1111.5313 Z " fill="#000000"/><text fill="#000000" font-family="Verdana" font-size="14" lengthAdjust="spacing" textLength="106.333" x="596.4888" y="1115.5679">StaffAssembler</text><line style="stroke:#000000;stroke-width:1;" x1="453" x2="818.8105" y1="1124" y2="1124"/><line style="stroke:#000000;stroke-width:1;" x1="453" x2="818.8105" y1="1132" y2="1132"/><text fill="#000000" font-family="Verdana" font-size="14" lengthAdjust="spacing" textLength="354.7031" x="458" y="1150.0752">+toEntityFromResource(res: StaffResource): Staff</text><text fill="#000000" font-family="Verdana" font-size="14" lengthAdjust="spacing" textLength="355.8105" x="458" y="1167.0898">+toResourceFromEntity(ent: Staff): StaffResource</text></g><!--class StaffResource--><g class="entity" data-entity="StaffResource" data-source-line="52" data-uid="ent0012" id="entity_StaffResource"><rect fill="#FFFFFF" height="146.0879" rx="2.5" ry="2.5" style="stroke:#000000;stroke-width:1;" width="129.4551" x="571.5" y="1342.5"/><ellipse cx="586.2024" cy="1356.5" fill="#FFFFFF" rx="9" ry="9" style="stroke:#000000;stroke-width:1;"/><path d="M585.3587,1362.5 L585.3587,1350.3281 L587.8274,1350.3281 L587.8274,1362.5 L585.3587,1362.5 Z " fill="#000000"/><text fill="#000000" font-family="Verdana" font-size="14" font-style="italic" lengthAdjust="spacing" textLength="97.6719" x="598.5808" y="1362.0679">StaffResource</text><line style="stroke:#000000;stroke-width:1;" x1="572.5" x2="699.9551" y1="1370.5" y2="1370.5"/><text fill="#000000" font-family="Verdana" font-size="14" lengthAdjust="spacing" textLength="78.2168" x="577.5" y="1388.5752">id: number</text><text fill="#000000" font-family="Verdana" font-size="14" lengthAdjust="spacing" textLength="90.7129" x="577.5" y="1405.5898">name: string</text><text fill="#000000" font-family="Verdana" font-size="14" lengthAdjust="spacing" textLength="115.7734" x="577.5" y="1422.6045">lastname: string</text><text fill="#000000" font-family="Verdana" font-size="14" lengthAdjust="spacing" textLength="72.9121" x="577.5" y="1439.6191">dni: string</text><text fill="#000000" font-family="Verdana" font-size="14" lengthAdjust="spacing" textLength="81.5186" x="577.5" y="1456.6338">post: string</text><text fill="#000000" font-family="Verdana" font-size="14" lengthAdjust="spacing" textLength="117.4551" x="577.5" y="1473.6484">birthDate: string</text><line style="stroke:#000000;stroke-width:1;" x1="572.5" x2="699.9551" y1="1480.5879" y2="1480.5879"/></g><g class="entity" data-entity="EmployeeRouters" data-source-line="64" data-uid="ent0014" id="entity_EmployeeRouters"><rect fill="#FFFFFF" height="46.0293" rx="2.5" ry="2.5" style="stroke:#000000;stroke-width:1;" width="136.7119" x="346.5" y="92"/><text fill="#000000" font-family="Verdana" font-size="14" lengthAdjust="spacing" textLength="122.7119" x="353.5" y="108.0752">EmployeeRouters</text><line style="stroke:#000000;stroke-width:1;" x1="347.5" x2="482.2119" y1="113.0146" y2="113.0146"/><text fill="#000000" font-family="Verdana" font-size="14" lengthAdjust="spacing" textLength="104.002" x="352.5" y="131.0898">routes: Routes</text></g><!--class StaffDetail--><g class="entity" data-entity="StaffDetail" data-source-line="69" data-uid="ent0016" id="entity_StaffDetail"><rect fill="#FFFFFF" height="57.5986" rx="2.5" ry="2.5" style="stroke:#000000;stroke-width:1;" width="106.5059" x="276.5" y="237"/><ellipse cx="289.5" cy="257.7993" fill="#FFFFFF" rx="9" ry="9" style="stroke:#000000;stroke-width:1;"/><path d="M292.2656,259.3306 L294.6563,260.0806 Q294.1094,262.0649 292.8281,263.0337 Q291.5625,264.0024 289.5938,264.0024 Q287.1719,264.0024 285.6094,262.3462 Q284.0625,260.6899 284.0625,257.8149 Q284.0625,254.7837 285.625,253.1118 Q287.1875,251.4243 289.75,251.4243 Q291.9844,251.4243 293.375,252.7368 Q294.2031,253.5181 294.625,254.9868 L292.1875,255.5649 Q291.9688,254.6118 291.2813,254.0649 Q290.6094,253.5181 289.625,253.5181 Q288.2656,253.5181 287.4219,254.5024 Q286.5938,255.4712 286.5938,257.6431 Q286.5938,259.9399 287.4219,260.9243 Q288.25,261.9087 289.5781,261.9087 Q290.5625,261.9087 291.2656,261.2837 Q291.9688,260.6587 292.2656,259.3306 Z " fill="#000000"/><text fill="#000000" font-family="Verdana" font-size="12" font-style="italic" lengthAdjust="spacing" textLength="82.5059" x="299.5" y="254.0645">&#171;component&#187;</text><text fill="#000000" font-family="Verdana" font-size="14" lengthAdjust="spacing" textLength="74.0742" x="303.7158" y="270.6592">StaffDetail</text><line style="stroke:#000000;stroke-width:1;" x1="277.5" x2="382.0059" y1="278.5986" y2="278.5986"/><line style="stroke:#000000;stroke-width:1;" x1="277.5" x2="382.0059" y1="286.5986" y2="286.5986"/></g><!--class StaffFormCreate--><g class="entity" data-entity="StaffFormCreate" data-source-line="74" data-uid="ent0018" id="entity_StaffFormCreate"><rect fill="#FFFFFF" height="57.5986" rx="2.5" ry="2.5" style="stroke:#000000;stroke-width:1;" width="143.8281" x="76" y="237"/><ellipse cx="89" cy="257.7993" fill="#FFFFFF" rx="9" ry="9" style="stroke:#000000;stroke-width:1;"/><path d="M91.7656,259.3306 L94.1563,260.0806 Q93.6094,262.0649 92.3281,263.0337 Q91.0625,264.0024 89.0938,264.0024 Q86.6719,264.0024 85.1094,262.3462 Q83.5625,260.6899 83.5625,257.8149 Q83.5625,254.7837 85.125,253.1118 Q86.6875,251.4243 89.25,251.4243 Q91.4844,251.4243 92.875,252.7368 Q93.7031,253.5181 94.125,254.9868 L91.6875,255.5649 Q91.4688,254.6118 90.7813,254.0649 Q90.1094,253.5181 89.125,253.5181 Q87.7656,253.5181 86.9219,254.5024 Q86.0938,255.4712 86.0938,257.6431 Q86.0938,259.9399 86.9219,260.9243 Q87.75,261.9087 89.0781,261.9087 Q90.0625,261.9087 90.7656,261.2837 Q91.4688,260.6587 91.7656,259.3306 Z " fill="#000000"/><text fill="#000000" font-family="Verdana" font-size="12" font-style="italic" lengthAdjust="spacing" textLength="82.5059" x="117.6611" y="254.0645">&#171;component&#187;</text><text fill="#000000" font-family="Verdana" font-size="14" lengthAdjust="spacing" textLength="115.8281" x="101" y="270.6592">StaffFormCreate</text><line style="stroke:#000000;stroke-width:1;" x1="77" x2="218.8281" y1="278.5986" y2="278.5986"/><line style="stroke:#000000;stroke-width:1;" x1="77" x2="218.8281" y1="286.5986" y2="286.5986"/></g><!--class StaffFormEdit--><g class="entity" data-entity="StaffFormEdit" data-source-line="79" data-uid="ent0020" id="entity_StaffFormEdit"><rect fill="#FFFFFF" height="57.5986" rx="2.5" ry="2.5" style="stroke:#000000;stroke-width:1;" width="124.4072" x="440" y="237"/><ellipse cx="453" cy="257.7993" fill="#FFFFFF" rx="9" ry="9" style="stroke:#000000;stroke-width:1;"/><path d="M455.7656,259.3306 L458.1563,260.0806 Q457.6094,262.0649 456.3281,263.0337 Q455.0625,264.0024 453.0938,264.0024 Q450.6719,264.0024 449.1094,262.3462 Q447.5625,260.6899 447.5625,257.8149 Q447.5625,254.7837 449.125,253.1118 Q450.6875,251.4243 453.25,251.4243 Q455.4844,251.4243 456.875,252.7368 Q457.7031,253.5181 458.125,254.9868 L455.6875,255.5649 Q455.4688,254.6118 454.7813,254.0649 Q454.1094,253.5181 453.125,253.5181 Q451.7656,253.5181 450.9219,254.5024 Q450.0938,255.4712 450.0938,257.6431 Q450.0938,259.9399 450.9219,260.9243 Q451.75,261.9087 453.0781,261.9087 Q454.0625,261.9087 454.7656,261.2837 Q455.4688,260.6587 455.7656,259.3306 Z " fill="#000000"/><text fill="#000000" font-family="Verdana" font-size="12" font-style="italic" lengthAdjust="spacing" textLength="82.5059" x="471.9507" y="254.0645">&#171;component&#187;</text><text fill="#000000" font-family="Verdana" font-size="14" lengthAdjust="spacing" textLength="96.4072" x="465" y="270.6592">StaffFormEdit</text><line style="stroke:#000000;stroke-width:1;" x1="441" x2="563.4072" y1="278.5986" y2="278.5986"/><line style="stroke:#000000;stroke-width:1;" x1="441" x2="563.4072" y1="286.5986" y2="286.5986"/></g><!--class StaffFormList--><g class="entity" data-entity="StaffFormList" data-source-line="84" data-uid="ent0022" id="entity_StaffFormList"><rect fill="#FFFFFF" height="57.5986" rx="2.5" ry="2.5" style="stroke:#000000;stroke-width:1;" width="121.9189" x="620" y="237"/><ellipse cx="633" cy="257.7993" fill="#FFFFFF" rx="9" ry="9" style="stroke:#000000;stroke-width:1;"/><path d="M635.7656,259.3306 L638.1563,260.0806 Q637.6094,262.0649 636.3281,263.0337 Q635.0625,264.0024 633.0938,264.0024 Q630.6719,264.0024 629.1094,262.3462 Q627.5625,260.6899 627.5625,257.8149 Q627.5625,254.7837 629.125,253.1118 Q630.6875,251.4243 633.25,251.4243 Q635.4844,251.4243 636.875,252.7368 Q637.7031,253.5181 638.125,254.9868 L635.6875,255.5649 Q635.4688,254.6118 634.7813,254.0649 Q634.1094,253.5181 633.125,253.5181 Q631.7656,253.5181 630.9219,254.5024 Q630.0938,255.4712 630.0938,257.6431 Q630.0938,259.9399 630.9219,260.9243 Q631.75,261.9087 633.0781,261.9087 Q634.0625,261.9087 634.7656,261.2837 Q635.4688,260.6587 635.7656,259.3306 Z " fill="#000000"/><text fill="#000000" font-family="Verdana" font-size="12" font-style="italic" lengthAdjust="spacing" textLength="82.5059" x="650.7065" y="254.0645">&#171;component&#187;</text><text fill="#000000" font-family="Verdana" font-size="14" lengthAdjust="spacing" textLength="93.9189" x="645" y="270.6592">StaffFormList</text><line style="stroke:#000000;stroke-width:1;" x1="621" x2="740.9189" y1="278.5986" y2="278.5986"/><line style="stroke:#000000;stroke-width:1;" x1="621" x2="740.9189" y1="286.5986" y2="286.5986"/></g><!--link StaffFormCreate to EmployeesStore--><g class="link" data-entity-1="StaffFormCreate" data-entity-2="EmployeesStore" data-source-line="93" data-uid="lnk23" id="link_StaffFormCreate_EmployeesStore"><path codeLine="93" d="M183.91,295.24 C221.57,324.85 278.6239,369.7108 337.5439,416.0508" fill="none" id="StaffFormCreate-to-EmployeesStore" style="stroke:#000000;stroke-width:1;"/><polygon fill="#000000" points="342.26,419.76,337.6586,411.0521,338.3299,416.669,332.713,417.3403,342.26,419.76" style="stroke:#000000;stroke-width:1;"/><text fill="#000000" font-family="Verdana" font-size="13" lengthAdjust="spacing" textLength="29.5166" x="272" y="365.0698">uses</text></g><!--link StaffFormEdit to EmployeesStore--><g class="link" data-entity-1="StaffFormEdit" data-entity-2="EmployeesStore" data-source-line="94" data-uid="lnk24" id="link_StaffFormEdit_EmployeesStore"><path codeLine="94" d="M501.69,295.24 C501.37,324.85 500.9047,367.4203 500.4047,413.7603" fill="none" id="StaffFormEdit-to-EmployeesStore" style="stroke:#000000;stroke-width:1;"/><polygon fill="#000000" points="500.34,419.76,504.4369,410.8037,500.3939,414.7603,496.4373,410.7174,500.34,419.76" style="stroke:#000000;stroke-width:1;"/><text fill="#000000" font-family="Verdana" font-size="13" lengthAdjust="spacing" textLength="29.5166" x="502" y="365.0698">uses</text></g><!--link StaffFormList to EmployeesStore--><g class="link" data-entity-1="StaffFormList" data-entity-2="EmployeesStore" data-source-line="95" data-uid="lnk25" id="link_StaffFormList_EmployeesStore"><path codeLine="95" d="M662.38,295.24 C642.85,324.85 614.1225,368.4106 583.5725,414.7506" fill="none" id="StaffFormList-to-EmployeesStore" style="stroke:#000000;stroke-width:1;"/><polygon fill="#000000" points="580.27,419.76,588.5633,414.4476,583.0221,415.5855,581.8841,410.0443,580.27,419.76" style="stroke:#000000;stroke-width:1;"/><text fill="#000000" font-family="Verdana" font-size="13" lengthAdjust="spacing" textLength="29.5166" x="623" y="365.0698">uses</text></g><!--link StaffDetail to EmployeesStore--><g class="link" data-entity-1="StaffDetail" data-entity-2="EmployeesStore" data-source-line="96" data-uid="lnk26" id="link_StaffDetail_EmployeesStore"><path codeLine="96" d="M347.29,295.24 C365.42,324.85 392.0272,368.3028 420.3972,414.6428" fill="none" id="StaffDetail-to-EmployeesStore" style="stroke:#000000;stroke-width:1;"/><polygon fill="#000000" points="423.53,419.76,422.2422,409.9957,420.9193,415.4957,415.4193,414.1728,423.53,419.76" style="stroke:#000000;stroke-width:1;"/><text fill="#000000" font-family="Verdana" font-size="13" lengthAdjust="spacing" textLength="29.5166" x="390" y="365.0698">uses</text></g><!--link StaffFormCreate to Staff--><g class="link" data-entity-1="StaffFormCreate" data-entity-2="Staff" data-source-line="97" data-uid="lnk27" id="link_StaffFormCreate_Staff"><path codeLine="97" d="M148,295.21 C148,345.16 148,452.44 148,543 C148,543 148,543 148,1136 C148,1197.52 163.5097,1258.3993 181.6997,1311.0193" fill="none" id="StaffFormCreate-to-Staff" style="stroke:#000000;stroke-width:1;"/><polygon fill="#000000" points="183.66,1316.69,184.5,1306.877,182.0264,1311.9644,176.9391,1309.4908,183.66,1316.69" style="stroke:#000000;stroke-width:1;"/><text fill="#000000" font-family="Verdana" font-size="13" lengthAdjust="spacing" textLength="47.5122" x="149" y="942.0698">creates</text></g><!--link StaffFormEdit to Staff--><g class="link" data-entity-1="StaffFormEdit" data-entity-2="Staff" data-source-line="98" data-uid="lnk28" id="link_StaffFormEdit_Staff"><path codeLine="98" d="M468.38,295.01 C449.09,310.3 424.01,328.94 400,343 C368.93,361.2 347.7,347.26 326,376 C215.4,522.48 215.8479,1081.6815 220.8979,1310.9915" fill="none" id="StaffFormEdit-to-Staff" style="stroke:#000000;stroke-width:1;"/><polygon fill="#000000" points="221.03,1316.99,224.8309,1307.9041,220.9199,1311.9912,216.8328,1308.0803,221.03,1316.99" style="stroke:#000000;stroke-width:1;"/><text fill="#000000" font-family="Verdana" font-size="13" lengthAdjust="spacing" textLength="47.5122" x="224" y="942.0698">creates</text></g><!--link EmployeeRouters to StaffFormCreate--><g class="link" data-entity-1="EmployeeRouters" data-entity-2="StaffFormCreate" data-source-line="102" data-uid="lnk29" id="link_EmployeeRouters_StaffFormCreate"><path codeLine="102" d="M357.17,138.05 C336.52,146.6 313.35,156.98 293,168 C255.05,188.55 219.2917,212.7776 190.7217,233.3176" fill="none" id="EmployeeRouters-to-StaffFormCreate" style="stroke:#000000;stroke-width:1;stroke-dasharray:7,7;"/><polygon fill="#000000" points="185.85,236.82,195.4924,234.8142,189.9097,233.9013,190.8226,228.3186,185.85,236.82" style="stroke:#000000;stroke-width:1;"/><text fill="#000000" font-family="Verdana" font-size="13" lengthAdjust="spacing" textLength="64.6064" x="294" y="182.0698">lazy loads</text></g><!--link EmployeeRouters to StaffFormList--><g class="link" data-entity-1="EmployeeRouters" data-entity-2="StaffFormList" data-source-line="103" data-uid="lnk30" id="link_EmployeeRouters_StaffFormList"><path codeLine="103" d="M469.53,138.14 C502.38,152.28 544.56,171.88 580,193 C602.2,206.23 620.9625,219.3034 639.7525,233.2534" fill="none" id="EmployeeRouters-to-StaffFormList" style="stroke:#000000;stroke-width:1;stroke-dasharray:7,7;"/><polygon fill="#000000" points="644.57,236.83,639.7282,228.2535,640.5554,233.8495,634.9594,234.6768,644.57,236.83" style="stroke:#000000;stroke-width:1;"/><text fill="#000000" font-family="Verdana" font-size="13" lengthAdjust="spacing" textLength="64.6064" x="563" y="182.0698">lazy loads</text></g><!--link EmployeeRouters to StaffFormEdit--><g class="link" data-entity-1="EmployeeRouters" data-entity-2="StaffFormEdit" data-source-line="104" data-uid="lnk31" id="link_EmployeeRouters_StaffFormEdit"><path codeLine="104" d="M428.34,138.23 C433.84,147.42 440.26,158.21 446,168 C459.58,191.15 471.8022,212.3168 482.9422,231.7168" fill="none" id="EmployeeRouters-to-StaffFormEdit" style="stroke:#000000;stroke-width:1;stroke-dasharray:7,7;"/><polygon fill="#000000" points="485.93,236.92,484.9171,227.1234,483.4402,232.584,477.9795,231.1071,485.93,236.92" style="stroke:#000000;stroke-width:1;"/><text fill="#000000" font-family="Verdana" font-size="13" lengthAdjust="spacing" textLength="64.6064" x="456" y="182.0698">lazy loads</text></g><!--link EmployeeRouters to StaffDetail--><g class="link" data-entity-1="EmployeeRouters" data-entity-2="StaffDetail" data-source-line="105" data-uid="lnk32" id="link_EmployeeRouters_StaffDetail"><path codeLine="105" d="M396.89,138.09 C389.93,147.08 382.18,157.76 376,168 C362.61,190.18 352.5827,211.3634 344.0327,231.1234" fill="none" id="EmployeeRouters-to-StaffDetail" style="stroke:#000000;stroke-width:1;stroke-dasharray:7,7;"/><polygon fill="#000000" points="341.65,236.63,348.8951,229.9585,343.6356,232.0411,341.5529,226.7816,341.65,236.63" style="stroke:#000000;stroke-width:1;"/><text fill="#000000" font-family="Verdana" font-size="13" lengthAdjust="spacing" textLength="64.6064" x="377" y="182.0698">lazy loads</text></g><!--link EmployeesStore to EmployeesApi--><g class="link" data-entity-1="EmployeesStore" data-entity-2="EmployeesApi" data-source-line="109" data-uid="lnk33" id="link_EmployeesStore_EmployeesApi"><path codeLine="109" d="M558.55,668.18 C575.35,702.93 590.3398,733.9075 604.6798,763.5875" fill="none" id="EmployeesStore-to-EmployeesApi" style="stroke:#000000;stroke-width:1;"/><polygon fill="#000000" points="607.29,768.99,606.9763,759.1461,605.1148,764.4879,599.773,762.6264,607.29,768.99" style="stroke:#000000;stroke-width:1;"/><text fill="#000000" font-family="Verdana" font-size="13" lengthAdjust="spacing" textLength="29.5166" x="581" y="714.0698">uses</text></g><!--link EmployeesStore to Staff--><g class="link" data-entity-1="EmployeesStore" data-entity-2="Staff" data-source-line="110" data-uid="lnk34" id="link_EmployeesStore_Staff"><path codeLine="110" d="M370.68,668.09 C334.6,715.25 305,772.29 305,832.5 C305,832.5 305,832.5 305,1136 C305,1197.81 288.457,1258.751 269.067,1311.301" fill="none" id="EmployeesStore-to-Staff" style="stroke:#000000;stroke-width:1;stroke-dasharray:7,7;"/><polygon fill="#000000" points="266.99,1316.93,273.8582,1309.8711,268.7208,1312.2391,266.3528,1307.1018,266.99,1316.93" style="stroke:#000000;stroke-width:1;"/><text fill="#000000" font-family="Verdana" font-size="13" lengthAdjust="spacing" textLength="113.2739" x="306" y="1002.5698">manages state of</text></g><!--link EmployeesApi to StaffApiEndpoint--><g class="link" data-entity-1="EmployeesApi" data-entity-2="StaffApiEndpoint" data-source-line="114" data-uid="lnk35" id="link_EmployeesApi_StaffApiEndpoint"><path codeLine="114" d="M637.6,898.33 C637.44,925.48 637.287,949.3101 637.167,968.7701" fill="none" id="EmployeesApi-to-StaffApiEndpoint" style="stroke:#000000;stroke-width:1;"/><polygon fill="#000000" points="637.13,974.77,641.1854,965.7948,637.1608,969.7701,633.1856,965.7455,637.13,974.77" style="stroke:#000000;stroke-width:1;"/><text fill="#000000" font-family="Verdana" font-size="13" lengthAdjust="spacing" textLength="80.2852" x="638" y="942.0698">delegates to</text></g><!--link StaffApiEndpoint to StaffAssembler--><g class="link" data-entity-1="StaffApiEndpoint" data-entity-2="StaffAssembler" data-source-line="115" data-uid="lnk36" id="link_StaffApiEndpoint_StaffAssembler"><path codeLine="115" d="M636.84,1019.25 C636.69,1039.72 636.5035,1065.1402 636.3235,1089.9402" fill="none" id="StaffApiEndpoint-to-StaffAssembler" style="stroke:#000000;stroke-width:1;stroke-dasharray:7,7;"/><polygon fill="#000000" points="636.28,1095.94,640.3452,1086.9693,636.3163,1090.9401,632.3454,1086.9112,636.28,1095.94" style="stroke:#000000;stroke-width:1;"/><text fill="#000000" font-family="Verdana" font-size="13" lengthAdjust="spacing" textLength="29.5166" x="637" y="1063.0698">uses</text></g><!--link StaffAssembler to Staff--><g class="link" data-entity-1="StaffAssembler" data-entity-2="Staff" data-source-line="118" data-uid="lnk37" id="link_StaffAssembler_Staff"><path codeLine="118" d="M539.97,1174.02 C506.01,1189.16 468.25,1208.01 436,1229 C396.96,1254.41 362.0941,1282.6022 328.0841,1312.9922" fill="none" id="StaffAssembler-to-Staff" style="stroke:#000000;stroke-width:1;"/><polygon fill="#000000" points="323.61,1316.99,332.9863,1313.9759,327.3384,1313.6585,327.6559,1308.0105,323.61,1316.99" style="stroke:#000000;stroke-width:1;"/><text fill="#000000" font-family="Verdana" font-size="13" lengthAdjust="spacing" textLength="47.5122" x="478" y="1218.0698">creates</text></g><!--link StaffAssembler to StaffResource--><g class="link" data-entity-1="StaffAssembler" data-entity-2="StaffResource" data-source-line="119" data-uid="lnk38" id="link_StaffAssembler_StaffResource"><path codeLine="119" d="M636,1174.14 C636,1217.34 636,1282.72 636,1336.49" fill="none" id="StaffAssembler-to-StaffResource" style="stroke:#000000;stroke-width:1;stroke-dasharray:7,7;"/><polygon fill="#000000" points="636,1342.49,640,1333.49,636,1337.49,632,1333.49,636,1342.49" style="stroke:#000000;stroke-width:1;"/><text fill="#000000" font-family="Verdana" font-size="13" lengthAdjust="spacing" textLength="70.9033" x="637" y="1218.0698">transforms</text></g><!--SRC=[hLRDRkCs4BxhAQRf8J8C6pqKUp020sbY0m6ss4NSMr4Kj3Xss52aG58fl6qUgES-mhvOXnH5IxBipIvwaStv_UQR4KVVkISi4Ih9XChiir0LCwo4GZ9hRvqpObixV2YqseXF23zqJ2fMFBCzRjn18XWi75DxYLaMvN25PINr0T7EkIuf_BpK7EKLVB_-SVrk_Gx-og390nl7Thjm1fZ1xu8lGDNb5aqhKQp41LY2e_QjZ3pTc9mhCHHLshgXx4zjdZTFOdUYS8SAF-pkj7A65IVQhJ3kwPuvIkkVGNmDy_aS3g39mq9bT2MGCuusEXLC5hKawzizveC0aqwfhzdhA7siggGec1DQZR6tQWqtJXiyqcWzgnknLqmkeFcz2Kp_-jioaQWPf-e6Lbkj9JALhD0ORGOs3Ir_grhArgu5SbjH1n8gEWNz508WEuvb2X7AE8Wf10pdiqzXZov4_EdmmFFZ24tw-Lfhndauvm7KeXd1ILJM5QVMdDVJ66EhxsJg5DBe9XUQAjIEfiMPkd2rmOjz9GO7NLqfNccXNCH51gqaOYWCKWLjXDos1IpWmzQYUM5RYNr2cfg_nkC-i90yUfHtV5wqu9qUfQhoaT3DDBpsBuPETP66Q_ZvypzESstX2Or_r-WVHwWL2uu8MtgCHB8MIqfcOfmfEBrIJhZ3skZo4QskJO6vmRRwLZI9v-JLAhnV4o77r8x9m3i28VneTgp0lZPY6Lnw9pVRw7KtlEjEBhhERTEHNhgmpirhHQnGYIEtaDx-GRT_6jT7JHl3s5YMyIUYCqYR-FH8ySCqppWw9cWpD2xTZjq73TpS5Bgij280osLh5WhvU0HF1PNjMFWL1I_Kw5g1hm5fH1glrzYD0OITDkMiUMl6SAn9VHUqtuW59VWKj0QCq7vMVQv2VFvNVHaMSk7EWLgHxl-2H7b648r2aiAUXVIUTDy8oOTb9dNCTf7Gu5p3R3Q3HvJ478Ms_kYbTwnYle2FSKP35P2_fx091LdNbYbVjVLxSf8D6pkRBOUxT05NjKLxbVNvVfDbeE6Bbd70tnInWxFvOYAJPcH74PxQUAvMojIEbO8eqTdmdPtFboVpJW4a-tG8QurYN7G9DN-DGm3xLeV8rS2yEm2tuKEf6U81dJs6_KPD_0uCKpflKJ95es_zfmjHeNVzT0z-XsExn5dMYvzQqDrV5D9_FEnzFsYDnBPrBLBwux9AI2brabh8Vp6CKsO2RUCq7tqk3CdHAELAkuYCQISewrzoilyF]--></g></svg>