<svg xmlns="http://www.w3.org/2000/svg" xmlns:xlink="http://www.w3.org/1999/xlink" contentStyleType="text/css" data-diagram-type="CLASS" height="1816px" preserveAspectRatio="none" style="width:1438px;height:1816px;background:#FFFFFF;" version="1.1" viewBox="0 0 1438 1816" width="1438px" zoomAndPan="magnify"><defs/><g><!--cluster iam--><g class="cluster" data-entity="iam" data-source-line="6" data-uid="ent0004" id="cluster_iam"><rect fill="#FFFFFF" height="1798" rx="2.5" ry="2.5" style="stroke:#000000;stroke-width:1;" width="1420" x="12" y="12"/><text fill="#000000" font-family="Verdana" font-size="14" font-weight="bold" lengthAdjust="spacing" textLength="28.9502" x="707.5249" y="28.0752">iam</text></g><!--cluster domain--><g class="cluster" data-entity="domain" data-source-line="6" data-uid="ent0005" id="cluster_domain"><rect fill="#FFFFFF" height="266" rx="2.5" ry="2.5" style="stroke:#000000;stroke-width:1;" width="486" x="922" y="1520"/><text fill="#000000" font-family="Verdana" font-size="14" font-weight="bold" lengthAdjust="spacing" textLength="58.3242" x="1135.8379" y="1536.0752">domain</text></g><!--cluster model--><g class="cluster" data-entity="model" data-source-line="5" data-uid="ent0002" id="cluster_model"><rect fill="#F4F6F6" height="198" rx="2.5" ry="2.5" style="stroke:#000000;stroke-width:1;" width="438" x="946" y="1564"/><text fill="#000000" font-family="Verdana" font-size="14" font-weight="bold" lengthAdjust="spacing" textLength="48.2959" x="1140.8521" y="1580.0752">model</text></g><!--cluster application--><g class="cluster" data-entity="application" data-source-line="21" data-uid="ent0007" id="cluster_application"><rect fill="#F4F6F6" height="249" rx="2.5" ry="2.5" style="stroke:#000000;stroke-width:1;" width="286" x="859" y="701"/><text fill="#000000" font-family="Verdana" font-size="14" font-weight="bold" lengthAdjust="spacing" textLength="86.8369" x="958.5815" y="717.0752">application</text></g><!--cluster infrastructure--><g class="cluster" data-entity="infrastructure" data-source-line="35" data-uid="ent0009" id="cluster_infrastructure"><rect fill="#F4F6F6" height="763" rx="2.5" ry="2.5" style="stroke:#000000;stroke-width:1;" width="862" x="36" y="999"/><text fill="#000000" font-family="Verdana" font-size="14" font-weight="bold" lengthAdjust="spacing" textLength="109.4434" x="412.2783" y="1015.0752">infrastructure</text></g><!--cluster presentation--><g class="cluster" data-entity="presentation" data-source-line="73" data-uid="ent0017" id="cluster_presentation"><rect fill="#F4F6F6" height="596" rx="2.5" ry="2.5" style="stroke:#000000;stroke-width:1;" width="523" x="885" y="56"/><text fill="#000000" font-family="Verdana" font-size="14" font-weight="bold" lengthAdjust="spacing" textLength="100.0986" x="1096.4507" y="72.0752">presentation</text></g><!--cluster components--><g class="cluster" data-entity="components" data-source-line="78" data-uid="ent0019" id="cluster_components"><rect fill="#FFFFFF" height="161" rx="2.5" ry="2.5" style="stroke:#000000;stroke-width:1;" width="214" x="988" y="100"/><text fill="#000000" font-family="Verdana" font-size="14" font-weight="bold" lengthAdjust="spacing" textLength="95.9902" x="1047.0049" y="116.0752">components</text></g><!--cluster views--><g class="cluster" data-entity="views" data-source-line="85" data-uid="ent0021" id="cluster_views"><rect fill="#FFFFFF" height="195" rx="2.5" ry="2.5" style="stroke:#000000;stroke-width:1;" width="475" x="909" y="433"/><text fill="#000000" font-family="Verdana" font-size="14" font-weight="bold" lengthAdjust="spacing" textLength="45.1992" x="1123.9004" y="449.0752">views</text></g><!--class SignIn--><g class="entity" data-entity="SignIn" data-source-line="6" data-uid="ent0003" id="entity_SignIn"><rect fill="#FFFFFF" height="95.0439" rx="2.5" ry="2.5" style="stroke:#000000;stroke-width:1;" width="145.1162" x="962.5" y="1625.5"/><ellipse cx="1008.4351" cy="1639.5" fill="#FFFFFF" rx="9" ry="9" style="stroke:#000000;stroke-width:1;"/><path d="M1011.2007,1641.0313 L1013.5913,1641.7813 Q1013.0444,1643.7656 1011.7632,1644.7344 Q1010.4976,1645.7031 1008.5288,1645.7031 Q1006.1069,1645.7031 1004.5444,1644.0469 Q1002.9976,1642.3906 1002.9976,1639.5156 Q1002.9976,1636.4844 1004.5601,1634.8125 Q1006.1226,1633.125 1008.6851,1633.125 Q1010.9194,1633.125 1012.3101,1634.4375 Q1013.1382,1635.2188 1013.5601,1636.6875 L1011.1226,1637.2656 Q1010.9038,1636.3125 1010.2163,1635.7656 Q1009.5444,1635.2188 1008.5601,1635.2188 Q1007.2007,1635.2188 1006.3569,1636.2031 Q1005.5288,1637.1719 1005.5288,1639.3438 Q1005.5288,1641.6406 1006.3569,1642.625 Q1007.1851,1643.6094 1008.5132,1643.6094 Q1009.4976,1643.6094 1010.2007,1642.9844 Q1010.9038,1642.3594 1011.2007,1641.0313 Z " fill="#000000"/><text fill="#000000" font-family="Verdana" font-size="14" lengthAdjust="spacing" textLength="45.7461" x="1025.9351" y="1645.0679">SignIn</text><line style="stroke:#000000;stroke-width:1;" x1="963.5" x2="1106.6162" y1="1653.5" y2="1653.5"/><text fill="#000000" font-family="Verdana" font-size="14" lengthAdjust="spacing" textLength="93.4746" x="968.5" y="1671.5752">-_id: number</text><text fill="#000000" font-family="Verdana" font-size="14" lengthAdjust="spacing" textLength="104.7949" x="968.5" y="1688.5898">-_email: string</text><text fill="#000000" font-family="Verdana" font-size="14" lengthAdjust="spacing" textLength="133.1162" x="968.5" y="1705.6045">-_password: string</text><line style="stroke:#000000;stroke-width:1;" x1="963.5" x2="1106.6162" y1="1712.5439" y2="1712.5439"/></g><!--class SignUp--><g class="entity" data-entity="SignUp" data-source-line="11" data-uid="ent0006" id="entity_SignUp"><rect fill="#FFFFFF" height="146.0879" rx="2.5" ry="2.5" style="stroke:#000000;stroke-width:1;" width="225.4795" x="1142.5" y="1600"/><ellipse cx="1226.5078" cy="1614" fill="#FFFFFF" rx="9" ry="9" style="stroke:#000000;stroke-width:1;"/><path d="M1229.2734,1615.5313 L1231.6641,1616.2813 Q1231.1172,1618.2656 1229.8359,1619.2344 Q1228.5703,1620.2031 1226.6016,1620.2031 Q1224.1797,1620.2031 1222.6172,1618.5469 Q1221.0703,1616.8906 1221.0703,1614.0156 Q1221.0703,1610.9844 1222.6328,1609.3125 Q1224.1953,1607.625 1226.7578,1607.625 Q1228.9922,1607.625 1230.3828,1608.9375 Q1231.2109,1609.7188 1231.6328,1611.1875 L1229.1953,1611.7656 Q1228.9766,1610.8125 1228.2891,1610.2656 Q1227.6172,1609.7188 1226.6328,1609.7188 Q1225.2734,1609.7188 1224.4297,1610.7031 Q1223.6016,1611.6719 1223.6016,1613.8438 Q1223.6016,1616.1406 1224.4297,1617.125 Q1225.2578,1618.1094 1226.5859,1618.1094 Q1227.5703,1618.1094 1228.2734,1617.4844 Q1228.9766,1616.8594 1229.2734,1615.5313 Z " fill="#000000"/><text fill="#000000" font-family="Verdana" font-size="14" lengthAdjust="spacing" textLength="49.9639" x="1244.0078" y="1619.5679">SignUp</text><line style="stroke:#000000;stroke-width:1;" x1="1143.5" x2="1366.9795" y1="1628" y2="1628"/><text fill="#000000" font-family="Verdana" font-size="14" lengthAdjust="spacing" textLength="93.4746" x="1148.5" y="1646.0752">-_id: number</text><text fill="#000000" font-family="Verdana" font-size="14" lengthAdjust="spacing" textLength="135.1328" x="1148.5" y="1663.0898">-_firstName: string</text><text fill="#000000" font-family="Verdana" font-size="14" lengthAdjust="spacing" textLength="132.6445" x="1148.5" y="1680.1045">-_lastName: string</text><text fill="#000000" font-family="Verdana" font-size="14" lengthAdjust="spacing" textLength="104.7949" x="1148.5" y="1697.1191">-_email: string</text><text fill="#000000" font-family="Verdana" font-size="14" lengthAdjust="spacing" textLength="133.1162" x="1148.5" y="1714.1338">-_password: string</text><text fill="#000000" font-family="Verdana" font-size="14" lengthAdjust="spacing" textLength="213.4795" x="1148.5" y="1731.1484">-_rol: 'administrator' | 'family'</text><line style="stroke:#000000;stroke-width:1;" x1="1143.5" x2="1366.9795" y1="1738.0879" y2="1738.0879"/></g><!--class IamStore--><g class="entity" data-entity="IamStore" data-source-line="22" data-uid="ent0008" id="entity_IamStore"><rect fill="#FFFFFF" height="197.1318" rx="2.5" ry="2.5" style="stroke:#000000;stroke-width:1;" width="253.999" x="875" y="737"/><ellipse cx="965.3413" cy="751" fill="#FFFFFF" rx="9" ry="9" style="stroke:#000000;stroke-width:1;"/><path d="M968.1069,752.5313 L970.4976,753.2813 Q969.9507,755.2656 968.6694,756.2344 Q967.4038,757.2031 965.4351,757.2031 Q963.0132,757.2031 961.4507,755.5469 Q959.9038,753.8906 959.9038,751.0156 Q959.9038,747.9844 961.4663,746.3125 Q963.0288,744.625 965.5913,744.625 Q967.8257,744.625 969.2163,745.9375 Q970.0444,746.7188 970.4663,748.1875 L968.0288,748.7656 Q967.8101,747.8125 967.1226,747.2656 Q966.4507,746.7188 965.4663,746.7188 Q964.1069,746.7188 963.2632,747.7031 Q962.4351,748.6719 962.4351,750.8438 Q962.4351,753.1406 963.2632,754.125 Q964.0913,755.1094 965.4194,755.1094 Q966.4038,755.1094 967.1069,754.4844 Q967.8101,753.8594 968.1069,752.5313 Z " fill="#000000"/><text fill="#000000" font-family="Verdana" font-size="14" lengthAdjust="spacing" textLength="65.8164" x="982.8413" y="756.5679">IamStore</text><line style="stroke:#000000;stroke-width:1;" x1="876" x2="1127.999" y1="765" y2="765"/><text fill="#000000" font-family="Verdana" font-size="14" lengthAdjust="spacing" textLength="225.1553" x="881" y="783.0752">-_signInSignal: Signal&lt;SignIn&gt;</text><text fill="#000000" font-family="Verdana" font-size="14" lengthAdjust="spacing" textLength="241.999" x="881" y="800.0898">-_loadingSignal: Signal&lt;boolean&gt;</text><text fill="#000000" font-family="Verdana" font-size="14" lengthAdjust="spacing" textLength="210.9092" x="881" y="817.1045">-_errorSignal: Signal&lt;string&gt;</text><text fill="#000000" font-family="Verdana" font-size="14" lengthAdjust="spacing" textLength="115.6914" x="881" y="834.1191">-iamApi: IamApi</text><text fill="#000000" font-family="Verdana" font-size="14" lengthAdjust="spacing" textLength="178.1104" x="881" y="851.1338">+signIn: Signal&lt;SignIn&gt;</text><text fill="#000000" font-family="Verdana" font-size="14" lengthAdjust="spacing" textLength="194.9541" x="881" y="868.1484">+loading: Signal&lt;boolean&gt;</text><text fill="#000000" font-family="Verdana" font-size="14" lengthAdjust="spacing" textLength="163.8643" x="881" y="885.1631">+error: Signal&lt;string&gt;</text><line style="stroke:#000000;stroke-width:1;" x1="876" x2="1127.999" y1="892.1025" y2="892.1025"/><text fill="#000000" font-family="Verdana" font-size="14" lengthAdjust="spacing" textLength="214.2861" x="881" y="910.1777">+createSignIn(signIn: SignIn)</text><text fill="#000000" font-family="Verdana" font-size="14" lengthAdjust="spacing" textLength="226.9395" x="881" y="927.1924">+createSignUp(signUp: SignUp)</text></g><!--class IamApi--><g class="entity" data-entity="IamApi" data-source-line="36" data-uid="ent0010" id="entity_IamApi"><rect fill="#FFFFFF" height="112.0586" rx="2.5" ry="2.5" style="stroke:#000000;stroke-width:1;" width="402.0449" x="480" y="1035"/><ellipse cx="652.2461" cy="1049" fill="#FFFFFF" rx="9" ry="9" style="stroke:#000000;stroke-width:1;"/><path d="M655.0117,1050.5313 L657.4023,1051.2813 Q656.8555,1053.2656 655.5742,1054.2344 Q654.3086,1055.2031 652.3398,1055.2031 Q649.918,1055.2031 648.3555,1053.5469 Q646.8086,1051.8906 646.8086,1049.0156 Q646.8086,1045.9844 648.3711,1044.3125 Q649.9336,1042.625 652.4961,1042.625 Q654.7305,1042.625 656.1211,1043.9375 Q656.9492,1044.7188 657.3711,1046.1875 L654.9336,1046.7656 Q654.7148,1045.8125 654.0273,1045.2656 Q653.3555,1044.7188 652.3711,1044.7188 Q651.0117,1044.7188 650.168,1045.7031 Q649.3398,1046.6719 649.3398,1048.8438 Q649.3398,1051.1406 650.168,1052.125 Q650.9961,1053.1094 652.3242,1053.1094 Q653.3086,1053.1094 654.0117,1052.4844 Q654.7148,1051.8594 655.0117,1050.5313 Z " fill="#000000"/><text fill="#000000" font-family="Verdana" font-size="14" lengthAdjust="spacing" textLength="50.0527" x="669.7461" y="1054.5679">IamApi</text><line style="stroke:#000000;stroke-width:1;" x1="481" x2="881.0449" y1="1063" y2="1063"/><text fill="#000000" font-family="Verdana" font-size="14" lengthAdjust="spacing" textLength="283.7666" x="486" y="1081.0752">-_signInApiEndpoint: SignInApiEndpoint</text><text fill="#000000" font-family="Verdana" font-size="14" lengthAdjust="spacing" textLength="292.2021" x="486" y="1098.0898">-_signUpApiEndpoint: SignUpApiEndpoint</text><line style="stroke:#000000;stroke-width:1;" x1="481" x2="881.0449" y1="1105.0293" y2="1105.0293"/><text fill="#000000" font-family="Verdana" font-size="14" lengthAdjust="spacing" textLength="373.1738" x="486" y="1123.1045">+createSignIn(signIn: SignIn): Observable&lt;SignIn&gt;</text><text fill="#000000" font-family="Verdana" font-size="14" lengthAdjust="spacing" textLength="390.0449" x="486" y="1140.1191">+createSignUp(signUp: SignUp): Observable&lt;SignUp&gt;</text></g><!--class SignInApiEndpoint--><g class="entity" data-entity="SignInApiEndpoint" data-source-line="42" data-uid="ent0011" id="entity_SignInApiEndpoint"><rect fill="#FFFFFF" height="78.0293" rx="2.5" ry="2.5" style="stroke:#000000;stroke-width:1;" width="329.3174" x="122.5" y="1224"/><ellipse cx="218.5322" cy="1238" fill="#FFFFFF" rx="9" ry="9" style="stroke:#000000;stroke-width:1;"/><path d="M221.2979,1239.5313 L223.6885,1240.2813 Q223.1416,1242.2656 221.8604,1243.2344 Q220.5947,1244.2031 218.626,1244.2031 Q216.2041,1244.2031 214.6416,1242.5469 Q213.0947,1240.8906 213.0947,1238.0156 Q213.0947,1234.9844 214.6572,1233.3125 Q216.2197,1231.625 218.7822,1231.625 Q221.0166,1231.625 222.4072,1232.9375 Q223.2354,1233.7188 223.6572,1235.1875 L221.2197,1235.7656 Q221.001,1234.8125 220.3135,1234.2656 Q219.6416,1233.7188 218.6572,1233.7188 Q217.2979,1233.7188 216.4541,1234.7031 Q215.626,1235.6719 215.626,1237.8438 Q215.626,1240.1406 216.4541,1241.125 Q217.2822,1242.1094 218.6104,1242.1094 Q219.5947,1242.1094 220.2979,1241.4844 Q221.001,1240.8594 221.2979,1239.5313 Z " fill="#000000"/><text fill="#000000" font-family="Verdana" font-size="14" lengthAdjust="spacing" textLength="129.7529" x="236.0322" y="1243.5679">SignInApiEndpoint</text><line style="stroke:#000000;stroke-width:1;" x1="123.5" x2="450.8174" y1="1252" y2="1252"/><text fill="#000000" font-family="Verdana" font-size="14" lengthAdjust="spacing" textLength="208.209" x="128.5" y="1270.0752">-assembler: SignInAssembler</text><line style="stroke:#000000;stroke-width:1;" x1="123.5" x2="450.8174" y1="1277.0146" y2="1277.0146"/><text fill="#000000" font-family="Verdana" font-size="14" lengthAdjust="spacing" textLength="317.3174" x="128.5" y="1295.0898">+login(signIn: SignIn): Observable&lt;SignIn&gt;</text></g><!--class SignUpApiEndpoint--><g class="entity" data-entity="SignUpApiEndpoint" data-source-line="46" data-uid="ent0012" id="entity_SignUpApiEndpoint"><rect fill="#FFFFFF" height="78.0293" rx="2.5" ry="2.5" style="stroke:#000000;stroke-width:1;" width="362.2119" x="500" y="1224"/><ellipse cx="610.3706" cy="1238" fill="#FFFFFF" rx="9" ry="9" style="stroke:#000000;stroke-width:1;"/><path d="M613.1362,1239.5313 L615.5269,1240.2813 Q614.98,1242.2656 613.6987,1243.2344 Q612.4331,1244.2031 610.4644,1244.2031 Q608.0425,1244.2031 606.48,1242.5469 Q604.9331,1240.8906 604.9331,1238.0156 Q604.9331,1234.9844 606.4956,1233.3125 Q608.0581,1231.625 610.6206,1231.625 Q612.855,1231.625 614.2456,1232.9375 Q615.0737,1233.7188 615.4956,1235.1875 L613.0581,1235.7656 Q612.8394,1234.8125 612.1519,1234.2656 Q611.48,1233.7188 610.4956,1233.7188 Q609.1362,1233.7188 608.2925,1234.7031 Q607.4644,1235.6719 607.4644,1237.8438 Q607.4644,1240.1406 608.2925,1241.125 Q609.1206,1242.1094 610.4487,1242.1094 Q611.4331,1242.1094 612.1362,1241.4844 Q612.8394,1240.8594 613.1362,1239.5313 Z " fill="#000000"/><text fill="#000000" font-family="Verdana" font-size="14" lengthAdjust="spacing" textLength="133.9707" x="627.8706" y="1243.5679">SignUpApiEndpoint</text><line style="stroke:#000000;stroke-width:1;" x1="501" x2="861.2119" y1="1252" y2="1252"/><text fill="#000000" font-family="Verdana" font-size="14" lengthAdjust="spacing" textLength="212.4268" x="506" y="1270.0752">-assembler: SignUpAssembler</text><line style="stroke:#000000;stroke-width:1;" x1="501" x2="861.2119" y1="1277.0146" y2="1277.0146"/><text fill="#000000" font-family="Verdana" font-size="14" lengthAdjust="spacing" textLength="350.2119" x="506" y="1295.0898">+register(signUp: SignUp): Observable&lt;SignUp&gt;</text></g><!--class SignInAssembler--><g class="entity" data-entity="SignInAssembler" data-source-line="50" data-uid="ent0013" id="entity_SignInAssembler"><rect fill="#FFFFFF" height="78.0293" rx="2.5" ry="2.5" style="stroke:#000000;stroke-width:1;" width="392.625" x="52.5" y="1379"/><ellipse cx="185.6924" cy="1393" fill="#FFFFFF" rx="9" ry="9" style="stroke:#000000;stroke-width:1;"/><path d="M188.458,1394.5313 L190.8486,1395.2813 Q190.3018,1397.2656 189.0205,1398.2344 Q187.7549,1399.2031 185.7861,1399.2031 Q183.3643,1399.2031 181.8018,1397.5469 Q180.2549,1395.8906 180.2549,1393.0156 Q180.2549,1389.9844 181.8174,1388.3125 Q183.3799,1386.625 185.9424,1386.625 Q188.1768,1386.625 189.5674,1387.9375 Q190.3955,1388.7188 190.8174,1390.1875 L188.3799,1390.7656 Q188.1611,1389.8125 187.4736,1389.2656 Q186.8018,1388.7188 185.8174,1388.7188 Q184.458,1388.7188 183.6143,1389.7031 Q182.7861,1390.6719 182.7861,1392.8438 Q182.7861,1395.1406 183.6143,1396.125 Q184.4424,1397.1094 185.7705,1397.1094 Q186.7549,1397.1094 187.458,1396.4844 Q188.1611,1395.8594 188.458,1394.5313 Z " fill="#000000"/><text fill="#000000" font-family="Verdana" font-size="14" lengthAdjust="spacing" textLength="118.7402" x="203.1924" y="1398.5679">SignInAssembler</text><line style="stroke:#000000;stroke-width:1;" x1="53.5" x2="444.125" y1="1407" y2="1407"/><line style="stroke:#000000;stroke-width:1;" x1="53.5" x2="444.125" y1="1415" y2="1415"/><text fill="#000000" font-family="Verdana" font-size="14" lengthAdjust="spacing" textLength="379.5176" x="58.5" y="1433.0752">+toEntityFromResource(res: SignInResource): SignIn</text><text fill="#000000" font-family="Verdana" font-size="14" lengthAdjust="spacing" textLength="380.625" x="58.5" y="1450.0898">+toResourceFromEntity(ent: SignIn): SignInResource</text></g><!--class SignUpAssembler--><g class="entity" data-entity="SignUpAssembler" data-source-line="54" data-uid="ent0014" id="entity_SignUpAssembler"><rect fill="#FFFFFF" height="78.0293" rx="2.5" ry="2.5" style="stroke:#000000;stroke-width:1;" width="401.0605" x="480.5" y="1379"/><ellipse cx="615.8013" cy="1393" fill="#FFFFFF" rx="9" ry="9" style="stroke:#000000;stroke-width:1;"/><path d="M618.5669,1394.5313 L620.9575,1395.2813 Q620.4106,1397.2656 619.1294,1398.2344 Q617.8638,1399.2031 615.895,1399.2031 Q613.4731,1399.2031 611.9106,1397.5469 Q610.3638,1395.8906 610.3638,1393.0156 Q610.3638,1389.9844 611.9263,1388.3125 Q613.4888,1386.625 616.0513,1386.625 Q618.2856,1386.625 619.6763,1387.9375 Q620.5044,1388.7188 620.9263,1390.1875 L618.4888,1390.7656 Q618.27,1389.8125 617.5825,1389.2656 Q616.9106,1388.7188 615.9263,1388.7188 Q614.5669,1388.7188 613.7231,1389.7031 Q612.895,1390.6719 612.895,1392.8438 Q612.895,1395.1406 613.7231,1396.125 Q614.5513,1397.1094 615.8794,1397.1094 Q616.8638,1397.1094 617.5669,1396.4844 Q618.27,1395.8594 618.5669,1394.5313 Z " fill="#000000"/><text fill="#000000" font-family="Verdana" font-size="14" lengthAdjust="spacing" textLength="122.958" x="633.3013" y="1398.5679">SignUpAssembler</text><line style="stroke:#000000;stroke-width:1;" x1="481.5" x2="880.5605" y1="1407" y2="1407"/><line style="stroke:#000000;stroke-width:1;" x1="481.5" x2="880.5605" y1="1415" y2="1415"/><text fill="#000000" font-family="Verdana" font-size="14" lengthAdjust="spacing" textLength="387.9531" x="486.5" y="1433.0752">+toEntityFromResource(res: SignUpResource): SignUp</text><text fill="#000000" font-family="Verdana" font-size="14" lengthAdjust="spacing" textLength="389.0605" x="486.5" y="1450.0898">+toResourceFromEntity(ent: SignUp): SignUpResource</text></g><!--class SignInResource--><g class="entity" data-entity="SignInResource" data-source-line="58" data-uid="ent0015" id="entity_SignInResource"><rect fill="#FFFFFF" height="95.0439" rx="2.5" ry="2.5" style="stroke:#000000;stroke-width:1;" width="138.0586" x="180" y="1625.5"/><ellipse cx="193" cy="1639.5" fill="#FFFFFF" rx="9" ry="9" style="stroke:#000000;stroke-width:1;"/><path d="M192.1563,1645.5 L192.1563,1633.3281 L194.625,1633.3281 L194.625,1645.5 L192.1563,1645.5 Z " fill="#000000"/><text fill="#000000" font-family="Verdana" font-size="14" font-style="italic" lengthAdjust="spacing" textLength="110.0586" x="205" y="1645.0679">SignInResource</text><line style="stroke:#000000;stroke-width:1;" x1="181" x2="317.0586" y1="1653.5" y2="1653.5"/><text fill="#000000" font-family="Verdana" font-size="14" lengthAdjust="spacing" textLength="78.2168" x="186" y="1671.5752">id: number</text><text fill="#000000" font-family="Verdana" font-size="14" lengthAdjust="spacing" textLength="89.5371" x="186" y="1688.5898">email: string</text><text fill="#000000" font-family="Verdana" font-size="14" lengthAdjust="spacing" textLength="117.8584" x="186" y="1705.6045">password: string</text><line style="stroke:#000000;stroke-width:1;" x1="181" x2="317.0586" y1="1712.5439" y2="1712.5439"/></g><!--class SignUpResource--><g class="entity" data-entity="SignUpResource" data-source-line="63" data-uid="ent0016" id="entity_SignUpResource"><rect fill="#FFFFFF" height="146.0879" rx="2.5" ry="2.5" style="stroke:#000000;stroke-width:1;" width="218.5615" x="571.5" y="1600"/><ellipse cx="619.8926" cy="1614" fill="#FFFFFF" rx="9" ry="9" style="stroke:#000000;stroke-width:1;"/><path d="M619.0488,1620 L619.0488,1607.8281 L621.5176,1607.8281 L621.5176,1620 L619.0488,1620 Z " fill="#000000"/><text fill="#000000" font-family="Verdana" font-size="14" font-style="italic" lengthAdjust="spacing" textLength="114.2764" x="637.3926" y="1619.5679">SignUpResource</text><line style="stroke:#000000;stroke-width:1;" x1="572.5" x2="789.0615" y1="1628" y2="1628"/><text fill="#000000" font-family="Verdana" font-size="14" lengthAdjust="spacing" textLength="78.2168" x="577.5" y="1646.0752">id: number</text><text fill="#000000" font-family="Verdana" font-size="14" lengthAdjust="spacing" textLength="119.875" x="577.5" y="1663.0898">firstName: string</text><text fill="#000000" font-family="Verdana" font-size="14" lengthAdjust="spacing" textLength="117.3867" x="577.5" y="1680.1045">lastName: string</text><text fill="#000000" font-family="Verdana" font-size="14" lengthAdjust="spacing" textLength="89.5371" x="577.5" y="1697.1191">email: string</text><text fill="#000000" font-family="Verdana" font-size="14" lengthAdjust="spacing" textLength="117.8584" x="577.5" y="1714.1338">password: string</text><text fill="#000000" font-family="Verdana" font-size="14" lengthAdjust="spacing" textLength="206.5615" x="577.5" y="1731.1484">role: 'administrator' | 'family'</text><line style="stroke:#000000;stroke-width:1;" x1="572.5" x2="789.0615" y1="1738.0879" y2="1738.0879"/></g><g class="entity" data-entity="IamRouters" data-source-line="74" data-uid="ent0018" id="entity_IamRouters"><rect fill="#FFFFFF" height="46.0293" rx="2.5" ry="2.5" style="stroke:#000000;stroke-width:1;" width="116.002" x="1037" y="324"/><text fill="#000000" font-family="Verdana" font-size="14" lengthAdjust="spacing" textLength="82.1338" x="1053.9341" y="340.0752">IamRouters</text><line style="stroke:#000000;stroke-width:1;" x1="1038" x2="1152.002" y1="345.0146" y2="345.0146"/><text fill="#000000" font-family="Verdana" font-size="14" lengthAdjust="spacing" textLength="104.002" x="1043" y="363.0898">routes: Routes</text></g><!--class AuthenticationSection--><g class="entity" data-entity="AuthenticationSection" data-source-line="79" data-uid="ent0020" id="entity_AuthenticationSection"><rect fill="#FFFFFF" height="108.6426" rx="2.5" ry="2.5" style="stroke:#000000;stroke-width:1;" width="181.6992" x="1004" y="136"/><ellipse cx="1017" cy="156.7993" fill="#FFFFFF" rx="9" ry="9" style="stroke:#000000;stroke-width:1;"/><path d="M1019.7656,158.3306 L1022.1563,159.0806 Q1021.6094,161.0649 1020.3281,162.0337 Q1019.0625,163.0024 1017.0938,163.0024 Q1014.6719,163.0024 1013.1094,161.3462 Q1011.5625,159.6899 1011.5625,156.8149 Q1011.5625,153.7837 1013.125,152.1118 Q1014.6875,150.4243 1017.25,150.4243 Q1019.4844,150.4243 1020.875,151.7368 Q1021.7031,152.5181 1022.125,153.9868 L1019.6875,154.5649 Q1019.4688,153.6118 1018.7813,153.0649 Q1018.1094,152.5181 1017.125,152.5181 Q1015.7656,152.5181 1014.9219,153.5024 Q1014.0938,154.4712 1014.0938,156.6431 Q1014.0938,158.9399 1014.9219,159.9243 Q1015.75,160.9087 1017.0781,160.9087 Q1018.0625,160.9087 1018.7656,160.2837 Q1019.4688,159.6587 1019.7656,158.3306 Z " fill="#000000"/><text fill="#000000" font-family="Verdana" font-size="12" font-style="italic" lengthAdjust="spacing" textLength="82.5059" x="1064.5967" y="153.0645">&#171;component&#187;</text><text fill="#000000" font-family="Verdana" font-size="14" lengthAdjust="spacing" textLength="153.6992" x="1029" y="169.6592">AuthenticationSection</text><line style="stroke:#000000;stroke-width:1;" x1="1005" x2="1184.6992" y1="177.5986" y2="177.5986"/><text fill="#000000" font-family="Verdana" font-size="14" lengthAdjust="spacing" textLength="107.7207" x="1010" y="195.6738">-router: Router</text><line style="stroke:#000000;stroke-width:1;" x1="1005" x2="1184.6992" y1="202.6133" y2="202.6133"/><text fill="#000000" font-family="Verdana" font-size="14" lengthAdjust="spacing" textLength="143.9033" x="1010" y="220.6885">+onRegisterAdmin()</text><text fill="#000000" font-family="Verdana" font-size="14" lengthAdjust="spacing" textLength="145.332" x="1010" y="237.7031">+onRegisterFamily()</text></g><!--class SignInComponent--><g class="entity" data-entity="SignInComponent" data-source-line="86" data-uid="ent0022" id="entity_SignInComponent"><rect fill="#FFFFFF" height="108.6426" rx="2.5" ry="2.5" style="stroke:#000000;stroke-width:1;" width="154.4307" x="925" y="486"/><ellipse cx="938" cy="506.7993" fill="#FFFFFF" rx="9" ry="9" style="stroke:#000000;stroke-width:1;"/><path d="M940.7656,508.3306 L943.1563,509.0806 Q942.6094,511.0649 941.3281,512.0337 Q940.0625,513.0024 938.0938,513.0024 Q935.6719,513.0024 934.1094,511.3462 Q932.5625,509.6899 932.5625,506.8149 Q932.5625,503.7837 934.125,502.1118 Q935.6875,500.4243 938.25,500.4243 Q940.4844,500.4243 941.875,501.7368 Q942.7031,502.5181 943.125,503.9868 L940.6875,504.5649 Q940.4688,503.6118 939.7813,503.0649 Q939.1094,502.5181 938.125,502.5181 Q936.7656,502.5181 935.9219,503.5024 Q935.0938,504.4712 935.0938,506.6431 Q935.0938,508.9399 935.9219,509.9243 Q936.75,510.9087 938.0781,510.9087 Q939.0625,510.9087 939.7656,510.2837 Q940.4688,509.6587 940.7656,508.3306 Z " fill="#000000"/><text fill="#000000" font-family="Verdana" font-size="12" font-style="italic" lengthAdjust="spacing" textLength="82.5059" x="971.9624" y="503.0645">&#171;component&#187;</text><text fill="#000000" font-family="Verdana" font-size="14" lengthAdjust="spacing" textLength="126.4307" x="950" y="519.6592">SignInComponent</text><line style="stroke:#000000;stroke-width:1;" x1="926" x2="1078.4307" y1="527.5986" y2="527.5986"/><text fill="#000000" font-family="Verdana" font-size="14" lengthAdjust="spacing" textLength="123.334" x="931" y="545.6738">form: FormGroup</text><text fill="#000000" font-family="Verdana" font-size="14" lengthAdjust="spacing" textLength="140.8613" x="931" y="562.6885">iamStore: IamStore</text><line style="stroke:#000000;stroke-width:1;" x1="926" x2="1078.4307" y1="569.6279" y2="569.6279"/><text fill="#000000" font-family="Verdana" font-size="14" lengthAdjust="spacing" textLength="91.6563" x="931" y="587.7031">+onSubmit()</text></g><!--class SignUpComponent--><g class="entity" data-entity="SignUpComponent" data-source-line="91" data-uid="ent0023" id="entity_SignUpComponent"><rect fill="#FFFFFF" height="142.6719" rx="2.5" ry="2.5" style="stroke:#000000;stroke-width:1;" width="252.7891" x="1114.5" y="469"/><ellipse cx="1171.8203" cy="489.7993" fill="#FFFFFF" rx="9" ry="9" style="stroke:#000000;stroke-width:1;"/><path d="M1174.5859,491.3306 L1176.9766,492.0806 Q1176.4297,494.0649 1175.1484,495.0337 Q1173.8828,496.0024 1171.9141,496.0024 Q1169.4922,496.0024 1167.9297,494.3462 Q1166.3828,492.6899 1166.3828,489.8149 Q1166.3828,486.7837 1167.9453,485.1118 Q1169.5078,483.4243 1172.0703,483.4243 Q1174.3047,483.4243 1175.6953,484.7368 Q1176.5234,485.5181 1176.9453,486.9868 L1174.5078,487.5649 Q1174.2891,486.6118 1173.6016,486.0649 Q1172.9297,485.5181 1171.9453,485.5181 Q1170.5859,485.5181 1169.7422,486.5024 Q1168.9141,487.4712 1168.9141,489.6431 Q1168.9141,491.9399 1169.7422,492.9243 Q1170.5703,493.9087 1171.8984,493.9087 Q1172.8828,493.9087 1173.5859,493.2837 Q1174.2891,492.6587 1174.5859,491.3306 Z " fill="#000000"/><text fill="#000000" font-family="Verdana" font-size="12" font-style="italic" lengthAdjust="spacing" textLength="82.5059" x="1213.3916" y="486.0645">&#171;component&#187;</text><text fill="#000000" font-family="Verdana" font-size="14" lengthAdjust="spacing" textLength="130.6484" x="1189.3203" y="502.6592">SignUpComponent</text><line style="stroke:#000000;stroke-width:1;" x1="1115.5" x2="1366.2891" y1="510.5986" y2="510.5986"/><text fill="#000000" font-family="Verdana" font-size="14" lengthAdjust="spacing" textLength="123.334" x="1120.5" y="528.6738">form: FormGroup</text><text fill="#000000" font-family="Verdana" font-size="14" lengthAdjust="spacing" textLength="140.8613" x="1120.5" y="545.6885">iamStore: IamStore</text><text fill="#000000" font-family="Verdana" font-size="14" lengthAdjust="spacing" textLength="240.7891" x="1120.5" y="562.7031">userRole: 'administrator' | 'family'</text><text fill="#000000" font-family="Verdana" font-size="14" lengthAdjust="spacing" textLength="161.2666" x="1120.5" y="579.7178">-route: ActivatedRoute</text><line style="stroke:#000000;stroke-width:1;" x1="1115.5" x2="1366.2891" y1="586.6572" y2="586.6572"/><text fill="#000000" font-family="Verdana" font-size="14" lengthAdjust="spacing" textLength="91.6563" x="1120.5" y="604.7324">+onSubmit()</text></g><!--link SignInComponent to IamStore--><g class="link" data-entity-1="SignInComponent" data-entity-2="IamStore" data-source-line="104" data-uid="lnk24" id="link_SignInComponent_IamStore"><path codeLine="104" d="M1002,595.24 C1002,634.81 1002,683.71 1002,730.94" fill="none" id="SignInComponent-to-IamStore" style="stroke:#000000;stroke-width:1;"/><polygon fill="#000000" points="1002,736.94,1006,727.94,1002,731.94,998,727.94,1002,736.94" style="stroke:#000000;stroke-width:1;"/><text fill="#000000" font-family="Verdana" font-size="13" lengthAdjust="spacing" textLength="29.5166" x="1003" y="682.0698">uses</text></g><!--link SignInComponent to SignIn--><g class="link" data-entity-1="SignInComponent" data-entity-2="SignIn" data-source-line="105" data-uid="lnk25" id="link_SignInComponent_SignIn"><path codeLine="105" d="M1039.62,595.09 C1055.97,616.5 1076.14,640.62 1097,660 C1115.97,677.62 1131.07,671.18 1145,693 C1266.55,883.35 1131.67,990.68 1230,1194 C1237.81,1210.15 1250.57,1207.25 1257,1224 C1269.42,1256.37 1266.42,1268.64 1257,1302 C1228.37,1403.38 1198.25,1421.3 1133,1504 C1129.89,1507.95 1128.04,1507.99 1125,1512 C1097.94,1547.68 1076.1572,1587.0254 1059.5872,1620.1054" fill="none" id="SignInComponent-to-SignIn" style="stroke:#000000;stroke-width:1;"/><polygon fill="#000000" points="1056.9,1625.47,1064.5072,1619.2145,1059.1393,1620.9995,1057.3543,1615.6316,1056.9,1625.47" style="stroke:#000000;stroke-width:1;"/><text fill="#000000" font-family="Verdana" font-size="13" lengthAdjust="spacing" textLength="47.5122" x="1231" y="1191.0698">creates</text></g><!--link SignUpComponent to IamStore--><g class="link" data-entity-1="SignUpComponent" data-entity-2="IamStore" data-source-line="106" data-uid="lnk26" id="link_SignUpComponent_IamStore"><path codeLine="106" d="M1183.45,612.05 C1152.92,649.48 1118.7323,691.3904 1085.4223,732.2304" fill="none" id="SignUpComponent-to-IamStore" style="stroke:#000000;stroke-width:1;"/><polygon fill="#000000" points="1081.63,736.88,1090.4182,732.4338,1084.7902,733.0054,1084.2187,727.3774,1081.63,736.88" style="stroke:#000000;stroke-width:1;"/><text fill="#000000" font-family="Verdana" font-size="13" lengthAdjust="spacing" textLength="29.5166" x="1136" y="682.0698">uses</text></g><!--link SignUpComponent to SignUp--><g class="link" data-entity-1="SignUpComponent" data-entity-2="SignUp" data-source-line="107" data-uid="lnk27" id="link_SignUpComponent_SignUp"><path codeLine="107" d="M1272.09,612.24 C1294.93,670.67 1322,756.39 1322,834.5 C1322,834.5 1322,834.5 1322,1419 C1322,1481.59 1304.6275,1544.433 1286.7075,1594.343" fill="none" id="SignUpComponent-to-SignUp" style="stroke:#000000;stroke-width:1;"/><polygon fill="#000000" points="1284.68,1599.99,1291.486,1592.8711,1286.3696,1595.2841,1283.9566,1590.1677,1284.68,1599.99" style="stroke:#000000;stroke-width:1;"/><text fill="#000000" font-family="Verdana" font-size="13" lengthAdjust="spacing" textLength="47.5122" x="1323" y="1191.0698">creates</text></g><!--link AuthenticationSection to IamRouters--><g class="link" data-entity-1="AuthenticationSection" data-entity-2="IamRouters" data-source-line="108" data-uid="lnk28" id="link_AuthenticationSection_IamRouters"><path codeLine="108" d="M1095,245.1 C1095,272.12 1095,297.41 1095,317.89" fill="none" id="AuthenticationSection-to-IamRouters" style="stroke:#000000;stroke-width:1;stroke-dasharray:7,7;"/><polygon fill="#000000" points="1095,323.89,1099,314.89,1095,318.89,1091,314.89,1095,323.89" style="stroke:#000000;stroke-width:1;"/><text fill="#000000" font-family="Verdana" font-size="13" lengthAdjust="spacing" textLength="192.0674" x="1096" y="291.0698">triggers navigation defined in</text></g><!--link IamRouters to SignInComponent--><g class="link" data-entity-1="IamRouters" data-entity-2="SignInComponent" data-source-line="111" data-uid="lnk29" id="link_IamRouters_SignInComponent"><path codeLine="111" d="M1084.15,370.34 C1070.49,398.46 1049.2119,442.2932 1030.6919,480.4132" fill="none" id="IamRouters-to-SignInComponent" style="stroke:#000000;stroke-width:1;stroke-dasharray:7,7;"/><polygon fill="#000000" points="1028.07,485.81,1035.6008,479.4628,1030.255,481.3127,1028.4051,475.9668,1028.07,485.81" style="stroke:#000000;stroke-width:1;"/><text fill="#000000" font-family="Verdana" font-size="13" lengthAdjust="spacing" textLength="64.6064" x="1068" y="414.0698">lazy loads</text></g><!--link IamRouters to SignUpComponent--><g class="link" data-entity-1="IamRouters" data-entity-2="SignUpComponent" data-source-line="112" data-uid="lnk30" id="link_IamRouters_SignUpComponent"><path codeLine="112" d="M1115.44,370.09 C1123.6,379.18 1132.96,389.92 1141,400 C1158.46,421.9 1173.1002,441.6421 1189.0402,464.0321" fill="none" id="IamRouters-to-SignUpComponent" style="stroke:#000000;stroke-width:1;stroke-dasharray:7,7;"/><polygon fill="#000000" points="1192.52,468.92,1190.5589,459.2684,1189.6202,464.8468,1184.0418,463.9081,1192.52,468.92" style="stroke:#000000;stroke-width:1;"/><text fill="#000000" font-family="Verdana" font-size="13" lengthAdjust="spacing" textLength="64.6064" x="1153" y="414.0698">lazy loads</text></g><!--link IamStore to IamApi--><g class="link" data-entity-1="IamStore" data-entity-2="IamApi" data-source-line="116" data-uid="lnk31" id="link_IamStore_IamApi"><path codeLine="116" d="M878.35,934.15 C835.08,968.32 792.7385,1001.7512 755.4385,1031.2112" fill="none" id="IamStore-to-IamApi" style="stroke:#000000;stroke-width:1;"/><polygon fill="#000000" points="750.73,1034.93,760.272,1032.4907,754.6538,1031.831,755.3135,1026.2127,750.73,1034.93" style="stroke:#000000;stroke-width:1;"/><text fill="#000000" font-family="Verdana" font-size="13" lengthAdjust="spacing" textLength="29.5166" x="832" y="980.0698">uses</text></g><!--link IamStore to SignIn--><g class="link" data-entity-1="IamStore" data-entity-2="SignIn" data-source-line="117" data-uid="lnk32" id="link_IamStore_SignIn"><path codeLine="117" d="M971.78,934.23 C959.88,980.91 949,1037.84 949,1090 C949,1090 949,1090 949,1419 C949,1494.15 980.715,1570.1645 1006.005,1619.7745" fill="none" id="IamStore-to-SignIn" style="stroke:#000000;stroke-width:1;stroke-dasharray:7,7;"/><polygon fill="#000000" points="1008.73,1625.12,1008.2062,1615.2851,1006.4592,1620.6654,1001.0788,1618.9184,1008.73,1625.12" style="stroke:#000000;stroke-width:1;"/><text fill="#000000" font-family="Verdana" font-size="13" lengthAdjust="spacing" textLength="113.2739" x="950" y="1268.5698">manages state of</text></g><!--link IamStore to SignUp--><g class="link" data-entity-1="IamStore" data-entity-2="SignUp" data-source-line="118" data-uid="lnk33" id="link_IamStore_SignUp"><path codeLine="118" d="M1080.31,934.14 C1108.73,978.96 1134,1034.43 1134,1090 C1134,1090 1134,1090 1134,1419 C1134,1484.73 1164.356,1546.475 1196.166,1594.905" fill="none" id="IamStore-to-SignUp" style="stroke:#000000;stroke-width:1;stroke-dasharray:7,7;"/><polygon fill="#000000" points="1199.46,1599.92,1197.8624,1590.2016,1196.715,1595.7409,1191.1758,1594.5935,1199.46,1599.92" style="stroke:#000000;stroke-width:1;"/><text fill="#000000" font-family="Verdana" font-size="13" lengthAdjust="spacing" textLength="113.2739" x="1135" y="1268.5698">manages state of</text></g><!--link IamApi to SignInApiEndpoint--><g class="link" data-entity-1="IamApi" data-entity-2="SignInApiEndpoint" data-source-line="122" data-uid="lnk34" id="link_IamApi_SignInApiEndpoint"><path codeLine="122" d="M553.35,1147.08 C495.14,1172.19 433.169,1198.9329 380.699,1221.5729" fill="none" id="IamApi-to-SignInApiEndpoint" style="stroke:#000000;stroke-width:1;"/><polygon fill="#000000" points="375.19,1223.95,385.0383,1224.0571,379.7809,1221.9691,381.8689,1216.7117,375.19,1223.95" style="stroke:#000000;stroke-width:1;"/><text fill="#000000" font-family="Verdana" font-size="13" lengthAdjust="spacing" textLength="80.2852" x="485" y="1191.0698">delegates to</text></g><!--link IamApi to SignUpApiEndpoint--><g class="link" data-entity-1="IamApi" data-entity-2="SignUpApiEndpoint" data-source-line="123" data-uid="lnk35" id="link_IamApi_SignUpApiEndpoint"><path codeLine="123" d="M681,1147.19 C681,1172.3 681,1195.39 681,1218" fill="none" id="IamApi-to-SignUpApiEndpoint" style="stroke:#000000;stroke-width:1;"/><polygon fill="#000000" points="681,1224,685,1215,681,1219,677,1215,681,1224" style="stroke:#000000;stroke-width:1;"/><text fill="#000000" font-family="Verdana" font-size="13" lengthAdjust="spacing" textLength="80.2852" x="682" y="1191.0698">delegates to</text></g><!--link SignInApiEndpoint to SignInAssembler--><g class="link" data-entity-1="SignInApiEndpoint" data-entity-2="SignInAssembler" data-source-line="124" data-uid="lnk36" id="link_SignInApiEndpoint_SignInAssembler"><path codeLine="124" d="M277.51,1302.21 C271.71,1325.58 265.7576,1349.5472 259.9476,1372.9172" fill="none" id="SignInApiEndpoint-to-SignInAssembler" style="stroke:#000000;stroke-width:1;"/><polygon fill="#000000" points="258.5,1378.74,264.5532,1370.9709,259.7063,1373.8877,256.7896,1369.0408,258.5,1378.74" style="stroke:#000000;stroke-width:1;"/><text fill="#000000" font-family="Verdana" font-size="13" lengthAdjust="spacing" textLength="29.5166" x="270" y="1346.0698">uses</text></g><!--link SignUpApiEndpoint to SignUpAssembler--><g class="link" data-entity-1="SignUpApiEndpoint" data-entity-2="SignUpAssembler" data-source-line="125" data-uid="lnk37" id="link_SignUpApiEndpoint_SignUpAssembler"><path codeLine="125" d="M681,1302.21 C681,1325.58 681,1349.37 681,1372.74" fill="none" id="SignUpApiEndpoint-to-SignUpAssembler" style="stroke:#000000;stroke-width:1;"/><polygon fill="#000000" points="681,1378.74,685,1369.74,681,1373.74,677,1369.74,681,1378.74" style="stroke:#000000;stroke-width:1;"/><text fill="#000000" font-family="Verdana" font-size="13" lengthAdjust="spacing" textLength="29.5166" x="682" y="1346.0698">uses</text></g><!--link SignInAssembler to SignIn--><g class="link" data-entity-1="SignInAssembler" data-entity-2="SignIn" data-source-line="128" data-uid="lnk38" id="link_SignInAssembler_SignIn"><path codeLine="128" d="M445.69,1454.51 C451.52,1455.38 457.3,1456.21 463,1457 C656.02,1483.81 729.04,1414.9 898,1512 C945.08,1539.06 980.3554,1583.5389 1004.4354,1620.3489" fill="none" id="SignInAssembler-to-SignIn" style="stroke:#000000;stroke-width:1;"/><polygon fill="#000000" points="1007.72,1625.37,1006.1404,1615.6486,1004.9828,1621.1858,999.4457,1620.0281,1007.72,1625.37" style="stroke:#000000;stroke-width:1;"/><text fill="#000000" font-family="Verdana" font-size="13" lengthAdjust="spacing" textLength="47.5122" x="879" y="1501.0698">creates</text></g><!--link SignInAssembler to SignInResource--><g class="link" data-entity-1="SignInAssembler" data-entity-2="SignInResource" data-source-line="129" data-uid="lnk39" id="link_SignInAssembler_SignInResource"><path codeLine="129" d="M249,1457.15 C249,1502.15 249,1570.95 249,1619.36" fill="none" id="SignInAssembler-to-SignInResource" style="stroke:#000000;stroke-width:1;stroke-dasharray:7,7;"/><polygon fill="#000000" points="249,1625.36,253,1616.36,249,1620.36,245,1616.36,249,1625.36" style="stroke:#000000;stroke-width:1;"/><text fill="#000000" font-family="Verdana" font-size="13" lengthAdjust="spacing" textLength="70.9033" x="250" y="1501.0698">transforms</text></g><!--link SignUpAssembler to SignUp--><g class="link" data-entity-1="SignUpAssembler" data-entity-2="SignUp" data-source-line="130" data-uid="lnk40" id="link_SignUpAssembler_SignUp"><path codeLine="130" d="M848.8,1457.05 C918.87,1472.44 1001.22,1489.86 1076,1504 C1097.68,1508.1 1105.91,1500.94 1125,1512 C1161.08,1532.9 1187.8205,1562.9898 1209.9805,1594.9398" fill="none" id="SignUpAssembler-to-SignUp" style="stroke:#000000;stroke-width:1;"/><polygon fill="#000000" points="1213.4,1599.87,1211.5575,1590.195,1210.5504,1595.7615,1204.9839,1594.7544,1213.4,1599.87" style="stroke:#000000;stroke-width:1;"/><text fill="#000000" font-family="Verdana" font-size="13" lengthAdjust="spacing" textLength="47.5122" x="1077" y="1501.0698">creates</text></g><!--link SignUpAssembler to SignUpResource--><g class="link" data-entity-1="SignUpAssembler" data-entity-2="SignUpResource" data-source-line="131" data-uid="lnk41" id="link_SignUpAssembler_SignUpResource"><path codeLine="131" d="M681,1457.15 C681,1494.84 681,1547.42 681,1593.9" fill="none" id="SignUpAssembler-to-SignUpResource" style="stroke:#000000;stroke-width:1;stroke-dasharray:7,7;"/><polygon fill="#000000" points="681,1599.9,685,1590.9,681,1594.9,677,1590.9,681,1599.9" style="stroke:#000000;stroke-width:1;"/><text fill="#000000" font-family="Verdana" font-size="13" lengthAdjust="spacing" textLength="70.9033" x="682" y="1501.0698">transforms</text></g><!--SRC=[hLR1Rjiu4BtxAwRkmJ4C1pqKFGY10MDHBmmKtKKCdmjQ6glSIYH1oYdSRlvzXnGbqHITEiLUwcRu-ERD6tAeDyrNh15KnRYOc6zSAAPP3Nd5Z5atZUQ7KuFRN8eT_u7mBe0ebdzZ9UwQSuMWCM-OA2kSJ7mSffpLzuMiYVY-bWLMKtYxUR_viFa0FoVGPe0TByLMk0304hxm8WDngW-ekmWIGPM18IcYx8AAzdwNkWZYpnUSU_KIvv5hqtncDSQyj3yPlrM4Ysj9q1ahQYuuhR16wXdy2xCZgtbrdZcjpv5FJAcAvwpXKgHish9wHpGu56MSSRPKHjdQtuVMpLLVZMG5wOf01oahP0CAjPOwmhG5TH0Ik5OyiohermKNq0f8fbw0pvpEkG2NCfbi0Rb6rc1BTnScsOhv2B9N3h9NcU_wFEak5qTDdTMdl3bfl68mbHRRIw6Feb2IYwRJ48H2x5wDi1UX6uhBuA-3GVt43XL6ThvKy6ZRNgr6r-52TrybhM9DstHVN1VesrZoMtN6z- -6X0IA4ceiwSgW_jqYEpgVSG6D_2WQtfmtMjQFQEH9vtYdqNJLTB5v5-ZtTIjsPyjnXyCncCS4AGTUgMQl8ZLxTPCQvyybWLT3tgC-iXmZiLvGD1Z7G-xAcBsa7RAcQTF3DZbfRr80G0CMNprX5VbCbYL6h3pyGw-N7G6FaXuxRNmTslv5lN5HuqWd03rfBcib1L6QgT_GDdzzeYULMjHEynrHqmyyFFJurShZxPLmIRHFedru0P9wrLw5jQtoRfvOsRXg_TApxqqlxudZzqXPUmZ-w7HSqNIKkivWG__-IUAKZtB_0cNzMnGesfqEDMy29PSNuN_EUA99yFZh8n3ucy6Qkl14CxHmFhyatPsS6IoNItZ4olNGVENAs8XT-3iuH_29dQbfiQ_BvMfuiJEOac0pJQByvmzXsX7lOQ5brybYbF_k2SdIP_7-VXMUTjf0TwiixVy5U-9bMrk1HowmeDi-jNLRjBs0mKRB4rT5P1NxSNPV02GWWGvbHsYRPpry2Nbx- -gz5VQXxete5mSnTh5cWcw1eQb1He0y9e2jLMEW5R6z-60OTDZKGz_29uwew1CNI-ixpUjfZBvy44VeCM6Gfdz7elQduE6pqyEjhLtKJ6BM5mvY21iCxkUzEpbC67k11rKZukXGnh2X8LU8_mC0]--></g></svg>