<svg xmlns="http://www.w3.org/2000/svg" xmlns:xlink="http://www.w3.org/1999/xlink" contentStyleType="text/css" data-diagram-type="CLASS" height="1108.8px" preserveAspectRatio="none" style="width:649px;height:1108px;background:#FFFFFF;" version="1.1" viewBox="0 0 649 1108" width="649.6px" zoomAndPan="magnify"><defs/><g><!--cluster resident--><g class="cluster" data-entity="resident" data-source-line="6" data-uid="ent0004" id="cluster_resident"><rect fill="#FFFFFF" height="1096.2" rx="1.75" ry="1.75" style="stroke:#000000;stroke-width:0.7;" width="637" x="8.4" y="8.4"/><text fill="#000000" font-family="Verdana" font-size="9.8" font-weight="bold" lengthAdjust="spacing" textLength="45.3489" x="304.2255" y="19.6526">resident</text></g><!--cluster domain--><g class="cluster" data-entity="domain" data-source-line="6" data-uid="ent0005" id="cluster_domain"><rect fill="#FFFFFF" height="221.9" rx="1.75" ry="1.75" style="stroke:#000000;stroke-width:0.7;" width="263.2" x="25.2" y="865.9"/><text fill="#000000" font-family="Verdana" font-size="9.8" font-weight="bold" lengthAdjust="spacing" textLength="40.827" x="136.3865" y="877.1526">domain</text></g><!--cluster model--><g class="cluster" data-entity="model" data-source-line="5" data-uid="ent0002" id="cluster_model"><rect fill="#F4F6F6" height="174.3" rx="1.75" ry="1.75" style="stroke:#000000;stroke-width:0.7;" width="229.6" x="42" y="896.7"/><text fill="#000000" font-family="Verdana" font-size="9.8" font-weight="bold" lengthAdjust="spacing" textLength="33.8071" x="139.8964" y="907.9526">model</text></g><!--cluster application--><g class="cluster" data-entity="application" data-source-line="20" data-uid="ent0006" id="cluster_application"><rect fill="#F4F6F6" height="210" rx="1.75" ry="1.75" style="stroke:#000000;stroke-width:0.7;" width="285.6" x="248.5" y="268.8"/><text fill="#000000" font-family="Verdana" font-size="9.8" font-weight="bold" lengthAdjust="spacing" textLength="60.7858" x="360.9071" y="280.0526">application</text></g><!--cluster infrastructure--><g class="cluster" data-entity="infrastructure" data-source-line="37" data-uid="ent0008" id="cluster_infrastructure"><rect fill="#F4F6F6" height="534.1" rx="1.75" ry="1.75" style="stroke:#000000;stroke-width:0.7;" width="323.4" x="305.2" y="513.1"/><text fill="#000000" font-family="Verdana" font-size="9.8" font-weight="bold" lengthAdjust="spacing" textLength="76.6104" x="428.5948" y="524.3526">infrastructure</text></g><!--cluster presentation--><g class="cluster" data-entity="presentation" data-source-line="62" data-uid="ent0013" id="cluster_presentation"><rect fill="#F4F6F6" height="195.3" rx="1.75" ry="1.75" style="stroke:#000000;stroke-width:0.7;" width="596.4" x="25.2" y="39.2"/><text fill="#000000" font-family="Verdana" font-size="9.8" font-weight="bold" lengthAdjust="spacing" textLength="70.069" x="288.3655" y="50.4526">presentation</text></g><!--cluster resident-detail--><g class="cluster" data-entity="resident-detail" data-source-line="67" data-uid="ent0015" id="cluster_resident-detail"><rect fill="#FFFFFF" height="77" rx="1.75" ry="1.75" style="stroke:#000000;stroke-width:0.7;" width="113.4" x="201.6" y="140.7"/><text fill="#000000" font-family="Verdana" font-size="9.8" font-weight="bold" lengthAdjust="spacing" textLength="81.1228" x="217.7386" y="151.9526">resident-detail</text></g><!--cluster resident-form-create--><g class="cluster" data-entity="resident-form-create" data-source-line="72" data-uid="ent0017" id="cluster_resident-form-create"><rect fill="#FFFFFF" height="77" rx="1.75" ry="1.75" style="stroke:#000000;stroke-width:0.7;" width="142.8" x="42" y="140.7"/><text fill="#000000" font-family="Verdana" font-size="9.8" font-weight="bold" lengthAdjust="spacing" textLength="115.528" x="55.636" y="151.9526">resident-form-create</text></g><!--cluster resident-form-edit--><g class="cluster" data-entity="resident-form-edit" data-source-line="77" data-uid="ent0019" id="cluster_resident-form-edit"><rect fill="#FFFFFF" height="77" rx="1.75" ry="1.75" style="stroke:#000000;stroke-width:0.7;" width="128.8" x="331.8" y="140.7"/><text fill="#000000" font-family="Verdana" font-size="9.8" font-weight="bold" lengthAdjust="spacing" textLength="102.0387" x="345.1807" y="151.9526">resident-form-edit</text></g><!--cluster resident-form-list--><g class="cluster" data-entity="resident-form-list" data-source-line="82" data-uid="ent0021" id="cluster_resident-form-list"><rect fill="#FFFFFF" height="77" rx="1.75" ry="1.75" style="stroke:#000000;stroke-width:0.7;" width="127.4" x="477.4" y="140.7"/><text fill="#000000" font-family="Verdana" font-size="9.8" font-weight="bold" lengthAdjust="spacing" textLength="97.8421" x="492.179" y="151.9526">resident-form-list</text></g><!--class Residents--><g class="entity" data-entity="Residents" data-source-line="6" data-uid="ent0003" id="entity_Residents"><rect fill="#FFFFFF" height="137.9923" rx="1.75" ry="1.75" style="stroke:#000000;stroke-width:0.7;" width="206.8213" x="53.55" y="921.9"/><ellipse cx="130.5558" cy="931.7" fill="#FFFFFF" rx="6.3" ry="6.3" style="stroke:#000000;stroke-width:0.7;"/><path d="M132.4917,932.7719 L134.1652,933.2969 Q133.7824,934.6859 132.8855,935.3641 Q131.9996,936.0422 130.6214,936.0422 Q128.9261,936.0422 127.8324,934.8828 Q126.7496,933.7234 126.7496,931.7109 Q126.7496,929.5891 127.8433,928.4187 Q128.9371,927.2375 130.7308,927.2375 Q132.2949,927.2375 133.2683,928.1562 Q133.848,928.7031 134.1433,929.7312 L132.4371,930.1359 Q132.2839,929.4687 131.8027,929.0859 Q131.3324,928.7031 130.6433,928.7031 Q129.6917,928.7031 129.1011,929.3922 Q128.5214,930.0703 128.5214,931.5906 Q128.5214,933.1984 129.1011,933.8875 Q129.6808,934.5766 130.6105,934.5766 Q131.2996,934.5766 131.7917,934.1391 Q132.2839,933.7016 132.4917,932.7719 Z " fill="#000000"/><text fill="#000000" font-family="Verdana" font-size="9.8" lengthAdjust="spacing" textLength="47.5597" x="142.8058" y="935.5975">Residents</text><line style="stroke:#000000;stroke-width:0.7;" x1="54.25" x2="259.6713" y1="941.5" y2="941.5"/><text fill="#000000" font-family="Verdana" font-size="9.8" lengthAdjust="spacing" textLength="65.4322" x="57.75" y="954.1526">-_id: number</text><text fill="#000000" font-family="Verdana" font-size="9.8" lengthAdjust="spacing" textLength="74.1795" x="57.75" y="966.0629">-_name: string</text><text fill="#000000" font-family="Verdana" font-size="9.8" lengthAdjust="spacing" textLength="91.7219" x="57.75" y="977.9731">-_lastname: string</text><text fill="#000000" font-family="Verdana" font-size="9.8" lengthAdjust="spacing" textLength="61.7189" x="57.75" y="989.8834">-_dni: string</text><text fill="#000000" font-family="Verdana" font-size="9.8" lengthAdjust="spacing" textLength="87.889" x="57.75" y="1001.7937">-_birthDate: Date</text><text fill="#000000" font-family="Verdana" font-size="9.8" lengthAdjust="spacing" textLength="74.4666" x="57.75" y="1013.7039">-_age: number</text><text fill="#000000" font-family="Verdana" font-size="9.8" lengthAdjust="spacing" textLength="133.4149" x="57.75" y="1025.6142">-_medicalInsurance: string</text><text fill="#000000" font-family="Verdana" font-size="9.8" lengthAdjust="spacing" textLength="134.1758" x="57.75" y="1037.5244">-_chronicDiseases: string[]</text><line style="stroke:#000000;stroke-width:0.7;" x1="54.25" x2="259.6713" y1="1042.382" y2="1042.382"/><text fill="#000000" font-family="Verdana" font-size="9.8" lengthAdjust="spacing" textLength="198.4213" x="57.75" y="1055.0347">-calculateAge(birthDate: Date): number</text></g><!--class ResidentStore--><g class="entity" data-entity="ResidentStore" data-source-line="21" data-uid="ent0007" id="entity_ResidentStore"><rect fill="#FFFFFF" height="173.723" rx="1.75" ry="1.75" style="stroke:#000000;stroke-width:0.7;" width="262.8459" x="260.05" y="294"/><ellipse cx="354.3565" cy="303.8" fill="#FFFFFF" rx="6.3" ry="6.3" style="stroke:#000000;stroke-width:0.7;"/><path d="M356.2925,304.8719 L357.9659,305.3969 Q357.5831,306.7859 356.6862,307.4641 Q355.8003,308.1422 354.4222,308.1422 Q352.7269,308.1422 351.6331,306.9828 Q350.5503,305.8234 350.5503,303.8109 Q350.5503,301.6891 351.644,300.5187 Q352.7378,299.3375 354.5315,299.3375 Q356.0956,299.3375 357.069,300.2562 Q357.6487,300.8031 357.944,301.8312 L356.2378,302.2359 Q356.0847,301.5687 355.6034,301.1859 Q355.1331,300.8031 354.444,300.8031 Q353.4925,300.8031 352.9019,301.4922 Q352.3222,302.1703 352.3222,303.6906 Q352.3222,305.2984 352.9019,305.9875 Q353.4815,306.6766 354.4112,306.6766 Q355.1003,306.6766 355.5925,306.2391 Q356.0847,305.8016 356.2925,304.8719 Z " fill="#000000"/><text fill="#000000" font-family="Verdana" font-size="9.8" lengthAdjust="spacing" textLength="68.9828" x="366.6065" y="307.6975">ResidentStore</text><line style="stroke:#000000;stroke-width:0.7;" x1="260.75" x2="522.1959" y1="313.6" y2="313.6"/><text fill="#000000" font-family="Verdana" font-size="9.8" lengthAdjust="spacing" textLength="191.4397" x="264.25" y="326.2526">-_residentSignal: Signal&lt;Residents[]&gt;</text><text fill="#000000" font-family="Verdana" font-size="9.8" lengthAdjust="spacing" textLength="169.3993" x="264.25" y="338.1629">-_loadingSignal: Signal&lt;boolean&gt;</text><text fill="#000000" font-family="Verdana" font-size="9.8" lengthAdjust="spacing" textLength="169.8683" x="264.25" y="350.0731">-_errorSignal: Signal&lt;string|null&gt;</text><text fill="#000000" font-family="Verdana" font-size="9.8" lengthAdjust="spacing" textLength="128.2422" x="264.25" y="361.9834">-ResidentApi: ResidentApi</text><text fill="#000000" font-family="Verdana" font-size="9.8" lengthAdjust="spacing" textLength="163.6141" x="264.25" y="373.8937">+residents: Signal&lt;Residents[]&gt;</text><text fill="#000000" font-family="Verdana" font-size="9.8" lengthAdjust="spacing" textLength="136.4679" x="264.25" y="385.8039">+loading: Signal&lt;boolean&gt;</text><text fill="#000000" font-family="Verdana" font-size="9.8" lengthAdjust="spacing" textLength="136.9368" x="264.25" y="397.7142">+error: Signal&lt;string|null&gt;</text><line style="stroke:#000000;stroke-width:0.7;" x1="260.75" x2="522.1959" y1="402.5718" y2="402.5718"/><text fill="#000000" font-family="Verdana" font-size="9.8" lengthAdjust="spacing" textLength="254.4459" x="264.25" y="415.2244">+getResidentById(id: number): Signal&lt;Residents&gt;</text><text fill="#000000" font-family="Verdana" font-size="9.8" lengthAdjust="spacing" textLength="172.7489" x="264.25" y="427.1347">+addResident(resident: Residents)</text><text fill="#000000" font-family="Verdana" font-size="9.8" lengthAdjust="spacing" textLength="188.65" x="264.25" y="439.0449">+updateResident(resident: Residents)</text><text fill="#000000" font-family="Verdana" font-size="9.8" lengthAdjust="spacing" textLength="144.2964" x="264.25" y="450.9552">+deleteResident(id: number)</text><text fill="#000000" font-family="Verdana" font-size="9.8" lengthAdjust="spacing" textLength="85.1088" x="264.25" y="462.8654">+loadResidents()</text></g><!--class ResidentApi--><g class="entity" data-entity="ResidentApi" data-source-line="38" data-uid="ent0009" id="entity_ResidentApi"><rect fill="#FFFFFF" height="90.3513" rx="1.75" ry="1.75" style="stroke:#000000;stroke-width:0.7;" width="288.1689" x="319.2" y="538.3"/><ellipse cx="431.6854" cy="548.1" fill="#FFFFFF" rx="6.3" ry="6.3" style="stroke:#000000;stroke-width:0.7;"/><path d="M433.6213,549.1719 L435.2947,549.6969 Q434.9119,551.0859 434.015,551.7641 Q433.1291,552.4422 431.751,552.4422 Q430.0557,552.4422 428.9619,551.2828 Q427.8791,550.1234 427.8791,548.1109 Q427.8791,545.9891 428.9729,544.8187 Q430.0666,543.6375 431.8604,543.6375 Q433.4244,543.6375 434.3979,544.5562 Q434.9775,545.1031 435.2729,546.1312 L433.5666,546.5359 Q433.4135,545.8687 432.9322,545.4859 Q432.4619,545.1031 431.7729,545.1031 Q430.8213,545.1031 430.2307,545.7922 Q429.651,546.4703 429.651,547.9906 Q429.651,549.5984 430.2307,550.2875 Q430.8104,550.9766 431.74,550.9766 Q432.4291,550.9766 432.9213,550.5391 Q433.4135,550.1016 433.6213,549.1719 Z " fill="#000000"/><text fill="#000000" font-family="Verdana" font-size="9.8" lengthAdjust="spacing" textLength="57.9482" x="443.9354" y="551.9975">ResidentApi</text><line style="stroke:#000000;stroke-width:0.7;" x1="319.9" x2="606.6689" y1="557.9" y2="557.9"/><text fill="#000000" font-family="Verdana" font-size="9.8" lengthAdjust="spacing" textLength="223.3711" x="323.4" y="570.5526">-_residentsApiEndPoint: ResidentApiEndpoint</text><line style="stroke:#000000;stroke-width:0.7;" x1="319.9" x2="606.6689" y1="575.4103" y2="575.4103"/><text fill="#000000" font-family="Verdana" font-size="9.8" lengthAdjust="spacing" textLength="276.4815" x="323.4" y="588.0629">+createResident(r: Residents): Observable&lt;Residents&gt;</text><text fill="#000000" font-family="Verdana" font-size="9.8" lengthAdjust="spacing" textLength="279.7689" x="323.4" y="599.9731">+updateResident(r: Residents): Observable&lt;Residents&gt;</text><text fill="#000000" font-family="Verdana" font-size="9.8" lengthAdjust="spacing" textLength="244.0382" x="323.4" y="611.8834">+deleteResident(id: number): Observable&lt;void&gt;</text><text fill="#000000" font-family="Verdana" font-size="9.8" lengthAdjust="spacing" textLength="215.9445" x="323.4" y="623.7937">+getResidents(): Observable&lt;Residents[]&gt;</text></g><!--class ResidentApiEndpoint--><g class="entity" data-entity="ResidentApiEndpoint" data-source-line="45" data-uid="ent0010" id="entity_ResidentApiEndpoint"><rect fill="#FFFFFF" height="30.8" rx="1.75" ry="1.75" style="stroke:#000000;stroke-width:0.7;" width="120.8587" x="404.95" y="682.5"/><ellipse cx="414.05" cy="692.3" fill="#FFFFFF" rx="6.3" ry="6.3" style="stroke:#000000;stroke-width:0.7;"/><path d="M415.9859,693.3719 L417.6594,693.8969 Q417.2766,695.2859 416.3797,695.9641 Q415.4937,696.6422 414.1156,696.6422 Q412.4203,696.6422 411.3266,695.4828 Q410.2437,694.3234 410.2437,692.3109 Q410.2437,690.1891 411.3375,689.0187 Q412.4312,687.8375 414.225,687.8375 Q415.7891,687.8375 416.7625,688.7562 Q417.3422,689.3031 417.6375,690.3312 L415.9312,690.7359 Q415.7781,690.0687 415.2969,689.6859 Q414.8266,689.3031 414.1375,689.3031 Q413.1859,689.3031 412.5953,689.9922 Q412.0156,690.6703 412.0156,692.1906 Q412.0156,693.7984 412.5953,694.4875 Q413.175,695.1766 414.1047,695.1766 Q414.7937,695.1766 415.2859,694.7391 Q415.7781,694.3016 415.9859,693.3719 Z " fill="#000000"/><text fill="#000000" font-family="Verdana" font-size="9.8" lengthAdjust="spacing" textLength="101.2587" x="422.45" y="696.1975">ResidentApiEndpoint</text><line style="stroke:#000000;stroke-width:0.7;" x1="405.65" x2="525.1087" y1="702.1" y2="702.1"/><line style="stroke:#000000;stroke-width:0.7;" x1="405.65" x2="525.1087" y1="707.7" y2="707.7"/></g><!--class ResidentAssembler--><g class="entity" data-entity="ResidentAssembler" data-source-line="48" data-uid="ent0011" id="entity_ResidentAssembler"><rect fill="#FFFFFF" height="54.6205" rx="1.75" ry="1.75" style="stroke:#000000;stroke-width:0.7;" width="300.8065" x="316.4" y="767.2"/><ellipse cx="417.4034" cy="777" fill="#FFFFFF" rx="6.3" ry="6.3" style="stroke:#000000;stroke-width:0.7;"/><path d="M419.3393,778.0719 L421.0127,778.5969 Q420.6299,779.9859 419.7331,780.6641 Q418.8471,781.3422 417.469,781.3422 Q415.7737,781.3422 414.6799,780.1828 Q413.5971,779.0234 413.5971,777.0109 Q413.5971,774.8891 414.6909,773.7187 Q415.7846,772.5375 417.5784,772.5375 Q419.1424,772.5375 420.1159,773.4562 Q420.6956,774.0031 420.9909,775.0312 L419.2846,775.4359 Q419.1315,774.7687 418.6502,774.3859 Q418.1799,774.0031 417.4909,774.0031 Q416.5393,774.0031 415.9487,774.6922 Q415.369,775.3703 415.369,776.8906 Q415.369,778.4984 415.9487,779.1875 Q416.5284,779.8766 417.4581,779.8766 Q418.1471,779.8766 418.6393,779.4391 Q419.1315,779.0016 419.3393,778.0719 Z " fill="#000000"/><text fill="#000000" font-family="Verdana" font-size="9.8" lengthAdjust="spacing" textLength="93.5498" x="429.6534" y="780.8975">ResidentAssembler</text><line style="stroke:#000000;stroke-width:0.7;" x1="317.1" x2="616.5065" y1="786.8" y2="786.8"/><line style="stroke:#000000;stroke-width:0.7;" x1="317.1" x2="616.5065" y1="792.4" y2="792.4"/><text fill="#000000" font-family="Verdana" font-size="9.8" lengthAdjust="spacing" textLength="291.6313" x="320.6" y="805.0526">+toEntityFromResource(res: ResidentResource): Residents</text><text fill="#000000" font-family="Verdana" font-size="9.8" lengthAdjust="spacing" textLength="292.4065" x="320.6" y="816.9629">+toResourceFromEntity(ent: Residents): ResidentResource</text></g><!--class ResidentResource--><g class="entity" data-entity="ResidentResource" data-source-line="52" data-uid="ent0012" id="entity_ResidentResource"><rect fill="#FFFFFF" height="90.3513" rx="1.75" ry="1.75" style="stroke:#000000;stroke-width:0.7;" width="107.087" x="413.35" y="945.7"/><ellipse cx="422.45" cy="955.5" fill="#FFFFFF" rx="6.3" ry="6.3" style="stroke:#000000;stroke-width:0.7;"/><path d="M421.8594,959.7 L421.8594,951.1797 L423.5875,951.1797 L423.5875,959.7 L421.8594,959.7 Z " fill="#000000"/><text fill="#000000" font-family="Verdana" font-size="9.8" font-style="italic" lengthAdjust="spacing" textLength="87.487" x="430.85" y="959.3975">ResidentResource</text><line style="stroke:#000000;stroke-width:0.7;" x1="414.05" x2="519.737" y1="965.3" y2="965.3"/><text fill="#000000" font-family="Verdana" font-size="9.8" lengthAdjust="spacing" textLength="54.7518" x="417.55" y="977.9526">id: number</text><text fill="#000000" font-family="Verdana" font-size="9.8" lengthAdjust="spacing" textLength="63.499" x="417.55" y="989.8629">name: string</text><text fill="#000000" font-family="Verdana" font-size="9.8" lengthAdjust="spacing" textLength="81.0414" x="417.55" y="1001.7731">lastname: string</text><text fill="#000000" font-family="Verdana" font-size="9.8" lengthAdjust="spacing" textLength="51.0385" x="417.55" y="1013.6834">dni: string</text><text fill="#000000" font-family="Verdana" font-size="9.8" lengthAdjust="spacing" textLength="82.2186" x="417.55" y="1025.5937">birthDate: string</text><line style="stroke:#000000;stroke-width:0.7;" x1="414.05" x2="519.737" y1="1030.4513" y2="1030.4513"/></g><g class="entity" data-entity="ResidentRouter" data-source-line="63" data-uid="ent0014" id="entity_ResidentRouter"><rect fill="#FFFFFF" height="32.2205" rx="1.75" ry="1.75" style="stroke:#000000;stroke-width:0.7;" width="85.0992" x="284.2" y="64.4"/><text fill="#000000" font-family="Verdana" font-size="9.8" lengthAdjust="spacing" textLength="75.2992" x="289.1" y="75.6526">ResidentRouter</text><line style="stroke:#000000;stroke-width:0.7;" x1="284.9" x2="368.5992" y1="79.1103" y2="79.1103"/><text fill="#000000" font-family="Verdana" font-size="9.8" lengthAdjust="spacing" textLength="72.8014" x="288.4" y="91.7629">routes: Routes</text></g><!--class ResidentDetail--><g class="entity" data-entity="ResidentDetail" data-source-line="68" data-uid="ent0016" id="entity_ResidentDetail"><rect fill="#FFFFFF" height="40.319" rx="1.75" ry="1.75" style="stroke:#000000;stroke-width:0.7;" width="90.5687" x="213.15" y="165.9"/><ellipse cx="222.25" cy="180.4595" fill="#FFFFFF" rx="6.3" ry="6.3" style="stroke:#000000;stroke-width:0.7;"/><path d="M224.1859,181.5314 L225.8594,182.0564 Q225.4766,183.4455 224.5797,184.1236 Q223.6937,184.8017 222.3156,184.8017 Q220.6203,184.8017 219.5266,183.6423 Q218.4437,182.483 218.4437,180.4705 Q218.4437,178.3486 219.5375,177.1783 Q220.6312,175.997 222.425,175.997 Q223.9891,175.997 224.9625,176.9158 Q225.5422,177.4626 225.8375,178.4908 L224.1312,178.8955 Q223.9781,178.2283 223.4969,177.8455 Q223.0266,177.4626 222.3375,177.4626 Q221.3859,177.4626 220.7953,178.1517 Q220.2156,178.8298 220.2156,180.3501 Q220.2156,181.958 220.7953,182.647 Q221.375,183.3361 222.3047,183.3361 Q222.9937,183.3361 223.4859,182.8986 Q223.9781,182.4611 224.1859,181.5314 Z " fill="#000000"/><text fill="#000000" font-family="Verdana" font-size="8.4" font-style="italic" lengthAdjust="spacing" textLength="57.7541" x="237.2573" y="177.8451">&#171;component&#187;</text><text fill="#000000" font-family="Verdana" font-size="9.8" lengthAdjust="spacing" textLength="70.9687" x="230.65" y="189.4614">ResidentDetail</text><line style="stroke:#000000;stroke-width:0.7;" x1="213.85" x2="303.0187" y1="195.019" y2="195.019"/><line style="stroke:#000000;stroke-width:0.7;" x1="213.85" x2="303.0187" y1="200.619" y2="200.619"/></g><!--class ResidentFormCreate--><g class="entity" data-entity="ResidentFormCreate" data-source-line="73" data-uid="ent0018" id="entity_ResidentFormCreate"><rect fill="#FFFFFF" height="40.319" rx="1.75" ry="1.75" style="stroke:#000000;stroke-width:0.7;" width="119.7964" x="53.55" y="165.9"/><ellipse cx="62.65" cy="180.4595" fill="#FFFFFF" rx="6.3" ry="6.3" style="stroke:#000000;stroke-width:0.7;"/><path d="M64.5859,181.5314 L66.2594,182.0564 Q65.8766,183.4455 64.9797,184.1236 Q64.0937,184.8017 62.7156,184.8017 Q61.0203,184.8017 59.9266,183.6423 Q58.8437,182.483 58.8437,180.4705 Q58.8437,178.3486 59.9375,177.1783 Q61.0312,175.997 62.825,175.997 Q64.3891,175.997 65.3625,176.9158 Q65.9422,177.4626 66.2375,178.4908 L64.5312,178.8955 Q64.3781,178.2283 63.8969,177.8455 Q63.4266,177.4626 62.7375,177.4626 Q61.7859,177.4626 61.1953,178.1517 Q60.6156,178.8298 60.6156,180.3501 Q60.6156,181.958 61.1953,182.647 Q61.775,183.3361 62.7047,183.3361 Q63.3937,183.3361 63.8859,182.8986 Q64.3781,182.4611 64.5859,181.5314 Z " fill="#000000"/><text fill="#000000" font-family="Verdana" font-size="8.4" font-style="italic" lengthAdjust="spacing" textLength="57.7541" x="92.2711" y="177.8451">&#171;component&#187;</text><text fill="#000000" font-family="Verdana" font-size="9.8" lengthAdjust="spacing" textLength="100.1964" x="71.05" y="189.4614">ResidentFormCreate</text><line style="stroke:#000000;stroke-width:0.7;" x1="54.25" x2="172.6464" y1="195.019" y2="195.019"/><line style="stroke:#000000;stroke-width:0.7;" x1="54.25" x2="172.6464" y1="200.619" y2="200.619"/></g><!--class ResidentFormEdit--><g class="entity" data-entity="ResidentFormEdit" data-source-line="78" data-uid="ent0020" id="entity_ResidentFormEdit"><rect fill="#FFFFFF" height="40.319" rx="1.75" ry="1.75" style="stroke:#000000;stroke-width:0.7;" width="106.2018" x="343" y="165.9"/><ellipse cx="352.1" cy="180.4595" fill="#FFFFFF" rx="6.3" ry="6.3" style="stroke:#000000;stroke-width:0.7;"/><path d="M354.0359,181.5314 L355.7094,182.0564 Q355.3266,183.4455 354.4297,184.1236 Q353.5437,184.8017 352.1656,184.8017 Q350.4703,184.8017 349.3766,183.6423 Q348.2937,182.483 348.2937,180.4705 Q348.2937,178.3486 349.3875,177.1783 Q350.4812,175.997 352.275,175.997 Q353.8391,175.997 354.8125,176.9158 Q355.3922,177.4626 355.6875,178.4908 L353.9812,178.8955 Q353.8281,178.2283 353.3469,177.8455 Q352.8766,177.4626 352.1875,177.4626 Q351.2359,177.4626 350.6453,178.1517 Q350.0656,178.8298 350.0656,180.3501 Q350.0656,181.958 350.6453,182.647 Q351.225,183.3361 352.1547,183.3361 Q352.8437,183.3361 353.3359,182.8986 Q353.8281,182.4611 354.0359,181.5314 Z " fill="#000000"/><text fill="#000000" font-family="Verdana" font-size="8.4" font-style="italic" lengthAdjust="spacing" textLength="57.7541" x="374.9238" y="177.8451">&#171;component&#187;</text><text fill="#000000" font-family="Verdana" font-size="9.8" lengthAdjust="spacing" textLength="86.6018" x="360.5" y="189.4614">ResidentFormEdit</text><line style="stroke:#000000;stroke-width:0.7;" x1="343.7" x2="448.5018" y1="195.019" y2="195.019"/><line style="stroke:#000000;stroke-width:0.7;" x1="343.7" x2="448.5018" y1="200.619" y2="200.619"/></g><!--class ResidentFormList--><g class="entity" data-entity="ResidentFormList" data-source-line="83" data-uid="ent0022" id="entity_ResidentFormList"><rect fill="#FFFFFF" height="40.319" rx="1.75" ry="1.75" style="stroke:#000000;stroke-width:0.7;" width="104.46" x="488.95" y="165.9"/><ellipse cx="498.05" cy="180.4595" fill="#FFFFFF" rx="6.3" ry="6.3" style="stroke:#000000;stroke-width:0.7;"/><path d="M499.9859,181.5314 L501.6594,182.0564 Q501.2766,183.4455 500.3797,184.1236 Q499.4937,184.8017 498.1156,184.8017 Q496.4203,184.8017 495.3266,183.6423 Q494.2437,182.483 494.2437,180.4705 Q494.2437,178.3486 495.3375,177.1783 Q496.4312,175.997 498.225,175.997 Q499.7891,175.997 500.7625,176.9158 Q501.3422,177.4626 501.6375,178.4908 L499.9312,178.8955 Q499.7781,178.2283 499.2969,177.8455 Q498.8266,177.4626 498.1375,177.4626 Q497.1859,177.4626 496.5953,178.1517 Q496.0156,178.8298 496.0156,180.3501 Q496.0156,181.958 496.5953,182.647 Q497.175,183.3361 498.1047,183.3361 Q498.7937,183.3361 499.2859,182.8986 Q499.7781,182.4611 499.9859,181.5314 Z " fill="#000000"/><text fill="#000000" font-family="Verdana" font-size="8.4" font-style="italic" lengthAdjust="spacing" textLength="57.7541" x="520.0029" y="177.8451">&#171;component&#187;</text><text fill="#000000" font-family="Verdana" font-size="9.8" lengthAdjust="spacing" textLength="84.86" x="506.45" y="189.4614">ResidentFormList</text><line style="stroke:#000000;stroke-width:0.7;" x1="489.65" x2="592.71" y1="195.019" y2="195.019"/><line style="stroke:#000000;stroke-width:0.7;" x1="489.65" x2="592.71" y1="200.619" y2="200.619"/></g><!--link ResidentFormCreate to ResidentStore--><g class="link" data-entity-1="ResidentFormCreate" data-entity-2="ResidentStore" data-source-line="92" data-uid="lnk23" id="link_ResidentFormCreate_ResidentStore"><path codeLine="92" d="M141.834,206.668 C171.647,227.395 217.1078,258.9962 263.7558,291.4342" fill="none" id="ResidentFormCreate-to-ResidentStore" style="stroke:#000000;stroke-width:0.7;"/><polygon fill="#000000" points="267.204,293.832,263.6302,287.9364,264.3305,291.8338,260.4331,292.5341,267.204,293.832" style="stroke:#000000;stroke-width:0.7;"/><text fill="#000000" font-family="Verdana" font-size="9.1" lengthAdjust="spacing" textLength="20.6616" x="211.4" y="255.5489">uses</text></g><!--link ResidentFormEdit to ResidentStore--><g class="link" data-entity-1="ResidentFormEdit" data-entity-2="ResidentStore" data-source-line="93" data-uid="lnk24" id="link_ResidentFormEdit_ResidentStore"><path codeLine="93" d="M395.696,206.668 C395.171,227.395 394.416,257.1953 393.597,289.6333" fill="none" id="ResidentFormEdit-to-ResidentStore" style="stroke:#000000;stroke-width:0.7;"/><polygon fill="#000000" points="393.491,293.832,396.4491,287.6047,393.5793,290.3331,390.8509,287.4633,393.491,293.832" style="stroke:#000000;stroke-width:0.7;"/><text fill="#000000" font-family="Verdana" font-size="9.1" lengthAdjust="spacing" textLength="20.6616" x="394.8" y="255.5489">uses</text></g><!--link ResidentFormList to ResidentStore--><g class="link" data-entity-1="ResidentFormList" data-entity-2="ResidentStore" data-source-line="94" data-uid="lnk25" id="link_ResidentFormList_ResidentStore"><path codeLine="94" d="M525.77,206.668 C509.705,227.395 485.9091,258.0745 460.7651,290.5125" fill="none" id="ResidentFormList-to-ResidentStore" style="stroke:#000000;stroke-width:0.7;"/><polygon fill="#000000" points="458.192,293.832,464.2646,290.5681,460.3362,291.0657,459.8386,287.1373,458.192,293.832" style="stroke:#000000;stroke-width:0.7;"/><text fill="#000000" font-family="Verdana" font-size="9.1" lengthAdjust="spacing" textLength="20.6616" x="492.8" y="255.5489">uses</text></g><!--link ResidentDetail to ResidentStore--><g class="link" data-entity-1="ResidentDetail" data-entity-2="ResidentStore" data-source-line="95" data-uid="lnk26" id="link_ResidentDetail_ResidentStore"><path codeLine="95" d="M271.908,206.668 C286.174,227.395 307.2005,257.9345 329.5305,290.3725" fill="none" id="ResidentDetail-to-ResidentStore" style="stroke:#000000;stroke-width:0.7;"/><polygon fill="#000000" points="331.912,293.832,330.6461,287.055,329.9274,290.9491,326.0334,290.2304,331.912,293.832" style="stroke:#000000;stroke-width:0.7;"/><text fill="#000000" font-family="Verdana" font-size="9.1" lengthAdjust="spacing" textLength="20.6616" x="305.2" y="255.5489">uses</text></g><!--link ResidentFormCreate to Residents--><g class="link" data-entity-1="ResidentFormCreate" data-entity-2="Residents" data-source-line="96" data-uid="lnk27" id="link_ResidentFormCreate_Residents"><path codeLine="96" d="M113.281,206.647 C113.085,241.612 112.7,316.708 112.7,380.1 C112.7,380.1 112.7,380.1 112.7,795.2 C112.7,837.97 121.763,880.7065 132.368,917.7155" fill="none" id="ResidentFormCreate-to-Residents" style="stroke:#000000;stroke-width:0.7;"/><polygon fill="#000000" points="133.525,921.753,134.4812,914.9254,132.5609,918.3884,129.0979,916.468,133.525,921.753" style="stroke:#000000;stroke-width:0.7;"/><text fill="#000000" font-family="Verdana" font-size="9.1" lengthAdjust="spacing" textLength="33.2585" x="113.4" y="659.4489">creates</text></g><!--link ResidentFormEdit to Residents--><g class="link" data-entity-1="ResidentFormEdit" data-entity-2="Residents" data-source-line="97" data-uid="lnk28" id="link_ResidentFormEdit_Residents"><path codeLine="97" d="M369.754,206.612 C354.34,217.483 334.208,230.65 315,240.1 C286.923,253.911 269.01,239.568 248.5,263.2 C163.919,360.647 155.7989,755.986 156.0719,917.616" fill="none" id="ResidentFormEdit-to-Residents" style="stroke:#000000;stroke-width:0.7;"/><polygon fill="#000000" points="156.079,921.816,158.8684,915.5113,156.0731,918.316,153.2684,915.5207,156.079,921.816" style="stroke:#000000;stroke-width:0.7;"/><text fill="#000000" font-family="Verdana" font-size="9.1" lengthAdjust="spacing" textLength="33.2585" x="163.8" y="659.4489">creates</text></g><!--link ResidentRouter to ResidentFormCreate--><g class="link" data-entity-1="ResidentRouter" data-entity-2="ResidentFormCreate" data-source-line="101" data-uid="lnk29" id="link_ResidentRouter_ResidentFormCreate"><path codeLine="101" d="M288.001,96.607 C262.997,106.834 229.999,120.939 201.6,135.1 C182.742,144.508 165.8855,153.9817 149.4215,163.6837" fill="none" id="ResidentRouter-to-ResidentFormCreate" style="stroke:#000000;stroke-width:0.7;stroke-dasharray:4.9,4.9;"/><polygon fill="#000000" points="145.803,165.816,152.6522,165.0298,148.8184,164.0391,149.8092,160.2052,145.803,165.816" style="stroke:#000000;stroke-width:0.7;"/><text fill="#000000" font-family="Verdana" font-size="9.1" lengthAdjust="spacing" textLength="45.2245" x="235.9" y="127.4489">lazy loads</text></g><!--link ResidentRouter to ResidentFormList--><g class="link" data-entity-1="ResidentRouter" data-entity-2="ResidentFormList" data-source-line="102" data-uid="lnk30" id="link_ResidentRouter_ResidentFormList"><path codeLine="102" d="M369.901,96.327 C396.536,106.239 431.165,120.099 460.6,135.1 C478.373,144.158 493.8259,153.6047 508.8689,163.4887" fill="none" id="ResidentRouter-to-ResidentFormList" style="stroke:#000000;stroke-width:0.7;stroke-dasharray:4.9,4.9;"/><polygon fill="#000000" points="512.379,165.795,508.6514,159.9954,509.4539,163.8731,505.5763,164.6756,512.379,165.795" style="stroke:#000000;stroke-width:0.7;"/><text fill="#000000" font-family="Verdana" font-size="9.1" lengthAdjust="spacing" textLength="45.2245" x="446.6" y="127.4489">lazy loads</text></g><!--link ResidentRouter to ResidentFormEdit--><g class="link" data-entity-1="ResidentRouter" data-entity-2="ResidentFormEdit" data-source-line="103" data-uid="lnk31" id="link_ResidentRouter_ResidentFormEdit"><path codeLine="103" d="M338.163,96.67 C342.776,103.096 348.117,110.656 352.8,117.6 C363.601,133.602 373.1361,148.5241 381.6901,162.1601" fill="none" id="ResidentRouter-to-ResidentFormEdit" style="stroke:#000000;stroke-width:0.7;stroke-dasharray:4.9,4.9;"/><polygon fill="#000000" points="383.922,165.718,382.9461,158.8932,382.0621,162.7531,378.2022,161.8691,383.922,165.718" style="stroke:#000000;stroke-width:0.7;"/><text fill="#000000" font-family="Verdana" font-size="9.1" lengthAdjust="spacing" textLength="45.2245" x="360.5" y="127.4489">lazy loads</text></g><!--link ResidentRouter to ResidentDetail--><g class="link" data-entity-1="ResidentRouter" data-entity-2="ResidentDetail" data-source-line="104" data-uid="lnk32" id="link_ResidentRouter_ResidentDetail"><path codeLine="104" d="M316.631,96.817 C304.521,115.227 286.6823,142.3425 273.5293,162.3485" fill="none" id="ResidentRouter-to-ResidentDetail" style="stroke:#000000;stroke-width:0.7;stroke-dasharray:4.9,4.9;"/><polygon fill="#000000" points="271.222,165.858,277.0226,162.132,273.1448,162.9334,272.3433,159.0556,271.222,165.858" style="stroke:#000000;stroke-width:0.7;"/><text fill="#000000" font-family="Verdana" font-size="9.1" lengthAdjust="spacing" textLength="45.2245" x="303.1" y="127.4489">lazy loads</text></g><!--link ResidentStore to ResidentApi--><g class="link" data-entity-1="ResidentStore" data-entity-2="ResidentApi" data-source-line="108" data-uid="lnk33" id="link_ResidentStore_ResidentApi"><path codeLine="108" d="M422.191,467.726 C430.906,492.051 438.6097,513.5634 446.0577,534.3394" fill="none" id="ResidentStore-to-ResidentApi" style="stroke:#000000;stroke-width:0.7;"/><polygon fill="#000000" points="447.475,538.293,447.9847,531.4177,446.2939,534.9983,442.7132,533.3075,447.475,538.293" style="stroke:#000000;stroke-width:0.7;"/><text fill="#000000" font-family="Verdana" font-size="9.1" lengthAdjust="spacing" textLength="20.6616" x="434" y="499.8489">uses</text></g><!--link ResidentStore to Residents--><g class="link" data-entity-1="ResidentStore" data-entity-2="Residents" data-source-line="109" data-uid="lnk34" id="link_ResidentStore_Residents"><path codeLine="109" d="M268.779,467.621 C237.986,499.324 213.5,538.461 213.5,582.75 C213.5,582.75 213.5,582.75 213.5,795.2 C213.5,838.467 201.9199,881.1257 188.3469,917.9107" fill="none" id="ResidentStore-to-Residents" style="stroke:#000000;stroke-width:0.7;stroke-dasharray:4.9,4.9;"/><polygon fill="#000000" points="186.893,921.851,191.7007,916.9098,188.1046,918.5674,186.447,914.9712,186.893,921.851" style="stroke:#000000;stroke-width:0.7;"/><text fill="#000000" font-family="Verdana" font-size="9.1" lengthAdjust="spacing" textLength="79.2917" x="214.2" y="701.7989">manages state of</text></g><!--link ResidentApi to ResidentApiEndpoint--><g class="link" data-entity-1="ResidentApi" data-entity-2="ResidentApiEndpoint" data-source-line="113" data-uid="lnk35" id="link_ResidentApi_ResidentApiEndpoint"><path codeLine="113" d="M464.233,628.831 C464.583,647.836 464.8882,664.5178 465.1472,678.1398" fill="none" id="ResidentApi-to-ResidentApiEndpoint" style="stroke:#000000;stroke-width:0.7;"/><polygon fill="#000000" points="465.227,682.339,467.9067,675.9869,465.1605,678.8396,462.3077,676.0934,465.227,682.339" style="stroke:#000000;stroke-width:0.7;"/><text fill="#000000" font-family="Verdana" font-size="9.1" lengthAdjust="spacing" textLength="56.1996" x="465.5" y="659.4489">delegates to</text></g><!--link ResidentApiEndpoint to ResidentAssembler--><g class="link" data-entity-1="ResidentApiEndpoint" data-entity-2="ResidentAssembler" data-source-line="114" data-uid="lnk36" id="link_ResidentApiEndpoint_ResidentAssembler"><path codeLine="114" d="M465.717,713.475 C465.927,727.804 466.195,745.5984 466.447,762.9584" fill="none" id="ResidentApiEndpoint-to-ResidentAssembler" style="stroke:#000000;stroke-width:0.7;stroke-dasharray:4.9,4.9;"/><polygon fill="#000000" points="466.508,767.158,469.2163,760.818,466.4572,763.6584,463.6169,760.8993,466.508,767.158" style="stroke:#000000;stroke-width:0.7;"/><text fill="#000000" font-family="Verdana" font-size="9.1" lengthAdjust="spacing" textLength="20.6616" x="466.9" y="744.1489">uses</text></g><!--link ResidentAssembler to Residents--><g class="link" data-entity-1="ResidentAssembler" data-entity-2="Residents" data-source-line="117" data-uid="lnk37" id="link_ResidentAssembler_Residents"><path codeLine="117" d="M385.581,821.807 C359.037,832.069 330.022,845.054 305.2,860.3 C277.053,877.59 252.1536,897.4881 228.1786,919.0691" fill="none" id="ResidentAssembler-to-Residents" style="stroke:#000000;stroke-width:0.7;"/><polygon fill="#000000" points="225.057,921.879,231.6127,919.7452,227.6583,919.5374,227.8661,915.5831,225.057,921.879" style="stroke:#000000;stroke-width:0.7;"/><text fill="#000000" font-family="Verdana" font-size="9.1" lengthAdjust="spacing" textLength="33.2585" x="334.6" y="852.6489">creates</text></g><!--link ResidentAssembler to ResidentResource--><g class="link" data-entity-1="ResidentAssembler" data-entity-2="ResidentResource" data-source-line="118" data-uid="lnk38" id="link_ResidentAssembler_ResidentResource"><path codeLine="118" d="M466.9,821.898 C466.9,853.755 466.9,903.301 466.9,941.465" fill="none" id="ResidentAssembler-to-ResidentResource" style="stroke:#000000;stroke-width:0.7;stroke-dasharray:4.9,4.9;"/><polygon fill="#000000" points="466.9,945.665,469.7,939.365,466.9,942.165,464.1,939.365,466.9,945.665" style="stroke:#000000;stroke-width:0.7;"/><text fill="#000000" font-family="Verdana" font-size="9.1" lengthAdjust="spacing" textLength="49.6323" x="467.6" y="852.6489">transforms</text></g><!--SRC=[dLPDRzim3BtxLt0Pi2O84kmmx10K0TAF004wh5YFHJ4eDfDejIL3aZkaM_xxADko5N-aMIznJ3sIZq-Kw0zcXmb26ZCk0ltCHSeKIo2CcTOBOnHVPmPNeHGF_1NXimT9MVZCjlXWzZ62mj0miOqn24ex31Hg7g4mqqWc57sQo0ZZ0NnSVbb-NNw5Fm4KQU172TIv3M02Ftaq0v4bQrJE8bY2Cz34I6oTZRnDbpqIl6bQSsLsDymGrluwCn5j9aemuY6BLq9dYecm5JpSAIbuUCCrCetQBJy-vO0Bc4wda32n1qdIAaYLJ54PZheCGB73B2OEYoqE6xH67fb3SEWIawLfJFmCb-AKbWz6AgprTEuFV2jOF8FYULaf__WqhqILBA9w6iYrb34oKQ5GAQaQc4A8loABOuTp2HOfxOZtaY-FmT7I_Op6K1BgfZA6d4a_Xp5iqRYeL_jLDAnxQzHEwvnO53dRqB6iAz2Z4fQb4MtREKZgVVIG7WclpCfhEEhl02usYXfVPQ7959vg0XAwtGAQhBSYkfVSvraOKsii-OGAZqhpQvh1zxL6zSBMCRQrQufolcU_I4T-Bv977RjBgdM7BthfqAMFAxhKwGA-eTd9I0CNT7gvmGWsIYR0u8fEErnR_-vOMcD2MLKPQGn6tWh3pNv9_eIIcGhHTaWjXxEEF8KgPxTetOj0mqPdjGELpAWUL1iMOWjGacjShwqxjFDYRTwgtjtbMKzVW3qjdT8_UdRSQdBzYqPBNOUaSUGaLlR5ofa_y-Zqque-YT0mJfEdy6hisqs-29UNeKnIASWodpjaNivznHy-GL9snqOgUE7ucwgcrd2P2gz3kGjj8kILJ8fprSDcIOZh7F0UHgHtSMn9Hcj8pY94yywSe7DBo-ybOqDRYTfS-iZ4N9yYSqVBxo5ZmreYwkYObMoeRIvWCh7JAiwrqpkUQckn2_TURy8TsrFx3QzTVWqPtGgsL6q7xYZesCZ9PDuOopCOa9iU12sTpyJcCfo1BPlxpAWTVBL55Xtx5jrZg5NEdajxBJGExtGwx-ftyexPwpwVWrwk7gTSWVzpoHcVxr9grt2mTItgJx2Y8O9ZSNrLx0XkYLt0_6IvU7HfqedGr4fM3xafigsEndqZeGtVI5TDD8fev-dMRWZDaq7G1V99r2EiOcohTLOTj85lzqgDzLDLyuXS37rcQtluoUiV]--></g></svg>